<svg width="136" height="285" viewBox="0 0 136 285" fill="none" xmlns="http://www.w3.org/2000/svg">
<path d="M0 206.73V12.88C0 3.59005 5.65 -0.679951 12.62 3.34005L120.66 66.09C127.63 70.11 133.28 80.91 133.28 90.2001V284.05L0 206.73Z" fill="url(#paint0_linear_335_8275)"/>
<path d="M135.21 283.06V89.21C135.21 79.92 129.56 69.12 122.59 65.1L14.55 2.35005C11.79 0.760048 9.24002 0.460047 7.17002 1.27005C6.91002 1.37005 5.03002 2.34005 4.78002 2.47005H4.77002C6.92002 1.43005 9.65002 1.63005 12.62 3.35005L120.66 66.1C127.63 70.12 133.28 80.92 133.28 90.21V284.06L135.21 283.07V283.06Z" fill="url(#paint1_linear_335_8275)"/>
<path d="M135.21 104.38V89.21C135.21 79.92 129.56 69.12 122.59 65.1L14.55 2.35005C11.79 0.760048 9.24002 0.460047 7.17002 1.27005C6.91002 1.37005 5.03002 2.34005 4.78002 2.47005H4.77002C6.92002 1.43005 9.65002 1.63005 12.62 3.35005L120.66 66.1C127.63 70.12 133.28 80.92 133.28 90.21V105.38L135.21 104.39V104.38Z" fill="url(#paint2_linear_335_8275)"/>
<path d="M120.66 66.09L12.62 3.34005C5.65 -0.679951 0 3.59005 0 12.88V27.76L133.28 105.08V90.2001C133.28 80.91 127.63 70.11 120.66 66.09Z" fill="url(#paint3_linear_335_8275)"/>
<path style="mix-blend-mode:color-dodge" d="M121.5 65.53L13.46 2.78005C9.84004 0.690046 6.59004 0.850046 4.29004 2.78005C6.46004 1.70005 9.21004 1.89005 12.21 3.62005L120.25 66.37C127.22 70.39 132.87 81.19 132.87 90.48V283.53L134.13 272.89V89.64C134.13 80.35 128.48 69.55 121.51 65.53H121.5Z" fill="url(#paint4_radial_335_8275)"/>
<path d="M58.7902 46.37C58.7902 49.81 56.3602 51.19 53.3702 49.46C50.3702 47.73 47.9502 43.54 47.9502 40.1C47.9502 36.66 50.3802 35.28 53.3702 37.01C56.3602 38.74 58.7902 42.93 58.7902 46.37Z" fill="url(#paint5_linear_335_8275)"/>
<path d="M41.6901 36.8301C41.6901 40.2701 39.2601 41.6501 36.2701 39.9201C33.2701 38.1901 30.8501 34 30.8501 30.56C30.8501 27.12 33.2801 25.74 36.2701 27.47C39.2701 29.2 41.6901 33.3901 41.6901 36.8301Z" fill="url(#paint6_linear_335_8275)"/>
<path d="M24.4401 27.06C24.4401 30.5 22.0101 31.88 19.0201 30.15C16.0301 28.42 13.6001 24.23 13.6001 20.79C13.6001 17.35 16.0301 15.97 19.0201 17.7C22.0201 19.43 24.4401 23.62 24.4401 27.06Z" fill="url(#paint7_linear_335_8275)"/>
<path d="M121.78 262.09L11.6602 198.76V127.58L121.78 190.91V262.09Z" fill="white"/>
<path d="M122.25 183.6L11.6699 119.89V47.78L122.25 111.49V183.6Z" fill="white"/>
<path d="M12.98 119.82V49.92L120.23 111.37L12.98 119.82Z" fill="url(#paint8_linear_335_8275)"/>
<path d="M12.98 75.29V49.92L119.61 111L12.98 75.29Z" fill="url(#paint9_linear_335_8275)"/>
<path d="M108.43 217.26L93.3298 208.53V211.98L108.43 220.71V217.26ZM90.8598 207.1L55.3598 186.87V190.32L90.8598 210.55V207.1ZM52.8798 185.45L32.4698 173.67V177.12L52.8798 188.9V185.45ZM29.9998 172.24L17.7998 165.03V168.48L29.9998 175.69V172.24Z" fill="url(#paint10_linear_335_8275)"/>
<path d="M107.4 212L117.88 218.05V214.6L107.4 208.55V212ZM66.6096 188.74L104.94 210.58V207.13L66.6096 185.29V188.74ZM35.0896 170.55L64.1396 187.31V183.86L35.0896 167.1V170.55ZM32.6296 165.68L17.8096 156.95V160.4L32.6296 169.13V165.68ZM89.2896 186.4L17.8096 144.88V150.12L89.2896 191.64V186.4Z" fill="url(#paint11_linear_335_8275)"/>
<path d="M87.5996 216.72L117.88 234.19V230.74L87.5996 213.27V216.72ZM58.8796 200.41L85.1296 215.3V211.85L58.8796 196.96V200.41ZM35.0896 186.69L56.4096 198.99V195.54L35.0896 183.24V186.69ZM32.6296 181.81L17.8096 173.08V176.53L32.6296 185.26V181.81Z" fill="url(#paint12_linear_335_8275)"/>
<path d="M113.88 236.88L66.1198 209.52V212.97L113.88 240.33V236.88ZM63.6498 208.09L44.0398 196.81V200.26L63.6498 211.54V208.09ZM41.5698 195.39L23.4998 184.88V188.33L41.5698 198.84V195.39ZM21.0298 183.46L17.7998 181.54V184.99L21.0298 186.91V183.46Z" fill="url(#paint13_linear_335_8275)"/>
<path d="M107.4 166.25L65.7598 142.13C62.7698 140.4 60.3198 135.72 60.3198 131.73V128.89C60.3198 124.9 62.7698 123.04 65.7598 124.77L107.4 148.89C110.39 150.62 112.84 155.3 112.84 159.29V162.13C112.84 166.12 110.39 167.98 107.4 166.25Z" fill="url(#paint14_linear_335_8275)"/>
<defs>
<linearGradient id="paint0_linear_335_8275" x1="69.58" y1="432.2" x2="65.4" y2="29.0901" gradientUnits="userSpaceOnUse">
<stop stop-color="#9F79C8"/>
<stop offset="0.14" stop-color="#A47FCA"/>
<stop offset="0.33" stop-color="#B491D3"/>
<stop offset="0.55" stop-color="#CDAFE1"/>
<stop offset="0.58" stop-color="#D1B4E3"/>
<stop offset="0.76" stop-color="#DAC3E8"/>
<stop offset="1" stop-color="#EBDEF3"/>
</linearGradient>
<linearGradient id="paint1_linear_335_8275" x1="194.8" y1="279.23" x2="41.61" y2="34.45" gradientUnits="userSpaceOnUse">
<stop offset="0.06" stop-color="#9F79B8"/>
<stop offset="0.26" stop-color="#A07BB9"/>
<stop offset="0.36" stop-color="#A782BF"/>
<stop offset="0.43" stop-color="#B28FC8"/>
<stop offset="0.49" stop-color="#C1A1D5"/>
<stop offset="0.51" stop-color="#C3A5D6"/>
<stop offset="0.52" stop-color="#CCB2DC"/>
<stop offset="0.53" stop-color="#DAC8E6"/>
<stop offset="0.55" stop-color="#EEE6F4"/>
<stop offset="0.56" stop-color="white"/>
<stop offset="0.57" stop-color="#EBDFF3"/>
<stop offset="0.58" stop-color="#DDC7EA"/>
<stop offset="0.59" stop-color="#D4B9E4"/>
<stop offset="0.6" stop-color="#D1B4E3"/>
<stop offset="0.61" stop-color="#CFB1E1"/>
<stop offset="0.76" stop-color="#BE99D5"/>
<stop offset="0.89" stop-color="#B38BCE"/>
<stop offset="1" stop-color="#B086CC"/>
</linearGradient>
<linearGradient id="paint2_linear_335_8275" x1="138.82" y1="93.2" x2="-87.9" y2="-73.99" gradientUnits="userSpaceOnUse">
<stop offset="0.1" stop-color="#45108A"/>
<stop offset="1" stop-color="#7C1DC9"/>
</linearGradient>
<linearGradient id="paint3_linear_335_8275" x1="11.22" y1="-3.84995" x2="155.46" y2="143.92" gradientUnits="userSpaceOnUse">
<stop offset="0.03" stop-color="#7C1DC9"/>
<stop offset="0.21" stop-color="#6E41D1"/>
<stop offset="0.62" stop-color="#4C9BE8"/>
<stop offset="1" stop-color="#2AF6FF"/>
</linearGradient>
<radialGradient id="paint4_radial_335_8275" cx="0" cy="0" r="1" gradientUnits="userSpaceOnUse" gradientTransform="translate(69.2 142.4) scale(109.84 109.84)">
<stop stop-color="white"/>
<stop offset="1"/>
</radialGradient>
<linearGradient id="paint5_linear_335_8275" x1="49.9702" y1="49.04" x2="56.0502" y2="38.65" gradientUnits="userSpaceOnUse">
<stop offset="0.04" stop-color="#9F19AB"/>
<stop offset="0.24" stop-color="#AE24B0"/>
<stop offset="0.65" stop-color="#D643BF"/>
<stop offset="1" stop-color="#FF63CE"/>
</linearGradient>
<linearGradient id="paint6_linear_335_8275" x1="32.8601" y1="39.5101" x2="38.9501" y2="29.1101" gradientUnits="userSpaceOnUse">
<stop offset="0.04" stop-color="#FFA98C"/>
<stop offset="0.32" stop-color="#FEB892"/>
<stop offset="0.86" stop-color="#FEE0A3"/>
<stop offset="1" stop-color="#FEECA8"/>
</linearGradient>
<linearGradient id="paint7_linear_335_8275" x1="15.6201" y1="29.74" x2="21.7001" y2="19.34" gradientUnits="userSpaceOnUse">
<stop stop-color="#9F79C8"/>
<stop offset="0.14" stop-color="#A47FCA"/>
<stop offset="0.33" stop-color="#B491D3"/>
<stop offset="0.55" stop-color="#CDAFE1"/>
<stop offset="0.58" stop-color="#D1B4E3"/>
<stop offset="0.76" stop-color="#DAC3E8"/>
<stop offset="1" stop-color="#EBDEF3"/>
</linearGradient>
<linearGradient id="paint8_linear_335_8275" x1="34.12" y1="81.58" x2="186.87" y2="241.49" gradientUnits="userSpaceOnUse">
<stop offset="0.01" stop-color="#9F19AB"/>
<stop offset="0.43" stop-color="#5F27BD"/>
<stop offset="0.9" stop-color="#3D065F"/>
</linearGradient>
<linearGradient id="paint9_linear_335_8275" x1="-16.06" y1="27.26" x2="123.7" y2="139.06" gradientUnits="userSpaceOnUse">
<stop offset="0.01" stop-color="#9F19AB"/>
<stop offset="0.43" stop-color="#5F27BD"/>
<stop offset="0.9" stop-color="#3D065F"/>
</linearGradient>
<linearGradient id="paint10_linear_335_8275" x1="17.8098" y1="192.87" x2="108.43" y2="192.87" gradientUnits="userSpaceOnUse">
<stop offset="0.01" stop-color="#9F19AB"/>
<stop offset="0.43" stop-color="#5F27BD"/>
<stop offset="0.9" stop-color="#3D065F"/>
</linearGradient>
<linearGradient id="paint11_linear_335_8275" x1="17.8096" y1="181.47" x2="117.88" y2="181.47" gradientUnits="userSpaceOnUse">
<stop offset="0.01" stop-color="#9F19AB"/>
<stop offset="0.43" stop-color="#5F27BD"/>
<stop offset="0.9" stop-color="#3D065F"/>
</linearGradient>
<linearGradient id="paint12_linear_335_8275" x1="17.8096" y1="203.64" x2="117.88" y2="203.64" gradientUnits="userSpaceOnUse">
<stop offset="0.01" stop-color="#9F19AB"/>
<stop offset="0.43" stop-color="#5F27BD"/>
<stop offset="0.9" stop-color="#3D065F"/>
</linearGradient>
<linearGradient id="paint13_linear_335_8275" x1="17.8098" y1="210.93" x2="113.88" y2="210.93" gradientUnits="userSpaceOnUse">
<stop offset="0.01" stop-color="#9F19AB"/>
<stop offset="0.43" stop-color="#5F27BD"/>
<stop offset="0.9" stop-color="#3D065F"/>
</linearGradient>
<linearGradient id="paint14_linear_335_8275" x1="74.0898" y1="159.36" x2="107.01" y2="122.86" gradientUnits="userSpaceOnUse">
<stop offset="0.01" stop-color="#9F19AB"/>
<stop offset="0.43" stop-color="#5F27BD"/>
<stop offset="0.9" stop-color="#3D065F"/>
</linearGradient>
</defs>
</svg>
