<svg width="119" height="245" viewBox="0 0 119 245" fill="none" xmlns="http://www.w3.org/2000/svg">
<path opacity="0.8" d="M18.1623 2.49403C8.12626 -3.29374 0 1.34427 0 12.8516V163.519C0 175.026 8.12626 189.047 18.1525 194.835L100.828 242.423C110.854 248.211 118.99 243.583 118.99 232.075V81.4084C118.99 69.9011 110.864 55.8798 100.828 50.0921L18.1525 2.50378L18.1623 2.49403Z" fill="url(#paint0_linear_483_29)"/>
<path style="mix-blend-mode:color-dodge" d="M100.838 50.0821L18.1623 2.49381C8.136 -3.29396 0 1.3343 0 12.8416V14.5955C0 3.08818 8.12626 -1.54983 18.1623 4.24768L100.838 51.836C110.864 57.6238 119 71.645 119 83.1523V81.3984C119 69.8911 110.874 55.8699 100.838 50.0821Z" fill="url(#paint1_radial_483_29)"/>
<path d="M63.7241 104.199L76.8489 111.779V107.58L63.7241 99.9991V104.199Z" fill="white"/>
<path d="M64.4741 123.998L83.0359 134.716V130.516L64.4741 119.798V123.998Z" fill="white"/>
<path d="M66.1597 115.287L81.7301 124.271V120.081L66.1597 111.087V115.287Z" fill="white"/>
<path d="M60.7229 98.2647L44.9673 89.1738V93.3636L60.7229 102.464V98.2647Z" fill="white"/>
<path d="M77.0435 102.201L89.7882 109.558V105.368L77.0435 98.0016V102.201Z" fill="white"/>
<path d="M51.7197 116.632L61.4732 122.264V118.064L51.7197 112.442V116.632Z" fill="white"/>
<path d="M63.3439 128.831L58.8521 126.239V130.429L63.3439 133.03V128.831Z" fill="white"/>
<path d="M58.4717 91.4831L74.0421 100.467V96.2673L58.4717 87.2836V91.4831Z" fill="white"/>
<path d="M41.9663 87.4395L32.2129 81.8076V86.0071L41.9663 91.639V87.4395Z" fill="white"/>
<path d="M27.7109 131.822L47.9681 143.524V139.325L27.7109 127.632V131.822Z" fill="white"/>
<path d="M54.1558 79.3035L72.7273 90.0215V85.8317L54.1558 75.1039V79.3035Z" fill="white"/>
<path d="M35.5938 117.002L55.8509 128.704V124.505L35.5938 112.812V117.002Z" fill="white"/>
<path d="M55.6561 105.027L35.4087 93.3344V97.534L55.6561 109.226V105.027Z" fill="white"/>
<path d="M50.9697 87.1471L55.4713 89.7487V85.5492L50.9697 82.9476V87.1471Z" fill="white"/>
<path d="M41.4106 71.9372L51.1544 77.5691V73.3793L41.4106 67.7474V71.9372Z" fill="white"/>
<path d="M31.0918 124.095L38.4093 128.314V124.115L31.0918 119.896V124.095Z" fill="white"/>
<path d="M48.7184 110.707L41.4106 106.479V110.678L48.7184 114.897V110.707Z" fill="white"/>
<path d="M93.9194 140.991L97.32 142.959V138.769L93.9194 136.801V140.991Z" fill="white"/>
<path d="M31.0918 61.794V65.9838L38.4093 70.2126V66.013L31.0918 61.794Z" fill="white"/>
<path d="M63.1583 109.363L58.6567 106.761V110.951L63.1583 113.553V109.363Z" fill="white"/>
<path d="M84.7314 126.005L97.3203 133.274V129.084L84.7314 121.806V126.005Z" fill="white"/>
<path d="M89.7882 163.47L77.0435 156.103V160.303L89.7882 167.669V163.47Z" fill="white"/>
<path d="M66.1597 179.849L81.7301 188.833V184.643L66.1597 175.649V179.849Z" fill="white"/>
<path d="M27.7109 73.7203L47.9681 85.4128V81.223L27.7109 69.5208V73.7203Z" fill="white"/>
<path d="M90.9187 139.266V135.067L86.0371 132.251V136.45L90.9187 139.266Z" fill="white"/>
<path d="M51.1544 131.481L41.4106 125.849V130.049L51.1544 135.681V131.481Z" fill="white"/>
<path d="M55.4713 143.651L50.9697 141.059V145.249L55.4713 147.85V143.651Z" fill="white"/>
<path d="M72.7273 143.934L54.1558 133.215V137.405L72.7273 148.133V143.934Z" fill="white"/>
<path d="M79.8496 113.504L83.484 115.696V111.497L79.8496 109.314V113.504Z" fill="white"/>
<path d="M97.3203 148.445L84.9165 141.283V145.483L97.3203 152.644V148.445Z" fill="white"/>
<path d="M86.4849 117.431L97.3199 123.589V119.399L86.4849 113.231V117.431Z" fill="white"/>
<path d="M92.7896 111.292L97.3204 113.913V109.714L92.7896 107.102V111.292Z" fill="white"/>
<path d="M32.4075 156.162L21.0366 149.595V153.794L32.4075 160.361V156.162Z" fill="white"/>
<path d="M41.9663 145.541L32.2129 139.909V144.109L41.9663 149.741V145.541Z" fill="white"/>
<path d="M29.2116 80.0732L21.0366 75.3572V79.547L29.2116 84.2727V80.0732Z" fill="white"/>
<path d="M29.2116 138.185L21.0366 133.459V137.659L29.2116 142.375V138.185Z" fill="white"/>
<path d="M21.0366 163.479L38.4097 173.506V169.306L21.0366 159.28V163.479Z" fill="white"/>
<path d="M28.0911 118.161L21.0366 114.089V118.288L28.0911 122.361V118.161Z" fill="white"/>
<path d="M32.5927 111.078L21.0366 104.403V108.603L32.5927 115.277V111.078Z" fill="white"/>
<path d="M32.4075 91.6L21.0366 85.0328V89.2323L32.4075 95.7996V91.6Z" fill="white"/>
<path d="M38.4097 104.754L21.0366 94.718V98.9176L38.4097 108.944V104.754Z" fill="white"/>
<path d="M24.7197 125.898L21.0366 123.774V127.973L24.7197 130.097V125.898Z" fill="white"/>
<path d="M97.3203 193.646L84.7314 186.367V190.567L97.3203 197.836V193.646Z" fill="white"/>
<path d="M58.6567 175.513L63.1583 178.114V173.915L58.6567 171.323V175.513Z" fill="white"/>
<path d="M76.8489 165.682L63.7241 158.101V162.3L76.8489 169.881V165.682Z" fill="white"/>
<path d="M41.4106 175.24L48.7184 179.459V175.269L41.4106 171.041V175.24Z" fill="white"/>
<path d="M86.0369 151.621L75.728 145.668V149.858L86.0369 155.821V151.621Z" fill="white"/>
<path d="M97.3202 158.13L89.0381 153.356V157.545L97.3202 162.33V158.13Z" fill="white"/>
<path d="M81.9152 139.549L66.3447 130.565V134.765L81.9152 143.748V139.549Z" fill="white"/>
<path d="M97.3204 167.815L92.7896 165.204V169.394L97.3204 172.015V167.815Z" fill="white"/>
<path d="M74.0421 154.379L58.4717 145.385V149.585L74.0421 158.569V154.379Z" fill="white"/>
<path d="M55.6561 169.589L35.4087 157.896V162.086L55.6561 173.788V169.589Z" fill="white"/>
<path d="M60.7229 156.367L44.9673 147.276V151.475L60.7229 160.566V156.367Z" fill="white"/>
<path d="M28.0911 60.0596L21.0366 55.9867V60.1765L28.0911 64.2494V60.0596Z" fill="white"/>
<path d="M32.5927 49.741L21.0366 43.0763V47.2661L32.5927 53.9406V49.741Z" fill="white"/>
<path d="M24.7197 67.7961L21.0366 65.672V69.8618L24.7197 71.9859V67.7961Z" fill="white"/>
<path d="M55.8509 63.1679L35.5938 51.4754V55.6749L55.8509 67.3674V63.1679Z" fill="white"/>
<path d="M97.3202 100.028L89.0381 95.2442V99.4437L97.3202 104.228V100.028Z" fill="white"/>
<path d="M63.3439 67.5038L58.8521 64.9022V69.1018L63.3439 71.6936V67.5038Z" fill="white"/>
<path d="M75.728 91.7559L86.0369 97.7093V93.5195L75.728 87.5564V91.7559Z" fill="white"/>
<path d="M81.9152 78.2219L66.3447 69.2382V73.428L81.9152 82.4214V78.2219Z" fill="white"/>
<defs>
<linearGradient id="paint0_linear_483_29" x1="147.647" y1="294.669" x2="-65.2536" y2="-121.261" gradientUnits="userSpaceOnUse">
<stop offset="0.03" stop-color="#7C1DC9"/>
<stop offset="0.21" stop-color="#6E41D1"/>
<stop offset="0.62" stop-color="#4C9BE8"/>
<stop offset="1" stop-color="#2AF6FF"/>
</linearGradient>
<radialGradient id="paint1_radial_483_29" cx="0" cy="0" r="1" gradientUnits="userSpaceOnUse" gradientTransform="translate(59.4951 41.5856) scale(111.985 111.985)">
<stop stop-color="#711F56"/>
<stop offset="0.16" stop-color="#6B1D51"/>
<stop offset="0.36" stop-color="#5C1946"/>
<stop offset="0.58" stop-color="#421232"/>
<stop offset="0.82" stop-color="#1F0818"/>
<stop offset="1"/>
</radialGradient>
</defs>
</svg>
