<?xml version="1.0" encoding="UTF-8"?>
<svg xmlns="http://www.w3.org/2000/svg" xmlns:xlink="http://www.w3.org/1999/xlink" viewBox="0 0 429.49 479.11">
  <defs>
    <style>
      .cls-1 {
        fill: url(#linear-gradient-11);
      }

      .cls-1, .cls-2, .cls-3, .cls-4, .cls-5, .cls-6, .cls-7, .cls-8, .cls-9, .cls-10, .cls-11, .cls-12, .cls-13, .cls-14, .cls-15, .cls-16, .cls-17, .cls-18, .cls-19, .cls-20, .cls-21, .cls-22, .cls-23, .cls-24, .cls-25, .cls-26, .cls-27, .cls-28, .cls-29, .cls-30, .cls-31, .cls-32, .cls-33, .cls-34, .cls-35, .cls-36, .cls-37, .cls-38, .cls-39, .cls-40, .cls-41, .cls-42, .cls-43, .cls-44, .cls-45, .cls-46, .cls-47, .cls-48, .cls-49, .cls-50, .cls-51, .cls-52, .cls-53, .cls-54, .cls-55, .cls-56, .cls-57 {
        stroke-width: 0px;
      }

      .cls-1, .cls-22 {
        opacity: .73;
      }

      .cls-2 {
        fill: url(#linear-gradient-25);
      }

      .cls-2, .cls-57 {
        opacity: .91;
      }

      .cls-3 {
        fill: url(#linear-gradient-10);
      }

      .cls-3, .cls-47 {
        opacity: .64;
      }

      .cls-4 {
        fill: url(#linear-gradient);
      }

      .cls-5 {
        fill: url(#linear-gradient-9);
      }

      .cls-5, .cls-32 {
        opacity: .55;
      }

      .cls-6 {
        fill: url(#linear-gradient-28);
      }

      .cls-6, .cls-58 {
        opacity: .5;
      }

      .cls-7 {
        fill: url(#linear-gradient-6);
      }

      .cls-7, .cls-11 {
        opacity: .27;
      }

      .cls-8 {
        fill: url(#New_Gradient_Swatch_copy_49);
      }

      .cls-9 {
        fill: url(#New_Gradient_Swatch_copy_50-2);
      }

      .cls-9, .cls-18, .cls-29, .cls-56 {
        opacity: .9;
      }

      .cls-10 {
        fill: url(#linear-gradient-24);
      }

      .cls-10, .cls-42 {
        opacity: .82;
      }

      .cls-11 {
        fill: url(#linear-gradient-18);
      }

      .cls-12 {
        fill: url(#linear-gradient-8);
      }

      .cls-12, .cls-43 {
        opacity: .45;
      }

      .cls-13 {
        fill: url(#New_Gradient_Swatch_copy_50);
      }

      .cls-14 {
        fill: url(#radial-gradient-8);
      }

      .cls-15 {
        fill: #58595b;
      }

      .cls-16 {
        fill: url(#linear-gradient-16);
      }

      .cls-16, .cls-48 {
        opacity: .09;
      }

      .cls-59 {
        isolation: isolate;
      }

      .cls-17 {
        fill: url(#New_Gradient_Swatch_copy_8-7);
      }

      .cls-18 {
        fill: url(#New_Gradient_Swatch_copy_61);
      }

      .cls-19 {
        fill: url(#New_Gradient_Swatch_copy_8-4);
      }

      .cls-20 {
        fill: url(#New_Gradient_Swatch_copy_8-6);
      }

      .cls-21 {
        fill: url(#linear-gradient-3);
      }

      .cls-21, .cls-30 {
        opacity: 0;
      }

      .cls-22 {
        fill: url(#linear-gradient-23);
      }

      .cls-23 {
        fill: url(#New_Gradient_Swatch_copy_26);
        opacity: .8;
      }

      .cls-24 {
        fill: #c7bcd6;
      }

      .cls-25 {
        fill: #fff;
      }

      .cls-26 {
        fill: url(#linear-gradient-17);
      }

      .cls-26, .cls-55 {
        opacity: .18;
      }

      .cls-27 {
        fill: url(#linear-gradient-14);
      }

      .cls-28 {
        fill: url(#linear-gradient-2);
      }

      .cls-60 {
        opacity: .3;
      }

      .cls-60, .cls-61 {
        mix-blend-mode: multiply;
      }

      .cls-29 {
        fill: url(#New_Gradient_Swatch_copy_50-3);
      }

      .cls-30 {
        fill: url(#linear-gradient-15);
      }

      .cls-31 {
        fill: url(#radial-gradient);
      }

      .cls-31, .cls-33, .cls-34, .cls-40, .cls-62, .cls-41, .cls-44 {
        mix-blend-mode: color-dodge;
      }

      .cls-32 {
        fill: url(#linear-gradient-21);
      }

      .cls-33 {
        fill: url(#radial-gradient-3);
      }

      .cls-34 {
        fill: url(#radial-gradient-5);
      }

      .cls-35 {
        fill: url(#New_Gradient_Swatch_copy_8-5);
      }

      .cls-36 {
        fill: url(#New_Gradient_Swatch_copy_8-2);
      }

      .cls-37 {
        fill: url(#radial-gradient-7);
      }

      .cls-38 {
        fill: url(#New_Gradient_Swatch_copy_8-8);
      }

      .cls-39 {
        fill: url(#linear-gradient-27);
      }

      .cls-40 {
        fill: url(#radial-gradient-4);
      }

      .cls-41 {
        fill: url(#radial-gradient-2);
      }

      .cls-42 {
        fill: url(#linear-gradient-12);
      }

      .cls-43 {
        fill: url(#linear-gradient-20);
      }

      .cls-44 {
        fill: url(#radial-gradient-6);
      }

      .cls-45 {
        fill: url(#linear-gradient-26);
      }

      .cls-46 {
        fill: url(#linear-gradient-19);
      }

      .cls-46, .cls-54 {
        opacity: .36;
      }

      .cls-47 {
        fill: url(#linear-gradient-22);
      }

      .cls-48 {
        fill: url(#linear-gradient-4);
      }

      .cls-49 {
        fill: url(#New_Gradient_Swatch_copy_8-9);
      }

      .cls-50 {
        fill: url(#linear-gradient-29);
      }

      .cls-51 {
        fill: #25054d;
      }

      .cls-51, .cls-58 {
        mix-blend-mode: screen;
      }

      .cls-52 {
        fill: url(#New_Gradient_Swatch_copy_8-3);
      }

      .cls-53 {
        fill: url(#New_Gradient_Swatch_copy_8);
      }

      .cls-54 {
        fill: url(#linear-gradient-7);
      }

      .cls-55 {
        fill: url(#linear-gradient-5);
      }

      .cls-56 {
        fill: url(#New_Gradient_Swatch_copy_8-10);
      }

      .cls-57 {
        fill: url(#linear-gradient-13);
      }
    </style>
    <linearGradient id="linear-gradient" x1="254.09" y1="239.25" x2="574.83" y2="239.25" gradientUnits="userSpaceOnUse">
      <stop offset="0" stop-color="#6b24d6"/>
      <stop offset=".74" stop-color="#200657"/>
      <stop offset="1" stop-color="#12054e"/>
    </linearGradient>
    <linearGradient id="New_Gradient_Swatch_copy_49" data-name="New Gradient Swatch copy 49" x1="239.49" y1="187.45" x2="256.43" y2="247.86" gradientUnits="userSpaceOnUse">
      <stop offset="0" stop-color="#671ab9"/>
      <stop offset=".39" stop-color="#ad34f1"/>
      <stop offset="1" stop-color="#5513ab"/>
    </linearGradient>
    <linearGradient id="linear-gradient-2" x1="617.94" y1="21.67" x2="-130.94" y2="425.73" gradientUnits="userSpaceOnUse">
      <stop offset=".01" stop-color="#9f19ab"/>
      <stop offset=".43" stop-color="#5f27bd"/>
      <stop offset=".9" stop-color="#3d065f"/>
    </linearGradient>
    <linearGradient id="New_Gradient_Swatch_copy_50" data-name="New Gradient Swatch copy 50" x1="-78.47" y1="-141.91" x2="421.21" y2="290.59" gradientUnits="userSpaceOnUse">
      <stop offset=".04" stop-color="#6b24d6"/>
      <stop offset=".32" stop-color="#7a1bd0"/>
      <stop offset=".86" stop-color="#a205c0"/>
      <stop offset=".98" stop-color="#ad00bd"/>
    </linearGradient>
    <radialGradient id="radial-gradient" cx="238.95" cy="137.56" fx="238.95" fy="137.56" r="312.78" gradientUnits="userSpaceOnUse">
      <stop offset="0" stop-color="#711f56"/>
      <stop offset=".16" stop-color="#6b1d51"/>
      <stop offset=".36" stop-color="#5c1946"/>
      <stop offset=".58" stop-color="#421232"/>
      <stop offset=".82" stop-color="#1f0818"/>
      <stop offset="1" stop-color="#000"/>
    </radialGradient>
    <linearGradient id="New_Gradient_Swatch_copy_8" data-name="New Gradient Swatch copy 8" x1="444.22" y1="392.32" x2="183.25" y2="161.17" gradientUnits="userSpaceOnUse">
      <stop offset=".04" stop-color="#ffa98c"/>
      <stop offset=".32" stop-color="#feb892"/>
      <stop offset=".86" stop-color="#fee0a3"/>
      <stop offset="1" stop-color="#feeca8"/>
    </linearGradient>
    <radialGradient id="radial-gradient-2" cx="304.46" cy="254.82" fx="304.46" fy="254.82" r="213.4" xlink:href="#radial-gradient"/>
    <linearGradient id="linear-gradient-3" x1="179.94" y1="212.23" x2="246.91" y2="339.92" xlink:href="#linear-gradient-2"/>
    <linearGradient id="linear-gradient-4" x1="178.74" y1="213.31" x2="245.55" y2="340.7" xlink:href="#linear-gradient-2"/>
    <linearGradient id="linear-gradient-5" x1="177.54" y1="214.4" x2="244.18" y2="341.48" xlink:href="#linear-gradient-2"/>
    <linearGradient id="linear-gradient-6" x1="176.34" y1="215.48" x2="242.83" y2="342.25" xlink:href="#linear-gradient-2"/>
    <linearGradient id="linear-gradient-7" x1="175.15" y1="216.57" x2="241.47" y2="343.03" xlink:href="#linear-gradient-2"/>
    <linearGradient id="linear-gradient-8" x1="173.95" y1="217.65" x2="240.11" y2="343.81" xlink:href="#linear-gradient-2"/>
    <linearGradient id="linear-gradient-9" x1="172.76" y1="218.73" x2="238.76" y2="344.59" xlink:href="#linear-gradient-2"/>
    <linearGradient id="linear-gradient-10" x1="171.56" y1="219.81" x2="237.41" y2="345.36" xlink:href="#linear-gradient-2"/>
    <linearGradient id="linear-gradient-11" x1="170.37" y1="220.89" x2="236.06" y2="346.14" xlink:href="#linear-gradient-2"/>
    <linearGradient id="linear-gradient-12" x1="169.19" y1="221.97" x2="234.71" y2="346.91" xlink:href="#linear-gradient-2"/>
    <linearGradient id="linear-gradient-13" x1="168" y1="223.05" x2="233.37" y2="347.69" xlink:href="#linear-gradient-2"/>
    <linearGradient id="linear-gradient-14" x1="166.82" y1="224.12" x2="232.02" y2="348.46" xlink:href="#linear-gradient-2"/>
    <linearGradient id="New_Gradient_Swatch_copy_50-2" data-name="New Gradient Swatch copy 50" x1="57" y1="117.93" x2="310.51" y2="441.87" xlink:href="#New_Gradient_Swatch_copy_50"/>
    <radialGradient id="radial-gradient-3" cx="218.48" cy="295.33" fx="218.48" fy="295.33" r="73.21" xlink:href="#radial-gradient"/>
    <linearGradient id="linear-gradient-15" x1="261.96" y1="259.24" x2="328.93" y2="386.93" xlink:href="#linear-gradient-2"/>
    <linearGradient id="linear-gradient-16" x1="260.76" y1="260.33" x2="327.57" y2="387.71" xlink:href="#linear-gradient-2"/>
    <linearGradient id="linear-gradient-17" x1="259.56" y1="261.41" x2="326.21" y2="388.49" xlink:href="#linear-gradient-2"/>
    <linearGradient id="linear-gradient-18" x1="258.36" y1="262.5" x2="324.85" y2="389.27" xlink:href="#linear-gradient-2"/>
    <linearGradient id="linear-gradient-19" x1="257.17" y1="263.58" x2="323.49" y2="390.05" xlink:href="#linear-gradient-2"/>
    <linearGradient id="linear-gradient-20" x1="255.97" y1="264.67" x2="322.13" y2="390.83" xlink:href="#linear-gradient-2"/>
    <linearGradient id="linear-gradient-21" x1="254.78" y1="265.75" x2="320.78" y2="391.6" xlink:href="#linear-gradient-2"/>
    <linearGradient id="linear-gradient-22" x1="253.58" y1="266.83" x2="319.43" y2="392.38" xlink:href="#linear-gradient-2"/>
    <linearGradient id="linear-gradient-23" x1="252.39" y1="267.91" x2="318.08" y2="393.16" xlink:href="#linear-gradient-2"/>
    <linearGradient id="linear-gradient-24" x1="251.21" y1="268.99" x2="316.73" y2="393.93" xlink:href="#linear-gradient-2"/>
    <linearGradient id="linear-gradient-25" x1="250.02" y1="270.06" x2="315.39" y2="394.7" xlink:href="#linear-gradient-2"/>
    <linearGradient id="linear-gradient-26" x1="248.84" y1="271.14" x2="314.04" y2="395.48" xlink:href="#linear-gradient-2"/>
    <linearGradient id="New_Gradient_Swatch_copy_50-3" data-name="New Gradient Swatch copy 50" x1="85.04" y1="95.98" x2="338.56" y2="419.92" xlink:href="#New_Gradient_Swatch_copy_50"/>
    <radialGradient id="radial-gradient-4" cx="300.5" cy="342.35" fx="300.5" fy="342.35" r="73.21" xlink:href="#radial-gradient"/>
    <linearGradient id="linear-gradient-27" x1="-27.91" y1="64.2" x2="259.72" y2="445.89" xlink:href="#linear-gradient-2"/>
    <radialGradient id="radial-gradient-5" cx="100.74" cy="153.58" fx="100.74" fy="153.58" r="114.93" xlink:href="#radial-gradient"/>
    <linearGradient id="linear-gradient-28" x1="8631.13" y1="239.33" x2="8497.12" y2="-119.56" gradientTransform="translate(8732.86) rotate(-180) scale(1 -1)" gradientUnits="userSpaceOnUse">
      <stop offset="0" stop-color="#5513ab"/>
      <stop offset="1" stop-color="#be3bff"/>
    </linearGradient>
    <linearGradient id="linear-gradient-29" x1="8650.17" y1="295.79" x2="8595.08" y2="176.01" gradientTransform="translate(8732.86) rotate(-180) scale(1 -1)" gradientUnits="userSpaceOnUse">
      <stop offset="0" stop-color="#6d1cbe"/>
      <stop offset=".44" stop-color="#8a27d5"/>
      <stop offset=".87" stop-color="#be3bff"/>
      <stop offset="1" stop-color="#ca3cdc"/>
    </linearGradient>
    <linearGradient id="New_Gradient_Swatch_copy_26" data-name="New Gradient Swatch copy 26" x1="151.53" y1="432.67" x2="-66.97" y2="5.8" gradientUnits="userSpaceOnUse">
      <stop offset=".03" stop-color="#7c1dc9"/>
      <stop offset=".21" stop-color="#6e41d1"/>
      <stop offset=".62" stop-color="#4c9be8"/>
      <stop offset="1" stop-color="#2af6ff"/>
    </linearGradient>
    <radialGradient id="radial-gradient-6" cx="61.06" cy="172.93" fx="61.06" fy="172.93" r="114.93" xlink:href="#radial-gradient"/>
    <linearGradient id="New_Gradient_Swatch_copy_61" data-name="New Gradient Swatch copy 61" x1="24.04" y1="180.44" x2="389.13" y2="440.03" gradientUnits="userSpaceOnUse">
      <stop offset="0" stop-color="#703ed1"/>
      <stop offset=".62" stop-color="#5a77df"/>
      <stop offset="1" stop-color="#4c9de9"/>
    </linearGradient>
    <radialGradient id="radial-gradient-7" cx="357.47" cy="385.39" fx="357.47" fy="385.39" r="18.03" xlink:href="#radial-gradient"/>
    <radialGradient id="radial-gradient-8" cx="163.88" cy="282.1" fx="163.88" fy="282.1" r="16.13" xlink:href="#radial-gradient"/>
    <linearGradient id="New_Gradient_Swatch_copy_8-2" data-name="New Gradient Swatch copy 8" x1="193.26" y1="153.05" x2="87.14" y2="83.07" xlink:href="#New_Gradient_Swatch_copy_8"/>
    <linearGradient id="New_Gradient_Swatch_copy_8-3" data-name="New Gradient Swatch copy 8" x1="191.09" y1="156.35" x2="84.96" y2="86.37" xlink:href="#New_Gradient_Swatch_copy_8"/>
    <linearGradient id="New_Gradient_Swatch_copy_8-4" data-name="New Gradient Swatch copy 8" x1="185.79" y1="164.38" x2="79.67" y2="94.4" xlink:href="#New_Gradient_Swatch_copy_8"/>
    <linearGradient id="New_Gradient_Swatch_copy_8-5" data-name="New Gradient Swatch copy 8" x1="192.66" y1="153.96" x2="86.54" y2="83.98" xlink:href="#New_Gradient_Swatch_copy_8"/>
    <linearGradient id="New_Gradient_Swatch_copy_8-6" data-name="New Gradient Swatch copy 8" x1="195" y1="150.42" x2="88.88" y2="80.44" xlink:href="#New_Gradient_Swatch_copy_8"/>
    <linearGradient id="New_Gradient_Swatch_copy_8-7" data-name="New Gradient Swatch copy 8" x1="194.14" y1="151.72" x2="88.02" y2="81.74" xlink:href="#New_Gradient_Swatch_copy_8"/>
    <linearGradient id="New_Gradient_Swatch_copy_8-8" data-name="New Gradient Swatch copy 8" x1="186.5" y1="163.31" x2="80.37" y2="93.33" xlink:href="#New_Gradient_Swatch_copy_8"/>
    <linearGradient id="New_Gradient_Swatch_copy_8-9" data-name="New Gradient Swatch copy 8" x1="191.95" y1="155.04" x2="85.83" y2="85.06" xlink:href="#New_Gradient_Swatch_copy_8"/>
    <linearGradient id="New_Gradient_Swatch_copy_8-10" data-name="New Gradient Swatch copy 8" x1="88.61" y1="110.1" x2="37.24" y2="58.18" xlink:href="#New_Gradient_Swatch_copy_8"/>
  </defs>
  <g class="cls-59">
    <g id="_Слой_1" data-name="Слой 1">
      <g>
        <path class="cls-4" d="M358.45,472.4L80.67,311.43c-10.88-6.28-19.7-23.13-19.7-37.64V16.96c0-7.38-6.06-9.01-2.39-11.66.14-.1,8.61-3.95,8.77-4.01,3.95-1.51,8.18-2.19,13.32.78l277.78,160.97c10.88,6.28,19.7,23.13,19.7,37.64v256.83c0,7.71-2.49,13.2-6.46,15.72-.23.15-10.44,5-10.7,5.09-3.52,1.17,2.22-3.17-2.54-5.91Z"/>
        <path class="cls-8" d="M368.94,216.14l9.21-2.72v-12.75c0-14.5-8.82-31.35-19.7-37.64L80.67,2.07c-5.14-2.96-9.37-2.29-13.32-.78-.16.06-8.63,3.91-8.77,4.01-3.67,2.65,2.39,4.28,2.39,11.66v20.72l307.96,178.46Z"/>
        <path class="cls-28" d="M349.24,476.75L71.46,315.78c-10.88-6.28-19.7-23.13-19.7-37.64V21.31c0-14.5,8.82-21.17,19.7-14.89l277.78,160.97c10.88,6.28,19.7,23.13,19.7,37.64v256.83c0,14.5-8.82,21.17-19.7,14.89Z"/>
        <path class="cls-13" d="M349.24,167.39L71.46,6.42c-10.88-6.28-19.7.39-19.7,14.89v11.03l317.17,183.8v-11.11c0-14.5-8.82-31.35-19.7-37.64Z"/>
        <path class="cls-31" d="M350.96,166.46L73.18,5.49c-5.23-3.02-9.97-3.02-13.49-.62,3.29-1.38,7.36-1,11.78,1.55l277.78,160.97c10.88,6.28,19.7,23.13,19.7,37.64v256.83c0,7.53-2.39,12.93-6.2,15.52,4.8-2.02,7.92-7.83,7.92-16.44V204.1c0-14.5-8.82-31.35-19.7-37.64Z"/>
        <g>
          <path class="cls-25" d="M98.85,40.4c0,2.44-1.72,3.42-3.84,2.19-2.12-1.23-3.84-4.19-3.84-6.63s1.72-3.42,3.84-2.19c2.12,1.23,3.84,4.19,3.84,6.63Z"/>
          <path class="cls-25" d="M87.26,33.67c0,2.44-1.72,3.42-3.84,2.19-2.12-1.23-3.84-4.19-3.84-6.63s1.72-3.42,3.84-2.19c2.12,1.23,3.84,4.19,3.84,6.63Z"/>
          <path class="cls-25" d="M75.66,26.93c0,2.44-1.72,3.42-3.84,2.19-2.12-1.23-3.84-4.19-3.84-6.63s1.72-3.42,3.84-2.19c2.12,1.23,3.84,4.19,3.84,6.63Z"/>
        </g>
      </g>
      <g>
        <g class="cls-58">
          <path class="cls-24" d="M267.43,372.8c-.63,0-1.29-.07-1.95-.22-.45-.1-.73-.54-.63-.99.1-.44.52-.73.99-.63,1.03.23,2.04.24,2.92.03.45-.11.89.17,1,.62.11.45-.17.89-.62,1-.54.13-1.12.19-1.71.19ZM262.57,371.43c-.13,0-.27-.03-.39-.1l-2.9-1.66c-.4-.23-.53-.73-.31-1.13.23-.4.74-.53,1.13-.31l2.86,1.63c.4.22.56.72.34,1.12-.15.28-.44.44-.73.44ZM271.78,371.02c-.21,0-.41-.08-.57-.23-.33-.32-.34-.84-.02-1.17.63-.66,1.12-1.51,1.45-2.53.14-.43.61-.67,1.05-.53.43.14.67.61.53,1.05-.41,1.26-1.03,2.32-1.83,3.16-.16.17-.38.25-.6.25ZM256.82,368.13c-.14,0-.28-.04-.41-.11l-2.87-1.65c-.4-.23-.53-.73-.31-1.13.23-.4.74-.53,1.13-.31l2.87,1.65c.4.23.53.73.31,1.13-.15.27-.43.42-.72.42ZM273.96,364.92h-.02c-.46-.01-.82-.39-.8-.85v-3.29c0-.46.38-.83.84-.83s.83.37.83.83v3.34c-.02.45-.39.8-.84.8ZM251.08,364.83c-.14,0-.28-.04-.41-.11l-2.87-1.65c-.4-.23-.53-.73-.31-1.13.23-.4.74-.53,1.13-.31l2.87,1.65c.4.23.53.73.31,1.13-.15.27-.43.42-.72.42ZM245.33,361.52c-.14,0-.28-.04-.41-.11l-2.87-1.65c-.4-.23-.53-.73-.31-1.13.23-.4.74-.53,1.13-.31l2.87,1.65c.4.23.53.73.31,1.13-.15.27-.43.42-.72.42ZM273.97,358.29c-.46,0-.83-.37-.83-.83v-3.31c0-.46.37-.83.83-.83s.83.37.83.83v3.31c0,.46-.37.83-.83.83ZM239.59,358.21c-.14,0-.28-.04-.41-.11l-2.87-1.65c-.4-.23-.53-.73-.31-1.13.23-.4.74-.53,1.13-.31l2.87,1.65c.4.23.53.73.31,1.13-.15.27-.43.42-.72.42ZM233.84,354.91c-.14,0-.28-.04-.41-.11l-2.87-1.65c-.4-.23-.53-.73-.31-1.13.23-.4.74-.53,1.13-.31l2.87,1.65c.4.23.53.73.31,1.13-.15.27-.43.42-.72.42ZM273.97,351.66c-.46,0-.83-.37-.83-.83v-3.31c0-.46.37-.83.83-.83s.83.37.83.83v3.31c0,.46-.37.83-.83.83ZM228.1,351.6c-.14,0-.28-.04-.41-.11l-2.87-1.65c-.4-.23-.53-.73-.31-1.13.23-.4.74-.53,1.13-.31l2.87,1.65c.4.23.53.73.31,1.13-.15.27-.43.42-.72.42ZM222.36,348.29c-.14,0-.28-.04-.41-.11l-2.87-1.65c-.4-.23-.53-.73-.31-1.13.23-.4.74-.53,1.13-.31l2.87,1.65c.4.23.53.73.31,1.13-.15.27-.43.42-.72.42ZM273.97,345.03c-.46,0-.83-.37-.83-.83v-3.31c0-.46.37-.83.83-.83s.83.37.83.83v3.31c0,.46-.37.83-.83.83ZM216.61,344.99c-.14,0-.28-.04-.41-.11l-2.87-1.65c-.4-.23-.53-.73-.31-1.13.23-.4.74-.53,1.13-.31l2.87,1.65c.4.23.53.73.31,1.13-.15.27-.43.42-.72.42ZM210.87,341.68c-.14,0-.28-.04-.41-.11l-2.82-1.62c-.39-.23-.56-.74-.34-1.14.22-.4.7-.56,1.09-.34.03.01.11.06.13.08l2.76,1.58c.4.23.53.73.31,1.13-.15.27-.43.42-.72.42ZM273.97,338.4c-.46,0-.83-.37-.83-.83v-3.31c0-.46.37-.83.83-.83s.83.37.83.83v3.31c0,.46-.37.83-.83.83ZM205.3,338.1c-.19,0-.38-.06-.54-.2-.84-.71-1.67-1.52-2.45-2.4-.3-.34-.27-.87.07-1.17.34-.3.87-.27,1.17.07.73.82,1.5,1.57,2.28,2.24.35.3.39.82.1,1.17-.16.19-.4.29-.63.29ZM200.89,333.18c-.26,0-.52-.12-.68-.36-.64-.93-1.24-1.91-1.78-2.91-.22-.4-.06-.9.34-1.12.39-.22.9-.07,1.12.34.51.95,1.07,1.87,1.68,2.75.26.38.17.89-.21,1.15-.14.1-.31.15-.47.15ZM273.97,331.78c-.46,0-.83-.37-.83-.83v-3.31c0-.46.37-.83.83-.83s.83.37.83.83v3.31c0,.46-.37.83-.83.83ZM197.78,327.34c-.33,0-.64-.2-.77-.53-.43-1.09-.78-2.19-1.04-3.26-.11-.44.16-.89.61-1,.45-.11.89.16,1,.61.25,1,.57,2.03.98,3.05.17.43-.04.91-.47,1.07-.1.04-.2.06-.3.06ZM273.97,325.15c-.46,0-.83-.37-.83-.83v-3.31c0-.46.37-.83.83-.83s.83.37.83.83v3.31c0,.46-.37.83-.83.83ZM196.23,320.92c-.43,0-.79-.33-.82-.76-.04-.47-.06-.94-.06-1.4v-1.97c0-.46.37-.83.83-.83s.83.37.83.83v1.97c0,.42.02.84.05,1.27.04.45-.3.85-.76.89-.02,0-.04,0-.07,0ZM273.97,318.52c-.46,0-.83-.37-.83-.83v-3.31c0-.46.37-.83.83-.83s.83.37.83.83v3.31c0,.46-.37.83-.83.83ZM196.18,314.29c-.46,0-.83-.37-.83-.83v-3.31c0-.46.37-.83.83-.83s.83.37.83.83v3.31c0,.46-.37.83-.83.83ZM273.86,311.9c-.42,0-.78-.31-.82-.74-.11-1-.31-2.06-.6-3.13-.12-.44.14-.9.59-1.02.45-.11.9.15,1.02.59.31,1.15.53,2.29.64,3.38.05.45-.28.86-.73.91-.03,0-.06,0-.09,0ZM196.18,307.67c-.46,0-.83-.37-.83-.83v-3.31c0-.46.37-.83.83-.83s.83.37.83.83v3.31c0,.46-.37.83-.83.83ZM272.17,305.51c-.33,0-.63-.19-.77-.51-.41-.98-.88-1.95-1.41-2.89-.22-.4-.08-.9.32-1.13.4-.22.9-.08,1.13.32.56,1,1.06,2.03,1.49,3.07.17.42-.02.91-.45,1.08-.1.04-.21.06-.32.06ZM196.18,301.04c-.46,0-.83-.37-.83-.83v-3.31c0-.46.37-.83.83-.83s.83.37.83.83v3.31c0,.46-.37.83-.83.83ZM268.94,299.73c-.26,0-.51-.12-.67-.34-.64-.89-1.32-1.72-2.03-2.49-.31-.33-.29-.86.04-1.17.33-.31.86-.29,1.17.04.75.81,1.48,1.7,2.16,2.64.27.37.18.89-.19,1.16-.15.11-.32.16-.48.16ZM264.43,294.9c-.18,0-.37-.06-.52-.18-.73-.59-1.48-1.1-2.23-1.54l-.41-.24c-.4-.23-.53-.74-.3-1.13.23-.4.73-.53,1.13-.3l.41.24c.82.48,1.64,1.04,2.44,1.68.36.29.41.81.12,1.17-.16.2-.4.31-.64.31ZM196.18,294.41c-.46,0-.83-.37-.83-.83v-3.31c0-.46.37-.83.83-.83s.83.37.83.83v3.31c0,.46-.37.83-.83.83ZM258.81,291.4c-.14,0-.28-.04-.41-.11l-2.87-1.65c-.4-.23-.53-.73-.31-1.13.23-.4.74-.53,1.13-.31l2.87,1.65c.4.23.53.73.31,1.13-.15.27-.43.42-.72.42ZM253.07,288.09c-.14,0-.28-.04-.41-.11l-2.87-1.65c-.4-.23-.53-.73-.31-1.13.23-.4.74-.53,1.13-.31l2.87,1.65c.4.23.53.73.31,1.13-.15.27-.43.42-.72.42ZM196.18,287.78c-.46,0-.83-.37-.83-.83v-3.31c0-.46.37-.83.83-.83s.83.37.83.83v3.31c0,.46-.37.83-.83.83ZM247.33,284.79c-.14,0-.28-.04-.41-.11l-2.87-1.65c-.4-.23-.53-.73-.31-1.13.23-.4.74-.53,1.13-.31l2.87,1.65c.4.23.53.73.31,1.13-.15.27-.43.42-.72.42ZM241.58,281.48c-.14,0-.28-.04-.41-.11l-2.87-1.65c-.4-.23-.53-.73-.31-1.13.23-.4.74-.53,1.13-.31l2.87,1.65c.4.23.53.73.31,1.13-.15.27-.43.42-.72.42ZM196.18,281.15c-.46,0-.83-.37-.83-.83v-3.31c0-.46.37-.83.83-.83s.83.37.83.83v3.31c0,.46-.37.83-.83.83ZM235.84,278.18c-.14,0-.28-.04-.41-.11l-2.87-1.65c-.4-.23-.53-.73-.31-1.13.23-.4.74-.53,1.13-.31l2.87,1.65c.4.23.53.73.31,1.13-.15.27-.43.42-.72.42ZM230.09,274.87c-.14,0-.28-.04-.41-.11l-2.87-1.65c-.4-.23-.53-.73-.31-1.13.23-.4.74-.53,1.13-.31l2.87,1.65c.4.23.53.73.31,1.13-.15.27-.43.42-.72.42ZM196.18,274.53c-.46,0-.83-.37-.83-.83v-3.31c0-.46.37-.83.83-.83s.83.37.83.83v3.31c0,.46-.37.83-.83.83ZM224.35,271.56c-.14,0-.28-.04-.41-.11l-2.87-1.65c-.4-.23-.53-.73-.31-1.13.23-.4.74-.53,1.13-.31l2.87,1.65c.4.23.53.73.31,1.13-.15.27-.43.42-.72.42ZM218.6,268.26c-.14,0-.28-.04-.41-.11l-2.87-1.65c-.4-.23-.53-.73-.31-1.13.23-.4.74-.53,1.13-.31l2.87,1.65c.4.23.53.73.31,1.13-.15.27-.43.42-.72.42ZM196.22,267.9s-.04,0-.06,0c-.46-.03-.8-.43-.77-.88.09-1.28.34-2.45.74-3.47.17-.43.65-.64,1.07-.47.43.17.64.65.47,1.07-.34.87-.56,1.87-.63,2.98-.03.44-.39.77-.83.77ZM212.86,264.95c-.14,0-.28-.04-.41-.11l-2.87-1.65c-.4-.23-.53-.73-.31-1.13.23-.4.74-.53,1.13-.31l2.87,1.65c.4.23.53.73.31,1.13-.15.27-.43.42-.72.42ZM208.05,262.18c-.14,0-.28-.04-.41-.11-.97-.56-1.92-.97-2.85-1.22-.44-.12-.7-.58-.58-1.02.12-.44.57-.7,1.02-.58,1.06.29,2.14.76,3.23,1.38.4.23.53.74.3,1.13-.15.27-.43.41-.72.41ZM198.75,261.97c-.23,0-.46-.1-.63-.29-.3-.35-.26-.87.08-1.17.96-.83,2.1-1.35,3.4-1.54.44-.05.87.25.94.7.06.45-.25.87-.7.94-.98.14-1.84.53-2.56,1.15-.16.14-.35.2-.54.2Z"/>
        </g>
        <g class="cls-58">
          <path class="cls-24" d="M349.22,419.7c-.63,0-1.28-.07-1.94-.22-.45-.1-.73-.54-.63-.99.1-.45.52-.73.99-.63,1.03.23,2.04.24,2.92.03.45-.11.89.17,1,.62.11.45-.17.89-.62,1-.54.13-1.12.19-1.71.19ZM344.36,418.34c-.13,0-.27-.03-.39-.1l-2.9-1.66c-.4-.23-.53-.73-.31-1.13.23-.4.74-.53,1.13-.31l2.86,1.63c.4.22.55.72.34,1.12-.15.28-.44.44-.73.44ZM353.57,417.92c-.21,0-.41-.08-.57-.23-.33-.32-.34-.84-.02-1.17.63-.66,1.12-1.5,1.45-2.53.14-.43.61-.67,1.05-.53.43.14.67.61.53,1.05-.41,1.26-1.03,2.32-1.83,3.16-.16.17-.38.25-.6.25ZM338.61,415.04c-.14,0-.28-.04-.41-.11l-2.87-1.65c-.4-.23-.53-.73-.31-1.13.23-.4.74-.53,1.13-.31l2.87,1.65c.4.23.53.73.31,1.13-.15.27-.43.42-.72.42ZM355.75,411.82h-.02c-.46-.01-.82-.39-.8-.85v-3.29c0-.46.38-.83.84-.83s.83.37.83.83v3.34c-.02.45-.39.8-.84.8ZM332.87,411.73c-.14,0-.28-.04-.41-.11l-2.87-1.65c-.4-.23-.53-.73-.31-1.13.23-.4.74-.53,1.13-.31l2.87,1.65c.4.23.53.73.31,1.13-.15.27-.43.42-.72.42ZM327.12,408.42c-.14,0-.28-.04-.41-.11l-2.87-1.65c-.4-.23-.53-.73-.31-1.13.23-.4.74-.53,1.13-.31l2.87,1.65c.4.23.53.73.31,1.13-.15.27-.43.42-.72.42ZM355.76,405.19c-.46,0-.83-.37-.83-.83v-3.31c0-.46.37-.83.83-.83s.83.37.83.83v3.31c0,.46-.37.83-.83.83ZM321.38,405.12c-.14,0-.28-.04-.41-.11l-2.87-1.65c-.4-.23-.53-.73-.31-1.13.23-.4.74-.53,1.13-.31l2.87,1.65c.4.23.53.73.31,1.13-.15.27-.43.42-.72.42ZM315.64,401.81c-.14,0-.28-.04-.41-.11l-2.87-1.65c-.4-.23-.53-.73-.31-1.13.23-.4.74-.53,1.13-.31l2.87,1.65c.4.23.53.73.31,1.13-.15.27-.43.42-.72.42ZM355.76,398.56c-.46,0-.83-.37-.83-.83v-3.31c0-.46.37-.83.83-.83s.83.37.83.83v3.31c0,.46-.37.83-.83.83ZM309.89,398.51c-.14,0-.28-.04-.41-.11l-2.87-1.65c-.4-.23-.53-.73-.31-1.13.23-.4.74-.53,1.13-.31l2.87,1.65c.4.23.53.73.31,1.13-.15.27-.43.42-.72.42ZM304.15,395.2c-.14,0-.28-.04-.41-.11l-2.87-1.65c-.4-.23-.53-.73-.31-1.13.23-.4.74-.53,1.13-.31l2.87,1.65c.4.23.53.73.31,1.13-.15.27-.43.42-.72.42ZM355.76,391.94c-.46,0-.83-.37-.83-.83v-3.31c0-.46.37-.83.83-.83s.83.37.83.83v3.31c0,.46-.37.83-.83.83ZM298.4,391.89c-.14,0-.28-.04-.41-.11l-2.87-1.65c-.4-.23-.53-.73-.31-1.13.23-.4.74-.53,1.13-.31l2.87,1.65c.4.23.53.73.31,1.13-.15.27-.43.42-.72.42ZM292.66,388.59c-.14,0-.28-.04-.41-.11l-2.82-1.62c-.39-.23-.56-.74-.34-1.14.22-.4.7-.56,1.09-.34.02.01.09.05.11.07l2.77,1.59c.4.23.53.73.31,1.13-.15.27-.43.42-.72.42ZM355.76,385.31c-.46,0-.83-.37-.83-.83v-3.31c0-.46.37-.83.83-.83s.83.37.83.83v3.31c0,.46-.37.83-.83.83ZM287.09,385.01c-.19,0-.38-.06-.54-.2-.84-.71-1.67-1.52-2.45-2.4-.3-.34-.27-.87.07-1.17.34-.3.87-.27,1.17.07.73.82,1.5,1.57,2.28,2.24.35.3.39.82.1,1.17-.16.19-.4.29-.63.29ZM282.68,380.08c-.26,0-.52-.12-.68-.36-.64-.93-1.24-1.91-1.78-2.91-.22-.4-.06-.9.34-1.12.4-.22.9-.07,1.12.34.51.95,1.07,1.87,1.68,2.75.26.38.17.89-.21,1.15-.14.1-.31.15-.47.15ZM355.76,378.68c-.46,0-.83-.37-.83-.83v-3.31c0-.46.37-.83.83-.83s.83.37.83.83v3.31c0,.46-.37.83-.83.83ZM279.57,374.25c-.33,0-.64-.2-.77-.53-.43-1.09-.78-2.19-1.04-3.26-.11-.44.16-.89.61-1,.45-.11.89.16,1,.61.25,1,.57,2.03.98,3.05.17.43-.04.91-.47,1.07-.1.04-.2.06-.3.06ZM355.76,372.05c-.46,0-.83-.37-.83-.83v-3.31c0-.46.37-.83.83-.83s.83.37.83.83v3.31c0,.46-.37.83-.83.83ZM278.02,367.82c-.43,0-.79-.33-.82-.76-.04-.47-.06-.94-.06-1.4v-1.97c0-.46.37-.83.83-.83s.83.37.83.83v1.97c0,.42.02.84.05,1.27.04.45-.3.85-.76.89-.02,0-.04,0-.07,0ZM355.76,365.42c-.46,0-.83-.37-.83-.83v-3.31c0-.46.37-.83.83-.83s.83.37.83.83v3.31c0,.46-.37.83-.83.83ZM277.97,361.2c-.46,0-.83-.37-.83-.83v-3.31c0-.46.37-.83.83-.83s.83.37.83.83v3.31c0,.46-.37.83-.83.83ZM355.65,358.8c-.42,0-.78-.31-.82-.74-.11-1-.31-2.05-.6-3.13-.12-.44.14-.9.59-1.02.45-.11.9.15,1.02.59.31,1.15.53,2.29.64,3.38.05.45-.28.86-.73.91-.03,0-.06,0-.09,0ZM277.97,354.57c-.46,0-.83-.37-.83-.83v-3.31c0-.46.37-.83.83-.83s.83.37.83.83v3.31c0,.46-.37.83-.83.83ZM353.96,352.42c-.33,0-.63-.19-.77-.51-.41-.98-.88-1.95-1.41-2.89-.22-.4-.08-.9.32-1.13.4-.22.9-.08,1.13.32.56,1,1.06,2.03,1.49,3.07.17.42-.02.91-.45,1.08-.1.04-.21.06-.32.06ZM277.97,347.94c-.46,0-.83-.37-.83-.83v-3.31c0-.46.37-.83.83-.83s.83.37.83.83v3.31c0,.46-.37.83-.83.83ZM350.73,346.64c-.26,0-.51-.12-.67-.34-.64-.89-1.32-1.72-2.03-2.49-.31-.33-.29-.86.04-1.17.33-.31.86-.29,1.17.04.75.81,1.48,1.7,2.16,2.64.27.37.18.89-.19,1.16-.15.11-.32.16-.48.16ZM346.22,341.81c-.18,0-.37-.06-.52-.18-.73-.59-1.48-1.1-2.22-1.53l-.41-.24c-.4-.23-.53-.74-.3-1.13.23-.4.73-.53,1.13-.3l.41.24c.82.47,1.64,1.04,2.44,1.68.36.29.41.81.12,1.17-.16.2-.4.31-.64.31ZM277.97,341.32c-.46,0-.83-.37-.83-.83v-3.31c0-.46.37-.83.83-.83s.83.37.83.83v3.31c0,.46-.37.83-.83.83ZM340.61,338.31c-.14,0-.28-.04-.41-.11l-2.87-1.65c-.4-.23-.53-.73-.31-1.13.23-.4.74-.53,1.13-.31l2.87,1.65c.4.23.53.73.31,1.13-.15.27-.43.42-.72.42ZM334.86,335c-.14,0-.28-.04-.41-.11l-2.87-1.65c-.4-.23-.53-.73-.31-1.13.23-.4.74-.53,1.13-.31l2.87,1.65c.4.23.53.73.31,1.13-.15.27-.43.42-.72.42ZM277.97,334.69c-.46,0-.83-.37-.83-.83v-3.31c0-.46.37-.83.83-.83s.83.37.83.83v3.31c0,.46-.37.83-.83.83ZM329.12,331.69c-.14,0-.28-.04-.41-.11l-2.87-1.65c-.4-.23-.53-.73-.31-1.13.23-.4.74-.53,1.13-.31l2.87,1.65c.4.23.53.73.31,1.13-.15.27-.43.42-.72.42ZM323.37,328.39c-.14,0-.28-.04-.41-.11l-2.87-1.65c-.4-.23-.53-.73-.31-1.13.23-.4.74-.53,1.13-.31l2.87,1.65c.4.23.53.73.31,1.13-.15.27-.43.42-.72.42ZM277.97,328.06c-.46,0-.83-.37-.83-.83v-3.31c0-.46.37-.83.83-.83s.83.37.83.83v3.31c0,.46-.37.83-.83.83ZM317.63,325.08c-.14,0-.28-.04-.41-.11l-2.87-1.65c-.4-.23-.53-.73-.31-1.13.23-.4.74-.53,1.13-.31l2.87,1.65c.4.23.53.73.31,1.13-.15.27-.43.42-.72.42ZM311.88,321.77c-.14,0-.28-.04-.41-.11l-2.87-1.65c-.4-.23-.53-.73-.31-1.13.23-.4.74-.53,1.13-.31l2.87,1.65c.4.23.53.73.31,1.13-.15.27-.43.42-.72.42ZM277.97,321.43c-.46,0-.83-.37-.83-.83v-3.31c0-.46.37-.83.83-.83s.83.37.83.83v3.31c0,.46-.37.83-.83.83ZM306.14,318.47c-.14,0-.28-.04-.41-.11l-2.87-1.65c-.4-.23-.53-.73-.31-1.13.23-.4.74-.53,1.13-.31l2.87,1.65c.4.23.53.73.31,1.13-.15.27-.43.42-.72.42ZM300.39,315.16c-.14,0-.28-.04-.41-.11l-2.87-1.65c-.4-.23-.53-.73-.31-1.13.23-.4.74-.53,1.13-.31l2.87,1.65c.4.23.53.73.31,1.13-.15.27-.43.42-.72.42ZM278.01,314.81s-.04,0-.06,0c-.46-.03-.8-.43-.77-.89.09-1.28.34-2.45.74-3.47.17-.43.65-.63,1.07-.47.43.17.64.65.47,1.07-.34.87-.55,1.87-.63,2.98-.03.44-.39.77-.83.77ZM294.65,311.86c-.14,0-.28-.04-.41-.11l-2.87-1.65c-.4-.23-.53-.73-.31-1.13.23-.4.74-.53,1.13-.31l2.87,1.65c.4.23.53.73.31,1.13-.15.27-.43.42-.72.42ZM289.84,309.09c-.14,0-.28-.04-.41-.11-.97-.56-1.92-.97-2.85-1.22-.44-.12-.7-.58-.58-1.02.12-.44.57-.7,1.02-.58,1.06.29,2.14.76,3.23,1.38.4.23.53.74.3,1.13-.15.27-.43.41-.72.41ZM280.54,308.87c-.23,0-.46-.1-.63-.29-.3-.35-.26-.87.08-1.17.96-.83,2.1-1.35,3.4-1.54.44-.06.87.25.94.7.06.45-.25.87-.7.94-.98.14-1.84.53-2.55,1.15-.16.14-.35.2-.54.2Z"/>
        </g>
        <g class="cls-58">
          <path class="cls-24" d="M351.16,296.76c-.98,0-2.08-.28-3.16-.87-.4-.22-.55-.72-.34-1.12.22-.4.72-.55,1.12-.34.84.45,1.63.71,2.37.67.11,0,.22,0,.32-.02.47-.05.87.28.92.73.05.46-.28.87-.73.92-.16.02-.33.03-.5.03ZM354.33,295.1c-.17,0-.34-.05-.49-.16-.37-.27-.45-.79-.17-1.16.51-.69.86-1.6,1.03-2.7.07-.45.5-.75.95-.69.45.07.76.5.69.95-.22,1.37-.67,2.52-1.34,3.42-.16.22-.41.34-.67.34ZM345.52,294.34c-.14,0-.28-.04-.41-.11l-2.87-1.65c-.4-.23-.53-.73-.31-1.13.23-.4.74-.53,1.13-.31l2.87,1.65c.4.23.53.73.31,1.13-.15.27-.43.42-.72.42ZM339.77,291.04c-.14,0-.28-.04-.41-.11l-2.87-1.65c-.4-.23-.53-.73-.31-1.13.23-.4.74-.53,1.13-.31l2.87,1.65c.4.23.53.73.31,1.13-.15.27-.43.42-.72.42ZM355.65,288.73c-.46,0-.83-.37-.83-.83v-3.31c0-.46.37-.83.83-.83s.83.37.83.83v3.31c0,.46-.37.83-.83.83ZM334.03,287.74c-.14,0-.28-.04-.41-.11l-2.87-1.65c-.4-.23-.53-.73-.31-1.13.23-.4.74-.53,1.13-.31l2.87,1.65c.4.23.53.73.31,1.13-.15.27-.43.42-.72.42ZM328.28,284.43c-.14,0-.28-.04-.41-.11l-2.87-1.65c-.4-.23-.53-.73-.31-1.13.23-.4.74-.53,1.13-.31l2.87,1.65c.4.23.53.73.31,1.13-.15.27-.43.42-.72.42ZM355.65,282.1c-.46,0-.83-.37-.83-.83v-3.31c0-.46.37-.83.83-.83s.83.37.83.83v3.31c0,.46-.37.83-.83.83ZM322.53,281.13c-.14,0-.28-.04-.41-.11l-2.87-1.65c-.4-.23-.53-.73-.31-1.13.23-.4.74-.53,1.13-.31l2.87,1.65c.4.23.53.73.31,1.13-.15.27-.43.42-.72.42ZM316.79,277.82c-.14,0-.28-.04-.41-.11l-2.87-1.65c-.4-.23-.53-.73-.31-1.13.23-.4.74-.53,1.13-.31l2.87,1.65c.4.23.53.73.31,1.13-.15.27-.43.42-.72.42ZM355.56,275.48c-.42,0-.78-.32-.82-.74-.11-1-.32-2.05-.64-3.09-.13-.44.12-.9.56-1.03.44-.14.9.12,1.03.56.34,1.14.58,2.28.7,3.39.05.45-.28.86-.74.91-.03,0-.06,0-.09,0ZM311.04,274.52c-.14,0-.28-.04-.41-.11l-2.87-1.65c-.4-.23-.53-.73-.31-1.13.23-.4.74-.53,1.13-.31l2.87,1.65c.4.23.53.73.31,1.13-.15.27-.43.42-.72.42ZM305.3,271.21c-.14,0-.28-.04-.41-.11l-2.87-1.65c-.4-.23-.53-.73-.31-1.13.23-.4.74-.53,1.13-.31l2.87,1.65c.4.23.53.73.31,1.13-.15.27-.43.42-.72.42ZM353.68,269.15c-.3,0-.6-.17-.74-.46-.48-.97-1.03-1.89-1.63-2.71-.27-.37-.19-.89.18-1.16.37-.27.89-.19,1.16.18.66.9,1.26,1.9,1.78,2.96.2.41.03.91-.38,1.11-.12.06-.24.09-.37.09ZM299.55,267.91c-.14,0-.28-.04-.41-.11l-2.87-1.65c-.4-.23-.53-.73-.31-1.13.23-.4.74-.53,1.13-.31l2.87,1.65c.4.23.53.73.31,1.13-.15.27-.43.42-.72.42ZM293.81,264.6c-.14,0-.28-.04-.41-.11l-2.87-1.65c-.4-.23-.53-.73-.31-1.13.23-.4.74-.53,1.13-.31l2.87,1.65c.4.23.53.73.31,1.13-.15.27-.43.42-.72.42ZM349.76,263.86c-.19,0-.39-.07-.54-.2-.48-.41-.97-.77-1.45-1.05l-1.18-.67c-.4-.23-.53-.73-.31-1.13.23-.4.74-.53,1.13-.31l1.18.68c.58.34,1.16.75,1.72,1.24.34.3.38.82.08,1.17-.16.19-.39.28-.62.28ZM288.06,261.3c-.14,0-.28-.04-.41-.11l-2.87-1.65c-.4-.23-.53-.73-.31-1.13.23-.4.74-.53,1.13-.31l2.87,1.65c.4.23.53.73.31,1.13-.15.27-.43.42-.72.42ZM344.12,260.39c-.14,0-.28-.04-.41-.11l-2.87-1.65c-.4-.23-.53-.73-.31-1.13.23-.4.74-.53,1.13-.31l2.87,1.65c.4.23.53.73.31,1.13-.15.27-.43.42-.72.42ZM282.32,258c-.14,0-.28-.04-.41-.11l-2.87-1.65c-.4-.23-.53-.73-.31-1.13.23-.4.74-.53,1.13-.31l2.87,1.65c.4.23.53.73.31,1.13-.15.27-.43.42-.72.42ZM338.38,257.08c-.14,0-.28-.04-.41-.11l-2.87-1.65c-.4-.23-.53-.73-.31-1.13.23-.4.74-.53,1.13-.31l2.87,1.65c.4.23.53.73.31,1.13-.15.27-.43.42-.72.42ZM276.57,254.69c-.14,0-.28-.04-.41-.11l-2.87-1.65c-.4-.23-.53-.73-.31-1.13.23-.4.74-.53,1.13-.31l2.87,1.65c.4.23.53.73.31,1.13-.15.27-.43.42-.72.42ZM332.63,253.78c-.14,0-.28-.04-.41-.11l-2.87-1.65c-.4-.23-.53-.73-.31-1.13.23-.4.74-.53,1.13-.31l2.87,1.65c.4.23.53.73.31,1.13-.15.27-.43.42-.72.42ZM270.82,251.39c-.14,0-.28-.04-.41-.11l-2.87-1.65c-.4-.23-.53-.73-.31-1.13.23-.4.74-.53,1.13-.31l2.87,1.65c.4.23.53.73.31,1.13-.15.27-.43.42-.72.42ZM326.89,250.48c-.14,0-.28-.04-.41-.11l-2.87-1.65c-.4-.23-.53-.73-.31-1.13.23-.4.74-.53,1.13-.31l2.87,1.65c.4.23.53.73.31,1.13-.15.27-.43.42-.72.42ZM265.08,248.08c-.14,0-.28-.04-.41-.11l-2.87-1.65c-.4-.23-.53-.73-.31-1.13.23-.4.74-.53,1.13-.31l2.87,1.65c.4.23.53.73.31,1.13-.15.27-.43.42-.72.42ZM321.14,247.17c-.14,0-.28-.04-.41-.11l-2.87-1.65c-.4-.23-.53-.73-.31-1.13.23-.4.74-.53,1.13-.31l2.87,1.65c.4.23.53.73.31,1.13-.15.27-.43.42-.72.42ZM259.33,244.78c-.14,0-.28-.04-.41-.11l-2.87-1.65c-.4-.23-.53-.73-.31-1.13.23-.4.74-.53,1.13-.31l2.87,1.65c.4.23.53.73.31,1.13-.15.27-.43.42-.72.42ZM315.4,243.87c-.14,0-.28-.04-.41-.11l-2.87-1.65c-.4-.23-.53-.73-.31-1.13.23-.4.74-.53,1.13-.31l2.87,1.65c.4.23.53.73.31,1.13-.15.27-.43.42-.72.42ZM253.59,241.47c-.14,0-.28-.04-.41-.11l-2.87-1.65c-.4-.23-.53-.73-.31-1.13.23-.4.74-.53,1.13-.31l2.87,1.65c.4.23.53.73.31,1.13-.15.27-.43.42-.72.42ZM309.65,240.56c-.14,0-.28-.04-.41-.11l-2.87-1.65c-.4-.23-.53-.73-.31-1.13.23-.4.74-.53,1.13-.31l2.87,1.65c.4.23.53.73.31,1.13-.15.27-.43.42-.72.42ZM247.84,238.17c-.14,0-.28-.04-.41-.11l-2.87-1.65c-.4-.23-.53-.73-.31-1.13.23-.4.74-.53,1.13-.31l2.87,1.65c.4.23.53.73.31,1.13-.15.27-.43.42-.72.42ZM303.91,237.26c-.14,0-.28-.04-.41-.11l-2.87-1.65c-.4-.23-.53-.73-.31-1.13.23-.4.74-.53,1.13-.31l2.87,1.65c.4.23.53.73.31,1.13-.15.27-.43.42-.72.42ZM242.1,234.86c-.14,0-.28-.04-.41-.11l-2.87-1.65c-.4-.23-.53-.73-.31-1.13.23-.4.74-.53,1.13-.31l2.87,1.65c.4.23.53.73.31,1.13-.15.27-.43.42-.72.42ZM298.16,233.95c-.14,0-.28-.04-.41-.11l-2.87-1.65c-.4-.23-.53-.73-.31-1.13.23-.4.74-.53,1.13-.31l2.87,1.65c.4.23.53.73.31,1.13-.15.27-.43.42-.72.42ZM236.35,231.56c-.14,0-.28-.04-.41-.11l-2.87-1.65c-.4-.23-.53-.73-.31-1.13.23-.4.74-.53,1.13-.31l2.87,1.65c.4.23.53.73.31,1.13-.15.27-.43.42-.72.42ZM292.42,230.65c-.14,0-.28-.04-.41-.11l-2.87-1.65c-.4-.23-.53-.73-.31-1.13.23-.4.74-.53,1.13-.31l2.87,1.65c.4.23.53.73.31,1.13-.15.27-.43.42-.72.42ZM230.61,228.26c-.14,0-.28-.04-.41-.11l-2.87-1.65c-.4-.23-.53-.73-.31-1.13.23-.4.74-.53,1.13-.31l2.87,1.65c.4.23.53.73.31,1.13-.15.27-.43.42-.72.42ZM286.67,227.35c-.14,0-.28-.04-.41-.11l-2.87-1.65c-.4-.23-.53-.73-.31-1.13.23-.4.74-.53,1.13-.31l2.87,1.65c.4.23.53.73.31,1.13-.15.27-.43.42-.72.42ZM224.86,224.95c-.14,0-.28-.04-.41-.11l-2.87-1.65c-.4-.23-.53-.73-.31-1.13.23-.4.74-.53,1.13-.31l2.87,1.65c.4.23.53.73.31,1.13-.15.27-.43.42-.72.42ZM280.92,224.04c-.14,0-.28-.04-.41-.11l-2.87-1.65c-.4-.23-.53-.73-.31-1.13.23-.4.74-.53,1.13-.31l2.87,1.65c.4.23.53.73.31,1.13-.15.27-.43.42-.72.42ZM219.12,221.65c-.14,0-.28-.04-.41-.11l-2.87-1.65c-.4-.23-.53-.73-.31-1.13.23-.4.74-.53,1.13-.31l2.87,1.65c.4.23.53.73.31,1.13-.15.27-.43.42-.72.42ZM275.18,220.74c-.14,0-.28-.04-.41-.11l-2.87-1.65c-.4-.23-.53-.73-.31-1.13.23-.4.74-.53,1.13-.31l2.87,1.65c.4.23.53.73.31,1.13-.15.27-.43.42-.72.42ZM213.37,218.34c-.14,0-.28-.04-.41-.11l-2.87-1.65c-.4-.23-.53-.73-.31-1.13.23-.4.74-.53,1.13-.31l2.87,1.65c.4.23.53.73.31,1.13-.15.27-.43.42-.72.42ZM269.43,217.43c-.14,0-.28-.04-.41-.11l-2.87-1.65c-.4-.23-.53-.73-.31-1.13.23-.4.74-.53,1.13-.31l2.87,1.65c.4.23.53.73.31,1.13-.15.27-.43.42-.72.42ZM207.62,215.04c-.14,0-.28-.04-.41-.11l-2.87-1.65c-.4-.23-.53-.73-.31-1.13.23-.4.74-.53,1.13-.31l2.87,1.65c.4.23.53.73.31,1.13-.15.27-.43.42-.72.42ZM263.69,214.13c-.14,0-.28-.04-.41-.11l-2.87-1.65c-.4-.23-.53-.73-.31-1.13.23-.4.74-.53,1.13-.31l2.87,1.65c.4.23.53.73.31,1.13-.15.27-.43.42-.72.42ZM201.89,211.72c-.16,0-.31-.04-.45-.13-.92-.6-1.82-1.38-2.65-2.33-.3-.34-.27-.87.07-1.17.34-.3.87-.27,1.17.07.74.83,1.51,1.52,2.31,2.03.38.25.5.76.25,1.15-.16.24-.42.38-.7.38ZM257.94,210.82c-.14,0-.28-.04-.41-.11l-2.87-1.65c-.4-.23-.53-.73-.31-1.13.23-.4.74-.53,1.13-.31l2.87,1.65c.4.23.53.73.31,1.13-.15.27-.43.42-.72.42ZM252.2,207.52c-.14,0-.28-.04-.41-.11l-2.87-1.65c-.4-.23-.53-.74-.31-1.13.23-.4.74-.53,1.13-.31l2.87,1.65c.4.23.53.74.31,1.13-.15.27-.43.42-.72.42ZM197.47,206.86c-.28,0-.56-.15-.71-.41-.58-.98-1.08-2.03-1.5-3.11-.16-.43.05-.91.48-1.07.43-.16.9.05,1.07.48.38.99.85,1.95,1.38,2.86.23.39.1.9-.29,1.13-.13.08-.28.11-.42.11ZM246.45,204.21c-.14,0-.28-.04-.41-.11l-2.87-1.65c-.4-.23-.53-.73-.31-1.13.23-.4.74-.53,1.13-.31l2.87,1.65c.4.23.53.73.31,1.13-.15.27-.43.41-.72.41ZM240.71,200.91c-.14,0-.28-.04-.41-.11l-2.87-1.65c-.4-.23-.53-.73-.31-1.13.23-.4.74-.53,1.13-.31l2.87,1.65c.4.23.53.73.31,1.13-.15.27-.43.42-.72.42ZM195.1,200.7c-.39,0-.73-.27-.81-.67-.22-1.08-.32-2.15-.32-3.18v-3.31c0-.46.37-.83.83-.83s.83.37.83.83v3.31c0,.92.1,1.88.29,2.85.09.45-.2.89-.65.97-.05.01-.11.02-.16.02ZM234.96,197.61c-.14,0-.28-.04-.41-.11l-2.87-1.65c-.4-.23-.53-.73-.31-1.13.23-.4.74-.53,1.13-.31l2.87,1.65c.4.23.53.73.31,1.13-.15.27-.43.42-.72.42ZM229.22,194.3c-.14,0-.28-.04-.41-.11l-2.87-1.65c-.4-.23-.53-.73-.31-1.13.23-.4.74-.53,1.13-.3l2.87,1.65c.4.23.53.73.31,1.13-.15.27-.43.42-.72.42ZM194.8,191.05c-.46,0-.83-.37-.83-.83v-3.31c0-.46.37-.83.83-.83s.83.37.83.83v3.31c0,.46-.37.83-.83.83ZM223.47,191c-.14,0-.28-.04-.41-.11l-2.87-1.65c-.4-.23-.53-.73-.31-1.13.23-.4.74-.53,1.13-.31l2.87,1.65c.4.23.53.73.31,1.13-.15.27-.43.42-.72.42ZM217.73,187.69c-.14,0-.28-.04-.41-.11l-2.87-1.65c-.4-.23-.53-.73-.31-1.13.23-.4.74-.53,1.13-.31l2.87,1.65c.4.23.53.73.31,1.13-.15.27-.43.42-.72.42ZM194.8,184.43h0c-.46,0-.83-.37-.83-.83,0-1.31.19-2.5.54-3.53.15-.43.62-.66,1.05-.51.43.15.66.62.51,1.05-.3.85-.45,1.86-.45,2.99,0,.46-.37.83-.83.83ZM211.98,184.39c-.14,0-.28-.04-.41-.11l-2.87-1.65c-.4-.23-.53-.74-.31-1.13.23-.4.74-.53,1.13-.31l2.87,1.65c.4.23.53.74.31,1.13-.15.27-.43.42-.72.42ZM206.23,181.08c-.14,0-.28-.04-.41-.11l-2.87-1.65c-.4-.23-.53-.73-.31-1.13.23-.4.74-.53,1.13-.31l2.87,1.65c.4.23.53.73.31,1.13-.15.27-.43.42-.72.42ZM197.19,178.53c-.27,0-.53-.13-.69-.37-.25-.38-.15-.9.24-1.15,1.09-.72,2.42-.93,3.82-.61.45.1.73.55.62.99-.1.45-.54.72-.99.62-.97-.22-1.83-.09-2.54.38-.14.09-.3.14-.45.14Z"/>
        </g>
        <g class="cls-58">
          <path class="cls-24" d="M273.66,204.84c-.14,0-.28-.04-.41-.11l-2.87-1.66c-.4-.23-.53-.74-.3-1.13.23-.4.74-.53,1.13-.3l2.87,1.66c.4.23.53.74.3,1.13-.15.27-.43.41-.72.41ZM273.8,201.76c-.46,0-.83-.37-.83-.83v-3.31c0-.46.37-.83.83-.83s.83.37.83.83v3.31c0,.46-.37.83-.83.83ZM267.92,201.52c-.14,0-.28-.04-.41-.11l-2.87-1.66c-.4-.23-.53-.74-.3-1.13.23-.4.74-.53,1.13-.3l2.87,1.66c.4.23.53.74.3,1.13-.15.27-.43.41-.72.41ZM262.18,198.21c-.14,0-.28-.04-.41-.11l-2.87-1.66c-.4-.23-.53-.74-.3-1.13.23-.4.74-.53,1.13-.3l2.87,1.66c.4.23.53.74.3,1.13-.15.27-.43.41-.72.41ZM273.8,195.13c-.46,0-.83-.37-.83-.83v-3.31c0-.46.37-.83.83-.83s.83.37.83.83v3.31c0,.46-.37.83-.83.83ZM256.44,194.89c-.14,0-.28-.04-.41-.11l-2.87-1.66c-.4-.23-.53-.74-.3-1.13.23-.4.74-.53,1.13-.3l2.87,1.66c.4.23.53.74.3,1.13-.15.27-.43.41-.72.41ZM250.7,191.58c-.14,0-.28-.04-.41-.11l-2.87-1.66c-.4-.23-.53-.74-.3-1.13.23-.4.74-.53,1.13-.3l2.87,1.66c.4.23.53.74.3,1.13-.15.27-.43.41-.72.41ZM273.8,188.5c-.46,0-.83-.37-.83-.83v-3.31c0-.46.37-.83.83-.83s.83.37.83.83v3.31c0,.46-.37.83-.83.83ZM244.96,188.26c-.14,0-.28-.04-.41-.11l-1.37-.79c-.26-.15-.41-.42-.41-.72v-1.73c0-.46.37-.83.83-.83s.83.37.83.83v1.26l.95.55c.4.23.53.74.3,1.13-.15.27-.43.41-.72.41ZM243.6,182.42c-.46,0-.83-.37-.83-.83v-3.31c0-.46.37-.83.83-.83s.83.37.83.83v3.31c0,.46-.37.83-.83.83ZM273.8,181.88c-.46,0-.83-.37-.83-.83v-3.31c0-.46.37-.83.83-.83s.83.37.83.83v3.31c0,.46-.37.83-.83.83ZM243.6,175.79c-.46,0-.83-.37-.83-.83v-3.31c0-.46.37-.83.83-.83s.83.37.83.83v3.31c0,.46-.37.83-.83.83ZM273.8,175.25c-.46,0-.83-.37-.83-.83v-2.84l-2.66-1.56c-.39-.23-.53-.74-.3-1.13.23-.4.74-.52,1.13-.3l2.86,1.68s.07.04.1.07c.3.12.52.42.52.77v3.31c0,.46-.37.83-.83.83ZM243.6,169.17c-.46,0-.83-.37-.83-.83v-3.31c0-.46.37-.83.83-.83s.83.37.83.83v3.31c0,.46-.37.83-.83.83ZM267.87,168.46c-.14,0-.29-.04-.42-.11l-2.86-1.68c-.39-.23-.53-.74-.3-1.13.23-.4.74-.53,1.13-.3l2.86,1.68c.39.23.53.74.3,1.13-.16.26-.43.41-.72.41ZM262.15,165.11c-.14,0-.29-.04-.42-.11l-2.86-1.68c-.39-.23-.53-.74-.3-1.13.23-.4.74-.53,1.13-.3l2.86,1.68c.39.23.53.74.3,1.13-.16.26-.43.41-.72.41ZM243.6,162.54c-.46,0-.83-.37-.83-.83v-3.31c0-.46.37-.83.83-.83s.83.37.83.83v3.31c0,.46-.37.83-.83.83ZM256.44,161.75c-.14,0-.29-.04-.42-.11l-2.86-1.68c-.39-.23-.53-.74-.3-1.13.23-.4.74-.53,1.13-.3l2.86,1.68c.39.23.53.74.3,1.13-.16.26-.43.41-.72.41ZM250.72,158.4c-.14,0-.29-.04-.42-.11l-2.86-1.68c-.39-.23-.53-.74-.3-1.13.23-.4.74-.53,1.13-.3l2.86,1.68c.39.23.53.74.3,1.13-.16.26-.43.41-.72.41ZM243.6,155.91c-.46,0-.83-.37-.83-.83v-1.69c0-.3.16-.57.42-.72.26-.15.58-.15.83,0l1.4.82c.39.23.53.74.3,1.13-.23.39-.74.53-1.13.3l-.16-.09v.24c0,.46-.37.83-.83.83Z"/>
        </g>
        <g class="cls-58">
          <path class="cls-24" d="M211.52,168.87c-.14,0-.28-.03-.41-.11l-2.89-1.63c-.4-.22-.54-.73-.31-1.13.22-.4.73-.54,1.13-.31l2.89,1.63c.4.22.54.73.31,1.13-.15.27-.43.42-.72.42ZM211.66,165.79c-.46,0-.83-.37-.83-.83v-3.31c0-.46.37-.83.83-.83s.83.37.83.83v3.31c0,.46-.37.83-.83.83ZM205.75,165.61c-.14,0-.28-.03-.41-.11l-2.89-1.63c-.4-.22-.54-.73-.31-1.13.22-.4.73-.54,1.13-.31l2.89,1.63c.4.22.54.73.31,1.13-.15.27-.43.42-.72.42ZM199.98,162.35c-.14,0-.28-.03-.41-.11l-2.89-1.63c-.4-.22-.54-.73-.31-1.13.22-.4.73-.54,1.13-.31l2.89,1.63c.4.23.54.73.31,1.13-.15.27-.43.42-.72.42ZM211.66,159.16c-.46,0-.83-.37-.83-.83v-3.31c0-.46.37-.83.83-.83s.83.37.83.83v3.31c0,.46-.37.83-.83.83ZM194.21,159.09c-.14,0-.28-.03-.41-.11l-2.89-1.63c-.4-.22-.54-.73-.31-1.13.22-.4.73-.54,1.13-.31l2.89,1.63c.4.23.54.73.31,1.13-.15.27-.43.42-.72.42ZM188.44,155.84c-.14,0-.28-.03-.41-.11l-2.89-1.63c-.4-.22-.54-.73-.31-1.13.22-.4.73-.54,1.13-.31l2.89,1.63c.4.23.54.73.31,1.13-.15.27-.43.42-.72.42ZM182.66,152.58c-.14,0-.28-.03-.41-.11l-2.89-1.63c-.4-.22-.54-.73-.31-1.13.22-.4.73-.54,1.13-.31l2.89,1.63c.4.23.54.73.31,1.13-.15.27-.43.42-.72.42ZM211.66,152.53c-.46,0-.83-.37-.83-.83v-3.31c0-.46.37-.83.83-.83s.83.37.83.83v3.31c0,.46-.37.83-.83.83ZM176.89,149.32c-.14,0-.28-.03-.41-.11l-2.89-1.63c-.4-.22-.54-.73-.31-1.13.22-.4.73-.54,1.13-.31l2.89,1.63c.4.23.54.73.31,1.13-.15.27-.43.42-.72.42ZM171.12,146.06c-.14,0-.28-.03-.41-.11l-2.89-1.63c-.4-.22-.54-.73-.31-1.13.22-.4.73-.54,1.13-.31l2.89,1.63c.4.23.54.73.31,1.13-.15.27-.43.42-.72.42ZM211.66,145.91c-.46,0-.83-.37-.83-.83v-3.31c0-.46.37-.83.83-.83s.83.37.83.83v3.31c0,.46-.37.83-.83.83ZM165.35,142.8c-.14,0-.28-.03-.41-.11l-2.89-1.63c-.4-.22-.54-.73-.31-1.13.22-.4.73-.54,1.13-.31l2.89,1.63c.4.22.54.73.31,1.13-.15.27-.43.42-.72.42ZM159.58,139.54c-.14,0-.28-.03-.41-.11l-2.89-1.63c-.4-.23-.54-.73-.31-1.13.22-.4.73-.54,1.13-.31l2.89,1.63c.4.22.54.73.31,1.13-.15.27-.43.42-.72.42ZM211.66,139.28c-.46,0-.83-.37-.83-.83v-3.31c0-.46.37-.83.83-.83s.83.37.83.83v3.31c0,.46-.37.83-.83.83ZM153.8,136.29c-.14,0-.28-.03-.41-.11l-2.89-1.63c-.4-.23-.54-.73-.31-1.13.22-.4.73-.54,1.13-.31l2.89,1.63c.4.22.54.73.31,1.13-.15.27-.43.42-.72.42ZM209.01,134.46c-.14,0-.28-.03-.41-.11l-2.88-1.63c-.4-.23-.54-.73-.31-1.13.23-.4.74-.54,1.13-.31l2.88,1.63c.4.23.54.73.31,1.13-.15.27-.43.42-.72.42ZM148.03,133.03c-.14,0-.28-.03-.41-.11l-2.89-1.63c-.4-.23-.54-.73-.31-1.13.22-.4.73-.54,1.13-.31l2.89,1.63c.4.22.54.73.31,1.13-.15.27-.43.42-.72.42ZM203.24,131.2c-.14,0-.28-.03-.41-.11l-2.88-1.63c-.4-.23-.54-.73-.31-1.13.23-.4.73-.54,1.13-.31l2.88,1.63c.4.23.54.73.31,1.13-.15.27-.43.42-.72.42ZM142.26,129.77c-.14,0-.28-.03-.41-.11l-2.89-1.63c-.4-.23-.54-.73-.31-1.13.22-.4.73-.54,1.13-.31l2.89,1.63c.4.22.54.73.31,1.13-.15.27-.43.42-.72.42ZM197.47,127.93c-.14,0-.28-.03-.41-.11l-2.88-1.63c-.4-.23-.54-.73-.31-1.13.23-.4.73-.54,1.13-.31l2.88,1.63c.4.23.54.73.31,1.13-.15.27-.43.42-.72.42ZM136.49,126.51c-.14,0-.28-.03-.41-.11l-2.89-1.63c-.4-.23-.54-.73-.31-1.13.22-.4.73-.54,1.13-.31l2.89,1.63c.4.22.54.73.31,1.13-.15.27-.43.42-.72.42ZM191.71,124.66c-.14,0-.28-.03-.41-.11l-2.88-1.63c-.4-.23-.54-.73-.31-1.13.23-.4.73-.54,1.13-.31l2.88,1.63c.4.23.54.73.31,1.13-.15.27-.43.42-.72.42ZM130.72,123.25c-.14,0-.28-.03-.41-.11l-2.89-1.63c-.4-.22-.54-.73-.31-1.13.22-.4.73-.54,1.13-.31l2.89,1.63c.4.22.54.73.31,1.13-.15.27-.43.42-.72.42ZM185.94,121.4c-.14,0-.28-.03-.41-.11l-2.88-1.63c-.4-.23-.54-.73-.31-1.13.23-.4.73-.54,1.13-.31l2.88,1.63c.4.23.54.73.31,1.13-.15.27-.43.42-.72.42ZM124.95,119.99c-.14,0-.28-.03-.41-.11l-2.89-1.63c-.4-.23-.54-.73-.31-1.13.22-.4.73-.54,1.13-.31l2.89,1.63c.4.22.54.73.31,1.13-.15.27-.43.42-.72.42ZM180.17,118.13c-.14,0-.28-.03-.41-.11l-2.88-1.63c-.4-.23-.54-.73-.31-1.13.23-.4.73-.54,1.13-.31l2.88,1.63c.4.23.54.73.31,1.13-.15.27-.43.42-.72.42ZM119.17,116.74c-.14,0-.28-.03-.41-.11l-2.89-1.63c-.4-.22-.54-.73-.31-1.13.22-.4.73-.54,1.13-.31l2.89,1.63c.4.23.54.73.31,1.13-.15.27-.43.42-.72.42ZM174.41,114.87c-.14,0-.28-.03-.41-.11l-2.88-1.63c-.4-.23-.54-.73-.31-1.13.23-.4.73-.54,1.13-.31l2.88,1.63c.4.23.54.73.31,1.13-.15.27-.43.42-.72.42ZM113.4,113.48c-.14,0-.28-.03-.41-.11l-2.89-1.63c-.4-.22-.54-.73-.31-1.13.22-.4.73-.54,1.13-.31l2.89,1.63c.4.23.54.73.31,1.13-.15.27-.43.42-.72.42ZM168.64,111.6c-.14,0-.28-.03-.41-.11l-2.88-1.63c-.4-.23-.54-.73-.31-1.13.23-.4.73-.54,1.13-.31l2.88,1.63c.4.23.54.73.31,1.13-.15.27-.43.42-.72.42ZM107.63,110.22c-.14,0-.28-.03-.41-.11l-2.89-1.63c-.4-.22-.54-.73-.31-1.13.22-.4.73-.54,1.13-.31l2.89,1.63c.4.23.54.73.31,1.13-.15.27-.43.42-.72.42ZM162.87,108.33c-.14,0-.28-.03-.41-.11l-2.88-1.63c-.4-.23-.54-.73-.31-1.13.23-.4.73-.54,1.13-.31l2.88,1.63c.4.23.54.73.31,1.13-.15.27-.43.42-.72.42ZM101.86,106.96c-.14,0-.28-.03-.41-.11l-2.89-1.63c-.4-.22-.54-.73-.31-1.13.22-.4.73-.54,1.13-.31l2.89,1.63c.4.23.54.73.31,1.13-.15.27-.43.42-.72.42ZM157.1,105.07c-.14,0-.28-.03-.41-.11l-2.88-1.63c-.4-.23-.54-.73-.31-1.13.23-.4.73-.54,1.13-.31l2.88,1.63c.4.23.54.73.31,1.13-.15.27-.43.42-.72.42ZM96.09,103.7c-.14,0-.28-.03-.41-.11l-2.89-1.63c-.4-.22-.54-.73-.31-1.13.22-.4.73-.54,1.13-.31l2.89,1.63c.4.23.54.73.31,1.13-.15.27-.43.42-.72.42ZM151.34,101.8c-.14,0-.28-.03-.41-.11l-2.88-1.63c-.4-.23-.54-.73-.31-1.13.23-.4.73-.54,1.13-.31l2.88,1.63c.4.23.54.73.31,1.13-.15.27-.43.42-.72.42ZM90.31,100.45c-.14,0-.28-.03-.41-.11l-2.89-1.63c-.4-.22-.54-.73-.31-1.13.22-.4.73-.54,1.13-.31l2.89,1.63c.4.23.54.73.31,1.13-.15.27-.43.42-.72.42ZM145.57,98.53c-.14,0-.28-.03-.41-.11l-2.88-1.63c-.4-.23-.54-.73-.31-1.13.23-.4.73-.54,1.13-.31l2.88,1.63c.4.23.54.73.31,1.13-.15.27-.43.42-.72.42ZM84.54,97.19c-.14,0-.28-.03-.41-.11l-2.89-1.63c-.4-.22-.54-.73-.31-1.13.22-.4.73-.54,1.13-.31l2.89,1.63c.4.22.54.73.31,1.13-.15.27-.43.42-.72.42ZM139.8,95.27c-.14,0-.28-.03-.41-.11l-2.88-1.63c-.4-.23-.54-.73-.31-1.13.23-.4.73-.54,1.13-.31l2.88,1.63c.4.23.54.73.31,1.13-.15.27-.43.42-.72.42ZM78.77,93.93c-.14,0-.28-.03-.41-.11l-2.89-1.63c-.4-.23-.54-.73-.31-1.13.22-.4.73-.53,1.13-.31l2.89,1.63c.4.22.54.73.31,1.13-.15.27-.43.42-.72.42ZM134.04,92c-.14,0-.28-.03-.41-.11l-2.88-1.63c-.4-.23-.54-.73-.31-1.13.23-.4.73-.54,1.13-.31l2.88,1.63c.4.23.54.73.31,1.13-.15.27-.43.42-.72.42ZM73,90.67c-.14,0-.28-.03-.41-.11l-2.6-1.47c-.26-.15-.42-.42-.42-.72v-.33c0-.46.37-.83.83-.83.4,0,.74.29.81.67l2.19,1.24c.4.22.54.73.31,1.13-.15.27-.43.42-.72.42ZM128.27,88.73c-.14,0-.28-.03-.41-.11l-2.88-1.63c-.4-.23-.54-.73-.31-1.13.23-.4.73-.54,1.13-.31l2.88,1.63c.4.23.54.73.31,1.13-.15.27-.43.42-.72.42ZM70.4,85.56c-.46,0-.83-.37-.83-.83v-3.31c0-.46.37-.83.83-.83s.83.37.83.83v3.31c0,.46-.37.83-.83.83ZM122.5,85.47c-.14,0-.28-.03-.41-.11l-2.88-1.63c-.4-.23-.54-.73-.31-1.13.23-.4.73-.54,1.13-.31l2.88,1.63c.4.23.54.73.31,1.13-.15.27-.43.42-.72.42ZM116.74,82.2c-.14,0-.28-.03-.41-.11l-2.88-1.63c-.4-.23-.54-.73-.31-1.13.23-.4.73-.54,1.13-.31l2.88,1.63c.4.23.54.73.31,1.13-.15.27-.43.42-.72.42ZM110.97,78.94c-.14,0-.28-.03-.41-.11l-2.88-1.63c-.4-.23-.54-.73-.31-1.13.23-.4.73-.54,1.13-.31l2.88,1.63c.4.23.54.73.31,1.13-.15.27-.43.42-.72.42ZM70.4,78.93c-.46,0-.83-.37-.83-.83v-3.31c0-.46.37-.83.83-.83s.83.37.83.83v3.31c0,.46-.37.83-.83.83ZM105.2,75.67c-.14,0-.28-.03-.41-.11l-2.89-1.63c-.4-.22-.54-.73-.31-1.13.23-.4.73-.54,1.13-.31l2.89,1.63c.4.22.54.73.31,1.13-.15.27-.43.42-.72.42ZM99.43,72.4c-.14,0-.28-.03-.41-.11l-2.88-1.63c-.4-.23-.54-.73-.31-1.13.23-.4.74-.54,1.13-.31l2.88,1.63c.4.23.54.73.31,1.13-.15.27-.43.42-.72.42ZM70.4,72.3c-.46,0-.83-.37-.83-.83v-3.31c0-.46.37-.83.83-.83s.83.37.83.83v3.31c0,.46-.37.83-.83.83ZM93.67,69.14c-.14,0-.28-.03-.41-.11l-2.88-1.63c-.4-.23-.54-.73-.31-1.13.22-.4.73-.54,1.13-.31l2.88,1.63c.4.23.54.73.31,1.13-.15.27-.43.42-.72.42ZM87.9,65.87c-.14,0-.28-.03-.41-.11l-2.88-1.63c-.4-.23-.54-.73-.31-1.13.22-.4.73-.54,1.13-.31l2.88,1.63c.4.23.54.73.31,1.13-.15.27-.43.42-.72.42ZM70.4,65.68c-.46,0-.83-.37-.83-.83v-3.31c0-.46.37-.83.83-.83s.83.37.83.83v3.31c0,.46-.37.83-.83.83ZM82.13,62.6c-.14,0-.28-.03-.41-.11l-2.88-1.63c-.4-.23-.54-.73-.31-1.13.23-.4.73-.54,1.13-.31l2.88,1.63c.4.23.54.73.31,1.13-.15.27-.43.42-.72.42ZM76.36,59.34c-.14,0-.28-.03-.41-.11l-2.88-1.63c-.4-.23-.54-.73-.31-1.13.23-.4.74-.54,1.13-.31l2.88,1.63c.4.23.54.73.31,1.13-.15.27-.43.42-.72.42ZM70.4,59.05c-.46,0-.83-.37-.83-.83v-3.09c0-.29.16-.57.41-.72.26-.15.57-.15.83,0l.2.11c.4.23.54.73.31,1.13-.03.05-.06.09-.09.13v2.44c0,.46-.37.83-.83.83Z"/>
        </g>
        <g class="cls-58">
          <path class="cls-24" d="M313.98,228.31c-.14,0-.28-.04-.41-.11l-2.87-1.66c-.4-.23-.53-.73-.3-1.13.23-.39.74-.53,1.13-.3l2.87,1.66c.4.23.53.73.3,1.13-.15.27-.43.41-.72.41ZM314.11,225.23c-.46,0-.83-.37-.83-.83v-3.31c0-.46.37-.83.83-.83s.83.37.83.83v3.31c0,.46-.37.83-.83.83ZM308.24,225c-.14,0-.28-.04-.41-.11l-2.87-1.66c-.4-.23-.53-.73-.3-1.13.23-.4.74-.53,1.13-.3l2.87,1.66c.4.23.53.73.3,1.13-.15.27-.43.41-.72.41ZM302.5,221.68c-.14,0-.28-.04-.41-.11l-2.87-1.66c-.4-.23-.53-.73-.3-1.13.23-.4.74-.53,1.13-.3l2.87,1.66c.4.23.53.73.3,1.13-.15.27-.43.41-.72.41ZM314.11,218.6c-.46,0-.83-.37-.83-.83v-3.31c0-.46.37-.83.83-.83s.83.37.83.83v3.31c0,.46-.37.83-.83.83ZM296.76,218.36c-.14,0-.28-.04-.41-.11l-2.87-1.66c-.4-.23-.53-.73-.3-1.13.23-.4.74-.53,1.13-.3l2.87,1.66c.4.23.53.73.3,1.13-.15.27-.43.41-.72.41ZM291.02,215.05c-.14,0-.28-.04-.41-.11l-2.87-1.66c-.4-.23-.53-.73-.3-1.13.23-.4.74-.53,1.13-.3l2.87,1.66c.4.23.53.73.3,1.13-.15.27-.43.41-.72.41ZM314.11,211.98c-.46,0-.83-.37-.83-.83v-3.31c0-.46.37-.83.83-.83s.83.37.83.83v3.31c0,.46-.37.83-.83.83ZM285.28,211.73c-.14,0-.28-.04-.41-.11l-1.37-.79c-.26-.15-.41-.42-.41-.72v-1.74c0-.46.37-.83.83-.83s.83.37.83.83v1.26l.95.55c.4.23.53.73.3,1.13-.15.27-.43.41-.72.41ZM283.92,205.89c-.46,0-.83-.37-.83-.83v-3.31c0-.46.37-.83.83-.83s.83.37.83.83v3.31c0,.46-.37.83-.83.83ZM314.11,205.35c-.46,0-.83-.37-.83-.83v-3.31c0-.46.37-.83.83-.83s.83.37.83.83v3.31c0,.46-.37.83-.83.83ZM283.92,199.27c-.46,0-.83-.37-.83-.83v-3.31c0-.46.37-.83.83-.83s.83.37.83.83v3.31c0,.46-.37.83-.83.83ZM314.11,198.72c-.46,0-.83-.37-.83-.83v-2.84l-2.65-1.56c-.39-.23-.53-.74-.3-1.13.23-.4.75-.53,1.13-.3l2.86,1.68s.07.04.1.07c.3.12.52.42.52.77v3.31c0,.46-.37.83-.83.83ZM283.92,192.64c-.46,0-.83-.37-.83-.83v-3.31c0-.46.37-.83.83-.83s.83.37.83.83v3.31c0,.46-.37.83-.83.83ZM308.19,191.93c-.14,0-.29-.04-.42-.11l-2.86-1.68c-.39-.23-.53-.74-.3-1.13.23-.4.75-.53,1.13-.3l2.86,1.68c.39.23.53.74.3,1.13-.16.26-.43.41-.72.41ZM302.48,188.58c-.14,0-.29-.04-.42-.11l-2.86-1.68c-.39-.23-.53-.74-.3-1.13.23-.39.74-.53,1.13-.3l2.86,1.68c.39.23.53.74.3,1.13-.16.26-.43.41-.72.41ZM283.92,186.01c-.46,0-.83-.37-.83-.83v-3.31c0-.46.37-.83.83-.83s.83.37.83.83v3.31c0,.46-.37.83-.83.83ZM296.76,185.23c-.14,0-.29-.04-.42-.11l-2.86-1.68c-.39-.23-.53-.74-.3-1.13.23-.4.74-.53,1.13-.3l2.86,1.68c.39.23.53.74.3,1.13-.16.26-.43.41-.72.41ZM291.04,181.88c-.14,0-.29-.04-.42-.11l-2.86-1.68c-.39-.23-.53-.74-.3-1.13.23-.4.75-.53,1.13-.3l2.86,1.68c.39.23.53.74.3,1.13-.16.26-.43.41-.72.41ZM283.92,179.38c-.46,0-.83-.37-.83-.83v-1.68c0-.3.16-.57.42-.72.25-.15.57-.15.83,0l1.41.83c.39.23.53.74.3,1.13-.23.4-.75.53-1.13.3l-.16-.09v.24c0,.46-.37.83-.83.83Z"/>
        </g>
        <g class="cls-58">
          <path class="cls-24" d="M355.95,251.87c-.14,0-.28-.04-.41-.11l-2.87-1.66c-.4-.23-.53-.73-.3-1.13.23-.4.74-.53,1.13-.3l2.87,1.66c.4.23.53.73.3,1.13-.15.27-.43.41-.72.41ZM356.09,248.79c-.46,0-.83-.37-.83-.83v-3.31c0-.46.37-.83.83-.83s.83.37.83.83v3.31c0,.46-.37.83-.83.83ZM350.22,248.55c-.14,0-.28-.04-.41-.11l-2.87-1.66c-.4-.23-.53-.73-.3-1.13.23-.39.74-.53,1.13-.3l2.87,1.66c.4.23.53.73.3,1.13-.15.27-.43.41-.72.41ZM344.48,245.24c-.14,0-.28-.04-.41-.11l-2.87-1.66c-.4-.23-.53-.73-.3-1.13.23-.4.73-.53,1.13-.3l2.87,1.66c.4.23.53.73.3,1.13-.15.27-.43.41-.72.41ZM356.09,242.16c-.46,0-.83-.37-.83-.83v-3.31c0-.46.37-.83.83-.83s.83.37.83.83v3.31c0,.46-.37.83-.83.83ZM338.74,241.92c-.14,0-.28-.04-.41-.11l-2.87-1.66c-.4-.23-.53-.73-.3-1.13.23-.4.73-.53,1.13-.3l2.87,1.66c.4.23.53.73.3,1.13-.15.27-.43.41-.72.41ZM333,238.61c-.14,0-.28-.04-.41-.11l-2.87-1.66c-.4-.23-.53-.73-.3-1.13.23-.4.74-.53,1.13-.3l2.87,1.66c.4.23.53.73.3,1.13-.15.27-.43.41-.72.41ZM356.09,235.53c-.46,0-.83-.37-.83-.83v-3.31c0-.46.37-.83.83-.83s.83.37.83.83v3.31c0,.46-.37.83-.83.83ZM327.26,235.29c-.14,0-.28-.04-.41-.11l-1.37-.79c-.26-.15-.41-.42-.41-.72v-1.73c0-.46.37-.83.83-.83s.83.37.83.83v1.26l.95.55c.4.23.53.73.3,1.13-.15.27-.43.41-.72.41ZM325.89,229.45c-.46,0-.83-.37-.83-.83v-3.31c0-.46.37-.83.83-.83s.83.37.83.83v3.31c0,.46-.37.83-.83.83ZM356.09,228.91c-.46,0-.83-.37-.83-.83v-3.31c0-.46.37-.83.83-.83s.83.37.83.83v3.31c0,.46-.37.83-.83.83ZM325.89,222.82c-.46,0-.83-.37-.83-.83v-3.31c0-.46.37-.83.83-.83s.83.37.83.83v3.31c0,.46-.37.83-.83.83ZM356.09,222.28c-.46,0-.83-.37-.83-.83v-2.84l-2.66-1.56c-.39-.23-.53-.74-.3-1.13.23-.4.74-.53,1.13-.3l2.86,1.68s.07.05.1.07c.3.12.51.42.51.77v3.31c0,.46-.37.83-.83.83ZM325.89,216.2c-.46,0-.83-.37-.83-.83v-3.31c0-.46.37-.83.83-.83s.83.37.83.83v3.31c0,.46-.37.83-.83.83ZM350.17,215.49c-.14,0-.29-.04-.42-.11l-2.86-1.68c-.39-.23-.53-.74-.3-1.13.23-.4.74-.52,1.13-.3l2.86,1.68c.39.23.53.74.3,1.13-.16.26-.43.41-.72.41ZM344.45,212.14c-.14,0-.29-.04-.42-.11l-2.86-1.68c-.39-.23-.53-.74-.3-1.13.23-.4.74-.53,1.13-.3l2.86,1.68c.39.23.53.74.3,1.13-.16.26-.43.41-.72.41ZM325.89,209.57c-.46,0-.83-.37-.83-.83v-3.31c0-.46.37-.83.83-.83s.83.37.83.83v3.31c0,.46-.37.83-.83.83ZM338.73,208.78c-.14,0-.29-.04-.42-.11l-2.86-1.68c-.39-.23-.53-.74-.3-1.13.23-.4.74-.53,1.13-.3l2.86,1.68c.39.23.53.74.3,1.13-.16.26-.43.41-.72.41ZM333.02,205.43c-.14,0-.29-.04-.42-.11l-2.86-1.68c-.39-.23-.53-.74-.3-1.13.23-.4.74-.53,1.13-.3l2.86,1.68c.39.23.53.74.3,1.13-.16.26-.43.41-.72.41ZM325.89,202.94c-.46,0-.83-.37-.83-.83v-1.69c0-.3.16-.57.42-.72.26-.15.57-.15.83,0l1.4.82c.39.23.53.74.3,1.13-.23.4-.74.53-1.13.3l-.16-.09v.24c0,.46-.37.83-.83.83Z"/>
        </g>
        <g class="cls-58">
          <path class="cls-24" d="M171.54,343.99c-.83,0-1.7-.09-2.57-.27-.45-.09-.74-.53-.64-.98.09-.45.55-.75.98-.64,1.06.22,2.09.29,3.06.2.41-.03.86.3.9.75.04.46-.3.86-.75.9-.32.03-.64.04-.96.04ZM175.6,343.07c-.3,0-.59-.17-.74-.45-.21-.41-.04-.91.37-1.11.88-.44,1.66-1.06,2.32-1.84.29-.35.82-.39,1.17-.1.35.3.39.82.1,1.17-.8.95-1.76,1.7-2.83,2.25-.12.06-.25.09-.37.09ZM165.98,342.72c-.11,0-.22-.02-.33-.07-.72-.31-1.46-.69-2.21-1.12l-.81-.46c-.4-.23-.53-.74-.3-1.13.23-.4.73-.53,1.13-.3l.81.46c.69.4,1.38.75,2.04,1.03.42.18.61.67.43,1.09-.14.31-.44.5-.76.5ZM160.18,339.53c-.14,0-.28-.04-.41-.11l-2.87-1.65c-.4-.23-.53-.73-.31-1.13.23-.4.74-.53,1.13-.31l2.87,1.65c.4.23.53.73.31,1.13-.15.27-.43.42-.72.42ZM179.86,338.19c-.1,0-.21-.02-.31-.06-.42-.17-.63-.66-.45-1.08.37-.9.64-1.92.81-3.01.07-.45.5-.76.95-.69.45.07.76.5.69.95-.19,1.22-.5,2.35-.92,3.37-.13.32-.44.52-.77.52ZM154.43,336.22c-.14,0-.28-.04-.41-.11l-2.87-1.65c-.4-.23-.53-.73-.31-1.13.23-.4.74-.53,1.13-.31l2.87,1.65c.4.23.53.73.31,1.13-.15.27-.43.42-.72.42ZM148.69,332.91c-.14,0-.28-.04-.41-.11l-2.87-1.65c-.4-.23-.53-.73-.31-1.13.23-.4.74-.53,1.13-.31l2.87,1.65c.4.23.53.73.31,1.13-.15.27-.43.42-.72.42ZM180.96,331.7c-.46,0-.83-.37-.83-.83v-3.31c0-.46.37-.83.83-.83s.83.37.83.83v3.31c0,.46-.37.83-.83.83ZM142.95,329.61c-.14,0-.28-.04-.41-.11l-2.87-1.65c-.4-.23-.53-.73-.31-1.13.23-.4.74-.53,1.13-.31l2.87,1.65c.4.23.53.73.31,1.13-.15.27-.43.42-.72.42ZM137.2,326.3c-.14,0-.28-.04-.41-.11l-2.87-1.65c-.4-.23-.53-.73-.31-1.13.23-.4.74-.53,1.13-.31l2.87,1.65c.4.23.53.73.31,1.13-.15.27-.43.42-.72.42ZM180.96,325.07c-.46,0-.83-.37-.83-.83v-3.31c0-.46.37-.83.83-.83s.83.37.83.83v3.31c0,.46-.37.83-.83.83ZM131.46,322.99c-.14,0-.28-.04-.41-.11l-2.87-1.65c-.4-.23-.53-.73-.31-1.13.23-.4.74-.53,1.13-.31l2.87,1.65c.4.23.53.73.31,1.13-.15.27-.43.42-.72.42ZM125.71,319.69c-.14,0-.28-.04-.41-.11l-2.87-1.65c-.4-.23-.53-.73-.31-1.13.23-.4.74-.53,1.13-.31l2.87,1.65c.4.23.53.73.31,1.13-.15.27-.43.42-.72.42ZM180.96,318.45c-.46,0-.83-.37-.83-.83v-3.31c0-.46.37-.83.83-.83s.83.37.83.83v3.31c0,.46-.37.83-.83.83ZM119.97,316.38c-.14,0-.28-.04-.41-.11l-2.87-1.65c-.4-.23-.53-.73-.31-1.13.23-.4.74-.53,1.13-.31l2.87,1.65c.4.23.53.73.31,1.13-.15.27-.43.42-.72.42ZM114.22,313.08c-.14,0-.28-.04-.41-.11l-2.87-1.65c-.4-.23-.53-.73-.31-1.13.23-.4.74-.53,1.13-.31l2.87,1.65c.4.23.53.73.31,1.13-.15.27-.43.42-.72.42ZM180.96,311.82c-.46,0-.83-.37-.83-.83v-3.31c0-.46.37-.83.83-.83s.83.37.83.83v3.31c0,.46-.37.83-.83.83ZM108.48,309.77c-.14,0-.28-.04-.41-.11l-2.87-1.65c-.4-.23-.53-.73-.31-1.13.23-.4.74-.53,1.13-.31l2.87,1.65c.4.23.53.73.31,1.13-.15.27-.43.42-.72.42ZM102.74,306.46c-.14,0-.28-.04-.41-.11l-2.87-1.65c-.4-.23-.53-.73-.31-1.13.23-.4.74-.53,1.13-.31l2.87,1.65c.4.23.53.73.31,1.13-.15.27-.43.42-.72.42ZM180.96,305.19c-.46,0-.83-.37-.83-.83v-3.31c0-.46.37-.83.83-.83s.83.37.83.83v3.31c0,.46-.37.83-.83.83ZM96.99,303.16c-.14,0-.28-.04-.41-.11l-2.87-1.65c-.4-.23-.53-.73-.31-1.13.23-.4.74-.53,1.13-.31l2.87,1.65c.4.23.53.73.31,1.13-.15.27-.43.42-.72.42ZM91.25,299.85c-.14,0-.28-.04-.41-.11l-2.87-1.65c-.4-.23-.53-.73-.31-1.13.23-.4.74-.53,1.13-.31l2.87,1.65c.4.23.53.73.31,1.13-.15.27-.43.42-.72.42ZM180.96,298.56c-.46,0-.83-.37-.83-.83v-3.31c0-.46.37-.83.83-.83s.83.37.83.83v3.31c0,.46-.37.83-.83.83ZM85.51,296.54c-.15,0-.3-.04-.43-.12-.94-.57-1.88-1.23-2.8-1.96-.36-.28-.42-.81-.13-1.16.29-.36.81-.42,1.16-.13.87.69,1.75,1.31,2.63,1.84.39.24.51.75.28,1.14-.16.26-.43.4-.71.4ZM80.31,292.44c-.21,0-.42-.08-.58-.24-.78-.77-1.56-1.61-2.3-2.48-.3-.35-.25-.87.1-1.17.35-.3.87-.25,1.17.1.71.84,1.45,1.64,2.2,2.37.33.32.33.84,0,1.17-.16.17-.38.25-.59.25ZM180.96,291.93c-.46,0-.83-.37-.83-.83v-3.31c0-.46.37-.83.83-.83s.83.37.83.83v3.31c0,.46-.37.83-.83.83ZM76.02,287.39c-.26,0-.51-.12-.67-.35-.65-.91-1.27-1.86-1.85-2.83-.24-.39-.11-.9.28-1.14.39-.23.9-.11,1.14.28.56.93,1.16,1.84,1.78,2.72.27.37.18.89-.19,1.16-.15.1-.31.15-.48.15ZM180.96,285.31c-.46,0-.83-.37-.83-.83v-3.31c0-.46.37-.83.83-.83s.83.37.83.83v3.31c0,.46-.37.83-.83.83ZM72.62,281.71c-.3,0-.6-.17-.74-.46-.5-1.01-.97-2.05-1.38-3.09-.17-.43.04-.91.46-1.08.43-.16.91.04,1.08.46.39.99.84,1.99,1.32,2.96.2.41.04.91-.37,1.11-.12.06-.24.09-.37.09ZM180.96,278.68c-.46,0-.83-.37-.83-.83v-3.31c0-.46.37-.83.83-.83s.83.37.83.83v3.31c0,.46-.37.83-.83.83ZM70.18,275.56c-.36,0-.69-.23-.79-.59-.33-1.11-.6-2.22-.81-3.3-.09-.45.21-.88.66-.97.44-.09.88.21.97.66.2,1.02.45,2.08.77,3.14.13.44-.12.9-.56,1.03-.08.02-.16.03-.24.03ZM180.96,272.05c-.46,0-.83-.37-.83-.83v-3.31c0-.46.37-.83.83-.83s.83.37.83.83v3.31c0,.46-.37.83-.83.83ZM68.95,269.06c-.43,0-.79-.33-.83-.77-.04-.6-.06-1.19-.06-1.78v-1.59c0-.46.37-.83.83-.83s.83.37.83.83v1.59c0,.55.02,1.11.06,1.67.03.46-.31.85-.77.89-.02,0-.04,0-.06,0ZM180.96,265.42c-.46,0-.83-.37-.83-.83v-3.31c0-.46.37-.83.83-.83s.83.37.83.83v3.31c0,.46-.37.83-.83.83ZM68.89,262.43c-.46,0-.83-.37-.83-.83v-3.31c0-.46.37-.83.83-.83s.83.37.83.83v3.31c0,.46-.37.83-.83.83ZM180.96,258.79c-.46,0-.83-.37-.83-.83v-3.31c0-.46.37-.83.83-.83s.83.37.83.83v3.31c0,.46-.37.83-.83.83ZM68.89,255.8c-.46,0-.83-.37-.83-.83v-3.31c0-.46.37-.83.83-.83s.83.37.83.83v3.31c0,.46-.37.83-.83.83ZM180.96,252.17c-.46,0-.83-.37-.83-.83v-3.31c0-.46.37-.83.83-.83s.83.37.83.83v3.31c0,.46-.37.83-.83.83ZM68.89,249.17c-.46,0-.83-.37-.83-.83v-3.31c0-.46.37-.83.83-.83s.83.37.83.83v3.31c0,.46-.37.83-.83.83ZM180.96,245.54c-.46,0-.83-.37-.83-.83v-3.31c0-.46.37-.83.83-.83s.83.37.83.83v3.31c0,.46-.37.83-.83.83ZM68.89,242.55c-.46,0-.83-.37-.83-.83v-3.31c0-.46.37-.83.83-.83s.83.37.83.83v3.31c0,.46-.37.83-.83.83ZM180.96,238.91c-.46,0-.83-.37-.83-.83v-3.31c0-.46.37-.83.83-.83s.83.37.83.83v3.31c0,.46-.37.83-.83.83ZM68.89,235.92c-.46,0-.83-.37-.83-.83v-3.31c0-.46.37-.83.83-.83s.83.37.83.83v3.31c0,.46-.37.83-.83.83ZM180.96,232.28c-.46,0-.83-.37-.83-.83v-3.31c0-.46.37-.83.83-.83s.83.37.83.83v3.31c0,.46-.37.83-.83.83ZM68.89,229.29c-.46,0-.83-.37-.83-.83v-3.31c0-.46.37-.83.83-.83s.83.37.83.83v3.31c0,.46-.37.83-.83.83ZM180.96,225.66c-.46,0-.83-.37-.83-.83v-3.31c0-.46.37-.83.83-.83s.83.37.83.83v3.31c0,.46-.37.83-.83.83ZM68.89,222.66c-.46,0-.83-.37-.83-.83v-3.31c0-.46.37-.83.83-.83s.83.37.83.83v3.31c0,.46-.37.83-.83.83ZM180.96,219.03c-.46,0-.83-.37-.83-.83v-3.31c0-.46.37-.83.83-.83s.83.37.83.83v3.31c0,.46-.37.83-.83.83ZM68.89,216.03c-.46,0-.83-.37-.83-.83v-3.31c0-.46.37-.83.83-.83s.83.37.83.83v3.31c0,.46-.37.83-.83.83ZM180.96,212.4c-.46,0-.83-.37-.83-.83v-3.31c0-.46.37-.83.83-.83s.83.37.83.83v3.31c0,.46-.37.83-.83.83ZM68.89,209.41c-.46,0-.83-.37-.83-.83v-3.31c0-.46.37-.83.83-.83s.83.37.83.83v3.31c0,.46-.37.83-.83.83ZM180.96,205.77c-.46,0-.83-.37-.83-.83v-3.31c0-.46.37-.83.83-.83s.83.37.83.83v3.31c0,.46-.37.83-.83.83ZM68.89,202.78c-.46,0-.83-.37-.83-.83v-3.31c0-.46.37-.83.83-.83s.83.37.83.83v3.31c0,.46-.37.83-.83.83ZM180.96,199.14c-.46,0-.83-.37-.83-.83v-3.31c0-.46.37-.83.83-.83s.83.37.83.83v3.31c0,.46-.37.83-.83.83ZM68.89,196.15c-.46,0-.83-.37-.83-.83v-3.31c0-.46.37-.83.83-.83s.83.37.83.83v3.31c0,.46-.37.83-.83.83ZM180.96,192.52c-.46,0-.83-.37-.83-.83v-2.52c0-.26,0-.51-.01-.77-.01-.46.35-.84.8-.85h.03c.45,0,.81.35.83.8,0,.27.01.55.01.82v2.52c0,.46-.37.83-.83.83ZM68.89,189.52c-.46,0-.83-.37-.83-.83v-3.31c0-.46.37-.83.83-.83s.83.37.83.83v3.31c0,.46-.37.83-.83.83ZM180.62,185.91c-.4,0-.75-.29-.82-.7-.17-1.04-.39-2.1-.68-3.16-.12-.44.14-.9.58-1.02.45-.12.9.14,1.01.59.3,1.11.54,2.23.72,3.32.07.45-.24.88-.69.95-.05,0-.09.01-.13.01ZM68.89,182.89c-.46,0-.83-.37-.83-.83v-3.31c0-.46.37-.83.83-.83s.83.37.83.83v3.31c0,.46-.37.83-.83.83ZM178.92,179.51c-.34,0-.65-.21-.78-.54-.37-1-.79-2.01-1.25-2.99-.19-.41-.01-.91.4-1.1.41-.19.91-.02,1.1.4.48,1.02.92,2.07,1.3,3.12.16.43-.06.91-.49,1.06-.1.04-.19.05-.29.05ZM68.89,176.27c-.46,0-.83-.37-.83-.83v-3.31c0-.46.37-.83.83-.83s.83.37.83.83v3.31c0,.46-.37.83-.83.83ZM176.11,173.51c-.29,0-.57-.15-.72-.42-.53-.94-1.11-1.86-1.72-2.76-.26-.38-.16-.89.22-1.15.38-.26.89-.16,1.15.22.63.93,1.23,1.89,1.79,2.87.23.4.09.9-.31,1.13-.13.07-.27.11-.41.11ZM68.89,169.64c-.46,0-.83-.37-.83-.83v-3.31c0-.46.37-.83.83-.83s.83.37.83.83v3.31c0,.46-.37.83-.83.83ZM172.39,168.03c-.24,0-.48-.11-.64-.31-.68-.84-1.4-1.66-2.14-2.43-.32-.33-.31-.85.02-1.17.33-.32.85-.31,1.17.02.77.8,1.53,1.66,2.24,2.54.29.36.23.88-.12,1.17-.15.12-.34.18-.52.18ZM167.78,163.28c-.19,0-.38-.06-.54-.2-.84-.72-1.71-1.37-2.57-1.93-.38-.25-.49-.77-.23-1.15.25-.38.76-.49,1.15-.24.91.6,1.83,1.29,2.73,2.05.35.3.39.82.1,1.17-.16.19-.4.29-.63.29ZM68.89,163.01c-.46,0-.83-.37-.83-.83v-3.31c0-.46.37-.83.83-.83s.83.37.83.83v3.31c0,.46-.37.83-.83.83ZM162.28,159.6c-.14,0-.28-.04-.41-.11l-2.87-1.65c-.4-.23-.53-.74-.31-1.13.23-.4.74-.53,1.13-.3l2.87,1.65c.4.23.53.74.31,1.13-.15.27-.43.42-.72.42ZM68.89,156.38c-.46,0-.83-.37-.83-.83v-3.31c0-.46.37-.83.83-.83s.83.37.83.83v3.31c0,.46-.37.83-.83.83ZM156.54,156.29c-.14,0-.28-.04-.41-.11l-2.87-1.65c-.4-.23-.53-.74-.31-1.13.23-.4.74-.53,1.13-.3l2.87,1.65c.4.23.53.74.31,1.13-.15.27-.43.42-.72.42ZM150.8,152.98c-.14,0-.28-.04-.41-.11l-2.87-1.65c-.4-.23-.53-.74-.31-1.13.23-.4.74-.53,1.13-.31l2.87,1.65c.4.23.53.74.31,1.13-.15.27-.43.42-.72.42ZM68.89,149.76c-.46,0-.83-.37-.83-.83v-3.31c0-.46.37-.83.83-.83s.83.37.83.83v3.31c0,.46-.37.83-.83.83ZM145.05,149.68c-.14,0-.28-.04-.41-.11l-2.87-1.65c-.4-.23-.53-.74-.31-1.13.23-.4.74-.53,1.13-.31l2.87,1.65c.4.23.53.74.31,1.13-.15.27-.43.42-.72.42ZM139.31,146.37c-.14,0-.28-.04-.41-.11l-2.87-1.65c-.4-.23-.53-.74-.31-1.13.23-.4.74-.53,1.13-.31l2.87,1.65c.4.23.53.74.31,1.13-.15.27-.43.42-.72.42ZM68.89,143.13c-.46,0-.83-.37-.83-.83v-3.31c0-.46.37-.83.83-.83s.83.37.83.83v3.31c0,.46-.37.83-.83.83ZM133.56,143.06c-.14,0-.28-.04-.41-.11l-2.87-1.65c-.4-.23-.53-.74-.31-1.13.23-.4.74-.53,1.13-.31l2.87,1.65c.4.23.53.74.31,1.13-.15.27-.43.42-.72.42ZM127.82,139.76c-.14,0-.28-.04-.41-.11l-2.87-1.65c-.4-.23-.53-.73-.31-1.13.23-.4.74-.53,1.13-.3l2.87,1.65c.4.23.53.73.31,1.13-.15.27-.43.41-.72.41ZM68.89,136.5c-.46,0-.83-.37-.83-.83v-3.31c0-.46.37-.83.83-.83s.83.37.83.83v3.31c0,.46-.37.83-.83.83ZM122.07,136.45c-.14,0-.28-.04-.41-.11l-2.87-1.65c-.4-.23-.53-.74-.31-1.13.23-.4.74-.53,1.13-.31l2.87,1.65c.4.23.53.74.31,1.13-.15.27-.43.41-.72.41ZM116.33,133.15c-.14,0-.28-.04-.41-.11l-2.87-1.65c-.4-.23-.53-.73-.31-1.13.23-.4.74-.53,1.13-.3l2.87,1.65c.4.23.53.73.31,1.13-.15.27-.43.42-.72.42ZM68.89,129.87c-.46,0-.83-.37-.83-.83v-3.31c0-.46.37-.83.83-.83s.83.37.83.83v3.31c0,.46-.37.83-.83.83ZM110.58,129.84c-.14,0-.28-.04-.41-.11l-2.87-1.65c-.4-.23-.53-.74-.31-1.13.23-.4.74-.53,1.13-.31l2.87,1.65c.4.23.53.74.31,1.13-.15.27-.43.42-.72.42ZM104.84,126.53c-.14,0-.28-.04-.41-.11l-2.87-1.65c-.4-.23-.53-.73-.31-1.13.23-.4.74-.53,1.13-.3l2.87,1.65c.4.23.53.73.31,1.13-.15.27-.43.42-.72.42ZM69,123.25s-.06,0-.09,0c-.46-.05-.79-.45-.74-.91.13-1.21.36-2.36.7-3.41.14-.44.61-.67,1.04-.53.44.14.67.61.53,1.04-.3.94-.52,1.97-.63,3.07-.04.43-.4.74-.82.74ZM99.1,123.23c-.14,0-.28-.04-.41-.11l-2.87-1.65c-.4-.23-.53-.74-.31-1.13.23-.4.74-.53,1.13-.31l2.87,1.65c.4.23.53.74.31,1.13-.15.27-.43.42-.72.42ZM93.35,119.92c-.14,0-.28-.04-.41-.11l-2.87-1.65c-.4-.23-.53-.73-.31-1.13.23-.4.74-.53,1.13-.3l2.87,1.65c.4.23.53.73.31,1.13-.15.27-.43.42-.72.42ZM71.11,117.04c-.16,0-.33-.05-.47-.15-.38-.26-.47-.78-.21-1.15.72-1.03,1.58-1.88,2.57-2.53.38-.25.89-.15,1.15.24.25.38.15.9-.23,1.15-.81.53-1.52,1.24-2.12,2.09-.16.23-.42.36-.68.36ZM87.61,116.61c-.14,0-.28-.04-.41-.11l-1.61-.93c-.97-.56-1.93-1.02-2.87-1.37-.43-.16-.65-.64-.48-1.07.16-.43.63-.65,1.07-.49,1.02.38,2.07.88,3.11,1.48l1.61.93c.4.23.53.73.31,1.13-.15.27-.43.42-.72.42ZM76.5,113.5c-.39,0-.74-.28-.81-.67-.09-.45.21-.88.66-.97.64-.12,1.31-.1,1.98-.18.51,0,1.04.04,1.57.11.45.06.77.48.71.93-.06.45-.49.77-.93.71-.46-.06-.92-.09-1.36-.09h-.02c-.57,0-1.13.05-1.66.15-.05,0-.1.01-.16.01Z"/>
        </g>
      </g>
      <g>
        <path class="cls-53" d="M411.55,362.56l-191.73-111.01c-9.86-5.69-17.93-21.11-17.93-34.26v-9.34c0-13.15,8.07-19.25,17.93-13.56l191.73,111.01c9.86,5.69,17.93,21.11,17.93,34.26v9.34c0,13.15-8.07,19.25-17.93,13.56Z"/>
        <path class="cls-41" d="M411.55,305.4l-191.73-111.01c-9.86-5.69-17.93.41-17.93,13.56v2.01c0-13.15,8.07-19.25,17.93-13.56l191.73,111.01c9.86,5.69,17.93,21.11,17.93,34.26v-2.01c0-13.15-8.07-28.57-17.93-34.26Z"/>
        <path class="cls-25" d="M212.35,225.26v-13.23c0-5.5,3.35-8.03,7.47-5.65l191.73,111.01c4.11,2.37,7.47,8.8,7.47,14.28v13.23c0,5.48-3.36,8.02-7.47,5.65l-191.73-111.01c-4.13-2.38-7.47-8.77-7.47-14.28Z"/>
      </g>
      <g>
        <g class="cls-60">
          <path class="cls-21" d="M205.72,261.02c-6.31-3.65-11.43-.73-11.43,6.52v48.99c0,7.25,5.12,16.08,11.43,19.72l53.32,30.69c6.31,3.65,13.96.33,13.96-6.92v-48.99c0-7.25-7.65-15.67-13.96-19.32l-53.32-30.69Z"/>
          <path class="cls-48" d="M204.45,262.02c-6.33-3.66-11.47-.73-11.47,6.54v48.53c0,7.27,5.14,16.13,11.47,19.78l53.36,30.72c6.33,3.66,13.77.37,13.77-6.9v-48.53c0-7.27-7.44-15.76-13.77-19.42l-53.36-30.72Z"/>
          <path class="cls-55" d="M203.18,263.02c-6.35-3.67-11.51-.73-11.51,6.56v48.07c0,7.29,5.15,16.18,11.51,19.85l53.4,30.74c6.35,3.67,13.58.4,13.58-6.89v-48.07c0-7.29-7.22-15.85-13.58-19.52l-53.4-30.74Z"/>
          <path class="cls-7" d="M201.92,264.02c-6.37-3.68-11.54-.73-11.54,6.58v47.61c0,7.31,5.17,16.23,11.54,19.91l53.44,30.76c6.37,3.68,13.38.44,13.38-6.87v-47.61c0-7.31-7.01-15.94-13.38-19.62l-53.44-30.76Z"/>
          <path class="cls-54" d="M200.65,265.01c-6.39-3.69-11.58-.74-11.58,6.6v47.14c0,7.34,5.18,16.28,11.58,19.97l53.48,30.79c6.39,3.69,13.19.48,13.19-6.86v-47.14c0-7.34-6.79-16.02-13.19-19.71l-53.48-30.79Z"/>
          <path class="cls-12" d="M199.39,266.01c-6.41-3.7-11.61-.74-11.61,6.62v46.68c0,7.36,5.2,16.33,11.61,20.03l53.53,30.81c6.41,3.7,12.99.52,12.99-6.84v-46.68c0-7.36-6.58-16.11-12.99-19.81l-53.53-30.81Z"/>
          <path class="cls-5" d="M198.12,267.01c-6.43-3.71-11.65-.74-11.65,6.64v46.22c0,7.38,5.22,16.38,11.65,20.09l53.57,30.83c6.43,3.71,12.8.56,12.8-6.82v-46.22c0-7.38-6.37-16.2-12.8-19.91l-53.57-30.83Z"/>
          <path class="cls-3" d="M196.85,268.01c-6.45-3.73-11.69-.74-11.69,6.66v45.76c0,7.41,5.23,16.43,11.69,20.16l53.61,30.86c6.45,3.73,12.61.6,12.61-6.81v-45.76c0-7.41-6.15-16.28-12.61-20.01l-53.61-30.86Z"/>
          <path class="cls-1" d="M195.59,269.01c-6.47-3.74-11.72-.75-11.72,6.68v45.29c0,7.43,5.25,16.48,11.72,20.22l53.65,30.88c6.47,3.74,12.41.64,12.41-6.79v-45.29c0-7.43-5.94-16.37-12.41-20.11l-53.65-30.88Z"/>
          <path class="cls-42" d="M194.32,270.01c-6.49-3.75-11.76-.75-11.76,6.7v44.83c0,7.45,5.26,16.53,11.76,20.28l53.69,30.9c6.49,3.75,12.22.68,12.22-6.78v-44.83c0-7.45-5.72-16.46-12.22-20.21l-53.69-30.9Z"/>
          <path class="cls-57" d="M193.06,271.01c-6.51-3.76-11.79-.75-11.79,6.72v44.37c0,7.47,5.28,16.58,11.79,20.34l53.74,30.93c6.51,3.76,12.02.71,12.02-6.76v-44.37c0-7.47-5.51-16.55-12.02-20.31l-53.74-30.93Z"/>
          <path class="cls-27" d="M191.79,272.01c-6.53-3.77-11.83-.75-11.83,6.74v43.91c0,7.5,5.3,16.63,11.83,20.41l53.78,30.95c6.53,3.77,11.83.75,11.83-6.74v-43.91c0-7.5-5.3-16.63-11.83-20.41l-53.78-30.95Z"/>
        </g>
        <path class="cls-9" d="M191.45,269.78c-6.56-3.79-11.87-.75-11.87,6.77v50.63c0,7.52,5.31,16.69,11.87,20.48l54.05,31.11c6.56,3.79,11.87.76,11.87-6.77v-50.63c0-7.52-5.31-16.69-11.87-20.48l-54.05-31.11Z"/>
        <path class="cls-33" d="M245.51,300.89l-54.05-31.11c-6.56-3.79-11.87-.75-11.87,6.77v1.15c0-7.52,5.31-10.55,11.87-6.77l54.05,31.11c6.56,3.79,11.87,12.95,11.87,20.48v-1.15c0-7.52-5.31-16.69-11.87-20.48Z"/>
        <path class="cls-25" d="M196.01,294.21v38.22l42.92,24.78v-38.22l-42.92-24.78ZM236.19,352.47l-37.43-21.61v-31.92l37.43,21.61v31.92ZM224.17,323.66l-6.7,8.94-5.32-6.62-10.65,3.31,31.94,18.44-9.27-24.07ZM209.58,320.56c2.37,1.37,4.29.27,4.29-2.45s-1.92-6.04-4.29-7.4c-2.37-1.37-4.29-.27-4.29,2.45s1.92,6.03,4.29,7.4Z"/>
      </g>
      <g>
        <g class="cls-60">
          <path class="cls-30" d="M287.74,308.03c-6.31-3.65-11.43-.73-11.43,6.52v48.99c0,7.25,5.12,16.08,11.43,19.72l53.32,30.69c6.31,3.65,13.96.33,13.96-6.92v-48.99c0-7.25-7.65-15.67-13.96-19.32l-53.32-30.69Z"/>
          <path class="cls-16" d="M286.47,309.03c-6.33-3.66-11.47-.73-11.47,6.54v48.53c0,7.27,5.14,16.13,11.47,19.78l53.36,30.72c6.33,3.66,13.77.37,13.77-6.9v-48.53c0-7.27-7.44-15.76-13.77-19.42l-53.36-30.72Z"/>
          <path class="cls-26" d="M285.2,310.03c-6.35-3.67-11.51-.73-11.51,6.56v48.07c0,7.29,5.15,16.18,11.51,19.85l53.4,30.74c6.35,3.67,13.58.4,13.58-6.89v-48.07c0-7.29-7.22-15.85-13.58-19.52l-53.4-30.74Z"/>
          <path class="cls-11" d="M283.94,311.03c-6.37-3.68-11.54-.73-11.54,6.58v47.61c0,7.31,5.17,16.23,11.54,19.91l53.44,30.76c6.37,3.68,13.38.44,13.38-6.87v-47.61c0-7.31-7.01-15.94-13.38-19.62l-53.44-30.76Z"/>
          <path class="cls-46" d="M282.67,312.03c-6.39-3.69-11.58-.74-11.58,6.6v47.14c0,7.34,5.18,16.28,11.58,19.97l53.48,30.79c6.39,3.69,13.19.48,13.19-6.86v-47.14c0-7.34-6.79-16.02-13.19-19.71l-53.48-30.79Z"/>
          <path class="cls-43" d="M281.41,313.03c-6.41-3.7-11.61-.74-11.61,6.62v46.68c0,7.36,5.2,16.33,11.61,20.03l53.53,30.81c6.41,3.7,12.99.52,12.99-6.84v-46.68c0-7.36-6.58-16.11-12.99-19.81l-53.53-30.81Z"/>
          <path class="cls-32" d="M280.14,314.03c-6.43-3.71-11.65-.74-11.65,6.64v46.22c0,7.38,5.22,16.38,11.65,20.09l53.57,30.83c6.43,3.71,12.8.56,12.8-6.82v-46.22c0-7.38-6.37-16.2-12.8-19.91l-53.57-30.83Z"/>
          <path class="cls-47" d="M278.87,315.03c-6.45-3.73-11.69-.74-11.69,6.66v45.76c0,7.41,5.23,16.43,11.69,20.16l53.61,30.86c6.45,3.73,12.61.6,12.61-6.81v-45.76c0-7.41-6.15-16.28-12.61-20.01l-53.61-30.86Z"/>
          <path class="cls-22" d="M277.61,316.03c-6.47-3.74-11.72-.75-11.72,6.68v45.29c0,7.43,5.25,16.48,11.72,20.22l53.65,30.88c6.47,3.74,12.41.64,12.41-6.79v-45.29c0-7.43-5.94-16.37-12.41-20.11l-53.65-30.88Z"/>
          <path class="cls-10" d="M276.34,317.03c-6.49-3.75-11.76-.75-11.76,6.7v44.83c0,7.45,5.26,16.53,11.76,20.28l53.69,30.9c6.49,3.75,12.22.68,12.22-6.78v-44.83c0-7.45-5.72-16.46-12.22-20.21l-53.69-30.9Z"/>
          <path class="cls-2" d="M275.08,318.03c-6.51-3.76-11.79-.75-11.79,6.72v44.37c0,7.47,5.28,16.58,11.79,20.34l53.74,30.93c6.51,3.76,12.02.71,12.02-6.76v-44.37c0-7.47-5.51-16.55-12.02-20.31l-53.74-30.93Z"/>
          <path class="cls-45" d="M273.81,319.02c-6.53-3.77-11.83-.75-11.83,6.74v43.91c0,7.5,5.3,16.63,11.83,20.41l53.78,30.95c6.53,3.77,11.83.75,11.83-6.74v-43.91c0-7.5-5.3-16.63-11.83-20.41l-53.78-30.95Z"/>
        </g>
        <path class="cls-29" d="M273.47,316.79c-6.56-3.79-11.87-.75-11.87,6.77v50.63c0,7.52,5.31,16.69,11.87,20.48l54.05,31.11c6.56,3.79,11.87.76,11.87-6.77v-50.63c0-7.52-5.31-16.69-11.87-20.48l-54.05-31.11Z"/>
        <path class="cls-40" d="M327.53,347.9l-54.05-31.11c-6.56-3.79-11.87-.75-11.87,6.77v1.15c0-7.52,5.31-10.55,11.87-6.77l54.05,31.11c6.56,3.79,11.87,12.95,11.87,20.48v-1.15c0-7.52-5.31-16.69-11.87-20.48Z"/>
        <path class="cls-25" d="M278.03,341.22v38.22l42.92,24.78v-38.22l-42.92-24.78ZM318.21,399.49l-37.43-21.61v-31.92l37.43,21.61v31.92ZM306.19,370.68l-6.7,8.94-5.32-6.62-10.65,3.31,31.94,18.44-9.27-24.07ZM291.6,367.57c2.37,1.37,4.29.27,4.29-2.45s-1.92-6.04-4.29-7.4-4.29-.27-4.29,2.45,1.92,6.03,4.29,7.4Z"/>
      </g>
      <g>
        <path class="cls-39" d="M58.32,113.47c-10.29-5.94-18.64-1.19-18.64,10.62v151.31c0,11.81,8.34,26.2,18.64,32.14l84.85,48.84c10.29,5.94,18.63,1.19,18.63-10.62v-151.31c0-11.81-8.34-26.2-18.63-32.14l-84.85-48.84Z"/>
        <path class="cls-34" d="M143.17,162.31l-84.85-48.84c-10.29-5.94-18.64-1.19-18.64,10.62v1.8c0-11.81,8.34-16.57,18.64-10.62l84.85,48.84c10.29,5.94,18.64,20.33,18.64,32.14v-1.8c0-11.81-8.34-26.2-18.64-32.14Z"/>
        <g>
          <path class="cls-51" d="M157.39,203.01c.28,0,.56-.15.72-.41.23-.4.09-.9-.3-1.13l-112.12-64.62c-.39-.23-.9-.1-1.13.3-.23.4-.09.9.3,1.13l112.12,64.62c.13.08.27.11.42.11Z"/>
          <path class="cls-51" d="M157.39,225.1c.28,0,.56-.15.72-.41.23-.4.09-.9-.3-1.13l-112.12-64.62c-.39-.23-.9-.1-1.13.3-.23.4-.09.9.3,1.13l112.12,64.62c.13.08.27.11.42.11Z"/>
          <path class="cls-51" d="M157.39,246.64c.28,0,.56-.15.72-.41.23-.4.09-.9-.3-1.13l-112.12-64.62c-.39-.23-.9-.1-1.13.3-.23.4-.09.9.3,1.13l112.12,64.62c.13.08.27.11.42.11Z"/>
          <path class="cls-51" d="M157.39,268.74c.28,0,.56-.15.72-.41.23-.4.09-.9-.3-1.13l-112.12-64.62c-.39-.23-.9-.1-1.13.3-.23.4-.09.9.3,1.13l112.12,64.62c.13.08.27.11.42.11Z"/>
          <path class="cls-51" d="M157.39,290c.28,0,.56-.15.72-.41.23-.4.09-.9-.3-1.13l-112.12-64.62c-.39-.23-.9-.1-1.13.3-.23.4-.09.9.3,1.13l112.12,64.62c.13.08.27.11.42.11Z"/>
          <path class="cls-51" d="M157.39,312.09c.28,0,.56-.15.72-.41.23-.4.09-.9-.3-1.13l-112.12-64.62c-.39-.23-.9-.1-1.13.3-.23.4-.09.9.3,1.13l112.12,64.62c.13.08.27.11.42.11Z"/>
          <path class="cls-51" d="M157.39,333.91c.28,0,.56-.15.72-.41.23-.4.09-.9-.3-1.13l-112.12-64.62c-.39-.23-.9-.1-1.13.3-.23.4-.09.9.3,1.13l112.12,64.62c.13.08.27.11.42.11Z"/>
          <path class="cls-6" d="M131.44,229.89l-11.28-6.51v100.04l11.28,6.51v-100.04ZM147.68,202.06l-11.28-6.51v137.11l11.28,6.51v-137.11ZM86.73,146.25v157.5l11.28,6.51v-157.5l-11.28-6.51ZM114.72,176.9l-11.28-6.51v142.92l11.28,6.51v-142.92ZM81.28,138.8l-11.28-6.51v161.38l11.28,6.51v-161.38ZM36.56,193.16v80.84l11.28,6.51v-80.84l-11.28-6.51ZM64.56,152.7l-11.28-6.51v137.37l11.28,6.51v-137.37Z"/>
          <path class="cls-50" d="M131.44,271.31l-11.28-6.51v58.63l11.28,6.51v-58.62ZM147.68,231.32l-11.28-6.51v107.85l11.28,6.51v-107.85ZM86.73,163.17v140.59l11.28,6.51v-140.59l-11.28-6.51ZM114.72,211.1l-11.28-6.51v108.72l11.28,6.51v-108.72ZM81.28,145.2l-11.28-6.51v154.99l11.28,6.51v-154.99ZM36.56,226.79v47.22l11.28,6.51v-47.22l-11.28-6.51ZM64.56,204.92l-11.28-6.51v85.15l11.28,6.51v-85.15Z"/>
          <g class="cls-62">
            <polygon class="cls-15" points="147.68 232.73 136.41 226.22 136.41 224.81 147.68 231.32 147.68 232.73"/>
            <polygon class="cls-15" points="131.44 272.71 120.16 266.2 120.16 264.79 131.44 271.31 131.44 272.71"/>
            <polygon class="cls-15" points="64.56 206.33 53.28 199.82 53.28 198.41 64.56 204.92 64.56 206.33"/>
            <polygon class="cls-15" points="81.28 146.61 70 140.09 70 138.69 81.28 145.2 81.28 146.61"/>
            <polygon class="cls-15" points="47.84 233.3 47.84 234.71 36.56 228.2 36.56 226.79 47.84 233.3"/>
            <polygon class="cls-15" points="114.72 212.51 103.44 206 103.44 204.59 114.72 211.1 114.72 212.51"/>
            <polygon class="cls-15" points="98 171.09 86.73 164.58 86.73 163.17 98 169.68 98 171.09"/>
          </g>
        </g>
      </g>
      <g>
        <path class="cls-23" d="M18.64,132.81C8.34,126.87,0,131.63,0,143.44v154.63c0,11.81,8.34,26.2,18.63,32.14l84.85,48.84c10.29,5.94,18.64,1.19,18.64-10.62v-154.63c0-11.81-8.34-26.2-18.64-32.14l-84.85-48.84Z"/>
        <path class="cls-44" d="M103.49,181.65l-84.85-48.84c-10.29-5.94-18.64-1.19-18.64,10.62v1.8c0-11.81,8.34-16.57,18.64-10.62l84.85,48.84c10.29,5.94,18.64,20.33,18.64,32.14v-1.8c0-11.81-8.34-26.2-18.64-32.14Z"/>
      </g>
      <g>
        <polygon class="cls-25" points="65.4 237.19 78.87 244.97 78.87 240.66 65.4 232.88 65.4 237.19"/>
        <polygon class="cls-25" points="66.17 257.51 85.22 268.51 85.22 264.2 66.17 253.2 66.17 257.51"/>
        <polygon class="cls-25" points="67.9 248.57 83.88 257.79 83.88 253.49 67.9 244.26 67.9 248.57"/>
        <polygon class="cls-25" points="62.32 231.1 46.15 221.77 46.15 226.07 62.32 235.41 62.32 231.1"/>
        <polygon class="cls-25" points="79.07 235.14 92.15 242.69 92.15 238.39 79.07 230.83 79.07 235.14"/>
        <polygon class="cls-25" points="53.08 249.95 63.09 255.73 63.09 251.42 53.08 245.65 53.08 249.95"/>
        <polygon class="cls-25" points="65.01 262.47 60.4 259.81 60.4 264.11 65.01 266.78 65.01 262.47"/>
        <polygon class="cls-25" points="60.01 224.14 75.99 233.36 75.99 229.05 60.01 219.83 60.01 224.14"/>
        <polygon class="cls-25" points="43.07 219.99 33.06 214.21 33.06 218.52 43.07 224.3 43.07 219.99"/>
        <polygon class="cls-25" points="28.44 265.54 49.23 277.55 49.23 273.24 28.44 261.24 28.44 265.54"/>
        <polygon class="cls-25" points="55.58 211.64 74.64 222.64 74.64 218.34 55.58 207.33 55.58 211.64"/>
        <polygon class="cls-25" points="36.53 250.33 57.32 262.34 57.32 258.03 36.53 246.03 36.53 250.33"/>
        <polygon class="cls-25" points="57.12 238.04 36.34 226.04 36.34 230.35 57.12 242.35 57.12 238.04"/>
        <polygon class="cls-25" points="52.31 219.69 56.93 222.36 56.93 218.05 52.31 215.38 52.31 219.69"/>
        <polygon class="cls-25" points="42.5 204.08 52.5 209.86 52.5 205.56 42.5 199.78 42.5 204.08"/>
        <polygon class="cls-25" points="31.91 257.61 39.42 261.94 39.42 257.63 31.91 253.3 31.91 257.61"/>
        <polygon class="cls-25" points="50 243.87 42.5 239.53 42.5 243.84 50 248.17 50 243.87"/>
        <polygon class="cls-25" points="96.39 274.95 99.88 276.97 99.88 272.67 96.39 270.65 96.39 274.95"/>
        <polygon class="cls-25" points="31.91 193.67 31.91 197.97 39.42 202.31 39.42 198 31.91 193.67"/>
        <polygon class="cls-25" points="64.82 242.49 60.2 239.82 60.2 244.12 64.82 246.79 64.82 242.49"/>
        <polygon class="cls-25" points="86.96 259.57 99.88 267.03 99.88 262.73 86.96 255.26 86.96 259.57"/>
        <polygon class="cls-25" points="92.15 298.02 79.07 290.46 79.07 294.77 92.15 302.33 92.15 298.02"/>
        <polygon class="cls-25" points="67.9 314.83 83.88 324.05 83.88 319.75 67.9 310.52 67.9 314.83"/>
        <polygon class="cls-25" points="28.44 205.91 49.23 217.91 49.23 213.61 28.44 201.6 28.44 205.91"/>
        <polygon class="cls-25" points="93.31 273.18 93.31 268.87 88.3 265.98 88.3 270.29 93.31 273.18"/>
        <polygon class="cls-25" points="52.5 265.19 42.5 259.41 42.5 263.72 52.5 269.5 52.5 265.19"/>
        <polygon class="cls-25" points="56.93 277.68 52.31 275.02 52.31 279.32 56.93 281.99 56.93 277.68"/>
        <polygon class="cls-25" points="74.64 277.97 55.58 266.97 55.58 271.27 74.64 282.28 74.64 277.97"/>
        <polygon class="cls-25" points="81.95 246.74 85.68 248.99 85.68 244.68 81.95 242.44 81.95 246.74"/>
        <polygon class="cls-25" points="99.88 282.6 87.15 275.25 87.15 279.56 99.88 286.91 99.88 282.6"/>
        <polygon class="cls-25" points="88.76 250.77 99.88 257.09 99.88 252.79 88.76 246.46 88.76 250.77"/>
        <polygon class="cls-25" points="95.23 244.47 99.88 247.16 99.88 242.85 95.23 240.17 95.23 244.47"/>
        <polygon class="cls-25" points="33.26 290.52 21.59 283.78 21.59 288.09 33.26 294.83 33.26 290.52"/>
        <polygon class="cls-25" points="43.07 279.62 33.06 273.84 33.06 278.15 43.07 283.93 43.07 279.62"/>
        <polygon class="cls-25" points="29.98 212.43 21.59 207.59 21.59 211.89 29.98 216.74 29.98 212.43"/>
        <polygon class="cls-25" points="29.98 272.07 21.59 267.22 21.59 271.53 29.98 276.37 29.98 272.07"/>
        <polygon class="cls-25" points="21.59 298.03 39.42 308.32 39.42 304.01 21.59 293.72 21.59 298.03"/>
        <polygon class="cls-25" points="28.83 251.52 21.59 247.34 21.59 251.65 28.83 255.83 28.83 251.52"/>
        <polygon class="cls-25" points="33.45 244.25 21.59 237.4 21.59 241.71 33.45 248.56 33.45 244.25"/>
        <polygon class="cls-25" points="33.26 224.26 21.59 217.52 21.59 221.83 33.26 228.57 33.26 224.26"/>
        <polygon class="cls-25" points="39.42 237.76 21.59 227.46 21.59 231.77 39.42 242.06 39.42 237.76"/>
        <polygon class="cls-25" points="25.37 259.46 21.59 257.28 21.59 261.59 25.37 263.77 25.37 259.46"/>
        <polygon class="cls-25" points="99.88 328.99 86.96 321.52 86.96 325.83 99.88 333.29 99.88 328.99"/>
        <polygon class="cls-25" points="60.2 310.38 64.82 313.05 64.82 308.74 60.2 306.08 60.2 310.38"/>
        <polygon class="cls-25" points="78.87 300.29 65.4 292.51 65.4 296.82 78.87 304.6 78.87 300.29"/>
        <polygon class="cls-25" points="42.5 310.1 50 314.43 50 310.13 42.5 305.79 42.5 310.1"/>
        <polygon class="cls-25" points="88.3 285.86 77.72 279.75 77.72 284.05 88.3 290.17 88.3 285.86"/>
        <polygon class="cls-25" points="99.88 292.54 91.38 287.64 91.38 291.94 99.88 296.85 99.88 292.54"/>
        <polygon class="cls-25" points="84.07 273.47 68.09 264.25 68.09 268.56 84.07 277.78 84.07 273.47"/>
        <polygon class="cls-25" points="99.88 302.48 95.23 299.8 95.23 304.1 99.88 306.79 99.88 302.48"/>
        <polygon class="cls-25" points="75.99 288.69 60.01 279.46 60.01 283.77 75.99 292.99 75.99 288.69"/>
        <polygon class="cls-25" points="57.12 304.3 36.34 292.3 36.34 296.6 57.12 308.61 57.12 304.3"/>
        <polygon class="cls-25" points="62.32 290.73 46.15 281.4 46.15 285.71 62.32 295.04 62.32 290.73"/>
        <polygon class="cls-25" points="28.83 191.89 21.59 187.71 21.59 192.01 28.83 196.19 28.83 191.89"/>
        <polygon class="cls-25" points="33.45 181.3 21.59 174.46 21.59 178.76 33.45 185.61 33.45 181.3"/>
        <polygon class="cls-25" points="25.37 199.83 21.59 197.65 21.59 201.95 25.37 204.13 25.37 199.83"/>
        <polygon class="cls-25" points="57.32 195.08 36.53 183.08 36.53 187.39 57.32 199.39 57.32 195.08"/>
        <polygon class="cls-25" points="99.88 232.91 91.38 228 91.38 232.31 99.88 237.22 99.88 232.91"/>
        <polygon class="cls-25" points="65.01 199.53 60.4 196.86 60.4 201.17 65.01 203.83 65.01 199.53"/>
        <polygon class="cls-25" points="77.72 224.42 88.3 230.53 88.3 226.23 77.72 220.11 77.72 224.42"/>
        <polygon class="cls-25" points="84.07 210.53 68.09 201.31 68.09 205.61 84.07 214.84 84.07 210.53"/>
      </g>
      <path class="cls-18" d="M345.5,377.22v32.39l17.48-6.1-17.48-26.29ZM174.06,318.9v-32.39l-17.48,6.1,17.48,26.29Z"/>
      <g class="cls-62">
        <polygon class="cls-37" points="362.98 403.51 345.5 377.22 345.5 379.98 361.49 404.03 362.98 403.51"/>
        <polygon class="cls-14" points="158.07 293.53 174.06 287.95 174.06 286.51 156.58 292.61 158.07 293.53"/>
      </g>
      <g class="cls-61">
        <polygon class="cls-24" points="151.15 114.25 167.13 123.48 167.13 119.17 151.15 109.95 151.15 114.25"/>
        <polygon class="cls-24" points="116.5 89.95 104.84 83.21 104.84 87.52 116.5 94.25 116.5 89.95"/>
        <polygon class="cls-24" points="104.84 97.45 122.66 107.75 122.66 103.44 104.84 93.15 104.84 97.45"/>
        <polygon class="cls-24" points="143.45 109.81 148.07 112.48 148.07 108.17 143.45 105.5 143.45 109.81"/>
        <polygon class="cls-24" points="177.87 129.17 202.34 143.06 202.34 138.75 177.87 124.86 177.87 129.17"/>
        <polygon class="cls-24" points="170.17 124.72 174.79 127.39 174.79 123.08 170.17 120.42 170.17 124.72"/>
        <polygon class="cls-24" points="125.74 109.53 133.25 113.86 133.25 109.55 125.74 105.22 125.74 109.53"/>
        <polygon class="cls-24" points="140.37 103.72 119.58 91.72 119.58 96.03 140.37 108.03 140.37 103.72"/>
        <polygon class="cls-24" points="99.93 89.61 86.2 70.09 86.2 77.36 74.32 70.51 74.32 79.15 86.2 86.01 86.2 93.28 99.93 89.61"/>
      </g>
      <g>
        <polygon class="cls-36" points="146.2 125.36 165.21 136.33 165.21 131.21 146.2 120.24 146.2 125.36"/>
        <polygon class="cls-52" points="104.98 96.44 91.1 88.43 91.1 93.55 104.98 101.56 104.98 96.44"/>
        <polygon class="cls-19" points="91.1 105.37 112.31 117.62 112.31 112.49 91.1 100.25 91.1 105.37"/>
        <polygon class="cls-35" points="137.04 120.07 142.54 123.25 142.54 118.12 137.04 114.95 137.04 120.07"/>
        <polygon class="cls-20" points="177.99 143.1 207.1 159.63 207.1 154.5 177.99 137.98 177.99 143.1"/>
        <polygon class="cls-17" points="168.83 137.81 174.32 140.99 174.32 135.86 168.83 132.69 168.83 137.81"/>
        <polygon class="cls-38" points="115.97 119.73 124.9 124.89 124.9 119.77 115.97 114.61 115.97 119.73"/>
        <polygon class="cls-49" points="133.38 112.83 108.65 98.56 108.65 103.68 133.38 117.96 133.38 112.83"/>
      </g>
      <polygon class="cls-56" points="84.34 93.46 55.89 53 55.89 68.08 31.28 53.87 31.28 71.78 55.89 85.99 55.89 101.07 84.34 93.46"/>
    </g>
  </g>
</svg>