<?xml version="1.0" encoding="UTF-8"?>
<svg xmlns="http://www.w3.org/2000/svg" xmlns:xlink="http://www.w3.org/1999/xlink" viewBox="0 0 386 483.7">
  <defs>
    <style>
      .cls-1 {
        opacity: .94;
      }

      .cls-2 {
        opacity: .92;
      }

      .cls-3 {
        fill: url(#_Безымянный_градиент_13);
      }

      .cls-3, .cls-4, .cls-5, .cls-6, .cls-7, .cls-8, .cls-9, .cls-10, .cls-11, .cls-12, .cls-13, .cls-14, .cls-15, .cls-16, .cls-17, .cls-18, .cls-19, .cls-20, .cls-21, .cls-22, .cls-23, .cls-24, .cls-25, .cls-26, .cls-27, .cls-28, .cls-29, .cls-30, .cls-31, .cls-32, .cls-33, .cls-34, .cls-35, .cls-36, .cls-37, .cls-38, .cls-39, .cls-40, .cls-41, .cls-42, .cls-43, .cls-44, .cls-45, .cls-46, .cls-47, .cls-48, .cls-49, .cls-50, .cls-51, .cls-52, .cls-53, .cls-54, .cls-55, .cls-56, .cls-57, .cls-58, .cls-59, .cls-60, .cls-61, .cls-62, .cls-63, .cls-64, .cls-65, .cls-66, .cls-67, .cls-68, .cls-69, .cls-70, .cls-71 {
        stroke-width: 0px;
      }

      .cls-3, .cls-13, .cls-62 {
        opacity: .91;
      }

      .cls-4 {
        fill: url(#linear-gradient);
      }

      .cls-5 {
        fill: url(#_Безымянный_градиент_19);
      }

      .cls-5, .cls-6, .cls-27 {
        opacity: .64;
      }

      .cls-6 {
        fill: url(#_Безымянный_градиент_19-2);
      }

      .cls-7 {
        fill: url(#_Безымянный_градиент_20);
      }

      .cls-7, .cls-32, .cls-33 {
        opacity: .59;
      }

      .cls-8 {
        opacity: .9;
      }

      .cls-8, .cls-19, .cls-20, .cls-38, .cls-40, .cls-42, .cls-47, .cls-48, .cls-56, .cls-59, .cls-61, .cls-72, .cls-70 {
        mix-blend-mode: screen;
      }

      .cls-8, .cls-20, .cls-38, .cls-47, .cls-59, .cls-70 {
        fill: #27043d;
      }

      .cls-9 {
        fill: url(#_Безымянный_градиент_18-2);
      }

      .cls-9, .cls-60, .cls-63 {
        opacity: .68;
      }

      .cls-10 {
        fill: url(#_Безымянный_градиент_12);
      }

      .cls-10, .cls-11, .cls-26 {
        opacity: .95;
      }

      .cls-11 {
        fill: url(#_Безымянный_градиент_12-3);
      }

      .cls-73 {
        opacity: .86;
      }

      .cls-12 {
        fill: url(#New_Gradient_Swatch_copy_49);
      }

      .cls-74 {
        opacity: .8;
      }

      .cls-13 {
        fill: url(#_Безымянный_градиент_13-2);
      }

      .cls-14 {
        fill: url(#New_Gradient_Swatch_copy_50);
      }

      .cls-15 {
        fill: url(#_Безымянный_градиент_16);
      }

      .cls-15, .cls-46, .cls-55 {
        opacity: .77;
      }

      .cls-16 {
        fill: #58595b;
      }

      .cls-17 {
        fill: url(#New_Gradient_Swatch_copy_35-7);
      }

      .cls-75 {
        isolation: isolate;
      }

      .cls-18 {
        fill: url(#radial-gradient-3);
      }

      .cls-18, .cls-43, .cls-51, .cls-76, .cls-53 {
        mix-blend-mode: color-dodge;
      }

      .cls-18, .cls-51, .cls-70 {
        opacity: .7;
      }

      .cls-19 {
        fill: url(#linear-gradient-3);
      }

      .cls-20 {
        opacity: .6;
      }

      .cls-21 {
        fill: url(#New_Gradient_Swatch_copy_35-8);
      }

      .cls-22 {
        fill: url(#_Безымянный_градиент_14);
      }

      .cls-22, .cls-58, .cls-65 {
        opacity: .86;
      }

      .cls-77 {
        opacity: .84;
      }

      .cls-78 {
        opacity: .78;
      }

      .cls-23 {
        fill: url(#New_Gradient_Swatch_copy_35-4);
      }

      .cls-24 {
        fill: url(#New_Gradient_Swatch_copy_35-6);
      }

      .cls-25 {
        fill: url(#New_Gradient_Swatch_copy_35-2);
      }

      .cls-26 {
        fill: url(#_Безымянный_градиент_12-2);
      }

      .cls-27 {
        fill: url(#_Безымянный_градиент_19-3);
      }

      .cls-28 {
        fill: #cc6ef4;
      }

      .cls-28, .cls-52, .cls-54 {
        mix-blend-mode: multiply;
      }

      .cls-29 {
        fill: url(#New_Gradient_Swatch_copy_35);
      }

      .cls-30 {
        fill: url(#_Безымянный_градиент_15);
      }

      .cls-30, .cls-57, .cls-67 {
        opacity: .82;
      }

      .cls-31 {
        fill: url(#New_Gradient_Swatch_copy_26);
      }

      .cls-31, .cls-59 {
        opacity: .8;
      }

      .cls-32 {
        fill: url(#_Безымянный_градиент_20-2);
      }

      .cls-33 {
        fill: url(#_Безымянный_градиент_20-3);
      }

      .cls-34 {
        fill: url(#New_Gradient_Swatch_copy_35-3);
      }

      .cls-35 {
        fill: #c7bcd6;
      }

      .cls-79 {
        opacity: .98;
      }

      .cls-36 {
        fill: url(#_Безымянный_градиент_17);
      }

      .cls-36, .cls-45, .cls-68 {
        opacity: .73;
      }

      .cls-37 {
        fill: #fff;
      }

      .cls-38, .cls-40, .cls-42, .cls-54, .cls-61, .cls-72 {
        opacity: .5;
      }

      .cls-39 {
        fill: url(#linear-gradient-2);
      }

      .cls-40 {
        fill: url(#linear-gradient-8);
      }

      .cls-41 {
        fill: url(#_Безымянный_градиент_21-3);
      }

      .cls-41, .cls-50, .cls-64 {
        opacity: .55;
      }

      .cls-42 {
        fill: url(#linear-gradient-6);
      }

      .cls-43 {
        fill: url(#radial-gradient);
      }

      .cls-44 {
        fill: url(#New_Gradient_Swatch_copy_35-5);
      }

      .cls-80 {
        opacity: .9;
      }

      .cls-45 {
        fill: url(#_Безымянный_градиент_17-3);
      }

      .cls-46 {
        fill: url(#_Безымянный_градиент_16-3);
      }

      .cls-48 {
        fill: url(#linear-gradient-7);
      }

      .cls-49 {
        fill: url(#New_Gradient_Swatch_copy_9-2);
      }

      .cls-50 {
        fill: url(#_Безымянный_градиент_21);
      }

      .cls-51 {
        fill: url(#radial-gradient-4);
      }

      .cls-52, .cls-54 {
        fill: #a56ef4;
      }

      .cls-53 {
        fill: url(#radial-gradient-2);
      }

      .cls-81 {
        opacity: .82;
      }

      .cls-55 {
        fill: url(#_Безымянный_градиент_16-2);
      }

      .cls-56 {
        fill: url(#linear-gradient-5);
      }

      .cls-57 {
        fill: url(#_Безымянный_градиент_15-3);
      }

      .cls-58 {
        fill: url(#_Безымянный_градиент_14-3);
      }

      .cls-60 {
        fill: url(#_Безымянный_градиент_18-3);
      }

      .cls-61 {
        fill: url(#linear-gradient-4);
      }

      .cls-62 {
        fill: url(#_Безымянный_градиент_13-3);
      }

      .cls-63 {
        fill: url(#_Безымянный_градиент_18);
      }

      .cls-64 {
        fill: url(#_Безымянный_градиент_21-2);
      }

      .cls-82 {
        opacity: .88;
      }

      .cls-65 {
        fill: url(#_Безымянный_градиент_14-2);
      }

      .cls-66 {
        fill: url(#New_Gradient_Swatch_copy_8);
      }

      .cls-67 {
        fill: url(#_Безымянный_градиент_15-2);
      }

      .cls-68 {
        fill: url(#_Безымянный_градиент_17-2);
      }

      .cls-69 {
        fill: url(#New_Gradient_Swatch_copy_9-3);
      }

      .cls-83 {
        opacity: .96;
      }

      .cls-71 {
        fill: url(#New_Gradient_Swatch_copy_9);
      }
    </style>
    <linearGradient id="linear-gradient" x1="254.01" y1="241.54" x2="577.82" y2="241.54" gradientUnits="userSpaceOnUse">
      <stop offset="0" stop-color="#6b24d6"/>
      <stop offset=".74" stop-color="#200657"/>
      <stop offset="1" stop-color="#12054e"/>
    </linearGradient>
    <linearGradient id="New_Gradient_Swatch_copy_49" data-name="New Gradient Swatch copy 49" x1="239.27" y1="189.25" x2="256.37" y2="250.24" gradientUnits="userSpaceOnUse">
      <stop offset="0" stop-color="#671ab9"/>
      <stop offset=".39" stop-color="#ad34f1"/>
      <stop offset="1" stop-color="#5513ab"/>
    </linearGradient>
    <linearGradient id="linear-gradient-2" x1="621.34" y1="21.87" x2="-134.71" y2="429.81" gradientUnits="userSpaceOnUse">
      <stop offset=".01" stop-color="#9f19ab"/>
      <stop offset=".43" stop-color="#5f27bd"/>
      <stop offset=".9" stop-color="#3d065f"/>
    </linearGradient>
    <linearGradient id="New_Gradient_Swatch_copy_50" data-name="New Gradient Swatch copy 50" x1="-81.74" y1="-143.27" x2="422.73" y2="293.37" gradientUnits="userSpaceOnUse">
      <stop offset=".04" stop-color="#6b24d6"/>
      <stop offset=".32" stop-color="#7a1bd0"/>
      <stop offset=".86" stop-color="#a205c0"/>
      <stop offset=".98" stop-color="#ad00bd"/>
    </linearGradient>
    <radialGradient id="radial-gradient" cx="238.72" cy="138.88" fx="238.72" fy="138.88" r="315.77" gradientUnits="userSpaceOnUse">
      <stop offset="0" stop-color="#711f56"/>
      <stop offset=".16" stop-color="#6b1d51"/>
      <stop offset=".36" stop-color="#5c1946"/>
      <stop offset=".58" stop-color="#421232"/>
      <stop offset=".82" stop-color="#1f0818"/>
      <stop offset="1" stop-color="#000"/>
    </radialGradient>
    <linearGradient id="New_Gradient_Swatch_copy_35" data-name="New Gradient Swatch copy 35" x1="41.74" y1="292.52" x2="150.48" y2="104.61" gradientUnits="userSpaceOnUse">
      <stop offset="0" stop-color="#9f79c8"/>
      <stop offset=".14" stop-color="#a47fca"/>
      <stop offset=".33" stop-color="#b491d3"/>
      <stop offset=".55" stop-color="#cdafe1"/>
      <stop offset=".58" stop-color="#d1b4e3"/>
      <stop offset=".76" stop-color="#dac3e8"/>
      <stop offset="1" stop-color="#ebdef3"/>
    </linearGradient>
    <linearGradient id="New_Gradient_Swatch_copy_35-2" data-name="New Gradient Swatch copy 35" x1="108.62" y1="331.22" x2="217.36" y2="143.31" xlink:href="#New_Gradient_Swatch_copy_35"/>
    <linearGradient id="New_Gradient_Swatch_copy_35-3" data-name="New Gradient Swatch copy 35" x1="193.11" y1="382.95" x2="364.3" y2="235.19" xlink:href="#New_Gradient_Swatch_copy_35"/>
    <linearGradient id="New_Gradient_Swatch_copy_35-4" data-name="New Gradient Swatch copy 35" x1="67.49" y1="307.42" x2="176.22" y2="119.5" xlink:href="#New_Gradient_Swatch_copy_35"/>
    <linearGradient id="New_Gradient_Swatch_copy_35-5" data-name="New Gradient Swatch copy 35" x1="65.5" y1="306.27" x2="174.24" y2="118.36" xlink:href="#New_Gradient_Swatch_copy_35"/>
    <linearGradient id="New_Gradient_Swatch_copy_35-6" data-name="New Gradient Swatch copy 35" x1="57.53" y1="301.65" x2="166.26" y2="113.74" xlink:href="#New_Gradient_Swatch_copy_35"/>
    <linearGradient id="New_Gradient_Swatch_copy_35-7" data-name="New Gradient Swatch copy 35" x1="79.99" y1="314.65" x2="188.72" y2="126.74" xlink:href="#New_Gradient_Swatch_copy_35"/>
    <linearGradient id="New_Gradient_Swatch_copy_35-8" data-name="New Gradient Swatch copy 35" x1="139.6" y1="349.15" x2="248.33" y2="161.23" xlink:href="#New_Gradient_Swatch_copy_35"/>
    <linearGradient id="linear-gradient-3" x1="200.15" y1="292.25" x2="265.25" y2="254.04" gradientUnits="userSpaceOnUse">
      <stop offset="0" stop-color="#dc3daa"/>
      <stop offset=".07" stop-color="#bc3491"/>
      <stop offset=".2" stop-color="#8b266b"/>
      <stop offset=".33" stop-color="#601a4a"/>
      <stop offset=".46" stop-color="#3d112f"/>
      <stop offset=".59" stop-color="#22091a"/>
      <stop offset=".72" stop-color="#0f040b"/>
      <stop offset=".86" stop-color="#030102"/>
      <stop offset="1" stop-color="#000"/>
    </linearGradient>
    <linearGradient id="New_Gradient_Swatch_copy_26" data-name="New Gradient Swatch copy 26" x1="319.74" y1="499.45" x2="318.72" y2="238.59" gradientUnits="userSpaceOnUse">
      <stop offset=".03" stop-color="#7c1dc9"/>
      <stop offset=".21" stop-color="#6e41d1"/>
      <stop offset=".62" stop-color="#4c9be8"/>
      <stop offset="1" stop-color="#2af6ff"/>
    </linearGradient>
    <radialGradient id="radial-gradient-2" cx="319.26" cy="316.97" fx="319.26" fy="316.97" r="123.87" xlink:href="#radial-gradient"/>
    <linearGradient id="New_Gradient_Swatch_copy_8" data-name="New Gradient Swatch copy 8" x1="8403.3" y1="431.92" x2="8360.44" y2="338.75" gradientTransform="translate(8714.86) rotate(-180) scale(1 -1)" gradientUnits="userSpaceOnUse">
      <stop offset=".04" stop-color="#ffa98c"/>
      <stop offset=".32" stop-color="#feb892"/>
      <stop offset=".86" stop-color="#fee0a3"/>
      <stop offset="1" stop-color="#feeca8"/>
    </linearGradient>
    <linearGradient id="linear-gradient-4" x1="256.43" y1="258.94" x2="203.95" y2="289.47" gradientUnits="userSpaceOnUse">
      <stop offset=".04" stop-color="#7c25cc"/>
      <stop offset=".3" stop-color="#8b23c9"/>
      <stop offset=".82" stop-color="#b320c4"/>
      <stop offset=".98" stop-color="#c21fc2"/>
      <stop offset="1" stop-color="#c21fc3"/>
    </linearGradient>
    <linearGradient id="_Безымянный_градиент_21" data-name="Безымянный градиент 21" x1="249.49" y1="253.25" x2="209.93" y2="295.05" gradientUnits="userSpaceOnUse">
      <stop offset=".04" stop-color="#7f24c9"/>
      <stop offset=".3" stop-color="#8e24c7"/>
      <stop offset=".8" stop-color="#b624c4"/>
      <stop offset=".98" stop-color="#c725c3"/>
      <stop offset="1" stop-color="#c825c4"/>
    </linearGradient>
    <linearGradient id="_Безымянный_градиент_20" data-name="Безымянный градиент 20" x1="242.33" y1="248.42" x2="216.09" y2="299.81" gradientUnits="userSpaceOnUse">
      <stop offset=".04" stop-color="#8223c6"/>
      <stop offset=".29" stop-color="#9124c5"/>
      <stop offset=".77" stop-color="#b928c4"/>
      <stop offset=".98" stop-color="#cd2bc4"/>
      <stop offset="1" stop-color="#cd2bc5"/>
    </linearGradient>
    <linearGradient id="_Безымянный_градиент_19" data-name="Безымянный градиент 19" x1="235.97" y1="235.36" x2="221.5" y2="312.22" gradientUnits="userSpaceOnUse">
      <stop offset=".04" stop-color="#8622c3"/>
      <stop offset=".28" stop-color="#9525c3"/>
      <stop offset=".77" stop-color="#bd2cc4"/>
      <stop offset=".98" stop-color="#d231c5"/>
      <stop offset="1" stop-color="#d332c6"/>
    </linearGradient>
    <linearGradient id="_Безымянный_градиент_18" data-name="Безымянный градиент 18" x1="223.38" y1="227.11" x2="232.69" y2="320.12" gradientUnits="userSpaceOnUse">
      <stop offset=".04" stop-color="#8921c0"/>
      <stop offset=".28" stop-color="#9825c1"/>
      <stop offset=".75" stop-color="#c030c4"/>
      <stop offset=".98" stop-color="#d737c6"/>
      <stop offset="1" stop-color="#d838c7"/>
    </linearGradient>
    <linearGradient id="_Безымянный_градиент_17" data-name="Безымянный градиент 17" x1="208.04" y1="226.47" x2="246.4" y2="320.92" gradientUnits="userSpaceOnUse">
      <stop offset=".04" stop-color="#8c20bd"/>
      <stop offset=".27" stop-color="#9b25be"/>
      <stop offset=".73" stop-color="#c333c3"/>
      <stop offset=".98" stop-color="#dd3dc7"/>
      <stop offset="1" stop-color="#de3ec8"/>
    </linearGradient>
    <linearGradient id="_Безымянный_градиент_16" data-name="Безымянный градиент 16" x1="194.45" y1="233.8" x2="258.45" y2="314.31" gradientUnits="userSpaceOnUse">
      <stop offset=".04" stop-color="#8f1eba"/>
      <stop offset=".27" stop-color="#9e25bc"/>
      <stop offset=".71" stop-color="#c637c3"/>
      <stop offset=".98" stop-color="#e244c8"/>
      <stop offset="1" stop-color="#e344c9"/>
    </linearGradient>
    <linearGradient id="_Безымянный_градиент_15" data-name="Безымянный градиент 15" x1="186.54" y1="246.97" x2="265.18" y2="302.3" gradientUnits="userSpaceOnUse">
      <stop offset=".04" stop-color="#921db7"/>
      <stop offset=".26" stop-color="#a125ba"/>
      <stop offset=".69" stop-color="#c93ac2"/>
      <stop offset=".98" stop-color="#e84ac9"/>
      <stop offset="1" stop-color="#e94aca"/>
    </linearGradient>
    <linearGradient id="_Безымянный_градиент_14" data-name="Безымянный градиент 14" x1="186.45" y1="262.04" x2="264.66" y2="288.58" gradientUnits="userSpaceOnUse">
      <stop offset=".04" stop-color="#951cb4"/>
      <stop offset=".26" stop-color="#a425b7"/>
      <stop offset=".68" stop-color="#cc3cc1"/>
      <stop offset=".98" stop-color="#ed50ca"/>
      <stop offset="1" stop-color="#ee50cb"/>
    </linearGradient>
    <linearGradient id="_Безымянный_градиент_13" data-name="Безымянный градиент 13" x1="193.75" y1="274.59" x2="257.3" y2="277.22" gradientUnits="userSpaceOnUse">
      <stop offset=".04" stop-color="#991bb1"/>
      <stop offset=".25" stop-color="#a825b5"/>
      <stop offset=".68" stop-color="#d03fc1"/>
      <stop offset=".98" stop-color="#f256cb"/>
      <stop offset="1" stop-color="#f457cc"/>
    </linearGradient>
    <linearGradient id="_Безымянный_градиент_12" data-name="Безымянный градиент 12" x1="195.96" y1="283.72" x2="254.67" y2="269.06" gradientUnits="userSpaceOnUse">
      <stop offset=".04" stop-color="#9c1aae"/>
      <stop offset=".25" stop-color="#ab25b3"/>
      <stop offset=".66" stop-color="#d341c0"/>
      <stop offset=".98" stop-color="#f85ccc"/>
      <stop offset="1" stop-color="#f95dcd"/>
    </linearGradient>
    <linearGradient id="New_Gradient_Swatch_copy_9" data-name="New Gradient Swatch copy 9" x1="199.87" y1="291.69" x2="250.47" y2="261.99" gradientUnits="userSpaceOnUse">
      <stop offset=".04" stop-color="#9f19ab"/>
      <stop offset=".24" stop-color="#ae24b0"/>
      <stop offset=".65" stop-color="#d643bf"/>
      <stop offset="1" stop-color="#ff63ce"/>
    </linearGradient>
    <linearGradient id="linear-gradient-5" x1="200.15" y1="217.53" x2="265.25" y2="179.32" xlink:href="#linear-gradient-3"/>
    <linearGradient id="linear-gradient-6" x1="256.43" y1="184.22" x2="203.95" y2="214.75" xlink:href="#linear-gradient-4"/>
    <linearGradient id="_Безымянный_градиент_21-2" data-name="Безымянный градиент 21" x1="249.49" y1="178.53" x2="209.93" y2="220.33" xlink:href="#_Безымянный_градиент_21"/>
    <linearGradient id="_Безымянный_градиент_20-2" data-name="Безымянный градиент 20" x1="242.33" y1="173.7" x2="216.09" y2="225.09" xlink:href="#_Безымянный_градиент_20"/>
    <linearGradient id="_Безымянный_градиент_19-2" data-name="Безымянный градиент 19" x1="235.97" y1="160.64" x2="221.5" y2="237.5" xlink:href="#_Безымянный_градиент_19"/>
    <linearGradient id="_Безымянный_градиент_18-2" data-name="Безымянный градиент 18" x1="223.38" y1="152.39" x2="232.69" y2="245.4" xlink:href="#_Безымянный_градиент_18"/>
    <linearGradient id="_Безымянный_градиент_17-2" data-name="Безымянный градиент 17" x1="208.04" y1="151.75" x2="246.4" y2="246.2" xlink:href="#_Безымянный_градиент_17"/>
    <linearGradient id="_Безымянный_градиент_16-2" data-name="Безымянный градиент 16" x1="194.45" y1="159.08" x2="258.45" y2="239.59" xlink:href="#_Безымянный_градиент_16"/>
    <linearGradient id="_Безымянный_градиент_15-2" data-name="Безымянный градиент 15" x1="186.54" y1="172.25" x2="265.18" y2="227.58" xlink:href="#_Безымянный_градиент_15"/>
    <linearGradient id="_Безымянный_градиент_14-2" data-name="Безымянный градиент 14" x1="186.45" y1="187.32" x2="264.66" y2="213.86" xlink:href="#_Безымянный_градиент_14"/>
    <linearGradient id="_Безымянный_градиент_13-2" data-name="Безымянный градиент 13" x1="193.75" y1="199.87" x2="257.3" y2="202.5" xlink:href="#_Безымянный_градиент_13"/>
    <linearGradient id="_Безымянный_градиент_12-2" data-name="Безымянный градиент 12" x1="195.96" y1="209" x2="254.67" y2="194.34" xlink:href="#_Безымянный_градиент_12"/>
    <linearGradient id="New_Gradient_Swatch_copy_9-2" data-name="New Gradient Swatch copy 9" x1="199.87" y1="216.97" x2="250.47" y2="187.27" xlink:href="#New_Gradient_Swatch_copy_9"/>
    <radialGradient id="radial-gradient-3" cx="6110.24" cy="6792.33" fx="6110.24" fy="6792.33" r="25.62" gradientTransform="translate(6049.03 2822.38) rotate(-127.68) scale(.92 -.44)" gradientUnits="userSpaceOnUse">
      <stop offset="0" stop-color="#fff"/>
      <stop offset=".01" stop-color="#f6f6f6"/>
      <stop offset=".1" stop-color="#bdbdbd"/>
      <stop offset=".19" stop-color="#8b8b8b"/>
      <stop offset=".29" stop-color="#606060"/>
      <stop offset=".38" stop-color="#3d3d3d"/>
      <stop offset=".48" stop-color="#222"/>
      <stop offset=".57" stop-color="#0f0f0f"/>
      <stop offset=".67" stop-color="#030303"/>
      <stop offset=".77" stop-color="#000"/>
    </radialGradient>
    <linearGradient id="linear-gradient-7" x1="54.06" y1="133.88" x2="119.16" y2="95.68" xlink:href="#linear-gradient-3"/>
    <linearGradient id="linear-gradient-8" x1="110.34" y1="100.58" x2="57.85" y2="131.11" xlink:href="#linear-gradient-4"/>
    <linearGradient id="_Безымянный_градиент_21-3" data-name="Безымянный градиент 21" x1="103.4" y1="94.89" x2="63.83" y2="136.69" xlink:href="#_Безымянный_градиент_21"/>
    <linearGradient id="_Безымянный_градиент_20-3" data-name="Безымянный градиент 20" x1="96.24" y1="90.06" x2="70" y2="141.44" xlink:href="#_Безымянный_градиент_20"/>
    <linearGradient id="_Безымянный_градиент_19-3" data-name="Безымянный градиент 19" x1="89.88" y1="77" x2="75.4" y2="153.86" xlink:href="#_Безымянный_градиент_19"/>
    <linearGradient id="_Безымянный_градиент_18-3" data-name="Безымянный градиент 18" x1="77.28" y1="68.75" x2="86.6" y2="161.76" xlink:href="#_Безымянный_градиент_18"/>
    <linearGradient id="_Безымянный_градиент_17-3" data-name="Безымянный градиент 17" x1="61.95" y1="68.11" x2="100.3" y2="162.56" xlink:href="#_Безымянный_градиент_17"/>
    <linearGradient id="_Безымянный_градиент_16-3" data-name="Безымянный градиент 16" x1="48.35" y1="75.44" x2="112.36" y2="155.94" xlink:href="#_Безымянный_градиент_16"/>
    <linearGradient id="_Безымянный_градиент_15-3" data-name="Безымянный градиент 15" x1="40.45" y1="88.61" x2="119.09" y2="143.94" xlink:href="#_Безымянный_градиент_15"/>
    <linearGradient id="_Безымянный_градиент_14-3" data-name="Безымянный градиент 14" x1="40.36" y1="103.67" x2="118.56" y2="130.22" xlink:href="#_Безымянный_градиент_14"/>
    <linearGradient id="_Безымянный_градиент_13-3" data-name="Безымянный градиент 13" x1="47.66" y1="116.23" x2="111.21" y2="118.86" xlink:href="#_Безымянный_градиент_13"/>
    <linearGradient id="_Безымянный_градиент_12-3" data-name="Безымянный градиент 12" x1="49.86" y1="125.36" x2="108.58" y2="110.7" xlink:href="#_Безымянный_градиент_12"/>
    <linearGradient id="New_Gradient_Swatch_copy_9-3" data-name="New Gradient Swatch copy 9" x1="53.77" y1="133.33" x2="104.38" y2="103.63" xlink:href="#New_Gradient_Swatch_copy_9"/>
    <radialGradient id="radial-gradient-4" cx="6279.08" cy="6939.5" fx="6279.08" fy="6939.5" r="25.62" gradientTransform="translate(3148.42 5887.55) rotate(-90) scale(.92 -.44)" xlink:href="#radial-gradient-3"/>
  </defs>
  <g class="cls-75">
    <g id="_Слой_1" data-name="Слой 1">
      <g>
        <g>
          <path class="cls-4" d="M359.37,476.92L78.93,314.41c-10.98-6.34-19.89-23.35-19.89-38V17.12c0-7.45-6.12-9.09-2.41-11.77.14-.1,8.69-3.99,8.85-4.05,3.99-1.53,8.26-2.21,13.45.78l280.44,162.51c10.98,6.34,19.89,23.35,19.89,38v259.29c0,7.78-2.51,13.33-6.52,15.87-.24.15-10.54,5.05-10.8,5.14-3.55,1.18,2.24-3.2-2.56-5.97Z"/>
          <path class="cls-12" d="M369.96,218.2l9.3-2.74v-12.87c0-14.64-8.9-31.65-19.89-38L78.93,2.09c-5.18-2.99-9.46-2.31-13.45-.78-.16.06-8.71,3.95-8.85,4.05-3.71,2.68,2.41,4.32,2.41,11.77v20.91l310.91,180.17Z"/>
          <path class="cls-39" d="M350.07,481.31L69.64,318.8c-10.98-6.34-19.89-23.35-19.89-38V21.52c0-14.64,8.9-21.37,19.89-15.03l280.44,162.51c10.98,6.34,19.89,23.35,19.89,38v259.29c0,14.64-8.9,21.37-19.89,15.03Z"/>
          <path class="cls-14" d="M350.07,168.99L69.64,6.48c-10.98-6.34-19.89.39-19.89,15.03v11.13l320.21,185.56v-11.22c0-14.64-8.9-31.65-19.89-38Z"/>
          <path class="cls-43" d="M351.8,168.05L71.37,5.55c-5.28-3.05-10.06-3.05-13.62-.63,3.32-1.4,7.43-1.01,11.89,1.57l280.44,162.51c10.98,6.34,19.89,23.35,19.89,38v259.29c0,7.61-2.42,13.05-6.26,15.66,4.85-2.04,8-7.91,8-16.6V206.05c0-14.64-8.9-31.65-19.89-38Z"/>
          <g>
            <path class="cls-37" d="M97.28,40.79c0,2.46-1.74,3.45-3.88,2.21-2.14-1.24-3.88-4.23-3.88-6.69s1.74-3.45,3.88-2.21c2.14,1.24,3.88,4.23,3.88,6.69Z"/>
            <path class="cls-37" d="M85.58,33.99c0,2.46-1.74,3.45-3.88,2.21-2.14-1.24-3.88-4.23-3.88-6.69s1.74-3.45,3.88-2.21c2.14,1.24,3.88,4.23,3.88,6.69Z"/>
            <path class="cls-37" d="M73.88,27.19c0,2.46-1.74,3.45-3.88,2.21-2.14-1.24-3.88-4.23-3.88-6.69s1.74-3.45,3.88-2.21c2.14,1.24,3.88,4.23,3.88,6.69Z"/>
          </g>
        </g>
        <g>
          <g class="cls-72">
            <path class="cls-35" d="M122.25,156.38c-.44,0-.82-.35-.83-.8-.02-.46.33-.85.8-.87.98-.05,1.82-.39,2.48-1.02.33-.32.86-.31,1.18.03.32.33.31.86-.03,1.18-.95.9-2.18,1.42-3.56,1.48-.01,0-.03,0-.04,0ZM119.01,155.72c-.11,0-.22-.02-.33-.07-.43-.18-.87-.4-1.31-.66l-1.71-.99c-.4-.23-.54-.74-.31-1.14.23-.4.74-.54,1.14-.31l1.72.99c.38.22.76.41,1.13.57.42.18.62.67.44,1.1-.14.32-.44.51-.77.51ZM113.17,152.45c-.14,0-.29-.04-.42-.11l-2.9-1.67c-.4-.23-.54-.74-.31-1.14.23-.4.74-.54,1.14-.31l2.9,1.67c.4.23.54.74.31,1.14-.16.27-.44.42-.73.42ZM126.86,152.24c-.07,0-.14,0-.2-.03-.45-.11-.72-.57-.61-1.02.17-.68.26-1.44.26-2.27v-.85c0-.46.37-.84.84-.84s.84.37.84.84v.85c0,.96-.1,1.87-.31,2.68-.09.38-.44.63-.81.63ZM107.37,149.11c-.14,0-.29-.04-.42-.11l-2.9-1.67c-.4-.23-.54-.74-.31-1.14.23-.4.74-.54,1.14-.31l2.9,1.67c.4.23.54.74.31,1.14-.16.27-.44.42-.73.42ZM101.57,145.77c-.14,0-.29-.04-.42-.11l-2.9-1.67c-.4-.23-.54-.74-.31-1.14.23-.4.74-.54,1.14-.31l2.9,1.67c.4.23.54.74.31,1.14-.16.27-.44.42-.73.42ZM127.15,145.57c-.46,0-.84-.37-.84-.84v-3.35c0-.46.37-.84.84-.84s.84.37.84.84v3.35c0,.46-.37.84-.84.84ZM95.77,142.43c-.14,0-.29-.04-.42-.11l-2.9-1.67c-.4-.23-.54-.74-.31-1.14.23-.4.74-.54,1.14-.31l2.9,1.67c.4.23.54.74.31,1.14-.16.27-.44.42-.73.42ZM89.97,139.1c-.14,0-.29-.04-.42-.11l-2.9-1.67c-.4-.23-.54-.74-.31-1.14.23-.4.74-.54,1.14-.31l2.9,1.67c.4.23.54.74.31,1.14-.16.27-.44.42-.73.42ZM127.15,138.88c-.46,0-.84-.37-.84-.84v-3.35c0-.46.37-.84.84-.84s.84.37.84.84v3.35c0,.46-.37.84-.84.84ZM84.17,135.76c-.14,0-.29-.04-.42-.11l-2.9-1.67c-.4-.23-.54-.74-.31-1.14.23-.4.74-.54,1.14-.31l2.9,1.67c.4.23.54.74.31,1.14-.16.27-.44.42-.73.42ZM78.37,132.42c-.14,0-.29-.04-.42-.11l-2.9-1.67c-.4-.23-.54-.74-.31-1.14.23-.4.74-.54,1.14-.31l2.9,1.67c.4.23.54.74.31,1.14-.16.27-.44.42-.73.42ZM127.15,132.19c-.46,0-.84-.37-.84-.84v-3.35c0-.46.37-.84.84-.84s.84.37.84.84v3.35c0,.46-.37.84-.84.84ZM72.75,128.82c-.2,0-.39-.07-.55-.21-.84-.74-1.65-1.59-2.4-2.53-.29-.36-.23-.89.13-1.18.36-.29.89-.23,1.17.13.69.86,1.43,1.64,2.2,2.32.35.31.38.83.08,1.18-.17.19-.4.28-.63.28ZM127.15,125.5c-.46,0-.84-.37-.84-.84v-3.35c0-.46.37-.84.84-.84s.84.37.84.84v3.35c0,.46-.37.84-.84.84ZM68.56,123.64c-.29,0-.57-.15-.72-.42-.59-1.01-1.1-2.06-1.52-3.12-.17-.43.04-.92.47-1.09.43-.17.91.04,1.09.47.39.98.87,1.96,1.41,2.89.23.4.1.91-.3,1.14-.13.08-.28.11-.42.11ZM127.15,118.81c-.46,0-.84-.37-.84-.84v-3.35c0-.46.37-.84.84-.84s.84.37.84.84v3.35c0,.46-.37.84-.84.84ZM66.12,117.44c-.39,0-.74-.27-.82-.67-.23-1.1-.35-2.17-.35-3.19v-.3c0-.46.37-.84.84-.84s.84.37.84.84v.3c0,.9.1,1.86.31,2.85.09.45-.2.9-.65.99-.06.01-.12.02-.17.02ZM127.15,112.11c-.46,0-.84-.37-.84-.84v-2.28c0-.33-.01-.66-.04-.99-.04-.46.3-.86.76-.9.45-.03.86.31.9.77.03.38.05.76.05,1.13v2.28c0,.46-.37.84-.84.84ZM65.79,110.77c-.46,0-.84-.37-.84-.84v-3.35c0-.46.37-.84.84-.84s.84.37.84.84v3.35c0,.46-.37.84-.84.84ZM126.49,105.49c-.36,0-.7-.24-.8-.6-.29-1-.67-2.01-1.14-3-.2-.42-.02-.92.4-1.11.42-.2.92-.02,1.11.4.5,1.07.92,2.16,1.23,3.25.13.44-.13.91-.57,1.04-.08.02-.16.03-.23.03ZM65.79,104.08c-.46,0-.84-.37-.84-.84v-3.35c0-.46.37-.84.84-.84s.84.37.84.84v3.35c0,.46-.37.84-.84.84ZM123.66,99.45c-.27,0-.54-.13-.7-.37-.6-.91-1.27-1.76-1.98-2.53-.31-.34-.29-.87.05-1.18.34-.31.87-.29,1.18.05.77.84,1.48,1.76,2.14,2.74.26.38.15.9-.23,1.16-.14.09-.3.14-.46.14ZM65.79,97.38c-.46,0-.84-.37-.84-.84v-3.35c0-.46.37-.84.84-.84s.84.37.84.84v3.35c0,.46-.37.84-.84.84ZM119.13,94.57c-.17,0-.35-.05-.5-.16-.41-.31-.84-.59-1.26-.83l-1.5-.86c-.4-.23-.54-.74-.31-1.14.23-.4.75-.54,1.14-.31l1.5.87c.48.28.96.59,1.42.94.37.27.45.8.17,1.17-.16.22-.42.34-.67.34ZM113.38,91.15c-.14,0-.29-.04-.42-.11l-2.9-1.67c-.4-.23-.54-.74-.31-1.14.23-.4.75-.54,1.14-.31l2.9,1.67c.4.23.54.74.31,1.14-.16.27-.44.42-.73.42ZM65.79,90.69c-.46,0-.84-.37-.84-.84v-3.35c0-.46.37-.84.84-.84s.84.37.84.84v3.35c0,.46-.37.84-.84.84ZM107.58,87.81c-.14,0-.29-.04-.42-.11l-2.9-1.67c-.4-.23-.54-.74-.31-1.14.23-.4.74-.54,1.14-.31l2.9,1.67c.4.23.54.74.31,1.14-.16.27-.44.42-.73.42ZM101.78,84.47c-.14,0-.29-.04-.42-.11l-2.9-1.67c-.4-.23-.54-.74-.31-1.14.23-.4.74-.54,1.14-.31l2.9,1.67c.4.23.54.74.31,1.14-.16.27-.44.42-.73.42ZM65.79,84c-.46,0-.84-.37-.84-.84v-3.35c0-.46.37-.84.84-.84s.84.37.84.84v3.35c0,.46-.37.84-.84.84ZM95.98,81.13c-.14,0-.29-.04-.42-.11l-2.9-1.67c-.4-.23-.54-.74-.31-1.14.23-.4.74-.54,1.14-.31l2.9,1.67c.4.23.54.74.31,1.14-.16.27-.44.42-.73.42ZM90.18,77.8c-.14,0-.29-.04-.42-.11l-2.9-1.67c-.4-.23-.54-.74-.31-1.14.23-.4.74-.54,1.14-.31l2.9,1.67c.4.23.54.74.31,1.14-.16.27-.44.42-.73.42ZM65.79,77.31c-.46,0-.84-.37-.84-.84v-3.38c.03-.46.36-.83.88-.8.46.02.82.41.8.87v3.31c-.01.46-.39.84-.85.84ZM84.38,74.46c-.14,0-.29-.04-.42-.11l-2.9-1.67c-.4-.23-.54-.74-.31-1.14.23-.4.74-.54,1.14-.31l2.9,1.67c.4.23.54.74.31,1.14-.16.27-.44.42-.73.42ZM78.58,71.12c-.14,0-.29-.04-.42-.11l-2.9-1.67c-.09-.05-.17-.12-.24-.2-.1-.01-.2-.05-.3-.1-.98-.57-1.93-.93-2.83-1.09-.45-.08-.76-.51-.68-.97.08-.46.5-.76.97-.68,1.09.19,2.23.62,3.38,1.29.09.05.17.12.24.2.1.01.2.05.29.1l2.9,1.67c.4.23.54.74.31,1.14-.16.27-.44.42-.73.42ZM66.53,70.72c-.12,0-.24-.03-.35-.08-.42-.2-.6-.69-.4-1.11.59-1.26,1.5-2.22,2.64-2.78.41-.2.92-.03,1.12.38.2.41.03.92-.38,1.12-.8.39-1.43,1.06-1.86,1.99-.14.3-.44.48-.76.48Z"/>
          </g>
          <g class="cls-72">
            <path class="cls-35" d="M195.09,198.15c-.44,0-.82-.35-.83-.8-.02-.46.33-.85.8-.87.98-.05,1.82-.39,2.48-1.02.33-.32.86-.31,1.18.03.32.33.31.86-.03,1.18-.95.9-2.18,1.42-3.56,1.48-.01,0-.03,0-.04,0ZM191.84,197.49c-.11,0-.22-.02-.33-.07-.43-.18-.87-.4-1.31-.66l-1.71-.99c-.4-.23-.54-.74-.31-1.14.23-.4.74-.54,1.14-.31l1.72.99c.38.22.76.41,1.13.57.42.18.62.67.44,1.1-.14.32-.44.51-.77.51ZM186,194.22c-.14,0-.29-.04-.42-.11l-2.9-1.67c-.4-.23-.54-.74-.31-1.14.23-.4.74-.54,1.14-.31l2.9,1.67c.4.23.54.74.31,1.14-.16.27-.44.42-.73.42ZM199.7,194.01c-.07,0-.14,0-.2-.03-.45-.11-.72-.57-.61-1.02.17-.68.26-1.44.26-2.27v-.85c0-.46.37-.84.84-.84s.84.37.84.84v.85c0,.96-.1,1.87-.31,2.68-.09.38-.44.63-.81.63ZM180.2,190.88c-.14,0-.29-.04-.42-.11l-2.9-1.67c-.4-.23-.54-.74-.31-1.14.23-.4.74-.54,1.14-.31l2.9,1.67c.4.23.54.74.31,1.14-.16.27-.44.42-.73.42ZM174.4,187.54c-.14,0-.29-.04-.42-.11l-2.9-1.67c-.4-.23-.54-.74-.31-1.14.23-.4.74-.54,1.14-.31l2.9,1.67c.4.23.54.74.31,1.14-.16.27-.44.42-.73.42ZM199.98,187.34c-.46,0-.84-.37-.84-.84v-3.35c0-.46.37-.84.84-.84s.84.37.84.84v3.35c0,.46-.37.84-.84.84ZM168.61,184.2c-.14,0-.29-.04-.42-.11l-2.9-1.67c-.4-.23-.54-.74-.31-1.14.23-.4.74-.54,1.14-.31l2.9,1.67c.4.23.54.74.31,1.14-.16.27-.44.42-.73.42ZM162.81,180.86c-.14,0-.29-.04-.42-.11l-2.9-1.67c-.4-.23-.54-.74-.31-1.14.23-.4.75-.54,1.14-.31l2.9,1.67c.4.23.54.74.31,1.14-.16.27-.44.42-.73.42ZM199.98,180.65c-.46,0-.84-.37-.84-.84v-3.35c0-.46.37-.84.84-.84s.84.37.84.84v3.35c0,.46-.37.84-.84.84ZM157.01,177.53c-.14,0-.29-.04-.42-.11l-2.9-1.67c-.4-.23-.54-.74-.31-1.14.23-.4.75-.54,1.14-.31l2.9,1.67c.4.23.54.74.31,1.14-.16.27-.44.42-.73.42ZM151.21,174.19c-.14,0-.29-.04-.42-.11l-2.9-1.67c-.4-.23-.54-.74-.31-1.14.23-.4.74-.54,1.14-.31l2.9,1.67c.4.23.54.74.31,1.14-.16.27-.44.42-.73.42ZM199.98,173.96c-.46,0-.84-.37-.84-.84v-3.35c0-.46.37-.84.84-.84s.84.37.84.84v3.35c0,.46-.37.84-.84.84ZM145.58,170.59c-.2,0-.39-.07-.55-.21-.84-.74-1.65-1.59-2.4-2.53-.29-.36-.23-.89.13-1.18.36-.29.89-.23,1.17.13.69.86,1.43,1.64,2.2,2.32.35.31.38.83.08,1.18-.16.19-.4.28-.63.28ZM199.98,167.27c-.46,0-.84-.37-.84-.84v-3.35c0-.46.37-.84.84-.84s.84.37.84.84v3.35c0,.46-.37.84-.84.84ZM141.39,165.41c-.29,0-.57-.15-.72-.42-.59-1.01-1.1-2.06-1.52-3.12-.17-.43.04-.92.47-1.09.42-.17.91.04,1.09.47.39.98.87,1.96,1.41,2.89.23.4.1.91-.3,1.14-.13.08-.28.11-.42.11ZM199.98,160.57c-.46,0-.84-.37-.84-.84v-3.35c0-.46.37-.84.84-.84s.84.37.84.84v3.35c0,.46-.37.84-.84.84ZM138.95,159.2c-.39,0-.74-.27-.82-.67-.23-1.1-.35-2.17-.35-3.19v-.3c0-.46.37-.84.84-.84s.84.37.84.84v.3c0,.9.1,1.86.31,2.85.09.45-.2.9-.65.99-.06.01-.12.02-.17.02ZM199.98,153.88c-.46,0-.84-.37-.84-.84v-2.28c0-.33-.01-.66-.04-.99-.04-.46.3-.86.76-.9.46-.04.86.3.9.77.03.38.05.76.05,1.13v2.28c0,.46-.37.84-.84.84ZM138.62,152.54c-.46,0-.84-.37-.84-.84v-3.35c0-.46.37-.84.84-.84s.84.37.84.84v3.35c0,.46-.37.84-.84.84ZM199.32,147.26c-.36,0-.7-.24-.8-.6-.29-1-.67-2.01-1.14-3-.2-.42-.02-.92.4-1.11.42-.2.92-.02,1.11.4.5,1.07.92,2.16,1.24,3.25.13.44-.13.91-.57,1.04-.08.02-.16.03-.23.03ZM138.62,145.84c-.46,0-.84-.37-.84-.84v-3.35c0-.46.37-.84.84-.84s.84.37.84.84v3.35c0,.46-.37.84-.84.84ZM196.49,141.22c-.27,0-.54-.13-.7-.37-.6-.91-1.27-1.76-1.98-2.53-.31-.34-.29-.87.05-1.18.34-.31.87-.29,1.18.05.77.84,1.48,1.76,2.14,2.74.26.38.15.9-.23,1.16-.14.09-.3.14-.46.14ZM138.62,139.15c-.46,0-.84-.37-.84-.84v-3.35c0-.46.37-.84.84-.84s.84.37.84.84v3.35c0,.46-.37.84-.84.84ZM191.96,136.33c-.17,0-.35-.05-.5-.17-.41-.31-.84-.58-1.26-.83l-1.5-.86c-.4-.23-.54-.74-.31-1.14.23-.4.74-.54,1.14-.31l1.5.87c.48.28.96.59,1.42.94.37.27.45.8.17,1.17-.16.22-.42.34-.67.34ZM186.21,132.92c-.14,0-.29-.04-.42-.11l-2.9-1.67c-.4-.23-.54-.74-.31-1.14.23-.4.74-.54,1.14-.31l2.9,1.67c.4.23.54.74.31,1.14-.16.27-.44.42-.73.42ZM138.62,132.46c-.46,0-.84-.37-.84-.84v-3.35c0-.46.37-.84.84-.84s.84.37.84.84v3.35c0,.46-.37.84-.84.84ZM180.42,129.58c-.14,0-.29-.04-.42-.11l-2.9-1.67c-.4-.23-.54-.74-.31-1.14.23-.4.74-.54,1.14-.31l2.9,1.67c.4.23.54.74.31,1.14-.16.27-.44.42-.73.42ZM174.62,126.24c-.14,0-.29-.04-.42-.11l-2.9-1.67c-.4-.23-.54-.74-.31-1.14.23-.4.74-.54,1.14-.31l2.9,1.67c.4.23.54.74.31,1.14-.16.27-.44.42-.73.42ZM138.62,125.77c-.46,0-.84-.37-.84-.84v-3.35c0-.46.37-.84.84-.84s.84.37.84.84v3.35c0,.46-.37.84-.84.84ZM168.82,122.9c-.14,0-.29-.04-.42-.11l-2.9-1.67c-.4-.23-.54-.74-.31-1.14.23-.4.74-.54,1.14-.31l2.9,1.67c.4.23.54.74.31,1.14-.16.27-.44.42-.73.42ZM163.02,119.56c-.14,0-.29-.04-.42-.11l-2.9-1.67c-.4-.23-.54-.74-.31-1.14.23-.4.74-.54,1.14-.31l2.9,1.67c.4.23.54.74.31,1.14-.16.27-.44.42-.73.42ZM138.62,119.08c-.46,0-.84-.37-.84-.84v-3.38c.03-.46.33-.83.88-.8.46.02.82.41.8.87v3.31c-.01.46-.39.84-.85.84ZM157.22,116.23c-.14,0-.29-.04-.42-.11l-2.9-1.67c-.4-.23-.54-.74-.31-1.14.23-.4.74-.54,1.14-.31l2.9,1.67c.4.23.54.74.31,1.14-.16.27-.44.42-.73.42ZM151.42,112.89c-.14,0-.29-.04-.42-.11l-2.9-1.67c-.09-.05-.17-.12-.24-.2-.1-.01-.2-.05-.3-.1-.98-.57-1.93-.93-2.83-1.09-.45-.08-.76-.51-.68-.97.08-.46.5-.76.97-.68,1.09.19,2.23.62,3.38,1.29.09.05.17.12.24.2.1.01.2.05.29.1l2.9,1.67c.4.23.54.74.31,1.14-.16.27-.44.42-.73.42ZM139.36,112.49c-.12,0-.24-.03-.35-.08-.42-.2-.6-.69-.4-1.11.59-1.26,1.5-2.22,2.64-2.78.42-.2.92-.03,1.12.38.2.42.03.92-.38,1.12-.8.39-1.43,1.06-1.86,1.99-.14.3-.44.48-.76.48Z"/>
          </g>
          <g class="cls-72">
            <path class="cls-35" d="M267.88,239.96c-.44,0-.82-.35-.83-.8-.02-.46.33-.85.8-.87.99-.05,1.82-.39,2.48-1.02.33-.32.86-.31,1.18.03.32.33.31.86-.03,1.18-.95.9-2.18,1.42-3.56,1.48-.01,0-.03,0-.04,0ZM264.63,239.29c-.11,0-.22-.02-.33-.07-.43-.18-.86-.4-1.31-.66l-1.72-.99c-.4-.23-.54-.74-.31-1.14.23-.4.74-.54,1.14-.31l1.72.99c.39.22.76.41,1.13.57.42.18.62.67.44,1.1-.14.32-.44.51-.77.51ZM258.79,236.02c-.14,0-.29-.04-.42-.11l-2.9-1.67c-.4-.23-.54-.74-.31-1.14.23-.4.74-.54,1.14-.31l2.9,1.67c.4.23.54.74.31,1.14-.16.27-.44.42-.73.42ZM272.49,235.82c-.07,0-.14,0-.2-.03-.45-.11-.72-.57-.61-1.01.17-.68.26-1.44.26-2.27v-.84c0-.46.37-.84.84-.84s.84.37.84.84v.85c0,.97-.11,1.87-.31,2.68-.09.38-.44.63-.81.63ZM252.99,232.68c-.14,0-.29-.04-.42-.11l-2.9-1.67c-.4-.23-.54-.74-.31-1.14.23-.4.74-.54,1.14-.31l2.9,1.67c.4.23.54.74.31,1.14-.16.27-.44.42-.73.42ZM247.19,229.35c-.14,0-.29-.04-.42-.11l-2.9-1.67c-.4-.23-.54-.74-.31-1.14.23-.4.74-.54,1.14-.31l2.9,1.67c.4.23.54.74.31,1.14-.16.27-.44.42-.73.42ZM272.77,229.15c-.46,0-.84-.37-.84-.84v-3.35c0-.46.37-.84.84-.84s.84.37.84.84v3.35c0,.46-.37.84-.84.84ZM241.4,226.01c-.14,0-.29-.04-.42-.11l-2.9-1.67c-.4-.23-.54-.74-.31-1.14.23-.4.74-.54,1.14-.31l2.9,1.67c.4.23.54.74.31,1.14-.16.27-.44.42-.73.42ZM235.6,222.67c-.14,0-.29-.04-.42-.11l-2.9-1.67c-.4-.23-.54-.74-.31-1.14.23-.4.75-.54,1.14-.31l2.9,1.67c.4.23.54.74.31,1.14-.16.27-.44.42-.73.42ZM272.77,222.46c-.46,0-.84-.37-.84-.84v-3.35c0-.46.37-.84.84-.84s.84.37.84.84v3.35c0,.46-.37.84-.84.84ZM229.8,219.33c-.14,0-.29-.04-.42-.11l-2.9-1.67c-.4-.23-.54-.74-.31-1.14.23-.4.75-.54,1.14-.31l2.9,1.67c.4.23.54.74.31,1.14-.16.27-.44.42-.73.42ZM224,215.99c-.14,0-.29-.04-.42-.11l-2.9-1.67c-.4-.23-.54-.74-.31-1.14.23-.4.74-.54,1.14-.31l2.9,1.67c.4.23.54.74.31,1.14-.16.27-.44.42-.73.42ZM272.77,215.77c-.46,0-.84-.37-.84-.84v-3.35c0-.46.37-.84.84-.84s.84.37.84.84v3.35c0,.46-.37.84-.84.84ZM218.37,212.39c-.2,0-.39-.07-.55-.21-.84-.74-1.65-1.59-2.4-2.53-.29-.36-.23-.89.13-1.18.36-.29.89-.23,1.18.13.69.86,1.43,1.64,2.2,2.32.35.31.38.83.07,1.18-.16.19-.4.28-.63.28ZM272.77,209.07c-.46,0-.84-.37-.84-.84v-3.34c0-.46.37-.84.84-.84s.84.37.84.84v3.34c0,.46-.37.84-.84.84ZM214.18,207.21c-.29,0-.57-.15-.72-.42-.59-1.01-1.1-2.06-1.52-3.12-.17-.43.04-.92.47-1.09.43-.17.91.04,1.09.47.39.99.87,1.96,1.41,2.89.23.4.1.91-.3,1.14-.13.08-.28.11-.42.11ZM272.77,202.38c-.46,0-.84-.37-.84-.84v-3.35c0-.46.37-.84.84-.84s.84.37.84.84v3.35c0,.46-.37.84-.84.84ZM211.74,201.01c-.39,0-.74-.27-.82-.67-.23-1.1-.34-2.18-.34-3.19v-.31c0-.46.37-.84.84-.84s.84.37.84.84v.31c0,.9.1,1.86.31,2.85.09.45-.2.9-.65.99-.06.01-.11.02-.17.02ZM272.77,195.69c-.46,0-.84-.37-.84-.84v-2.29c0-.33-.01-.66-.04-.99-.04-.46.3-.86.76-.9.42-.04.86.3.9.77.03.38.05.76.05,1.13v2.29c0,.46-.37.84-.84.84ZM211.41,194.34c-.46,0-.84-.37-.84-.84v-3.35c0-.46.37-.84.84-.84s.84.37.84.84v3.35c0,.46-.37.84-.84.84ZM272.12,189.06c-.36,0-.7-.24-.8-.61-.29-1-.67-2.01-1.14-3-.2-.42-.02-.92.4-1.11.42-.2.92-.02,1.11.4.51,1.07.92,2.17,1.23,3.25.13.44-.13.91-.57,1.03-.08.02-.16.03-.23.03ZM211.41,187.65c-.46,0-.84-.37-.84-.84v-3.35c0-.46.37-.84.84-.84s.84.37.84.84v3.35c0,.46-.37.84-.84.84ZM269.28,183.03c-.27,0-.54-.13-.7-.37-.6-.91-1.27-1.76-1.98-2.53-.31-.34-.29-.87.05-1.18.34-.31.87-.29,1.18.05.77.84,1.49,1.76,2.14,2.74.26.38.15.9-.23,1.16-.14.09-.3.14-.46.14ZM211.41,180.96c-.46,0-.84-.37-.84-.84v-3.35c0-.46.37-.84.84-.84s.84.37.84.84v3.35c0,.46-.37.84-.84.84ZM264.75,178.14c-.17,0-.35-.05-.5-.16-.41-.31-.84-.59-1.26-.83l-1.5-.86c-.4-.23-.54-.74-.31-1.14.23-.4.74-.54,1.14-.31l1.5.87c.49.28.96.59,1.43.94.37.27.45.8.17,1.17-.16.22-.42.34-.67.34ZM259.01,174.72c-.14,0-.29-.04-.42-.11l-2.9-1.67c-.4-.23-.54-.74-.31-1.14.23-.4.74-.54,1.14-.31l2.9,1.67c.4.23.54.74.31,1.14-.16.27-.44.42-.73.42ZM211.41,174.27c-.46,0-.84-.37-.84-.84v-3.35c0-.46.37-.84.84-.84s.84.37.84.84v3.35c0,.46-.37.84-.84.84ZM253.21,171.38c-.14,0-.29-.04-.42-.11l-2.9-1.67c-.4-.23-.54-.74-.31-1.14.23-.4.74-.54,1.14-.31l2.9,1.67c.4.23.54.74.31,1.14-.16.27-.44.42-.73.42ZM247.41,168.05c-.14,0-.29-.04-.42-.11l-2.9-1.67c-.4-.23-.54-.74-.31-1.14.23-.4.74-.54,1.14-.31l2.9,1.67c.4.23.54.74.31,1.14-.16.27-.44.42-.73.42ZM211.41,167.58c-.46,0-.84-.37-.84-.84v-3.35c0-.46.37-.84.84-.84s.84.37.84.84v3.35c0,.46-.37.84-.84.84ZM241.61,164.71c-.14,0-.29-.04-.42-.11l-2.9-1.67c-.4-.23-.54-.74-.31-1.14.23-.4.74-.54,1.14-.31l2.9,1.67c.4.23.54.74.31,1.14-.16.27-.44.42-.73.42ZM235.81,161.37c-.14,0-.29-.04-.42-.11l-2.9-1.67c-.4-.23-.54-.74-.31-1.14.23-.4.74-.54,1.14-.31l2.9,1.67c.4.23.54.74.31,1.14-.16.27-.44.42-.73.42ZM211.41,160.88c-.46,0-.84-.37-.84-.84v-3.38c.03-.46.35-.85.88-.8.46.02.82.41.8.87v3.31c-.01.46-.39.84-.85.84ZM230.01,158.03c-.14,0-.29-.04-.42-.11l-2.9-1.67c-.4-.23-.54-.74-.31-1.14.23-.4.74-.54,1.14-.31l2.9,1.67c.4.23.54.74.31,1.14-.16.27-.44.42-.73.42ZM224.21,154.7c-.14,0-.29-.04-.42-.11l-2.9-1.67c-.09-.05-.17-.12-.24-.21-.1-.01-.2-.05-.3-.1-.98-.57-1.93-.93-2.83-1.09-.45-.08-.76-.51-.68-.97.08-.46.5-.76.97-.68,1.09.19,2.23.62,3.38,1.29.09.05.17.12.24.2.1.01.2.05.29.1l2.9,1.67c.4.23.54.74.31,1.14-.16.27-.44.42-.73.42ZM212.15,154.3c-.12,0-.24-.03-.35-.08-.42-.2-.6-.69-.4-1.11.59-1.26,1.5-2.22,2.64-2.78.41-.2.91-.03,1.12.38.2.42.03.92-.38,1.12-.8.39-1.43,1.06-1.86,1.99-.14.3-.44.48-.76.48Z"/>
          </g>
        </g>
        <g>
          <g class="cls-72">
            <path class="cls-35" d="M122.25,230.16c-.44,0-.82-.35-.83-.8-.02-.46.33-.85.8-.87.98-.05,1.82-.39,2.48-1.02.33-.32.86-.31,1.18.03.32.33.31.86-.03,1.18-.95.91-2.18,1.42-3.56,1.48-.01,0-.03,0-.04,0ZM119.01,229.5c-.11,0-.22-.02-.33-.07-.43-.18-.87-.4-1.31-.66l-1.71-.98c-.4-.23-.54-.74-.31-1.14.23-.4.74-.54,1.14-.31l1.71.99c.39.22.76.41,1.14.57.42.18.62.67.44,1.1-.14.32-.44.5-.77.5ZM113.17,226.22c-.14,0-.29-.04-.42-.11l-2.9-1.67c-.4-.23-.54-.74-.31-1.14.23-.4.74-.54,1.14-.31l2.9,1.67c.4.23.54.74.31,1.14-.16.27-.44.42-.73.42ZM126.86,226.01c-.07,0-.14,0-.2-.02-.45-.11-.72-.57-.61-1.01.17-.68.26-1.44.26-2.27v-.85c0-.46.37-.84.84-.84s.84.37.84.84v.85c0,.96-.11,1.86-.31,2.67-.1.38-.44.63-.81.63ZM107.37,222.89c-.14,0-.29-.04-.42-.11l-2.9-1.67c-.4-.23-.54-.74-.31-1.14.23-.4.75-.54,1.14-.31l2.9,1.67c.4.23.54.74.31,1.14-.16.27-.44.42-.73.42ZM101.57,219.55c-.14,0-.29-.04-.42-.11l-2.9-1.67c-.4-.23-.54-.74-.31-1.14.23-.4.74-.54,1.14-.31l2.9,1.67c.4.23.54.74.31,1.14-.16.27-.44.42-.73.42ZM127.15,219.34c-.46,0-.84-.37-.84-.84v-3.35c0-.46.37-.84.84-.84s.84.37.84.84v3.35c0,.46-.37.84-.84.84ZM95.77,216.21c-.14,0-.29-.04-.42-.11l-2.9-1.67c-.4-.23-.54-.74-.31-1.14.23-.4.74-.54,1.14-.31l2.9,1.67c.4.23.54.74.31,1.14-.16.27-.44.42-.73.42ZM89.97,212.87c-.14,0-.29-.04-.42-.11l-2.9-1.67c-.4-.23-.54-.74-.31-1.14.23-.4.74-.54,1.14-.31l2.9,1.67c.4.23.54.74.31,1.14-.16.27-.44.42-.73.42ZM127.15,212.65c-.46,0-.84-.37-.84-.84v-3.35c0-.46.37-.84.84-.84s.84.37.84.84v3.35c0,.46-.37.84-.84.84ZM84.17,209.53c-.14,0-.29-.04-.42-.11l-2.9-1.67c-.4-.23-.54-.74-.31-1.14.23-.4.74-.54,1.14-.31l2.9,1.67c.4.23.54.74.31,1.14-.16.27-.44.42-.73.42ZM78.38,206.2c-.14,0-.29-.04-.42-.11l-2.9-1.67c-.4-.23-.54-.74-.31-1.14.23-.4.74-.54,1.14-.31l2.9,1.67c.4.23.54.74.31,1.14-.16.27-.44.42-.73.42ZM127.15,205.96c-.46,0-.84-.37-.84-.84v-3.35c0-.46.37-.84.84-.84s.84.37.84.84v3.35c0,.46-.37.84-.84.84ZM72.75,202.6c-.2,0-.39-.07-.55-.21-.84-.74-1.65-1.59-2.4-2.53-.29-.36-.23-.89.13-1.18.36-.29.89-.23,1.17.13.69.86,1.43,1.64,2.2,2.32.35.3.38.83.08,1.18-.17.19-.4.28-.63.28ZM127.15,199.27c-.46,0-.84-.37-.84-.84v-3.35c0-.46.37-.84.84-.84s.84.37.84.84v3.35c0,.46-.37.84-.84.84ZM68.56,197.42c-.29,0-.57-.15-.72-.42-.58-1.01-1.1-2.06-1.52-3.12-.17-.43.04-.92.47-1.09.43-.17.91.04,1.09.47.39.98.87,1.96,1.41,2.89.23.4.1.91-.3,1.14-.13.08-.28.11-.42.11ZM127.15,192.58c-.46,0-.84-.37-.84-.84v-3.35c0-.46.37-.84.84-.84s.84.37.84.84v3.35c0,.46-.37.84-.84.84ZM66.12,191.21c-.39,0-.74-.27-.82-.67-.23-1.1-.35-2.17-.35-3.19v-.3c0-.46.37-.84.84-.84s.84.37.84.84v.3c0,.9.1,1.86.31,2.85.09.45-.2.9-.65.99-.06.01-.12.02-.17.02ZM127.15,185.89c-.46,0-.84-.37-.84-.84v-2.28c0-.33-.01-.66-.04-.99-.04-.46.3-.86.76-.9.45-.03.86.31.9.77.03.38.05.76.05,1.13v2.28c0,.46-.37.84-.84.84ZM65.79,184.54c-.46,0-.84-.37-.84-.84v-3.35c0-.46.37-.84.84-.84s.84.37.84.84v3.35c0,.46-.37.84-.84.84ZM126.49,179.26c-.36,0-.7-.24-.8-.6-.29-1-.67-2.01-1.14-3-.2-.42-.02-.92.4-1.11.42-.2.92-.02,1.11.4.5,1.07.92,2.16,1.23,3.25.13.44-.13.91-.57,1.04-.08.02-.16.03-.23.03ZM65.79,177.85c-.46,0-.84-.37-.84-.84v-3.35c0-.46.37-.84.84-.84s.84.37.84.84v3.35c0,.46-.37.84-.84.84ZM123.66,173.22c-.27,0-.53-.13-.7-.37-.61-.91-1.27-1.76-1.98-2.53-.31-.34-.29-.87.05-1.18.34-.31.87-.29,1.18.05.76.83,1.48,1.75,2.14,2.74.26.38.15.9-.23,1.16-.14.09-.3.14-.46.14ZM65.79,171.16c-.46,0-.84-.37-.84-.84v-3.35c0-.46.37-.84.84-.84s.84.37.84.84v3.35c0,.46-.37.84-.84.84ZM119.13,168.34c-.17,0-.35-.05-.5-.17-.41-.31-.83-.58-1.26-.83l-1.51-.87c-.4-.23-.54-.74-.31-1.14.23-.4.74-.54,1.14-.31l1.51.87c.49.28.96.59,1.42.94.37.28.45.8.17,1.17-.16.22-.42.34-.67.34ZM113.38,164.92c-.14,0-.29-.04-.42-.11l-2.9-1.67c-.4-.23-.54-.74-.31-1.14.23-.4.74-.54,1.14-.31l2.9,1.67c.4.23.54.74.31,1.14-.16.27-.44.42-.73.42ZM65.79,164.47c-.46,0-.84-.37-.84-.84v-3.35c0-.46.37-.84.84-.84s.84.37.84.84v3.35c0,.46-.37.84-.84.84ZM107.58,161.58c-.14,0-.29-.04-.42-.11l-2.9-1.67c-.4-.23-.54-.74-.31-1.14.23-.4.74-.54,1.14-.31l2.9,1.67c.4.23.54.74.31,1.14-.16.27-.44.42-.73.42ZM101.78,158.25c-.14,0-.29-.04-.42-.11l-2.9-1.67c-.4-.23-.54-.74-.31-1.14.23-.4.74-.54,1.14-.31l2.9,1.67c.4.23.54.74.31,1.14-.16.27-.44.42-.73.42ZM65.79,157.78c-.46,0-.84-.37-.84-.84v-3.35c0-.46.37-.84.84-.84s.84.37.84.84v3.35c0,.46-.37.84-.84.84ZM95.98,154.91c-.14,0-.29-.04-.42-.11l-2.9-1.67c-.4-.23-.54-.74-.31-1.14.23-.4.74-.54,1.14-.31l2.9,1.67c.4.23.54.74.31,1.14-.16.27-.44.42-.73.42ZM90.18,151.57c-.14,0-.29-.04-.42-.11l-2.9-1.67c-.4-.23-.54-.74-.31-1.14.23-.4.74-.54,1.14-.31l2.9,1.67c.4.23.54.74.31,1.14-.16.27-.44.42-.73.42ZM65.79,151.09c-.46,0-.84-.37-.84-.84v-2.83c0-.19,0-.37,0-.55.02-.46.35-.85.87-.8.46.02.82.41.8.87,0,.16,0,.32,0,.48v2.83c0,.46-.37.84-.84.84ZM84.38,148.23c-.14,0-.29-.04-.42-.11l-2.9-1.67c-.4-.23-.54-.74-.31-1.14.23-.4.74-.54,1.14-.31l2.9,1.67c.4.23.54.74.31,1.14-.16.27-.44.42-.73.42ZM78.58,144.89c-.14,0-.29-.04-.42-.11l-2.9-1.67c-.09-.05-.17-.12-.24-.2-.1-.01-.2-.05-.3-.1-.98-.57-1.93-.93-2.83-1.09-.46-.08-.76-.51-.68-.97.08-.46.51-.76.97-.68,1.1.19,2.23.62,3.38,1.29.09.05.17.12.24.2.1.01.2.05.29.1l2.9,1.67c.4.23.54.74.31,1.14-.16.27-.44.42-.73.42ZM66.53,144.5c-.12,0-.24-.03-.35-.08-.42-.2-.6-.69-.4-1.11.59-1.26,1.5-2.22,2.64-2.78.41-.21.92-.03,1.12.38.2.41.03.92-.38,1.12-.8.39-1.43,1.06-1.86,1.99-.14.3-.44.48-.76.48Z"/>
          </g>
          <g class="cls-72">
            <path class="cls-35" d="M195.09,271.93c-.44,0-.82-.35-.83-.8-.02-.46.33-.85.8-.87.98-.05,1.82-.39,2.48-1.02.33-.32.86-.31,1.18.03.32.33.31.86-.03,1.18-.95.91-2.18,1.42-3.56,1.48-.01,0-.03,0-.04,0ZM191.84,271.26c-.11,0-.22-.02-.33-.07-.43-.18-.87-.4-1.31-.66l-1.72-.99c-.4-.23-.54-.74-.31-1.14.23-.4.74-.54,1.14-.31l1.72.99c.38.22.76.41,1.13.57.42.18.62.67.44,1.1-.14.32-.45.51-.77.51ZM186,267.99c-.14,0-.29-.04-.42-.11l-2.9-1.67c-.4-.23-.54-.74-.31-1.14.23-.4.74-.54,1.14-.31l2.9,1.67c.4.23.54.74.31,1.14-.16.27-.44.42-.73.42ZM199.7,267.78c-.07,0-.14,0-.2-.03-.45-.11-.72-.57-.61-1.01.17-.68.26-1.44.26-2.27v-.85c0-.46.37-.84.84-.84s.84.37.84.84v.85c0,.96-.1,1.86-.31,2.68-.09.38-.44.63-.81.63ZM180.2,264.65c-.14,0-.29-.04-.42-.11l-2.9-1.67c-.4-.23-.54-.74-.31-1.14.23-.4.74-.54,1.14-.31l2.9,1.67c.4.23.54.74.31,1.14-.16.27-.44.42-.73.42ZM174.4,261.32c-.14,0-.29-.04-.42-.11l-2.9-1.67c-.4-.23-.54-.74-.31-1.14.23-.4.74-.54,1.14-.31l2.9,1.67c.4.23.54.74.31,1.14-.16.27-.44.42-.73.42ZM199.98,261.12c-.46,0-.84-.37-.84-.84v-3.35c0-.46.37-.84.84-.84s.84.37.84.84v3.35c0,.46-.37.84-.84.84ZM168.61,257.98c-.14,0-.29-.04-.42-.11l-2.9-1.67c-.4-.23-.54-.74-.31-1.14.23-.4.74-.54,1.14-.31l2.9,1.67c.4.23.54.74.31,1.14-.16.27-.44.42-.73.42ZM162.81,254.64c-.14,0-.29-.04-.42-.11l-2.9-1.67c-.4-.23-.54-.74-.31-1.14.23-.4.75-.54,1.14-.31l2.9,1.67c.4.23.54.74.31,1.14-.16.27-.44.42-.73.42ZM199.98,254.42c-.46,0-.84-.37-.84-.84v-3.35c0-.46.37-.84.84-.84s.84.37.84.84v3.35c0,.46-.37.84-.84.84ZM157.01,251.3c-.14,0-.29-.04-.42-.11l-2.9-1.67c-.4-.23-.54-.74-.31-1.14.23-.4.75-.54,1.14-.31l2.9,1.67c.4.23.54.74.31,1.14-.16.27-.44.42-.73.42ZM151.21,247.96c-.14,0-.29-.04-.42-.11l-2.9-1.67c-.4-.23-.54-.74-.31-1.14.23-.4.74-.54,1.14-.31l2.9,1.67c.4.23.54.74.31,1.14-.16.27-.44.42-.73.42ZM199.98,247.73c-.46,0-.84-.37-.84-.84v-3.35c0-.46.37-.84.84-.84s.84.37.84.84v3.35c0,.46-.37.84-.84.84ZM145.58,244.37c-.2,0-.39-.07-.55-.21-.84-.74-1.65-1.59-2.4-2.53-.29-.36-.23-.89.13-1.18.36-.29.89-.23,1.18.13.69.86,1.43,1.64,2.2,2.32.35.31.38.83.07,1.18-.16.19-.4.28-.63.28ZM199.98,241.04c-.46,0-.84-.37-.84-.84v-3.35c0-.46.37-.84.84-.84s.84.37.84.84v3.35c0,.46-.37.84-.84.84ZM141.39,239.18c-.29,0-.57-.15-.72-.42-.59-1.01-1.1-2.06-1.52-3.12-.17-.43.04-.91.47-1.09.42-.17.91.04,1.09.47.39.98.87,1.96,1.41,2.89.23.4.1.91-.3,1.14-.13.08-.28.11-.42.11ZM199.98,234.35c-.46,0-.84-.37-.84-.84v-3.35c0-.46.37-.84.84-.84s.84.37.84.84v3.35c0,.46-.37.84-.84.84ZM138.95,232.98c-.39,0-.74-.27-.82-.66-.23-1.1-.35-2.17-.35-3.19v-.3c0-.46.37-.84.84-.84s.84.37.84.84v.3c0,.9.1,1.86.31,2.85.09.45-.2.9-.65.99-.06.01-.12.02-.17.02ZM199.98,227.66c-.46,0-.84-.37-.84-.84v-2.28c0-.33-.01-.66-.04-.99-.04-.46.3-.86.76-.9.41-.04.86.3.9.76.03.38.05.76.05,1.13v2.28c0,.46-.37.84-.84.84ZM138.62,226.31c-.46,0-.84-.37-.84-.84v-3.35c0-.46.37-.84.84-.84s.84.37.84.84v3.35c0,.46-.37.84-.84.84ZM199.32,221.03c-.36,0-.7-.24-.8-.6-.29-1-.67-2.01-1.14-3-.2-.42-.02-.92.4-1.11.41-.19.91-.02,1.11.4.5,1.07.92,2.16,1.24,3.25.13.44-.13.91-.57,1.04-.08.02-.16.03-.23.03ZM138.62,219.62c-.46,0-.84-.37-.84-.84v-3.35c0-.46.37-.84.84-.84s.84.37.84.84v3.35c0,.46-.37.84-.84.84ZM196.49,214.99c-.27,0-.53-.13-.7-.37-.61-.91-1.27-1.76-1.98-2.53-.31-.34-.29-.87.05-1.18.34-.31.87-.29,1.18.05.76.83,1.48,1.75,2.14,2.74.26.39.15.9-.23,1.16-.14.09-.3.14-.46.14ZM138.62,212.93c-.46,0-.84-.37-.84-.84v-3.35c0-.46.37-.84.84-.84s.84.37.84.84v3.35c0,.46-.37.84-.84.84ZM191.96,210.11c-.17,0-.35-.05-.5-.16-.41-.31-.83-.58-1.26-.83l-1.5-.86c-.4-.23-.54-.74-.31-1.14.23-.4.74-.54,1.14-.31l1.5.87c.49.28.96.59,1.42.94.37.28.45.8.17,1.17-.16.22-.42.34-.67.34ZM186.21,206.69c-.14,0-.29-.04-.42-.11l-2.9-1.67c-.4-.23-.54-.74-.31-1.14.23-.4.74-.54,1.14-.31l2.9,1.67c.4.23.54.74.31,1.14-.16.27-.44.42-.73.42ZM138.62,206.24c-.46,0-.84-.37-.84-.84v-3.35c0-.46.37-.84.84-.84s.84.37.84.84v3.35c0,.46-.37.84-.84.84ZM180.42,203.35c-.14,0-.29-.04-.42-.11l-2.9-1.67c-.4-.23-.54-.74-.31-1.14.23-.4.74-.54,1.14-.31l2.9,1.67c.4.23.54.74.31,1.14-.16.27-.44.42-.73.42ZM174.62,200.02c-.14,0-.29-.04-.42-.11l-2.9-1.67c-.4-.23-.54-.74-.31-1.14.23-.4.74-.54,1.14-.31l2.9,1.67c.4.23.54.74.31,1.14-.16.27-.44.42-.73.42ZM138.62,199.55c-.46,0-.84-.37-.84-.84v-3.35c0-.46.37-.84.84-.84s.84.37.84.84v3.35c0,.46-.37.84-.84.84ZM168.82,196.68c-.14,0-.29-.04-.42-.11l-2.9-1.67c-.4-.23-.54-.74-.31-1.14.23-.4.74-.54,1.14-.31l2.9,1.67c.4.23.54.74.31,1.14-.16.27-.44.42-.73.42ZM163.02,193.34c-.14,0-.29-.04-.42-.11l-2.9-1.67c-.4-.23-.54-.74-.31-1.14.23-.4.74-.54,1.14-.31l2.9,1.67c.4.23.54.74.31,1.14-.16.27-.44.42-.73.42ZM138.62,192.85c-.46,0-.84-.37-.84-.84v-3.38c.03-.46.33-.84.88-.8.46.02.82.41.8.87v3.31c-.01.46-.39.84-.85.84ZM157.22,190c-.14,0-.29-.04-.42-.11l-2.9-1.67c-.4-.23-.54-.74-.31-1.14.23-.4.74-.54,1.14-.31l2.9,1.67c.4.23.54.74.31,1.14-.16.27-.44.42-.73.42ZM151.42,186.66c-.14,0-.29-.04-.42-.11l-2.9-1.67c-.09-.05-.17-.12-.24-.2-.1-.01-.2-.05-.3-.1-.98-.57-1.93-.93-2.83-1.09-.45-.08-.76-.51-.68-.97.08-.45.5-.76.97-.68,1.09.19,2.23.62,3.38,1.29.09.05.17.12.24.2.1.01.2.05.29.1l2.9,1.67c.4.23.54.74.31,1.14-.16.27-.44.42-.73.42ZM139.36,186.27c-.12,0-.24-.03-.35-.08-.42-.2-.6-.69-.4-1.11.59-1.26,1.5-2.22,2.64-2.78.42-.2.92-.03,1.12.38.2.41.03.92-.38,1.12-.8.39-1.43,1.06-1.86,1.99-.14.3-.44.48-.76.48Z"/>
          </g>
          <g class="cls-72">
            <path class="cls-35" d="M267.88,313.73c-.44,0-.82-.35-.83-.8-.02-.46.33-.85.8-.87.98-.05,1.82-.39,2.48-1.02.33-.32.86-.31,1.18.03.32.33.31.86-.03,1.18-.95.91-2.18,1.42-3.56,1.48-.01,0-.03,0-.04,0ZM264.63,313.07c-.11,0-.22-.02-.33-.07-.43-.18-.87-.4-1.31-.66l-1.72-.99c-.4-.23-.54-.74-.31-1.14.23-.4.74-.54,1.14-.31l1.72.99c.38.22.76.41,1.13.57.42.18.62.67.44,1.1-.14.32-.45.51-.77.51ZM258.79,309.8c-.14,0-.29-.04-.42-.11l-2.9-1.67c-.4-.23-.54-.74-.31-1.14.23-.4.74-.54,1.14-.31l2.9,1.67c.4.23.54.74.31,1.14-.16.27-.44.42-.73.42ZM272.49,309.59c-.07,0-.14,0-.2-.03-.45-.11-.72-.57-.61-1.01.17-.68.26-1.44.26-2.27v-.85c0-.46.37-.84.84-.84s.84.37.84.84v.85c0,.96-.1,1.86-.31,2.68-.09.38-.44.63-.81.63ZM253,306.46c-.14,0-.29-.04-.42-.11l-2.9-1.67c-.4-.23-.54-.74-.31-1.14.23-.4.74-.54,1.14-.31l2.9,1.67c.4.23.54.74.31,1.14-.16.27-.44.42-.73.42ZM247.2,303.12c-.14,0-.29-.04-.42-.11l-2.9-1.67c-.4-.23-.54-.74-.31-1.14.23-.4.74-.54,1.14-.31l2.9,1.67c.4.23.54.74.31,1.14-.16.27-.44.42-.73.42ZM272.77,302.92c-.46,0-.84-.37-.84-.84v-3.35c0-.46.37-.84.84-.84s.84.37.84.84v3.35c0,.46-.37.84-.84.84ZM241.4,299.78c-.14,0-.29-.04-.42-.11l-2.9-1.67c-.4-.23-.54-.74-.31-1.14.23-.4.74-.54,1.14-.31l2.9,1.67c.4.23.54.74.31,1.14-.16.27-.44.42-.73.42ZM235.6,296.45c-.14,0-.29-.04-.42-.11l-2.9-1.67c-.4-.23-.54-.74-.31-1.14.23-.4.74-.54,1.14-.31l2.9,1.67c.4.23.54.74.31,1.14-.16.27-.44.42-.73.42ZM272.77,296.23c-.46,0-.84-.37-.84-.84v-3.35c0-.46.37-.84.84-.84s.84.37.84.84v3.35c0,.46-.37.84-.84.84ZM229.8,293.11c-.14,0-.29-.04-.42-.11l-2.9-1.67c-.4-.23-.54-.74-.31-1.14.23-.4.74-.54,1.14-.31l2.9,1.67c.4.23.54.74.31,1.14-.16.27-.44.42-.73.42ZM224,289.77c-.14,0-.29-.04-.42-.11l-2.9-1.67c-.4-.23-.54-.74-.31-1.14.23-.4.74-.54,1.14-.31l2.9,1.67c.4.23.54.74.31,1.14-.16.27-.44.42-.73.42ZM272.77,289.54c-.46,0-.84-.37-.84-.84v-3.35c0-.46.37-.84.84-.84s.84.37.84.84v3.35c0,.46-.37.84-.84.84ZM218.37,286.17c-.2,0-.39-.07-.55-.21-.84-.74-1.65-1.59-2.4-2.53-.29-.36-.23-.89.13-1.18.36-.29.89-.23,1.18.13.69.86,1.43,1.64,2.2,2.32.35.31.38.83.07,1.18-.16.19-.4.28-.63.28ZM272.77,282.85c-.46,0-.84-.37-.84-.84v-3.35c0-.46.37-.84.84-.84s.84.37.84.84v3.35c0,.46-.37.84-.84.84ZM214.18,280.99c-.29,0-.57-.15-.72-.42-.59-1.01-1.1-2.06-1.52-3.12-.17-.43.04-.91.47-1.09.43-.17.91.04,1.09.47.39.98.87,1.96,1.41,2.89.23.4.1.91-.3,1.14-.13.08-.28.11-.42.11ZM272.77,276.16c-.46,0-.84-.37-.84-.84v-3.35c0-.46.37-.84.84-.84s.84.37.84.84v3.35c0,.46-.37.84-.84.84ZM211.74,274.79c-.39,0-.74-.27-.82-.66-.23-1.1-.35-2.17-.35-3.19v-.3c0-.46.37-.84.84-.84s.84.37.84.84v.3c0,.9.1,1.86.31,2.85.09.45-.2.9-.65.99-.06.01-.12.02-.17.02ZM272.77,269.46c-.46,0-.84-.37-.84-.84v-2.28c0-.33-.01-.66-.04-.99-.04-.46.3-.86.76-.9.42-.03.86.3.9.76.03.38.05.76.05,1.13v2.28c0,.46-.37.84-.84.84ZM211.41,268.12c-.46,0-.84-.37-.84-.84v-3.35c0-.46.37-.84.84-.84s.84.37.84.84v3.35c0,.46-.37.84-.84.84ZM272.11,262.84c-.36,0-.7-.24-.8-.6-.29-1-.67-2.01-1.14-3-.2-.42-.02-.92.4-1.11.42-.19.92-.02,1.11.4.5,1.07.92,2.16,1.24,3.25.13.44-.13.91-.57,1.04-.08.02-.16.03-.23.03ZM211.41,261.43c-.46,0-.84-.37-.84-.84v-3.35c0-.46.37-.84.84-.84s.84.37.84.84v3.35c0,.46-.37.84-.84.84ZM269.28,256.8c-.27,0-.54-.13-.7-.37-.6-.91-1.27-1.76-1.98-2.53-.31-.34-.29-.87.05-1.18.34-.31.87-.29,1.18.05.77.83,1.48,1.76,2.14,2.74.26.38.15.9-.23,1.16-.14.09-.3.14-.46.14ZM211.41,254.74c-.46,0-.84-.37-.84-.84v-3.35c0-.46.37-.84.84-.84s.84.37.84.84v3.35c0,.46-.37.84-.84.84ZM264.75,251.92c-.17,0-.35-.05-.5-.17-.41-.31-.83-.58-1.27-.84l-1.5-.86c-.4-.23-.54-.74-.31-1.14.23-.4.74-.54,1.14-.31l1.5.87c.49.28.96.6,1.42.94.37.28.45.8.17,1.17-.16.22-.42.34-.67.34ZM259.01,248.5c-.14,0-.29-.04-.42-.11l-2.9-1.67c-.4-.23-.54-.74-.31-1.14.23-.4.74-.54,1.14-.31l2.9,1.67c.4.23.54.74.31,1.14-.16.27-.44.42-.73.42ZM211.41,248.04c-.46,0-.84-.37-.84-.84v-3.35c0-.46.37-.84.84-.84s.84.37.84.84v3.35c0,.46-.37.84-.84.84ZM253.21,245.16c-.14,0-.29-.04-.42-.11l-2.9-1.67c-.4-.23-.54-.74-.31-1.14.23-.4.74-.54,1.14-.31l2.9,1.67c.4.23.54.74.31,1.14-.16.27-.44.42-.73.42ZM247.41,241.82c-.14,0-.29-.04-.42-.11l-2.9-1.67c-.4-.23-.54-.74-.31-1.14.23-.4.74-.54,1.14-.31l2.9,1.67c.4.23.54.74.31,1.14-.16.27-.44.42-.73.42ZM211.41,241.35c-.46,0-.84-.37-.84-.84v-3.35c0-.46.37-.84.84-.84s.84.37.84.84v3.35c0,.46-.37.84-.84.84ZM241.61,238.48c-.14,0-.29-.04-.42-.11l-2.9-1.67c-.4-.23-.54-.74-.31-1.14.23-.4.74-.54,1.14-.31l2.9,1.67c.4.23.54.74.31,1.14-.16.27-.44.42-.73.42ZM235.81,235.14c-.14,0-.29-.04-.42-.11l-2.9-1.67c-.4-.23-.54-.74-.31-1.14.23-.4.74-.54,1.14-.31l2.9,1.67c.4.23.54.74.31,1.14-.16.27-.44.42-.73.42ZM211.41,234.66c-.46,0-.84-.37-.84-.84v-2.83c0-.19,0-.37,0-.55.02-.46.34-.8.87-.8.46.02.82.41.8.87,0,.16,0,.32,0,.49v2.83c0,.46-.37.84-.84.84ZM230.01,231.81c-.14,0-.29-.04-.42-.11l-2.9-1.67c-.4-.23-.54-.74-.31-1.14.23-.4.74-.54,1.14-.31l2.9,1.67c.4.23.54.74.31,1.14-.16.27-.44.42-.73.42ZM224.21,228.47c-.14,0-.29-.04-.42-.11l-2.9-1.67c-.09-.05-.17-.12-.24-.2-.1-.02-.2-.05-.3-.1-.98-.57-1.93-.93-2.83-1.09-.46-.08-.76-.51-.68-.97.08-.45.52-.76.97-.68,1.09.19,2.23.62,3.38,1.29.09.05.17.12.24.2.1.02.2.05.29.1l2.9,1.67c.4.23.54.74.31,1.14-.16.27-.44.42-.73.42ZM212.15,228.07c-.12,0-.24-.02-.35-.08-.42-.2-.6-.69-.4-1.11.59-1.26,1.5-2.22,2.64-2.78.41-.2.91-.03,1.12.38.2.41.03.91-.38,1.12-.8.39-1.43,1.06-1.86,1.99-.14.3-.44.48-.76.48Z"/>
          </g>
        </g>
        <g>
          <g class="cls-72">
            <path class="cls-35" d="M122.25,302.35c-.44,0-.82-.35-.83-.8-.02-.46.33-.85.8-.87.98-.05,1.82-.39,2.48-1.02.33-.32.86-.31,1.18.03.32.33.31.86-.03,1.18-.95.91-2.18,1.42-3.56,1.48-.01,0-.03,0-.04,0ZM119.01,301.68c-.11,0-.22-.02-.33-.07-.43-.18-.87-.4-1.31-.66l-1.71-.98c-.4-.23-.54-.74-.31-1.14.23-.4.74-.54,1.14-.31l1.72.99c.39.22.76.41,1.13.57.42.18.62.67.44,1.1-.14.32-.45.51-.77.51ZM113.17,298.41c-.14,0-.29-.04-.42-.11l-2.9-1.67c-.4-.23-.54-.74-.31-1.14.23-.4.74-.54,1.14-.31l2.9,1.67c.4.23.54.74.31,1.14-.16.27-.44.42-.73.42ZM126.86,298.2c-.07,0-.14,0-.2-.03-.45-.11-.72-.57-.61-1.01.17-.68.26-1.44.26-2.27v-.85c0-.46.37-.84.84-.84s.84.37.84.84v.85c0,.96-.1,1.87-.31,2.68-.09.38-.44.63-.81.63ZM107.37,295.08c-.14,0-.29-.04-.42-.11l-2.9-1.67c-.4-.23-.54-.74-.31-1.14.23-.4.74-.54,1.14-.31l2.9,1.67c.4.23.54.74.31,1.14-.16.27-.44.42-.73.42ZM101.57,291.74c-.14,0-.29-.04-.42-.11l-2.9-1.67c-.4-.23-.54-.74-.31-1.14.23-.4.74-.54,1.14-.31l2.9,1.67c.4.23.54.74.31,1.14-.16.27-.44.42-.73.42ZM127.15,291.54c-.46,0-.84-.37-.84-.84v-3.35c0-.46.37-.84.84-.84s.84.37.84.84v3.35c0,.46-.37.84-.84.84ZM95.77,288.4c-.14,0-.29-.04-.42-.11l-2.9-1.67c-.4-.23-.54-.74-.31-1.14.23-.4.74-.54,1.14-.31l2.9,1.67c.4.23.54.74.31,1.14-.16.27-.44.42-.73.42ZM89.97,285.06c-.14,0-.29-.04-.42-.11l-2.9-1.67c-.4-.23-.54-.74-.31-1.14.23-.4.74-.54,1.14-.31l2.9,1.67c.4.23.54.74.31,1.14-.16.27-.44.42-.73.42ZM127.15,284.84c-.46,0-.84-.37-.84-.84v-3.35c0-.46.37-.84.84-.84s.84.37.84.84v3.35c0,.46-.37.84-.84.84ZM84.17,281.72c-.14,0-.29-.04-.42-.11l-2.9-1.67c-.4-.23-.54-.74-.31-1.14.23-.4.74-.54,1.14-.31l2.9,1.67c.4.23.54.74.31,1.14-.16.27-.44.42-.73.42ZM78.37,278.39c-.14,0-.29-.04-.42-.11l-2.9-1.67c-.4-.23-.54-.74-.31-1.14.23-.4.74-.54,1.14-.31l2.9,1.67c.4.23.54.74.31,1.14-.16.27-.44.42-.73.42ZM127.15,278.15c-.46,0-.84-.37-.84-.84v-3.35c0-.46.37-.84.84-.84s.84.37.84.84v3.35c0,.46-.37.84-.84.84ZM72.75,274.79c-.2,0-.39-.07-.55-.21-.84-.74-1.65-1.59-2.4-2.53-.29-.36-.23-.89.13-1.18.36-.29.89-.23,1.18.13.69.86,1.43,1.64,2.2,2.32.35.31.38.83.07,1.18-.17.19-.4.28-.63.28ZM127.15,271.46c-.46,0-.84-.37-.84-.84v-3.35c0-.46.37-.84.84-.84s.84.37.84.84v3.35c0,.46-.37.84-.84.84ZM68.56,269.61c-.29,0-.57-.15-.72-.42-.59-1.01-1.1-2.06-1.52-3.12-.17-.43.04-.91.47-1.09.43-.17.91.04,1.09.47.39.98.87,1.96,1.41,2.89.23.4.1.91-.3,1.14-.13.08-.28.11-.42.11ZM127.15,264.77c-.46,0-.84-.37-.84-.84v-3.35c0-.46.37-.84.84-.84s.84.37.84.84v3.35c0,.46-.37.84-.84.84ZM66.12,263.4c-.39,0-.74-.27-.82-.66-.23-1.1-.35-2.17-.35-3.19v-.3c0-.46.37-.84.84-.84s.84.37.84.84v.3c0,.9.1,1.86.31,2.85.09.45-.2.9-.65.99-.06.01-.12.02-.17.02ZM127.15,258.08c-.46,0-.84-.37-.84-.84v-2.28c0-.33-.01-.66-.04-.99-.04-.46.3-.86.76-.9.45-.03.86.3.9.76.03.38.05.76.05,1.13v2.28c0,.46-.37.84-.84.84ZM65.79,256.73c-.46,0-.84-.37-.84-.84v-3.35c0-.46.37-.84.84-.84s.84.37.84.84v3.35c0,.46-.37.84-.84.84ZM126.49,251.45c-.36,0-.7-.24-.8-.6-.29-1-.67-2.01-1.14-3-.2-.42-.02-.92.4-1.11.41-.19.91-.02,1.11.4.5,1.07.92,2.16,1.23,3.25.13.44-.13.91-.57,1.04-.08.02-.16.03-.23.03ZM65.79,250.04c-.46,0-.84-.37-.84-.84v-3.35c0-.46.37-.84.84-.84s.84.37.84.84v3.35c0,.46-.37.84-.84.84ZM123.66,245.41c-.27,0-.53-.13-.7-.37-.61-.91-1.27-1.76-1.98-2.53-.31-.34-.29-.87.05-1.18.34-.31.87-.29,1.18.05.76.83,1.48,1.75,2.14,2.74.26.39.15.9-.23,1.16-.14.09-.3.14-.46.14ZM65.79,243.35c-.46,0-.84-.37-.84-.84v-3.35c0-.46.37-.84.84-.84s.84.37.84.84v3.35c0,.46-.37.84-.84.84ZM119.13,240.53c-.17,0-.35-.05-.5-.16-.41-.31-.83-.58-1.26-.83l-1.51-.87c-.4-.23-.54-.74-.31-1.14.23-.4.74-.54,1.14-.31l1.51.87c.48.28.96.59,1.42.94.37.28.45.8.17,1.17-.16.22-.42.34-.67.34ZM113.38,237.11c-.14,0-.29-.04-.42-.11l-2.9-1.67c-.4-.23-.54-.74-.31-1.14.23-.4.74-.54,1.14-.31l2.9,1.67c.4.23.54.74.31,1.14-.16.27-.44.42-.73.42ZM65.79,236.66c-.46,0-.84-.37-.84-.84v-3.35c0-.46.37-.84.84-.84s.84.37.84.84v3.35c0,.46-.37.84-.84.84ZM107.58,233.77c-.14,0-.29-.04-.42-.11l-2.9-1.67c-.4-.23-.54-.74-.31-1.14.23-.4.74-.54,1.14-.31l2.9,1.67c.4.23.54.74.31,1.14-.16.27-.44.42-.73.42ZM101.78,230.44c-.14,0-.29-.04-.42-.11l-2.9-1.67c-.4-.23-.54-.74-.31-1.14.23-.4.74-.54,1.14-.31l2.9,1.67c.4.23.54.74.31,1.14-.16.27-.44.42-.73.42ZM65.79,229.97c-.46,0-.84-.37-.84-.84v-3.35c0-.46.37-.84.84-.84s.84.37.84.84v3.35c0,.46-.37.84-.84.84ZM95.98,227.1c-.14,0-.29-.04-.42-.11l-2.9-1.67c-.4-.23-.54-.74-.31-1.14.23-.4.74-.54,1.14-.31l2.9,1.67c.4.23.54.74.31,1.14-.16.27-.44.42-.73.42ZM90.18,223.76c-.14,0-.29-.04-.42-.11l-2.9-1.67c-.4-.23-.54-.74-.31-1.14.23-.4.74-.54,1.14-.31l2.9,1.67c.4.23.54.74.31,1.14-.16.27-.44.42-.73.42ZM65.79,223.28c-.46,0-.84-.37-.84-.84v-2.83c0-.19,0-.37,0-.55.02-.46.35-.81.87-.8.46.02.82.41.8.87,0,.16,0,.32,0,.48v2.83c0,.46-.37.84-.84.84ZM84.38,220.42c-.14,0-.29-.04-.42-.11l-2.9-1.67c-.4-.23-.54-.74-.31-1.14.23-.4.74-.54,1.14-.31l2.9,1.67c.4.23.54.74.31,1.14-.16.27-.44.42-.73.42ZM78.58,217.08c-.14,0-.29-.04-.42-.11l-2.9-1.67c-.09-.05-.17-.12-.24-.2-.1-.02-.2-.05-.3-.1-.98-.57-1.93-.93-2.83-1.09-.46-.08-.76-.51-.68-.97.08-.46.52-.78.97-.68,1.09.19,2.23.62,3.38,1.29.09.05.17.12.24.2.1.02.2.05.29.1l2.9,1.67c.4.23.54.74.31,1.14-.16.27-.44.42-.73.42ZM66.53,216.69c-.12,0-.24-.02-.35-.08-.42-.2-.6-.69-.4-1.11.59-1.26,1.5-2.22,2.64-2.78.41-.2.91-.03,1.12.38.2.41.03.91-.38,1.12-.8.39-1.43,1.06-1.86,1.99-.14.3-.44.48-.76.48Z"/>
          </g>
          <g class="cls-72">
            <path class="cls-35" d="M195.09,344.12c-.44,0-.82-.35-.83-.8-.02-.46.33-.85.8-.87.98-.05,1.82-.39,2.48-1.02.33-.32.86-.31,1.18.03.32.33.31.86-.03,1.18-.95.91-2.18,1.42-3.56,1.48-.01,0-.03,0-.04,0ZM191.84,343.45c-.11,0-.22-.02-.33-.07-.43-.18-.87-.4-1.31-.66l-1.71-.99c-.4-.23-.54-.74-.31-1.14.23-.4.74-.54,1.14-.31l1.72.99c.39.22.76.41,1.13.57.42.18.62.67.44,1.1-.14.32-.45.51-.77.51ZM186,340.18c-.14,0-.29-.04-.42-.11l-2.9-1.67c-.4-.23-.54-.74-.31-1.14.23-.4.74-.54,1.14-.31l2.9,1.67c.4.23.54.74.31,1.14-.16.27-.44.42-.73.42ZM199.7,339.97c-.07,0-.14,0-.2-.03-.45-.11-.72-.57-.61-1.01.17-.68.26-1.44.26-2.27v-.85c0-.46.37-.84.84-.84s.84.37.84.84v.85c0,.96-.1,1.87-.31,2.68-.09.38-.44.63-.81.63ZM180.2,336.84c-.14,0-.29-.04-.42-.11l-2.9-1.67c-.4-.23-.54-.74-.31-1.14.23-.4.74-.54,1.14-.31l2.9,1.67c.4.23.54.74.31,1.14-.16.27-.44.42-.73.42ZM174.4,333.51c-.14,0-.29-.04-.42-.11l-2.9-1.67c-.4-.23-.54-.74-.31-1.14.23-.4.74-.54,1.14-.31l2.9,1.67c.4.23.54.74.31,1.14-.16.27-.44.42-.73.42ZM199.98,333.3c-.46,0-.84-.37-.84-.84v-3.35c0-.46.37-.84.84-.84s.84.37.84.84v3.35c0,.46-.37.84-.84.84ZM168.61,330.17c-.14,0-.29-.04-.42-.11l-2.9-1.67c-.4-.23-.54-.74-.31-1.14.23-.4.74-.54,1.14-.31l2.9,1.67c.4.23.54.74.31,1.14-.16.27-.44.42-.73.42ZM162.81,326.83c-.14,0-.29-.04-.42-.11l-2.9-1.67c-.4-.23-.54-.74-.31-1.14.23-.4.75-.54,1.14-.31l2.9,1.67c.4.23.54.74.31,1.14-.16.27-.44.42-.73.42ZM199.98,326.61c-.46,0-.84-.37-.84-.84v-3.35c0-.46.37-.84.84-.84s.84.37.84.84v3.35c0,.46-.37.84-.84.84ZM157.01,323.49c-.14,0-.29-.04-.42-.11l-2.9-1.67c-.4-.23-.54-.74-.31-1.14.23-.4.75-.54,1.14-.31l2.9,1.67c.4.23.54.74.31,1.14-.16.27-.44.42-.73.42ZM151.21,320.16c-.14,0-.29-.04-.42-.11l-2.9-1.67c-.4-.23-.54-.74-.31-1.14.23-.4.74-.54,1.14-.31l2.9,1.67c.4.23.54.74.31,1.14-.16.27-.44.42-.73.42ZM199.98,319.92c-.46,0-.84-.37-.84-.84v-3.35c0-.46.37-.84.84-.84s.84.37.84.84v3.35c0,.46-.37.84-.84.84ZM145.58,316.55c-.2,0-.39-.07-.55-.21-.84-.74-1.65-1.59-2.4-2.53-.29-.36-.23-.89.13-1.18.36-.29.89-.23,1.18.13.69.86,1.43,1.64,2.2,2.32.35.31.38.83.07,1.18-.16.19-.4.28-.63.28ZM199.98,313.23c-.46,0-.84-.37-.84-.84v-3.35c0-.46.37-.84.84-.84s.84.37.84.84v3.35c0,.46-.37.84-.84.84ZM141.39,311.37c-.29,0-.57-.15-.72-.42-.59-1.01-1.1-2.06-1.52-3.12-.17-.43.04-.91.47-1.09.42-.17.91.04,1.09.47.39.98.87,1.96,1.41,2.89.23.4.1.91-.3,1.14-.13.08-.28.11-.42.11ZM199.98,306.54c-.46,0-.84-.37-.84-.84v-3.35c0-.46.37-.84.84-.84s.84.37.84.84v3.35c0,.46-.37.84-.84.84ZM138.95,305.17c-.39,0-.74-.27-.82-.66-.23-1.1-.35-2.17-.35-3.19v-.3c0-.46.37-.84.84-.84s.84.37.84.84v.3c0,.9.1,1.86.31,2.85.09.45-.2.9-.65.99-.06.01-.12.02-.17.02ZM199.98,299.85c-.46,0-.84-.37-.84-.84v-2.28c0-.33-.01-.66-.04-.99-.04-.46.3-.86.76-.9.46-.03.86.3.9.76.03.38.05.76.05,1.13v2.28c0,.46-.37.84-.84.84ZM138.62,298.5c-.46,0-.84-.37-.84-.84v-3.35c0-.46.37-.84.84-.84s.84.37.84.84v3.35c0,.46-.37.84-.84.84ZM199.32,293.22c-.36,0-.7-.24-.8-.6-.29-1-.67-2.01-1.14-3-.2-.42-.02-.92.4-1.11.41-.2.91-.02,1.11.4.5,1.07.92,2.16,1.24,3.25.13.44-.13.91-.57,1.04-.08.02-.16.03-.23.03ZM138.62,291.81c-.46,0-.84-.37-.84-.84v-3.35c0-.46.37-.84.84-.84s.84.37.84.84v3.35c0,.46-.37.84-.84.84ZM196.49,287.18c-.27,0-.53-.13-.7-.37-.61-.91-1.27-1.76-1.98-2.53-.31-.34-.29-.87.05-1.18.34-.31.87-.29,1.18.05.76.83,1.48,1.75,2.14,2.74.26.39.15.9-.23,1.16-.14.09-.3.14-.46.14ZM138.62,285.12c-.46,0-.84-.37-.84-.84v-3.35c0-.46.37-.84.84-.84s.84.37.84.84v3.35c0,.46-.37.84-.84.84ZM191.96,282.3c-.17,0-.35-.05-.5-.16-.41-.31-.83-.58-1.26-.83l-1.51-.87c-.4-.23-.54-.74-.31-1.14.23-.4.74-.54,1.14-.31l1.51.87c.48.28.96.59,1.42.94.37.28.45.8.17,1.17-.16.22-.42.34-.67.34ZM186.21,278.88c-.14,0-.29-.04-.42-.11l-2.9-1.67c-.4-.23-.54-.74-.31-1.14.23-.4.74-.54,1.14-.31l2.9,1.67c.4.23.54.74.31,1.14-.16.27-.44.42-.73.42ZM138.62,278.43c-.46,0-.84-.37-.84-.84v-3.35c0-.46.37-.84.84-.84s.84.37.84.84v3.35c0,.46-.37.84-.84.84ZM180.41,275.54c-.14,0-.29-.04-.42-.11l-2.9-1.67c-.4-.23-.54-.74-.31-1.14.23-.4.74-.54,1.14-.31l2.9,1.67c.4.23.54.74.31,1.14-.16.27-.44.42-.73.42ZM174.61,272.2c-.14,0-.29-.04-.42-.11l-2.9-1.67c-.4-.23-.54-.74-.31-1.14.23-.4.74-.54,1.14-.31l2.9,1.67c.4.23.54.74.31,1.14-.16.27-.44.42-.73.42ZM138.62,271.74c-.46,0-.84-.37-.84-.84v-3.35c0-.46.37-.84.84-.84s.84.37.84.84v3.35c0,.46-.37.84-.84.84ZM168.81,268.87c-.14,0-.29-.04-.42-.11l-2.9-1.67c-.4-.23-.54-.74-.31-1.14.23-.4.75-.54,1.14-.31l2.9,1.67c.4.23.54.74.31,1.14-.16.27-.44.42-.73.42ZM163.02,265.53c-.14,0-.29-.04-.42-.11l-2.9-1.67c-.4-.23-.54-.74-.31-1.14.23-.4.75-.54,1.14-.31l2.9,1.67c.4.23.54.74.31,1.14-.16.27-.44.42-.73.42ZM138.62,265.05c-.46,0-.84-.37-.84-.84v-2.83c0-.19,0-.37,0-.55.02-.46.32-.8.87-.8.46.02.82.41.8.87,0,.16,0,.32,0,.48v2.83c0,.46-.37.84-.84.84ZM157.22,262.19c-.14,0-.29-.04-.42-.11l-2.9-1.67c-.4-.23-.54-.74-.31-1.14.23-.4.74-.54,1.14-.31l2.9,1.67c.4.23.54.74.31,1.14-.16.27-.44.42-.73.42ZM151.42,258.85c-.14,0-.29-.04-.42-.11l-2.9-1.67c-.09-.05-.17-.12-.24-.2-.1-.02-.2-.05-.3-.1-.98-.57-1.93-.93-2.83-1.09-.46-.08-.76-.51-.68-.97.08-.46.52-.78.97-.68,1.09.19,2.23.62,3.38,1.29.09.05.17.12.24.2.1.02.2.05.29.1l2.9,1.67c.4.23.54.74.31,1.14-.16.27-.44.42-.73.42ZM139.36,258.46c-.12,0-.24-.02-.35-.08-.42-.2-.6-.69-.4-1.11.59-1.26,1.5-2.22,2.64-2.78.41-.2.91-.03,1.12.38.2.42.03.91-.38,1.12-.8.39-1.43,1.06-1.86,1.99-.14.3-.44.48-.76.48Z"/>
          </g>
          <g class="cls-72">
            <path class="cls-35" d="M267.88,385.92c-.44,0-.82-.35-.83-.8-.02-.46.33-.85.8-.87.98-.05,1.82-.39,2.48-1.02.33-.32.86-.31,1.18.03.32.33.31.86-.03,1.18-.95.91-2.18,1.42-3.56,1.48-.01,0-.03,0-.04,0ZM264.63,385.26c-.11,0-.22-.02-.33-.07-.43-.18-.87-.4-1.31-.66l-1.72-.99c-.4-.23-.54-.74-.31-1.14.23-.4.74-.54,1.14-.31l1.72.99c.38.22.76.41,1.13.57.42.18.62.67.44,1.1-.14.32-.45.51-.77.51ZM258.79,381.99c-.14,0-.29-.04-.42-.11l-2.9-1.67c-.4-.23-.54-.74-.31-1.14.23-.4.74-.54,1.14-.31l2.9,1.67c.4.23.54.74.31,1.14-.16.27-.44.42-.73.42ZM272.49,381.78c-.07,0-.14,0-.2-.03-.45-.11-.72-.57-.61-1.01.17-.68.26-1.44.26-2.27v-.85c0-.46.37-.84.84-.84s.84.37.84.84v.85c0,.96-.1,1.86-.31,2.68-.09.38-.44.63-.81.63ZM253,378.65c-.14,0-.29-.04-.42-.11l-2.9-1.67c-.4-.23-.54-.74-.31-1.14.23-.4.74-.54,1.14-.31l2.9,1.67c.4.23.54.74.31,1.14-.16.27-.44.42-.73.42ZM247.2,375.31c-.14,0-.29-.04-.42-.11l-2.9-1.67c-.4-.23-.54-.74-.31-1.14.23-.4.74-.54,1.14-.31l2.9,1.67c.4.23.54.74.31,1.14-.16.27-.44.42-.73.42ZM272.77,375.11c-.46,0-.84-.37-.84-.84v-3.35c0-.46.37-.84.84-.84s.84.37.84.84v3.35c0,.46-.37.84-.84.84ZM241.4,371.97c-.14,0-.29-.04-.42-.11l-2.9-1.67c-.4-.23-.54-.74-.31-1.14.23-.4.74-.54,1.14-.31l2.9,1.67c.4.23.54.74.31,1.14-.16.27-.44.42-.73.42ZM235.6,368.64c-.14,0-.29-.04-.42-.11l-2.9-1.67c-.4-.23-.54-.74-.31-1.14.23-.4.74-.54,1.14-.31l2.9,1.67c.4.23.54.74.31,1.14-.16.27-.44.42-.73.42ZM272.77,368.42c-.46,0-.84-.37-.84-.84v-3.35c0-.46.37-.84.84-.84s.84.37.84.84v3.35c0,.46-.37.84-.84.84ZM229.8,365.3c-.14,0-.29-.04-.42-.11l-2.9-1.67c-.4-.23-.54-.74-.31-1.14.23-.4.74-.54,1.14-.31l2.9,1.67c.4.23.54.74.31,1.14-.16.27-.44.42-.73.42ZM224,361.96c-.14,0-.29-.04-.42-.11l-2.9-1.67c-.4-.23-.54-.74-.31-1.14.23-.4.74-.54,1.14-.31l2.9,1.67c.4.23.54.74.31,1.14-.16.27-.44.42-.73.42ZM272.77,361.73c-.46,0-.84-.37-.84-.84v-3.35c0-.46.37-.84.84-.84s.84.37.84.84v3.35c0,.46-.37.84-.84.84ZM218.37,358.36c-.2,0-.39-.07-.55-.21-.84-.74-1.65-1.59-2.4-2.53-.29-.36-.23-.89.13-1.18.36-.29.89-.23,1.18.13.69.86,1.43,1.64,2.2,2.32.35.31.38.83.07,1.18-.16.19-.4.28-.63.28ZM272.77,355.04c-.46,0-.84-.37-.84-.84v-3.35c0-.46.37-.84.84-.84s.84.37.84.84v3.35c0,.46-.37.84-.84.84ZM214.18,353.18c-.29,0-.57-.15-.72-.42-.59-1.01-1.1-2.06-1.52-3.12-.17-.43.04-.91.47-1.09.43-.17.91.04,1.09.47.39.98.87,1.96,1.41,2.89.23.4.1.91-.3,1.14-.13.08-.28.11-.42.11ZM272.77,348.35c-.46,0-.84-.37-.84-.84v-3.35c0-.46.37-.84.84-.84s.84.37.84.84v3.35c0,.46-.37.84-.84.84ZM211.74,346.98c-.39,0-.74-.27-.82-.66-.23-1.1-.35-2.17-.35-3.19v-.3c0-.46.37-.84.84-.84s.84.37.84.84v.3c0,.9.1,1.86.31,2.85.09.45-.2.9-.65.99-.06.01-.12.02-.17.02ZM272.77,341.65c-.46,0-.84-.37-.84-.84v-2.28c0-.33-.01-.66-.04-.99-.04-.46.3-.86.76-.9.42-.03.86.3.9.76.03.38.05.76.05,1.13v2.28c0,.46-.37.84-.84.84ZM211.41,340.31c-.46,0-.84-.37-.84-.84v-3.35c0-.46.37-.84.84-.84s.84.37.84.84v3.35c0,.46-.37.84-.84.84ZM272.11,335.03c-.36,0-.7-.24-.8-.6-.29-1-.67-2.01-1.14-3-.2-.42-.02-.92.4-1.11.42-.19.92-.02,1.11.4.5,1.07.92,2.16,1.24,3.25.13.44-.13.91-.57,1.04-.08.02-.16.03-.23.03ZM211.41,333.62c-.46,0-.84-.37-.84-.84v-3.35c0-.46.37-.84.84-.84s.84.37.84.84v3.35c0,.46-.37.84-.84.84ZM269.28,328.99c-.27,0-.54-.13-.7-.37-.6-.91-1.27-1.76-1.98-2.53-.31-.34-.29-.87.05-1.18.34-.31.87-.29,1.18.05.77.83,1.48,1.76,2.14,2.74.26.38.15.9-.23,1.16-.14.09-.3.14-.46.14ZM211.41,326.93c-.46,0-.84-.37-.84-.84v-3.35c0-.46.37-.84.84-.84s.84.37.84.84v3.35c0,.46-.37.84-.84.84ZM264.75,324.11c-.17,0-.35-.05-.5-.17-.41-.31-.83-.58-1.27-.84l-1.5-.86c-.4-.23-.54-.74-.31-1.14.23-.4.74-.54,1.14-.31l1.5.87c.49.28.96.6,1.42.94.37.28.45.8.17,1.17-.16.22-.42.34-.67.34ZM259.01,320.69c-.14,0-.29-.04-.42-.11l-2.9-1.67c-.4-.23-.54-.74-.31-1.14.23-.4.74-.54,1.14-.31l2.9,1.67c.4.23.54.74.31,1.14-.16.27-.44.42-.73.42ZM211.41,320.23c-.46,0-.84-.37-.84-.84v-3.35c0-.46.37-.84.84-.84s.84.37.84.84v3.35c0,.46-.37.84-.84.84ZM253.21,317.35c-.14,0-.29-.04-.42-.11l-2.9-1.67c-.4-.23-.54-.74-.31-1.14.23-.4.74-.54,1.14-.31l2.9,1.67c.4.23.54.74.31,1.14-.16.27-.44.42-.73.42ZM247.41,314.01c-.14,0-.29-.04-.42-.11l-2.9-1.67c-.4-.23-.54-.74-.31-1.14.23-.4.74-.54,1.14-.31l2.9,1.67c.4.23.54.74.31,1.14-.16.27-.44.42-.73.42ZM211.41,313.54c-.46,0-.84-.37-.84-.84v-3.35c0-.46.37-.84.84-.84s.84.37.84.84v3.35c0,.46-.37.84-.84.84ZM241.61,310.67c-.14,0-.29-.04-.42-.11l-2.9-1.67c-.4-.23-.54-.74-.31-1.14.23-.4.74-.54,1.14-.31l2.9,1.67c.4.23.54.74.31,1.14-.16.27-.44.42-.73.42ZM235.81,307.33c-.14,0-.29-.04-.42-.11l-2.9-1.67c-.4-.23-.54-.74-.31-1.14.23-.4.74-.54,1.14-.31l2.9,1.67c.4.23.54.74.31,1.14-.16.27-.44.42-.73.42ZM211.41,306.85c-.46,0-.84-.37-.84-.84v-2.83c0-.19,0-.37,0-.55.02-.46.34-.79.87-.8.46.02.82.41.8.87,0,.16,0,.32,0,.49v2.83c0,.46-.37.84-.84.84ZM230.01,304c-.14,0-.29-.04-.42-.11l-2.9-1.67c-.4-.23-.54-.74-.31-1.14.23-.4.74-.54,1.14-.31l2.9,1.67c.4.23.54.74.31,1.14-.16.27-.44.42-.73.42ZM224.21,300.66c-.14,0-.29-.04-.42-.11l-2.9-1.67c-.09-.05-.17-.12-.24-.2-.1-.02-.2-.05-.3-.1-.98-.57-1.93-.93-2.83-1.09-.46-.08-.76-.51-.68-.97.08-.46.52-.76.97-.68,1.09.19,2.23.62,3.38,1.29.09.05.17.12.24.2.1.02.2.05.29.1l2.9,1.67c.4.23.54.74.31,1.14-.16.27-.44.42-.73.42ZM212.15,300.26c-.12,0-.24-.02-.35-.08-.42-.2-.6-.69-.4-1.11.59-1.26,1.5-2.22,2.64-2.78.41-.2.91-.03,1.12.38.2.41.03.91-.38,1.12-.8.39-1.43,1.06-1.86,1.99-.14.3-.44.48-.76.48Z"/>
          </g>
        </g>
        <path class="cls-29" d="M108.94,198.61c-2.28-1.95-4.34-4.42-5.98-7.16-.99-1.65-.95-3.45,0-4.01,1.24-.72,2.34-1.87,3.05-3.4,1.05.29,2.35-.1,2.35-1.53s-.65-3.06-1.51-3.87c-.26-6.27-2.4-12.71-9.61-16.88-7.21-4.16-9.35-.19-9.61,5.78-.87-.19-1.51.66-1.51,2.12s1.3,3.32,2.35,4.24c.71,2.35,1.81,4.77,3.05,6.92.96,1.67,1,3.5,0,4.02-1.63.85-3.69.95-5.98.25-3.03-.92-5.28.91-5.28,4.64v6.47c0,1.25.89,2.78,1.98,3.41l29.99,17.31c1.09.63,1.98.13,1.98-1.13v-6.47c0-3.73-2.25-8.15-5.28-10.73Z"/>
        <path class="cls-25" d="M168.51,212.82c9.23,5.33,16.71,7.78,16.71,5.47s-7.48-8.49-16.71-13.82c-9.23-5.33-16.71-7.78-16.71-5.47s7.48,8.49,16.71,13.82ZM168.51,215.61c-9.23-5.33-16.71-11.51-16.71-13.82v6.92h0s0,0,0,0c0,2.31,7.48,8.49,16.71,13.82,9.23,5.33,16.71,7.78,16.71,5.47h0s0,0,0,0v-6.92c0,2.31-7.48-.14-16.71-5.47ZM168.51,225.11c-9.23-5.33-16.71-11.51-16.71-13.82v6.92h0s0,0,0,0c0,2.31,7.48,8.5,16.71,13.82,9.23,5.33,16.71,7.78,16.71,5.47h0s0,0,0,0v-6.92c0,2.31-7.48-.14-16.71-5.47ZM168.51,234.6c-9.23-5.33-16.71-11.51-16.71-13.82v6.92h0s0,0,0,0c0,2.31,7.48,8.49,16.71,13.82,9.23,5.33,16.71,7.78,16.71,5.47h0s0,0,0,0v-6.92c0,2.31-7.48-.14-16.71-5.47ZM168.51,244.06c-9.23-5.33-16.71-11.51-16.71-13.82v6.92h0s0,0,0,0c0,2.31,7.48,8.49,16.71,13.82,9.23,5.33,16.71,7.78,16.71,5.47h0s0,0,0,0v-6.92c0,2.31-7.48-.14-16.71-5.47Z"/>
        <path class="cls-34" d="M242.3,318.69c-10.49-6.06-19-1.21-19,10.83s8.51,26.71,19,32.77c10.49,6.06,19,1.21,19-10.83s-8.51-26.71-19-32.77ZM244.46,354.36c0,.25-.08.41-.23.5-.15.09-.34.07-.55-.06l-2.75-1.59c-.22-.13-.4-.32-.55-.58-.15-.26-.23-.51-.23-.76v-17.55c0-.27.07-.44.23-.52.15-.08.33-.05.55.07l2.75,1.59c.21.12.4.32.55.58.15.26.23.52.23.76v17.55ZM244.59,331.94c0,.25-.08.41-.24.49-.16.08-.35.06-.57-.07l-2.98-1.72c-.22-.13-.4-.32-.55-.58s-.23-.51-.23-.76v-2.71c0-.27.07-.45.23-.54.15-.09.33-.07.55.06l2.98,1.72c.24.14.43.34.58.6.15.26.23.53.23.8v2.71Z"/>
        <g>
          <path class="cls-23" d="M96.61,233.84c-11.18-6.45-20.27-1.27-20.27,11.56s9.09,28.51,20.27,34.96c11.18,6.45,20.27,1.27,20.27-11.56s-9.09-28.51-20.27-34.96ZM107.2,247.61c-.01.49.33,1.12.33,1.12,0,0-1.85-.59-2.32-1.09-.48-.49.38-.84.38-.84,0,0-1.18-.75-1.24-.53-.06.22.57.77.57.77,0,0-.22.02-.48-.13-.25-.15-1.34-1.1-1.4-1.39-.06-.29-.67-.95-.67-.95,0,0,.37-.3.43-.39.06-.09.16-.11.06-.22-.1-.11-.92-.51-.92-.64s.4-.1.33-.25c-.06-.15-.99-.61-1.05-.52-.06.09-.25.36-.37.35-.11,0-.27-.36-.43-.3-.16.05.24.52.25.64.02.12-.03.46.06.57.1.11.68.29.67.48-.02.19-.19.29,0,.6.19.31.67.66.61.75-.06.09-.56-.07-.59.17-.03.24-.25.4-.25.4l.56.56s-.94-.01-.8.18c.14.19,1.19.6,1.45.73.25.13,1.66.97,1.86.8.21-.17.45-1.08.8-.62.35.46-.67,1.09-1.35.86-.68-.23-1.16-.54-1.24-.55-.08,0,.29.46-.06.31-.35-.15-1.05-.39-1.11-.3-.06.09,1.58,1.42,1.7,2.32.13.9.19,1.48-.4,1.1-.59-.38-2.2-1.38-2.5-1.57-.3-.19-.67-.35-.7-.15-.03.2.24.92.16,1.28-.08.36-.33.79-.32.99.02.19.29.31.25.64-.03.33-.06.55-.06.55,0,0,.21.1.49.23.29.13.62.32.73.68.11.36.33.45.57.44.24,0,1.05.55,1.35.51.3-.04.64-.02.75.01.11.03.41-.24.45-.36.03-.13-.29-.57.08-.76.37-.19,1.42.05,1.4-.18-.02-.23-.27-.72.24-.65.51.07,1.24,1.01,1.34.97.1-.04.57.02.7-.03.13-.05.48-.33.92.51s.84,1.8,1.4,2.27.81.61.97.96c.16.35.32.4.41.6s.24.54.18.61c-.06.07-.05.23-.25.2-.21-.03-.92-.53-1.18-.63-.25-.09-.38-.13-.32.02.06.15.62.65.84.94.22.29.43.43.43.43l.08-.19s-.14-.32-.06-.37c.08-.05.25-.09.37.03s.29-.04.29-.09.16-.13.24-.1c.08.03.21-.06.08-.23-.13-.16-.26-.29-.24-.45.02-.16.06-.3.26-.09.2.21.35.41.4.52.05.11.23.11.19-.04-.04-.14-.14-.4-.37-.59-.23-.19-.6-.59-.64-.73s.14-.17-.2-.36c-.33-.19-.79-.74-.88-1.06-.09-.32-.14-.39-.32-.63-.18-.24-.45-.72-.25-.82.2-.1.51.4.87.92.36.52,1.17,1.3,1.37,1.55h0c.73,2.15,1.25,4.32,1.52,6.44-.02,0-.03,0-.05,0-.53.15-.35.38-.33.58.02.2-.08.6-.39.27-.31-.33-.9-1.09-1.18-1.23-.28-.14-.48-.51-.57-.82-.1-.3-.7-.86-.98-.98-.28-.12-.49-.18-.76-.59-.27-.41-.58-.85-.54-.92.04-.08.59.29.61.12.02-.18-.28-.29-.36-.5-.08-.21-.14-.23-.21-.39s-.14-.29-.03-.33.22-.15.18-.21-.27.02-.34-.14c-.07-.16-.17-.34-.39-.44-.01,0-.02,0-.02,0,.04-.06.06-.12-.09-.22-.29-.19-.41-.15-.41-.07,0,.03.03.11.06.2-.09-.03-.19-.08-.3-.18-.3-.28-.41-.26-.68-.4-.27-.14-.32.03-.5-.08-.18-.11-.77-.62-1.27-.79s-1.66-.51-1.9-.45c-.25.06-.42.07-.76-.27-.33-.34-.8-.3-.93-.52-.13-.22-.37-.58-.37-.58l-.32-.03s-.19.58-.96.62c-.76.03-.76.58-.83,1.06-.06.47-.35.89-1.08.8-.73-.09-1.02.95-1.43,1-.41.05-1.43,1.04-1.08,1.86.35.82.6,1.7.25,2.59-.35.89-.64,2.19,1.46,5.12,2.1,2.93,2.87,3.74,2.87,3.74,0,0,1.18-.2,2.01.65.83.84,2.1.77,2.74,1,.64.22,1.4,1.36,1.59,1.83.19.48,1.91.26,1.78,1.83-.07.85-.18,1.29-.24,1.61-3.02,1.26-6.94.84-11.24-1.63.25-.23.57-.41.87-.69.55-.51.31-1.18.09-1.91-.22-.73-.35-.39-.81-1.12-.46-.72-.9-1.46-1.54-1.83-.64-.37-1.48-1.66-1.7-2-.22-.35-.81-1.09-1.03-1.85-.22-.76-1.39-2.47-1.65-2.91-.26-.44-1.01-.56-1.92-1.89-.92-1.33-.18-1.1-1.26-1.94-1.08-.84-1.41-.84-2-1.25-.59-.41-.95-1.32-1.43-1.6-.48-.28-1.54.37-1.78.48-.24.1-.29-.05-.71-.63-.16-.23-.31-.28-.47-.31-.33-.92-.62-1.84-.87-2.76.11-.25.2-.45.2-.54.01-.23-.16-.35-.48-.49-.54-2.23-.84-4.44-.84-6.56,0-.11.01-.21.01-.32.2.33.4.77.63,1.27.48,1.05.13,1.62.13,1.62,0,0,.81.54,1.14.22.33-.32-.26-2.59-.11-3.07.15-.47,1.83-.42,1.98-.65s-.09-.97.31-1.78c.4-.81,1.45.13,1.54.19.09.05.02-.33-.16-.77-.18-.44.11-.57.4-.59.29-.02,1.39.1,1.39.1,0,0-.31.11-.29.53.02.42.4.18.92.17s1.39.1,1.39.1l-.22-.54s-.51-.13-.93-.47c-.42-.34-.44-.64-.55-1.26-.11-.62-1.85-.8-1.85-.8,0,0,.55-.29.97-.31.42-.02,2.13,1.15,2.44,1.31.31.16.66-.27,1.15-.01.49.26.59-.17.49-.56-.09-.39-.84-1.14-1.8-2.51-.95-1.37-1.48-2.96-1.48-2.96,0,0-.29.44-.6.52-.27.08-.63-.25-.97-.9,3.04-1.3,7-.87,11.35,1.63,4,2.31,7.67,6.01,10.6,10.32Z"/>
          <path class="cls-44" d="M98.88,247.19c-.12.07-.33-.17-.19.25.17.48,1.03.57,1.38.75.36.18.79.18.79-.04s0-.58.07-.62c.07-.04,0-.49-.21-.7-.21-.21-.98-.73-1.12-.68-.14.05-.21.26-.43.11-.21-.15-.79-.35-.57.13.21.48.41.73.29.8Z"/>
          <path class="cls-24" d="M94.15,238.46c1,.69,2.94,1.12,2.96.72.02-.4-.1-.93-1.07-1.31-.98-.37-1.34-.39-1.89-.79-.55-.4-1.43-1.4-2.01-1.16-.42.18,1,1.84,2.01,2.53Z"/>
        </g>
        <path class="cls-17" d="M171.71,142.85v-1.33c0-1.67-1.18-3.71-2.64-4.55l-12.46-7.19c-1.46-.84-2.64-.17-2.64,1.5v2.79l-1.16-.67c-1.46-.84-2.64-.17-2.64,1.5v24.41c0,1.71,1.21,3.78,2.69,4.64,0,0,33.6,19.4,34.04,19.65,2.1,1.21,3.8.24,3.8-2.17v-27.62l-19-10.97ZM188.18,179.97c0,.8-.57,1.13-1.27.72-.7-.4-1.27-1.38-1.27-2.18v-21.8l-19-10.97v-1.33c0-1.67-1.18-3.71-2.64-4.55l-7.49-4.33v-2.79c0-.07.05-.09.11-.06l12.46,7.19c.06.03.11.12.11.18v4.24l2.53,1.46,16.47,9.51v24.71Z"/>
        <path class="cls-21" d="M162.79,296.11l-3.98,2.27c-2.93-2.96-6.36-4.23-8.72-2.88-2.36,1.34-2.98,4.93-1.88,8.93l4.73-2.7,4.79,8.27-4.73,2.7c2.93,2.96,6.36,4.23,8.72,2.88,2.36-1.34,2.98-4.93,1.88-8.93l3.98-2.27-4.79-8.27ZM173.12,301.23l3.98-2.27c2.93,2.96,6.36,4.23,8.72,2.88,2.36-1.35,2.98-4.93,1.88-8.93l-4.73,2.7-4.79-8.27,4.73-2.7c-2.93-2.96-6.36-4.23-8.72-2.88-2.36,1.35-2.98,4.93-1.88,8.93l-3.98,2.27,4.79,8.27ZM179.89,312.31c-1.02-1.75-2.56-2.82-3.75-2.72l-16.6-28.64-1.04-4.85-6.19-7.55-2.72,1.55,3.47,9.1,3.7,3.33,16.6,28.64c-.69.97-.53,2.82.48,4.58l6.82,11.76c1.21,2.09,3.18,3.23,4.39,2.54l1.66-.95c1.21-.69,1.21-2.95,0-5.04l-6.82-11.76Z"/>
        <g>
          <path class="cls-52" d="M220.57,225.87c-5.17-2.99-9.36-.6-9.36,5.34v39.93c0,5.93,4.19,13.16,9.36,16.15l42.63,24.54c5.17,2.99,9.36.6,9.36-5.34v-39.93c0-5.93-4.19-13.16-9.36-16.15l-42.63-24.54Z"/>
          <path class="cls-19" d="M220.54,225.8c-1.94-1.12-3.74-1.48-5.23-1.19-.5.1-16.62,7.45-17.04,7.69-1.69.97-2.74,3.05-2.74,6.01v39.93c0,5.93,4.19,13.16,9.36,16.15l42.63,24.54c1.76,1.02,3.41,1.41,4.82,1.25.46-.05,16.54-7.34,16.94-7.51,2-.82,3.26-3.01,3.26-6.27v-39.93c0-5.93-4.19-13.16-9.36-16.15l-42.63-24.54Z"/>
          <g>
            <path class="cls-31" d="M269.3,274.63c-9.26-5.35-16.77-1.07-16.77,9.56v110.32c0,10.63,7.51,23.58,16.77,28.93l99.93,56.43c9.26,5.35,16.77,1.07,16.77-9.56v-110.32c0-10.63-7.51-23.58-16.77-28.93l-99.93-56.43Z"/>
            <path class="cls-53" d="M369.23,331.06l-99.93-56.43c-9.26-5.35-16.77-1.07-16.77,9.56v1.62c0-10.63,7.51-14.91,16.77-9.56l99.93,56.43c9.26,5.35,16.77,18.3,16.77,28.93v-1.62c0-10.63-7.51-23.58-16.77-28.93Z"/>
            <g>
              <path class="cls-54" d="M376.27,359.63c.24,0,.47-.12.6-.35.19-.33.08-.76-.25-.95l-115.71-66.77c-.33-.19-.75-.08-.95.25-.19.33-.08.76.25.95l115.71,66.77c.11.06.23.09.35.09Z"/>
              <path class="cls-54" d="M376.27,378.14c.24,0,.47-.12.6-.35.19-.33.08-.76-.25-.95l-115.71-66.77c-.33-.19-.75-.08-.95.25-.19.33-.08.76.25.95l115.71,66.77c.11.06.23.09.35.09Z"/>
              <path class="cls-54" d="M376.27,396.17c.24,0,.47-.12.6-.35.19-.33.08-.76-.25-.95l-115.71-66.77c-.33-.19-.75-.08-.95.25-.19.33-.08.76.25.95l115.71,66.77c.11.06.23.09.35.09Z"/>
              <path class="cls-54" d="M376.27,414.68c.24,0,.47-.12.6-.35.19-.33.08-.76-.25-.95l-115.71-66.77c-.33-.19-.75-.08-.95.25-.19.33-.08.76.25.95l115.71,66.77c.11.06.23.09.35.09Z"/>
              <path class="cls-54" d="M376.27,432.48c.24,0,.47-.12.6-.35.19-.33.08-.76-.25-.95l-115.71-66.77c-.33-.19-.75-.08-.95.25-.19.33-.08.76.25.95l115.71,66.77c.11.06.23.09.35.09Z"/>
              <path class="cls-54" d="M376.27,450.99c.24,0,.47-.12.6-.35.19-.33.08-.76-.25-.95l-115.71-66.77c-.33-.19-.75-.08-.95.25-.19.33-.08.76.25.95l115.71,66.77c.11.06.23.09.35.09Z"/>
              <path class="cls-54" d="M376.27,469.26c.24,0,.47-.12.6-.35.19-.33.08-.76-.25-.95l-115.71-66.77c-.33-.19-.75-.08-.95.25-.19.33-.08.76.25.95l115.71,66.77c.11.06.23.09.35.09Z"/>
              <path class="cls-28" d="M350.17,382.89l-9.12-5.26v75.84l9.12,5.26v-75.84ZM363.3,360.4l-9.12-5.26v105.81l9.12,5.26v-105.81ZM314.03,315.29v122.29l9.12,5.26v-122.29l-9.12-5.26ZM336.66,340.06l-9.12-5.26v110.51l9.12,5.26v-110.51ZM309.63,309.27l-9.12-5.26v125.43l9.12,5.26v-125.43ZM273.48,353.21v60.33l9.12,5.26v-60.33l-9.12-5.26ZM296.11,320.5l-9.12-5.26v106.02l9.12,5.26v-106.02Z"/>
              <path class="cls-66" d="M350.17,416.37l-9.12-5.26v42.37l9.12,5.26v-42.37ZM363.3,384.05l-9.12-5.26v82.15l9.12,5.26v-82.15ZM314.03,328.96v108.62l9.12,5.26v-108.62l-9.12-5.26ZM336.66,367.71l-9.12-5.26v82.86l9.12,5.26v-82.86ZM309.63,314.43l-9.12-5.26v120.26l9.12,5.26v-120.26ZM273.48,380.39v33.15l9.12,5.26v-33.15l-9.12-5.26ZM296.11,362.71l-9.12-5.26v63.81l9.12,5.26v-63.81Z"/>
              <g class="cls-76">
                <polygon class="cls-16" points="363.3 385.19 354.19 379.92 354.19 378.79 363.3 384.05 363.3 385.19"/>
                <polygon class="cls-16" points="350.17 417.51 341.06 412.25 341.06 411.11 350.17 416.37 350.17 417.51"/>
                <polygon class="cls-16" points="296.11 363.85 287 358.58 287 357.45 296.11 362.71 296.11 363.85"/>
                <polygon class="cls-16" points="309.63 315.57 300.51 310.31 300.51 309.17 309.63 314.43 309.63 315.57"/>
                <polygon class="cls-16" points="282.6 385.65 282.6 386.79 273.48 381.53 273.48 380.39 282.6 385.65"/>
                <polygon class="cls-16" points="336.66 368.84 327.54 363.58 327.54 362.44 336.66 367.71 336.66 368.84"/>
                <polygon class="cls-16" points="323.14 335.36 314.03 330.1 314.03 328.96 323.14 334.22 323.14 335.36"/>
              </g>
            </g>
          </g>
          <g>
            <g class="cls-78">
              <path class="cls-61" d="M208.02,231.72c-5.17-2.99-9.36-.6-9.36,5.34v39.93c0,5.93,4.19,13.16,9.36,16.15l42.63,24.54c5.17,2.99,9.36.6,9.36-5.34v-39.93c0-5.93-4.19-13.16-9.36-16.15l-42.63-24.54Z"/>
            </g>
            <g class="cls-74">
              <path class="cls-50" d="M207.74,231.86c-5.17-2.99-9.36-.6-9.36,5.34v39.93c0,5.93,4.19,13.16,9.36,16.15l42.63,24.54c5.17,2.99,9.36.6,9.36-5.34v-39.93c0-5.93-4.19-13.16-9.36-16.15l-42.63-24.54Z"/>
            </g>
            <g class="cls-81">
              <path class="cls-7" d="M207.45,232c-5.17-2.99-9.36-.6-9.36,5.34v39.93c0,5.93,4.19,13.16,9.36,16.15l42.63,24.54c5.17,2.99,9.36.6,9.36-5.34v-39.93c0-5.93-4.19-13.16-9.36-16.15l-42.63-24.54Z"/>
            </g>
            <g class="cls-77">
              <path class="cls-5" d="M207.17,232.14c-5.17-2.99-9.36-.6-9.36,5.34v39.93c0,5.93,4.19,13.16,9.36,16.15l42.63,24.54c5.17,2.99,9.36.6,9.36-5.34v-39.93c0-5.93-4.19-13.16-9.36-16.15l-42.63-24.54Z"/>
            </g>
            <g class="cls-73">
              <path class="cls-63" d="M206.88,232.28c-5.17-2.99-9.36-.6-9.36,5.34v39.93c0,5.93,4.19,13.16,9.36,16.15l42.63,24.54c5.17,2.99,9.36.6,9.36-5.34v-39.93c0-5.93-4.19-13.16-9.36-16.15l-42.63-24.54Z"/>
            </g>
            <g class="cls-82">
              <path class="cls-36" d="M206.6,232.42c-5.17-2.99-9.36-.6-9.36,5.34v39.93c0,5.93,4.19,13.16,9.36,16.15l42.63,24.54c5.17,2.99,9.36.6,9.36-5.34v-39.93c0-5.93-4.19-13.16-9.36-16.15l-42.63-24.54Z"/>
            </g>
            <g class="cls-80">
              <path class="cls-15" d="M206.31,232.56c-5.17-2.99-9.36-.6-9.36,5.34v39.93c0,5.93,4.19,13.16,9.36,16.15l42.63,24.54c5.17,2.99,9.36.6,9.36-5.34v-39.93c0-5.93-4.19-13.16-9.36-16.15l-42.63-24.54Z"/>
            </g>
            <g class="cls-2">
              <path class="cls-30" d="M206.03,232.7c-5.17-2.99-9.36-.6-9.36,5.34v39.93c0,5.93,4.19,13.16,9.36,16.15l42.63,24.54c5.17,2.99,9.36.6,9.36-5.34v-39.93c0-5.93-4.19-13.16-9.36-16.15l-42.63-24.54Z"/>
            </g>
            <g class="cls-1">
              <path class="cls-22" d="M205.74,232.84c-5.17-2.99-9.36-.6-9.36,5.34v39.93c0,5.93,4.19,13.16,9.36,16.15l42.63,24.54c5.17,2.99,9.36.6,9.36-5.34v-39.93c0-5.93-4.19-13.16-9.36-16.15l-42.63-24.54Z"/>
            </g>
            <g class="cls-83">
              <path class="cls-3" d="M205.46,232.98c-5.17-2.99-9.36-.6-9.36,5.34v39.93c0,5.93,4.19,13.16,9.36,16.15l42.63,24.54c5.17,2.99,9.36.6,9.36-5.34v-39.93c0-5.93-4.19-13.16-9.36-16.15l-42.63-24.54Z"/>
            </g>
            <g class="cls-79">
              <path class="cls-10" d="M205.17,233.12c-5.17-2.99-9.36-.6-9.36,5.34v39.93c0,5.93,4.19,13.16,9.36,16.15l42.63,24.54c5.17,2.99,9.36.6,9.36-5.34v-39.93c0-5.93-4.19-13.16-9.36-16.15l-42.63-24.54Z"/>
            </g>
            <path class="cls-71" d="M204.89,233.26c-5.17-2.99-9.36-.6-9.36,5.34v39.93c0,5.93,4.19,13.16,9.36,16.15l42.63,24.54c5.17,2.99,9.36.6,9.36-5.34v-39.93c0-5.93-4.19-13.16-9.36-16.15l-42.63-24.54Z"/>
          </g>
          <path class="cls-37" d="M208.87,287.39l6.72,3.88c.59.34,1.07.07,1.07-.61v-14.98c0-.68-.48-1.51-1.07-1.85l-6.72-3.88c-.59-.34-1.07-.07-1.07.61v14.98c0,.68.48,1.51,1.07,1.85ZM220.91,294.33l6.72,3.88c.59.34,1.07.07,1.07-.61v-29.51c0-.68-.48-1.51-1.07-1.85l-6.72-3.88c-.59-.34-1.07-.07-1.07.61v29.51c0,.68.48,1.51,1.07,1.85ZM231.87,255.38v44.05c0,.68.48,1.51,1.07,1.85l6.72,3.88c.59.34,1.07.07,1.07-.61v-44.05c0-.68-.48-1.51-1.07-1.85l-6.72-3.88c-.59-.34-1.07-.07-1.07.61Z"/>
        </g>
        <g>
          <path class="cls-52" d="M220.57,151.15c-5.17-2.99-9.36-.6-9.36,5.34v39.93c0,5.93,4.19,13.16,9.36,16.15l42.63,24.54c5.17,2.99,9.36.6,9.36-5.34v-39.93c0-5.93-4.19-13.16-9.36-16.15l-42.63-24.54Z"/>
          <path class="cls-56" d="M220.54,151.08c-1.94-1.12-3.74-1.48-5.23-1.19-.5.1-16.62,7.45-17.04,7.69-1.69.97-2.74,3.05-2.74,6.01v39.93c0,5.93,4.19,13.16,9.36,16.15l42.63,24.54c1.76,1.02,3.41,1.41,4.82,1.25.46-.05,16.54-7.34,16.94-7.51,2-.82,3.26-3.01,3.26-6.27v-39.93c0-5.93-4.19-13.16-9.36-16.15l-42.63-24.54Z"/>
          <g>
            <g class="cls-78">
              <path class="cls-42" d="M208.02,157c-5.17-2.99-9.36-.6-9.36,5.34v39.93c0,5.93,4.19,13.16,9.36,16.15l42.63,24.54c5.17,2.99,9.36.6,9.36-5.34v-39.93c0-5.93-4.19-13.16-9.36-16.15l-42.63-24.54Z"/>
            </g>
            <g class="cls-74">
              <path class="cls-64" d="M207.74,157.14c-5.17-2.99-9.36-.6-9.36,5.34v39.93c0,5.93,4.19,13.16,9.36,16.15l42.63,24.54c5.17,2.99,9.36.6,9.36-5.34v-39.93c0-5.93-4.19-13.16-9.36-16.15l-42.63-24.54Z"/>
            </g>
            <g class="cls-81">
              <path class="cls-32" d="M207.45,157.28c-5.17-2.99-9.36-.6-9.36,5.34v39.93c0,5.93,4.19,13.16,9.36,16.15l42.63,24.54c5.17,2.99,9.36.6,9.36-5.34v-39.93c0-5.93-4.19-13.16-9.36-16.15l-42.63-24.54Z"/>
            </g>
            <g class="cls-77">
              <path class="cls-6" d="M207.17,157.42c-5.17-2.99-9.36-.6-9.36,5.34v39.93c0,5.93,4.19,13.16,9.36,16.15l42.63,24.54c5.17,2.99,9.36.6,9.36-5.34v-39.93c0-5.93-4.19-13.16-9.36-16.15l-42.63-24.54Z"/>
            </g>
            <g class="cls-73">
              <path class="cls-9" d="M206.88,157.56c-5.17-2.99-9.36-.6-9.36,5.34v39.93c0,5.93,4.19,13.16,9.36,16.15l42.63,24.54c5.17,2.99,9.36.6,9.36-5.34v-39.93c0-5.93-4.19-13.16-9.36-16.15l-42.63-24.54Z"/>
            </g>
            <g class="cls-82">
              <path class="cls-68" d="M206.6,157.7c-5.17-2.99-9.36-.6-9.36,5.34v39.93c0,5.93,4.19,13.16,9.36,16.15l42.63,24.54c5.17,2.99,9.36.6,9.36-5.34v-39.93c0-5.93-4.19-13.16-9.36-16.15l-42.63-24.54Z"/>
            </g>
            <g class="cls-80">
              <path class="cls-55" d="M206.31,157.84c-5.17-2.99-9.36-.6-9.36,5.34v39.93c0,5.93,4.19,13.16,9.36,16.15l42.63,24.54c5.17,2.99,9.36.6,9.36-5.34v-39.93c0-5.93-4.19-13.16-9.36-16.15l-42.63-24.54Z"/>
            </g>
            <g class="cls-2">
              <path class="cls-67" d="M206.03,157.98c-5.17-2.99-9.36-.6-9.36,5.34v39.93c0,5.93,4.19,13.16,9.36,16.15l42.63,24.54c5.17,2.99,9.36.6,9.36-5.34v-39.93c0-5.93-4.19-13.16-9.36-16.15l-42.63-24.54Z"/>
            </g>
            <g class="cls-1">
              <path class="cls-65" d="M205.74,158.12c-5.17-2.99-9.36-.6-9.36,5.34v39.93c0,5.93,4.19,13.16,9.36,16.15l42.63,24.54c5.17,2.99,9.36.6,9.36-5.34v-39.93c0-5.93-4.19-13.16-9.36-16.15l-42.63-24.54Z"/>
            </g>
            <g class="cls-83">
              <path class="cls-13" d="M205.46,158.26c-5.17-2.99-9.36-.6-9.36,5.34v39.93c0,5.93,4.19,13.16,9.36,16.15l42.63,24.54c5.17,2.99,9.36.6,9.36-5.34v-39.93c0-5.93-4.19-13.16-9.36-16.15l-42.63-24.54Z"/>
            </g>
            <g class="cls-79">
              <path class="cls-26" d="M205.17,158.4c-5.17-2.99-9.36-.6-9.36,5.34v39.93c0,5.93,4.19,13.16,9.36,16.15l42.63,24.54c5.17,2.99,9.36.6,9.36-5.34v-39.93c0-5.93-4.19-13.16-9.36-16.15l-42.63-24.54Z"/>
            </g>
            <path class="cls-49" d="M204.89,158.54c-5.17-2.99-9.36-.6-9.36,5.34v39.93c0,5.93,4.19,13.16,9.36,16.15l42.63,24.54c5.17,2.99,9.36.6,9.36-5.34v-39.93c0-5.93-4.19-13.16-9.36-16.15l-42.63-24.54Z"/>
          </g>
          <path class="cls-18" d="M238.96,169.62c-4.91,3.79-2.43,15.23,5.54,25.54,7.97,10.31,18.4,15.6,23.31,11.81s2.43-15.23-5.54-25.54c-7.97-10.31-18.4-15.6-23.31-11.81Z"/>
        </g>
        <g>
          <path class="cls-52" d="M74.47,67.51c-5.17-2.99-9.36-.6-9.36,5.34v39.93c0,5.93,4.19,13.16,9.36,16.15l42.63,24.54c5.17,2.99,9.36.6,9.36-5.34v-39.93c0-5.93-4.19-13.16-9.36-16.15l-42.63-24.54Z"/>
          <path class="cls-48" d="M74.45,67.43c-1.94-1.12-3.74-1.48-5.23-1.19-.5.1-16.62,7.45-17.04,7.69-1.69.97-2.74,3.05-2.74,6.01v39.93c0,5.93,4.19,13.16,9.36,16.15l42.63,24.54c1.76,1.02,3.41,1.41,4.82,1.25.46-.05,16.54-7.34,16.94-7.51,2-.82,3.26-3.01,3.26-6.27v-39.93c0-5.93-4.19-13.16-9.36-16.15l-42.63-24.54Z"/>
          <g>
            <g class="cls-78">
              <path class="cls-40" d="M61.93,73.36c-5.17-2.99-9.36-.6-9.36,5.34v39.93c0,5.93,4.19,13.16,9.36,16.15l42.63,24.54c5.17,2.99,9.36.6,9.36-5.34v-39.93c0-5.93-4.19-13.16-9.36-16.15l-42.63-24.54Z"/>
            </g>
            <g class="cls-74">
              <path class="cls-41" d="M61.64,73.5c-5.17-2.99-9.36-.6-9.36,5.34v39.93c0,5.93,4.19,13.16,9.36,16.15l42.63,24.54c5.17,2.99,9.36.6,9.36-5.34v-39.93c0-5.93-4.19-13.16-9.36-16.15l-42.63-24.54Z"/>
            </g>
            <g class="cls-81">
              <path class="cls-33" d="M61.36,73.64c-5.17-2.99-9.36-.6-9.36,5.34v39.93c0,5.93,4.19,13.16,9.36,16.15l42.63,24.54c5.17,2.99,9.36.6,9.36-5.34v-39.93c0-5.93-4.19-13.16-9.36-16.15l-42.63-24.54Z"/>
            </g>
            <g class="cls-77">
              <path class="cls-27" d="M61.07,73.78c-5.17-2.99-9.36-.6-9.36,5.34v39.93c0,5.93,4.19,13.16,9.36,16.15l42.63,24.54c5.17,2.99,9.36.6,9.36-5.34v-39.93c0-5.93-4.19-13.16-9.36-16.15l-42.63-24.54Z"/>
            </g>
            <g class="cls-73">
              <path class="cls-60" d="M60.79,73.92c-5.17-2.99-9.36-.6-9.36,5.34v39.93c0,5.93,4.19,13.16,9.36,16.15l42.63,24.54c5.17,2.99,9.36.6,9.36-5.34v-39.93c0-5.93-4.19-13.16-9.36-16.15l-42.63-24.54Z"/>
            </g>
            <g class="cls-82">
              <path class="cls-45" d="M60.5,74.06c-5.17-2.99-9.36-.6-9.36,5.34v39.93c0,5.93,4.19,13.16,9.36,16.15l42.63,24.54c5.17,2.99,9.36.6,9.36-5.34v-39.93c0-5.93-4.19-13.16-9.36-16.15l-42.63-24.54Z"/>
            </g>
            <g class="cls-80">
              <path class="cls-46" d="M60.22,74.2c-5.17-2.99-9.36-.6-9.36,5.34v39.93c0,5.93,4.19,13.16,9.36,16.15l42.63,24.54c5.17,2.99,9.36.6,9.36-5.34v-39.93c0-5.93-4.19-13.16-9.36-16.15l-42.63-24.54Z"/>
            </g>
            <g class="cls-2">
              <path class="cls-57" d="M59.93,74.34c-5.17-2.99-9.36-.6-9.36,5.34v39.93c0,5.93,4.19,13.16,9.36,16.15l42.63,24.54c5.17,2.99,9.36.6,9.36-5.34v-39.93c0-5.93-4.19-13.16-9.36-16.15l-42.63-24.54Z"/>
            </g>
            <g class="cls-1">
              <path class="cls-58" d="M59.65,74.48c-5.17-2.99-9.36-.6-9.36,5.34v39.93c0,5.93,4.19,13.16,9.36,16.15l42.63,24.54c5.17,2.99,9.36.6,9.36-5.34v-39.93c0-5.93-4.19-13.16-9.36-16.15l-42.63-24.54Z"/>
            </g>
            <g class="cls-83">
              <path class="cls-62" d="M59.36,74.62c-5.17-2.99-9.36-.6-9.36,5.34v39.93c0,5.93,4.19,13.16,9.36,16.15l42.63,24.54c5.17,2.99,9.36.6,9.36-5.34v-39.93c0-5.93-4.19-13.16-9.36-16.15l-42.63-24.54Z"/>
            </g>
            <g class="cls-79">
              <path class="cls-11" d="M59.08,74.76c-5.17-2.99-9.36-.6-9.36,5.34v39.93c0,5.93,4.19,13.16,9.36,16.15l42.63,24.54c5.17,2.99,9.36.6,9.36-5.34v-39.93c0-5.93-4.19-13.16-9.36-16.15l-42.63-24.54Z"/>
            </g>
            <path class="cls-69" d="M58.79,74.89c-5.17-2.99-9.36-.6-9.36,5.34v39.93c0,5.93,4.19,13.16,9.36,16.15l42.63,24.54c5.17,2.99,9.36.6,9.36-5.34v-39.93c0-5.93-4.19-13.16-9.36-16.15l-42.63-24.54Z"/>
          </g>
          <ellipse class="cls-51" cx="107.29" cy="104.65" rx="11.23" ry="23.6" transform="translate(-41.59 87.41) rotate(-37.68)"/>
        </g>
        <path class="cls-37" d="M207.7,171.91v36.09l40.53,23.4v-36.09l-40.53-23.4ZM245.64,226.93l-35.35-20.41v-30.14l35.35,20.41v30.14ZM234.29,199.72l-6.32,8.44-5.03-6.25-10.05,3.13,30.16,17.41-8.76-22.73ZM220.51,196.79c2.24,1.29,4.05.26,4.05-2.31s-1.81-5.7-4.05-6.99c-2.24-1.29-4.05-.26-4.05,2.31s1.81,5.7,4.05,6.99Z"/>
        <path class="cls-37" d="M93.68,114.8l-9.39-16.2c-1.45-2.51-3.42-4.58-5.48-5.77l-13.26-7.65v46.51l30.4,17.55v-26.84c0-2.36-.82-5.09-2.27-7.6ZM83.28,100.97l7.82,13.48-7.82-4.51v-8.97ZM93.42,144.87l-25.33-14.63v-40.7l11.08,6.4c.87.51,1.58,1.73,1.58,2.73v12.72l11.08,6.4c.87.5,1.58,1.73,1.58,2.73v24.35ZM70.62,117.17l20.27,11.7v-2.91l-20.27-11.7v2.91ZM70.62,111.35l20.27,11.7v-2.91l-20.27-11.7v2.91ZM70.62,122.98l20.27,11.7v-2.91l-20.27-11.7v2.91Z"/>
        <g>
          <polygon class="cls-20" points="14.57 347.15 26.36 340.34 20.38 336.9 8.6 343.71 14.57 347.15"/>
          <polygon class="cls-70" points="37.85 346.96 30.98 343.01 19.19 349.81 26.06 353.77 37.85 346.96"/>
          <polygon class="cls-59" points="49.34 353.59 41.57 349.11 29.79 355.92 37.56 360.39 49.34 353.59"/>
          <polygon class="cls-47" points="98.77 381.86 66.11 363.41 54.33 370.22 86.99 388.66 76.98 394.44 123.71 401.89 110.8 374.91 98.77 381.86"/>
          <polygon class="cls-38" points="14.86 333.72 11.79 331.95 0 338.75 3.08 340.53 14.86 333.72"/>
          <polygon class="cls-8" points="60.83 360.21 52.17 355.21 40.38 362.02 49.05 367.01 60.83 360.21"/>
        </g>
        <path class="cls-47" d="M199.34,444.96c.64-.37,1.2-.77,1.72-1.18l4.89.68c.7.1,1.44-.08,1.77-.45.59-.67,1.08-1.36,1.46-2.06.22-.4-.09-.83-.71-1.04l-4.29-1.52c.27-1.02.26-2.06-.02-3.08l4.27-1.51c.61-.22.91-.65.69-1.04-.39-.71-.89-1.4-1.49-2.06-.33-.37-1.08-.55-1.78-.46l-4.88.67c-.52-.41-1.09-.81-1.73-1.18s-1.34-.7-2.05-1l1.16-2.82c.17-.4-.15-.83-.79-1.03-1.16-.35-2.35-.63-3.58-.86-.69-.13-1.43.05-1.81.4l-2.61,2.46c-1.77-.16-3.57-.16-5.34,0l-2.64-2.47c-.38-.35-1.12-.53-1.81-.41-1.22.22-2.41.5-3.57.84-.64.19-.95.62-.78,1.02l1.19,2.82c-.71.3-1.4.62-2.04.99-.64.37-1.2.77-1.72,1.18l-4.89-.68c-.7-.1-1.44.08-1.77.45-.59.67-1.08,1.36-1.46,2.06-.22.4.09.83.71,1.04l4.28,1.52c-.27,1.02-.26,2.06.02,3.08l-4.27,1.51c-.61.22-.91.65-.69,1.04.39.71.89,1.4,1.49,2.06.33.37,1.08.55,1.78.46l4.88-.67c.52.41,1.09.81,1.73,1.18.65.37,1.34.7,2.05,1l-1.16,2.82c-.17.4.15.83.79,1.03,1.16.35,2.35.63,3.58.86.69.13,1.43-.05,1.81-.4l2.61-2.46c1.77.16,3.57.16,5.34,0l2.64,2.47c.38.35,1.12.53,1.81.41,1.22-.22,2.41-.5,3.57-.84.64-.19.95-.62.78-1.02l-1.19-2.82c.71-.3,1.4-.62,2.04-.99ZM182.03,440.67c-2.74-1.58-2.76-4.14-.03-5.72,2.73-1.57,7.16-1.57,9.91.02,2.74,1.58,2.76,4.14.03,5.72-2.73,1.57-7.16,1.57-9.91-.02Z"/>
      </g>
    </g>
  </g>
</svg>