<svg width="427" height="496" viewBox="0 0 427 496" fill="none" xmlns="http://www.w3.org/2000/svg">
<path d="M317.369 186.273C317.173 186.273 316.976 186.217 316.794 186.119L316.57 185.992C316.037 185.684 315.855 184.982 316.163 184.449C316.191 184.407 316.205 184.379 316.233 184.337V178.64C316.233 178.023 316.738 177.518 317.355 177.518C317.972 177.518 318.477 178.023 318.477 178.64V185.15C318.477 185.557 318.267 185.922 317.916 186.133C317.748 186.231 317.551 186.287 317.355 186.287L317.369 186.273ZM311.284 182.751C311.087 182.751 310.891 182.709 310.723 182.597L304.861 179.202C304.314 178.893 304.132 178.191 304.455 177.658C304.763 177.111 305.464 176.943 305.997 177.251L311.858 180.647C312.405 180.955 312.588 181.657 312.265 182.19C312.055 182.555 311.676 182.751 311.284 182.751ZM299.575 175.947C299.379 175.947 299.182 175.905 299.014 175.792L293.153 172.397C292.606 172.088 292.424 171.387 292.746 170.854C293.055 170.306 293.756 170.124 294.289 170.447L300.15 173.842C300.697 174.151 300.879 174.852 300.557 175.385C300.346 175.75 299.968 175.947 299.575 175.947ZM317.369 172.986C316.752 172.986 316.247 172.481 316.247 171.864V165.087C316.247 164.47 316.752 163.965 317.369 163.965C317.986 163.965 318.491 164.47 318.491 165.087V171.864C318.491 172.481 317.986 172.986 317.369 172.986ZM287.867 169.142C287.67 169.142 287.474 169.1 287.306 168.988L281.444 165.592C280.912 165.284 280.715 164.582 281.038 164.049C281.346 163.502 282.047 163.333 282.58 163.642L288.441 167.037C288.974 167.346 289.171 168.048 288.848 168.581C288.638 168.946 288.259 169.142 287.867 169.142ZM276.144 162.351C275.948 162.351 275.751 162.309 275.583 162.197L269.722 158.802C269.175 158.493 268.993 157.791 269.315 157.258C269.624 156.711 270.325 156.529 270.858 156.851L276.719 160.247C277.266 160.555 277.448 161.257 277.126 161.79C276.915 162.155 276.537 162.351 276.144 162.351ZM317.369 159.447C316.752 159.447 316.247 158.942 316.247 158.325V151.548C316.247 150.931 316.752 150.426 317.369 150.426C317.986 150.426 318.491 150.931 318.491 151.548V158.325C318.491 158.942 317.986 159.447 317.369 159.447ZM264.436 155.547C264.239 155.547 264.043 155.505 263.875 155.392L258.013 151.997C257.481 151.688 257.284 150.987 257.607 150.454C257.915 149.906 258.616 149.738 259.149 150.047L265.01 153.442C265.543 153.751 265.74 154.452 265.417 154.985C265.207 155.35 264.828 155.547 264.436 155.547ZM252.713 148.742C252.517 148.742 252.32 148.7 252.152 148.588L246.291 145.192C245.94 144.996 245.73 144.617 245.73 144.21V140.422C245.73 139.805 246.235 139.3 246.852 139.3C247.469 139.3 247.974 139.805 247.974 140.422V143.565L253.274 146.637C253.821 146.946 254.003 147.648 253.681 148.181C253.47 148.546 253.092 148.742 252.699 148.742H252.713ZM317.369 145.894C316.752 145.894 316.247 145.389 316.247 144.771V137.995C316.247 137.377 316.752 136.872 317.369 136.872C317.986 136.872 318.491 137.377 318.491 137.995V144.771C318.491 145.389 317.986 145.894 317.369 145.894ZM246.866 134.782C246.249 134.782 245.744 134.277 245.744 133.659V126.883C245.744 126.265 246.249 125.76 246.866 125.76C247.483 125.76 247.988 126.265 247.988 126.883V133.659C247.988 134.277 247.483 134.782 246.866 134.782ZM317.369 132.341C316.752 132.341 316.247 131.835 316.247 131.218V124.442C316.247 123.824 316.752 123.319 317.369 123.319C317.986 123.319 318.491 123.824 318.491 124.442V131.218C318.491 131.835 317.986 132.341 317.369 132.341ZM246.866 121.243C246.249 121.243 245.744 120.738 245.744 120.12V113.344C245.744 112.726 246.249 112.221 246.866 112.221C247.483 112.221 247.988 112.726 247.988 113.344V120.12C247.988 120.738 247.483 121.243 246.866 121.243ZM317.369 118.787C316.752 118.787 316.247 118.282 316.247 117.665V116.416L312.588 114.298C312.055 113.989 311.858 113.288 312.181 112.754C312.489 112.207 313.191 112.039 313.723 112.347L317.944 114.803C318.295 114.999 318.505 115.378 318.505 115.785V117.679C318.505 118.296 318 118.801 317.383 118.801L317.369 118.787ZM307.301 111.043C307.105 111.043 306.909 111.001 306.74 110.888L300.879 107.493C300.332 107.184 300.15 106.483 300.472 105.95C300.781 105.402 301.482 105.22 302.015 105.543L307.876 108.938C308.423 109.247 308.605 109.948 308.283 110.481C308.072 110.846 307.694 111.043 307.301 111.043ZM246.866 107.689C246.249 107.689 245.744 107.184 245.744 106.567V99.7904C245.744 99.1731 246.249 98.668 246.866 98.668C247.483 98.668 247.988 99.1731 247.988 99.7904V106.567C247.988 107.184 247.483 107.689 246.866 107.689ZM295.579 104.252C295.382 104.252 295.186 104.21 295.018 104.098L289.157 100.702C288.624 100.394 288.427 99.6922 288.75 99.159C289.058 98.6118 289.76 98.4435 290.292 98.7521L296.154 102.147C296.686 102.456 296.883 103.158 296.56 103.691C296.35 104.056 295.971 104.252 295.579 104.252ZM283.87 97.4473C283.674 97.4473 283.478 97.4052 283.309 97.293L277.448 93.8977C276.901 93.589 276.719 92.8875 277.041 92.3543C277.35 91.8072 278.051 91.6388 278.584 91.9475L284.445 95.3428C284.992 95.6515 285.174 96.353 284.852 96.8861C284.641 97.2509 284.263 97.4473 283.87 97.4473ZM246.866 94.1362C246.249 94.1362 245.744 93.6311 245.744 93.0138V86.2371C245.744 85.6198 246.249 85.1147 246.866 85.1147C247.483 85.1147 247.988 85.6198 247.988 86.2371V93.0138C247.988 93.6311 247.483 94.1362 246.866 94.1362ZM272.162 90.6426C271.965 90.6426 271.769 90.6006 271.601 90.4883L265.74 87.093C265.193 86.7843 265.01 86.0828 265.333 85.5497C265.641 85.0025 266.343 84.8201 266.875 85.1428L272.737 88.5381C273.283 88.8468 273.466 89.5483 273.143 90.0814C272.933 90.4462 272.554 90.6426 272.162 90.6426ZM260.439 83.852C260.243 83.852 260.047 83.8099 259.878 83.6977L254.017 80.3024C253.47 79.9937 253.288 79.2922 253.61 78.759C253.919 78.2118 254.62 78.0435 255.153 78.3521L261.014 81.7475C261.561 82.0561 261.743 82.7577 261.421 83.2908C261.21 83.6556 260.832 83.852 260.439 83.852ZM246.866 80.583C246.249 80.583 245.744 80.0779 245.744 79.4605V74.8446C245.744 74.4377 245.954 74.0729 246.305 73.8625C246.655 73.666 247.09 73.666 247.441 73.8625L249.306 74.9428C249.852 75.2514 250.035 75.953 249.712 76.4861C249.404 77.0333 248.703 77.2017 248.17 76.893L248.002 76.7948V79.4465C248.002 80.0638 247.497 80.5689 246.88 80.5689L246.866 80.583Z" fill="#B086CC"/>
<path d="M425.718 213.379C425.101 213.379 424.596 212.874 424.596 212.257V205.48C424.596 204.863 425.101 204.358 425.718 204.358C426.335 204.358 426.84 204.863 426.84 205.48V212.257C426.84 212.874 426.335 213.379 425.718 213.379ZM420.698 211.527C420.502 211.527 420.32 211.485 420.137 211.373L414.248 208.02C413.701 207.711 413.519 207.024 413.827 206.476C414.136 205.929 414.823 205.747 415.37 206.056L421.259 209.409C421.806 209.717 421.988 210.405 421.68 210.952C421.469 211.317 421.091 211.527 420.698 211.527ZM408.934 204.821C408.737 204.821 408.555 204.779 408.373 204.667L402.483 201.313C401.937 201.005 401.754 200.317 402.063 199.77C402.371 199.223 403.058 199.04 403.605 199.349L409.495 202.702C410.041 203.011 410.224 203.698 409.915 204.246C409.705 204.61 409.326 204.821 408.934 204.821ZM425.718 199.826C425.101 199.826 424.596 199.321 424.596 198.704V191.927C424.596 191.31 425.101 190.805 425.718 190.805C426.335 190.805 426.84 191.31 426.84 191.927V198.704C426.84 199.321 426.335 199.826 425.718 199.826ZM397.169 198.128C396.973 198.128 396.79 198.086 396.608 197.974L390.719 194.621C390.172 194.312 389.99 193.625 390.298 193.078C390.607 192.53 391.294 192.348 391.841 192.657L397.73 196.01C398.277 196.319 398.459 197.006 398.151 197.553C397.94 197.918 397.562 198.128 397.169 198.128ZM385.39 191.422C385.194 191.422 385.012 191.38 384.83 191.268L378.94 187.914C378.393 187.606 378.211 186.918 378.52 186.371C378.828 185.824 379.515 185.642 380.062 185.95L385.951 189.303C386.498 189.612 386.681 190.3 386.372 190.847C386.162 191.212 385.783 191.422 385.39 191.422ZM425.718 186.273C425.101 186.273 424.596 185.768 424.596 185.15V178.374C424.596 177.757 425.101 177.251 425.718 177.251C426.335 177.251 426.84 177.757 426.84 178.374V185.15C426.84 185.768 426.335 186.273 425.718 186.273ZM373.626 184.716C373.43 184.716 373.247 184.673 373.065 184.561L367.176 181.208C366.629 180.899 366.447 180.212 366.755 179.665C367.064 179.117 367.751 178.935 368.298 179.244L374.187 182.597C374.734 182.906 374.916 183.593 374.607 184.14C374.397 184.505 374.019 184.716 373.626 184.716ZM361.861 178.009C361.665 178.009 361.483 177.967 361.3 177.855L355.411 174.502C354.864 174.193 354.682 173.505 354.99 172.958C355.299 172.411 355.986 172.229 356.533 172.537L362.422 175.891C362.969 176.199 363.151 176.887 362.843 177.434C362.633 177.799 362.254 178.009 361.861 178.009ZM420.32 175.862C420.123 175.862 419.941 175.82 419.759 175.708L413.869 172.355C413.323 172.046 413.14 171.359 413.449 170.812C413.757 170.264 414.444 170.082 414.991 170.391L420.881 173.744C421.427 174.053 421.61 174.74 421.301 175.287C421.091 175.652 420.712 175.862 420.32 175.862ZM350.083 171.303C349.886 171.303 349.704 171.261 349.522 171.148L343.633 167.795C343.086 167.486 342.903 166.799 343.212 166.252C343.52 165.705 344.207 165.522 344.754 165.831L350.644 169.184C351.19 169.493 351.373 170.18 351.064 170.727C350.854 171.092 350.475 171.303 350.083 171.303ZM408.555 169.17C408.359 169.17 408.177 169.128 407.994 169.016L402.105 165.662C401.558 165.354 401.376 164.666 401.684 164.119C401.993 163.572 402.68 163.39 403.227 163.698L409.116 167.051C409.663 167.36 409.845 168.048 409.537 168.595C409.326 168.96 408.948 169.17 408.555 169.17ZM338.318 164.61C338.122 164.61 337.94 164.568 337.757 164.456L331.868 161.103C331.321 160.794 331.139 160.106 331.447 159.559C331.756 159.012 332.443 158.83 332.99 159.138L338.879 162.492C339.426 162.8 339.608 163.488 339.3 164.035C339.089 164.4 338.711 164.61 338.318 164.61ZM396.777 162.464C396.58 162.464 396.398 162.421 396.216 162.309L390.326 158.956C389.779 158.647 389.597 157.96 389.906 157.413C390.214 156.865 390.901 156.683 391.448 156.992L397.337 160.345C397.884 160.654 398.067 161.341 397.758 161.888C397.548 162.253 397.169 162.464 396.777 162.464ZM327.914 157.104C327.297 157.104 326.792 156.599 326.792 155.982V149.205C326.792 148.588 327.297 148.083 327.914 148.083C328.531 148.083 329.036 148.588 329.036 149.205V155.982C329.036 156.599 328.531 157.104 327.914 157.104ZM385.012 155.757C384.816 155.757 384.633 155.715 384.451 155.603L378.562 152.25C378.015 151.941 377.833 151.253 378.141 150.706C378.45 150.159 379.137 149.977 379.684 150.285L385.573 153.639C386.12 153.947 386.302 154.635 385.993 155.182C385.783 155.547 385.405 155.757 385.012 155.757ZM373.233 149.051C373.037 149.051 372.855 149.009 372.672 148.896L366.783 145.543C366.236 145.234 366.054 144.547 366.362 144C366.671 143.453 367.358 143.27 367.905 143.579L373.794 146.932C374.341 147.241 374.523 147.928 374.215 148.475C374.005 148.84 373.626 149.051 373.233 149.051ZM327.914 143.565C327.297 143.565 326.792 143.06 326.792 142.442V135.666C326.792 135.048 327.297 134.543 327.914 134.543C328.531 134.543 329.036 135.048 329.036 135.666V142.442C329.036 143.06 328.531 143.565 327.914 143.565ZM361.469 142.358C361.272 142.358 361.09 142.316 360.908 142.204L355.019 138.851C354.472 138.542 354.289 137.854 354.598 137.307C354.906 136.76 355.593 136.578 356.14 136.886L362.03 140.24C362.577 140.548 362.759 141.236 362.45 141.783C362.24 142.148 361.861 142.358 361.469 142.358ZM349.704 135.652C349.508 135.652 349.326 135.61 349.143 135.497L343.254 132.144C342.707 131.835 342.525 131.148 342.833 130.601C343.142 130.054 343.829 129.871 344.376 130.18L350.265 133.533C350.812 133.842 350.994 134.529 350.686 135.076C350.475 135.441 350.097 135.652 349.704 135.652ZM327.914 130.012C327.297 130.012 326.792 129.506 326.792 128.889V122.113C326.792 121.495 327.297 120.99 327.914 120.99C328.531 120.99 329.036 121.495 329.036 122.113V128.889C329.036 129.506 328.531 130.012 327.914 130.012ZM337.94 128.945C337.743 128.945 337.561 128.903 337.379 128.791L331.489 125.438C330.943 125.129 330.76 124.442 331.069 123.894C331.377 123.347 332.064 123.165 332.611 123.473L338.5 126.827C339.047 127.135 339.23 127.823 338.921 128.37C338.711 128.735 338.332 128.945 337.94 128.945Z" fill="#B086CC"/>
<path d="M255.672 32.1505C255.503 31.8699 255.433 31.6033 255.433 31.3367V9.44951L249.025 5.74552C248.787 5.61925 248.59 5.40879 248.436 5.12819C248.282 4.84758 248.198 4.56698 248.198 4.27234V1.29792C248.198 1.00329 248.268 0.806866 248.422 0.708655C248.576 0.610443 248.773 0.638508 249.025 0.77881L266.707 10.9928C266.959 11.1472 267.17 11.3576 267.324 11.6382C267.478 11.9188 267.562 12.1994 267.562 12.4941V15.4685C267.562 15.7631 267.478 15.9455 267.324 16.0437C267.156 16.1419 266.959 16.1139 266.707 15.9596L260.341 12.2836V34.1849C260.341 34.4514 260.271 34.6338 260.117 34.732C259.962 34.8303 259.766 34.8022 259.514 34.6619L256.26 32.7818C256.022 32.6556 255.826 32.4451 255.672 32.1645V32.1505Z" fill="url(#paint0_linear_250_4705)"/>
<path d="M270.549 16.7172C270.381 16.4366 270.311 16.17 270.311 15.9034V12.9992C270.311 12.7045 270.395 12.5081 270.549 12.4239C270.703 12.3397 270.899 12.3538 271.138 12.48L274.321 14.318C274.573 14.4723 274.784 14.6828 274.938 14.9634C275.092 15.244 275.176 15.5246 275.176 15.8192V18.7235C275.176 18.9901 275.092 19.1584 274.91 19.2567C274.742 19.3408 274.531 19.3128 274.307 19.1865L271.124 17.3485C270.899 17.2223 270.703 17.0118 270.535 16.7312L270.549 16.7172ZM270.689 40.8352C270.535 40.5546 270.451 40.288 270.451 40.0214V21.263C270.451 20.9683 270.535 20.7859 270.689 20.7018C270.857 20.6176 271.054 20.6456 271.278 20.7859L274.223 22.4836C274.447 22.6099 274.643 22.8203 274.812 23.1009C274.966 23.3815 275.05 23.6481 275.05 23.9147V42.6732C275.05 42.9397 274.966 43.1221 274.812 43.2063C274.657 43.2905 274.447 43.2765 274.223 43.1502L271.278 41.4525C271.054 41.3122 270.857 41.1158 270.689 40.8352Z" fill="url(#paint1_linear_250_4705)"/>
<path d="M283.043 46.3631C281.977 44.4971 281.458 42.3364 281.458 39.8952V30.9158L278.724 29.3304C278.5 29.2041 278.303 28.9936 278.135 28.713C277.981 28.4324 277.897 28.1659 277.897 27.8993V25.5562C277.897 25.2897 277.981 25.1073 278.135 25.0231C278.289 24.9249 278.486 24.9529 278.724 25.0792L281.458 26.6646V20.0704C281.458 19.7758 281.542 19.5934 281.697 19.5092C281.865 19.425 282.061 19.4671 282.286 19.5934L285.16 21.2489C285.413 21.3892 285.623 21.5997 285.763 21.8522C285.917 22.1048 285.988 22.3854 285.988 22.68V29.2743L290.32 31.7716C290.545 31.8979 290.741 32.1084 290.909 32.389C291.064 32.6696 291.148 32.9362 291.148 33.2027V35.5458C291.148 35.8124 291.064 35.9947 290.909 36.0789C290.741 36.1771 290.545 36.1491 290.32 36.0228L285.988 33.5254V42.0699C285.988 43.2063 286.156 44.1744 286.506 44.9461C286.857 45.7317 287.418 46.3491 288.203 46.798L290.629 48.2011C290.881 48.3414 291.078 48.5518 291.232 48.8044C291.386 49.0569 291.456 49.3375 291.456 49.6322V52.1295C291.456 52.3961 291.372 52.5785 291.232 52.6767C291.078 52.7749 290.881 52.7469 290.629 52.6066L287.796 50.965C285.693 49.7584 284.109 48.2151 283.057 46.3351L283.043 46.3631Z" fill="url(#paint2_linear_250_4705)"/>
<path d="M294.821 54.7673C294.667 54.4867 294.583 54.2201 294.583 53.9535V27.6468C294.583 27.3521 294.667 27.1697 294.821 27.0856C294.976 27.0014 295.172 27.0294 295.41 27.1697L298.313 28.8534C298.565 29.0077 298.762 29.2041 298.916 29.4567C299.07 29.7232 299.14 29.9898 299.14 30.2845V56.5912C299.14 56.8578 299.056 57.0402 298.916 57.1384C298.762 57.2366 298.565 57.2085 298.313 57.0682L295.41 55.3846C295.172 55.2443 294.976 55.0479 294.821 54.7673Z" fill="url(#paint3_linear_250_4705)"/>
<path d="M305.38 59.0044C303.866 56.4368 303.066 53.5607 302.982 50.3898L302.954 49.3796C302.954 46.0685 303.711 43.8938 305.226 42.8556C306.74 41.8173 308.829 42.0839 311.508 43.6272C314.256 45.2127 316.373 47.3873 317.86 50.1513C319.346 52.9153 320.089 55.8897 320.089 59.0745V59.9023C320.089 60.1689 320.005 60.3513 319.851 60.4355C319.697 60.5197 319.486 60.5056 319.234 60.3513L307.75 53.715V54.0377C307.792 55.553 308.142 56.97 308.801 58.3169C309.46 59.6638 310.372 60.674 311.522 61.3334C312.84 62.0911 313.905 62.1051 314.733 61.3615C314.943 61.1931 315.097 61.1089 315.209 61.1089C315.322 61.1089 315.518 61.1931 315.798 61.3474L318.841 63.1012C319.051 63.2275 319.234 63.3959 319.374 63.6063C319.528 63.8308 319.598 64.0553 319.598 64.2938C319.598 64.9252 319.276 65.4864 318.617 65.9634C317.958 66.4404 317.018 66.6509 315.798 66.5807C314.578 66.5106 313.162 66.0055 311.536 65.0795C308.956 63.5923 306.908 61.5579 305.394 58.9904L305.38 59.0044ZM315.308 54.7252V54.641C315.308 53.0836 314.971 51.6245 314.284 50.2916C313.597 48.9587 312.671 47.9486 311.494 47.2751C310.316 46.5876 309.39 46.5315 308.717 47.0787C308.044 47.6259 307.708 48.6921 307.708 50.2495V50.3337L315.294 54.7111L315.308 54.7252Z" fill="url(#paint4_linear_250_4705)"/>
<path d="M416.87 99.8465V105.304L423.068 108.882V103.424L416.87 99.8465ZM416.632 155.561L423.082 159.279V153.821L416.632 150.103V155.561ZM351.583 74.8446L330.55 62.7364V68.1942L351.583 80.3023V74.8446ZM411.514 114.803L418.917 119.082V113.624L411.514 109.345V114.803ZM363.53 69.1483L346.956 59.5656V65.0234L363.53 74.606V69.1483ZM412.972 97.5876L397.519 88.7064V94.1642L412.972 103.045V97.5876ZM393.621 86.4616L367.428 71.4071V76.8649L393.621 91.9194V86.4616ZM387.76 120.864L360.838 105.388V110.846L387.76 126.322V120.864ZM407.615 107.086L372.798 87.093V92.5507L407.615 112.544V107.086ZM373.766 100.267L357.192 90.6847V96.1425L373.766 105.725V100.267ZM368.886 84.8481L355.481 77.1034V82.5612L368.886 90.3059V84.8481ZM397.267 144.421L412.719 153.302V147.844L397.267 138.963V144.421ZM391.658 128.58L411.598 140.057V134.599L391.658 123.123V128.58ZM346.703 115.28L363.277 124.862V119.405L346.703 109.822V115.28ZM377.664 107.984L394.827 117.819V112.361L377.664 102.526V107.984ZM398.739 120.064L423.082 134.08V128.623L398.739 114.606V120.064ZM356.939 103.144L343.534 95.3989V100.857L356.939 108.601V103.144ZM353.28 88.4399L330.536 75.3496V80.8074L353.28 93.8977V88.4399ZM326.413 103.635L342.805 113.035V107.577L326.413 98.1769V103.635ZM367.19 127.121L393.383 142.176V136.718L367.19 121.664V127.121ZM276.579 74.8446L322.515 101.376V95.918L276.579 69.3868V74.8446ZM343.043 57.3208L330.536 50.1513V55.6091L343.043 62.7785V57.3208ZM339.636 93.14L308.619 75.2795V80.7373L339.636 98.5978V93.14ZM272.68 67.1419L249.249 53.3362V58.7939L272.68 72.5997V67.1419ZM304.721 73.0346L272.442 54.4025V59.8602L304.721 78.4924V73.0346ZM268.53 52.1436L249.235 40.723V46.1807L268.53 57.6014V52.1436Z" fill="url(#paint5_linear_250_4705)"/>
<path d="M363.081 359.098C362.885 359.098 362.675 359.042 362.506 358.943L360.067 357.47C359.534 357.147 359.365 356.46 359.674 355.913C359.996 355.38 360.698 355.211 361.23 355.52L363.053 356.614C364.007 355.983 364.89 355.394 365.703 354.832C366.222 354.482 366.923 354.608 367.274 355.127C367.624 355.646 367.498 356.348 366.979 356.698C365.998 357.372 364.89 358.116 363.684 358.901C363.502 359.028 363.278 359.084 363.067 359.084L363.081 359.098ZM354.836 354.131C354.64 354.131 354.444 354.075 354.261 353.977L348.456 350.483C347.923 350.16 347.755 349.473 348.064 348.926C348.386 348.393 349.073 348.224 349.62 348.533L355.425 352.026C355.958 352.349 356.126 353.037 355.818 353.584C355.607 353.935 355.229 354.131 354.85 354.131H354.836ZM371.761 352.854C371.424 352.854 371.102 352.714 370.878 352.433C370.485 351.942 370.569 351.241 371.06 350.848C372.855 349.417 374.593 347.986 376.276 346.583C376.753 346.19 377.468 346.232 377.861 346.723C378.267 347.2 378.197 347.916 377.72 348.308C376.024 349.739 374.271 351.171 372.462 352.616C372.252 352.784 371.999 352.868 371.761 352.868V352.854ZM343.24 347.144C343.044 347.144 342.847 347.088 342.665 346.99L336.86 343.496C336.327 343.173 336.159 342.486 336.467 341.939C336.79 341.406 337.491 341.237 338.024 341.546L343.829 345.039C344.362 345.362 344.53 346.049 344.222 346.597C344.011 346.947 343.633 347.144 343.254 347.144H343.24ZM382.109 344.127C381.801 344.127 381.492 344.001 381.268 343.749C380.847 343.286 380.889 342.57 381.352 342.149C383.063 340.62 384.703 339.09 386.288 337.575C386.737 337.14 387.452 337.154 387.886 337.617C388.321 338.066 388.307 338.782 387.844 339.217C386.246 340.746 384.577 342.289 382.852 343.847C382.642 344.043 382.376 344.127 382.095 344.127H382.109ZM331.63 340.171C331.433 340.171 331.237 340.115 331.055 340.016L325.25 336.523C324.717 336.2 324.548 335.513 324.857 334.966C325.179 334.432 325.867 334.264 326.413 334.573L332.219 338.066C332.751 338.389 332.92 339.076 332.611 339.624C332.401 339.974 332.022 340.171 331.644 340.171H331.63ZM391.883 334.741C391.602 334.741 391.322 334.629 391.098 334.418C390.649 333.983 390.635 333.268 391.069 332.819C392.668 331.163 394.182 329.522 395.641 327.894C396.061 327.431 396.762 327.389 397.239 327.796C397.702 328.203 397.744 328.919 397.337 329.396C395.865 331.051 394.323 332.721 392.71 334.404C392.486 334.629 392.191 334.755 391.897 334.755L391.883 334.741ZM320.019 333.184C319.823 333.184 319.627 333.128 319.444 333.029L313.639 329.536C313.106 329.213 312.938 328.526 313.247 327.979C313.569 327.445 314.256 327.277 314.803 327.586L320.608 331.079C321.141 331.402 321.309 332.089 321.001 332.637C320.791 332.987 320.412 333.184 320.033 333.184H320.019ZM308.423 326.197C308.227 326.197 308.03 326.141 307.848 326.042L302.043 322.549C301.51 322.226 301.342 321.539 301.65 320.991C301.959 320.444 302.66 320.29 303.207 320.599L309.012 324.092C309.545 324.415 309.713 325.102 309.405 325.65C309.194 326 308.816 326.197 308.437 326.197H308.423ZM400.843 324.611C400.591 324.611 400.338 324.527 400.142 324.359C399.651 323.966 399.581 323.25 399.974 322.773C401.39 321.006 402.764 319.21 404.04 317.442C404.405 316.937 405.106 316.824 405.61 317.189C406.115 317.554 406.227 318.256 405.863 318.761C404.559 320.571 403.171 322.394 401.726 324.19C401.502 324.471 401.179 324.611 400.843 324.611ZM296.813 319.21C296.616 319.21 296.42 319.153 296.238 319.055L290.433 315.562C289.9 315.239 289.731 314.552 290.04 314.004C290.362 313.471 291.05 313.303 291.596 313.612L297.402 317.105C297.934 317.428 298.103 318.115 297.794 318.662C297.584 319.013 297.205 319.21 296.827 319.21H296.813ZM408.737 313.626C408.527 313.626 408.317 313.569 408.134 313.443C407.602 313.106 407.447 312.405 407.784 311.886C408.99 309.978 410.14 308.042 411.191 306.119C411.486 305.572 412.187 305.376 412.72 305.67C413.267 305.965 413.463 306.653 413.168 307.2C412.089 309.164 410.925 311.156 409.691 313.092C409.481 313.429 409.116 313.612 408.737 313.612V313.626ZM285.216 312.223C285.02 312.223 284.824 312.166 284.641 312.068L278.836 308.575C278.303 308.252 278.135 307.564 278.444 307.017C278.752 306.47 279.467 306.316 280 306.624L285.805 310.118C286.338 310.441 286.506 311.128 286.198 311.675C285.988 312.026 285.609 312.223 285.23 312.223H285.216ZM273.606 305.249C273.41 305.249 273.213 305.193 273.031 305.095L267.226 301.602C266.693 301.279 266.525 300.591 266.833 300.044C267.156 299.511 267.843 299.343 268.39 299.651L274.195 303.145C274.728 303.468 274.896 304.155 274.588 304.702C274.377 305.053 273.999 305.249 273.62 305.249H273.606ZM415.244 301.756C415.089 301.756 414.921 301.728 414.767 301.644C414.206 301.377 413.954 300.704 414.22 300.142C415.146 298.136 416.029 296.074 416.842 293.983C417.067 293.408 417.712 293.113 418.3 293.338C418.875 293.562 419.17 294.222 418.946 294.797C418.118 296.93 417.221 299.048 416.267 301.097C416.071 301.503 415.664 301.756 415.244 301.756ZM261.996 298.262C261.799 298.262 261.603 298.206 261.421 298.108L255.616 294.615C255.083 294.292 254.915 293.604 255.223 293.057C255.546 292.524 256.247 292.356 256.779 292.664L262.585 296.158C263.117 296.481 263.286 297.168 262.977 297.715C262.767 298.066 262.388 298.262 262.01 298.262H261.996ZM250.399 291.275C250.203 291.275 250.007 291.219 249.824 291.121L244.019 287.627C243.486 287.305 243.318 286.617 243.627 286.07C243.949 285.537 244.636 285.369 245.183 285.677L250.988 289.171C251.521 289.494 251.689 290.181 251.381 290.728C251.171 291.079 250.792 291.275 250.413 291.275H250.399ZM420.123 289.129C420.011 289.129 419.899 289.115 419.787 289.073C419.198 288.89 418.861 288.259 419.044 287.656C419.703 285.565 420.292 283.39 420.824 281.202C420.979 280.598 421.582 280.234 422.185 280.374C422.788 280.528 423.166 281.132 423.012 281.735C422.465 283.966 421.862 286.182 421.189 288.329C421.035 288.806 420.586 289.129 420.109 289.129H420.123ZM238.789 284.288C238.593 284.288 238.396 284.232 238.214 284.134L232.409 280.64C231.876 280.318 231.708 279.63 232.016 279.083C232.339 278.55 233.026 278.382 233.573 278.69L239.378 282.184C239.911 282.506 240.079 283.194 239.771 283.741C239.56 284.092 239.182 284.288 238.803 284.288H238.789ZM227.193 277.315C226.996 277.315 226.8 277.259 226.618 277.161L220.813 273.667C220.28 273.345 220.112 272.657 220.42 272.11C220.743 271.577 221.444 271.409 221.977 271.731L227.782 275.225C228.315 275.547 228.483 276.235 228.174 276.782C227.964 277.133 227.585 277.329 227.207 277.329L227.193 277.315ZM423.32 275.982C423.32 275.982 423.18 275.982 423.11 275.968C422.493 275.856 422.086 275.267 422.199 274.649C422.591 272.517 422.928 270.286 423.236 268.013C423.32 267.396 423.895 266.961 424.498 267.045C425.115 267.129 425.55 267.69 425.466 268.308C425.157 270.609 424.807 272.882 424.414 275.056C424.316 275.604 423.839 275.982 423.306 275.982H423.32ZM215.582 270.328C215.386 270.328 215.19 270.272 215.008 270.174L209.202 266.68C208.67 266.358 208.501 265.67 208.81 265.123C209.132 264.59 209.819 264.421 210.366 264.73L216.171 268.224C216.704 268.546 216.872 269.234 216.564 269.781C216.354 270.132 215.975 270.328 215.596 270.328H215.582ZM203.972 263.341C203.776 263.341 203.579 263.285 203.397 263.187L197.592 259.693C197.059 259.371 196.891 258.683 197.199 258.136C197.522 257.603 198.223 257.434 198.756 257.743L204.561 261.237C205.094 261.559 205.262 262.247 204.954 262.794C204.743 263.145 204.365 263.341 203.986 263.341H203.972ZM425.087 262.569C425.087 262.569 425.017 262.569 424.989 262.569C424.4 262.527 423.951 262.022 423.951 261.433L418.707 258.402C418.16 258.094 417.978 257.406 418.286 256.859C418.595 256.312 419.282 256.13 419.829 256.438L425.69 259.82C426.069 260.044 426.279 260.451 426.251 260.886L426.195 261.531C426.153 262.12 425.648 262.569 425.073 262.569H425.087ZM192.376 256.354C192.179 256.354 191.983 256.298 191.787 256.2L185.982 252.706C185.449 252.383 185.281 251.696 185.589 251.149C185.912 250.616 186.599 250.447 187.146 250.756L192.951 254.25C193.484 254.572 193.652 255.26 193.343 255.807C193.133 256.158 192.754 256.354 192.376 256.354ZM413.407 255.161C413.21 255.161 413.028 255.119 412.846 255.007L406.971 251.626C406.424 251.317 406.241 250.63 406.55 250.083C406.858 249.535 407.56 249.353 408.092 249.662L413.968 253.043C414.514 253.352 414.697 254.039 414.388 254.586C414.178 254.951 413.799 255.147 413.407 255.147V255.161ZM189.333 248.581C189.024 248.581 188.716 248.455 188.492 248.202C188.071 247.739 188.113 247.024 188.576 246.603C190.272 245.074 191.913 243.544 193.512 242.015C193.96 241.58 194.675 241.594 195.11 242.057C195.545 242.506 195.531 243.222 195.068 243.657C193.455 245.2 191.787 246.743 190.076 248.287C189.866 248.483 189.585 248.581 189.319 248.581H189.333ZM401.67 248.399C401.474 248.399 401.278 248.357 401.109 248.245L395.248 244.863C394.701 244.555 394.519 243.867 394.827 243.32C395.136 242.773 395.823 242.59 396.37 242.899L402.231 246.28C402.778 246.589 402.96 247.276 402.652 247.824C402.441 248.188 402.063 248.385 401.67 248.385V248.399ZM389.934 241.636C389.737 241.636 389.541 241.594 389.373 241.482L383.512 238.101C382.965 237.792 382.782 237.105 383.091 236.557C383.399 236.01 384.1 235.828 384.633 236.136L390.495 239.518C391.041 239.826 391.224 240.514 390.915 241.061C390.705 241.426 390.326 241.622 389.934 241.622V241.636ZM199.12 239.223C198.84 239.223 198.546 239.111 198.321 238.9C197.872 238.465 197.872 237.75 198.321 237.301C199.92 235.673 201.476 234.06 202.977 232.432C203.397 231.969 204.112 231.955 204.575 232.376C205.038 232.797 205.066 233.513 204.631 233.976C203.117 235.617 201.546 237.259 199.934 238.9C199.709 239.125 199.429 239.237 199.134 239.237L199.12 239.223ZM378.197 234.874C378.001 234.874 377.805 234.832 377.636 234.719L371.775 231.338C371.228 231.029 371.046 230.342 371.354 229.795C371.663 229.248 372.35 229.065 372.897 229.374L378.758 232.755C379.305 233.064 379.487 233.751 379.179 234.298C378.968 234.663 378.59 234.86 378.197 234.86V234.874ZM208.305 229.276C208.039 229.276 207.786 229.191 207.562 229.009C207.085 228.602 207.043 227.887 207.45 227.424C208.936 225.698 210.366 223.972 211.74 222.246C212.133 221.755 212.848 221.685 213.325 222.064C213.816 222.457 213.9 223.158 213.507 223.65C212.119 225.403 210.661 227.143 209.16 228.897C208.936 229.163 208.613 229.29 208.305 229.29V229.276ZM366.461 228.111C366.264 228.111 366.068 228.069 365.9 227.957L360.038 224.576C359.492 224.267 359.309 223.579 359.618 223.032C359.926 222.485 360.613 222.303 361.16 222.611L367.022 225.993C367.568 226.301 367.751 226.989 367.442 227.536C367.232 227.901 366.853 228.097 366.461 228.097V228.111ZM354.724 221.349C354.528 221.349 354.331 221.306 354.163 221.194L348.288 217.813C347.741 217.504 347.559 216.817 347.867 216.27C348.176 215.722 348.877 215.54 349.41 215.849L355.285 219.23C355.832 219.539 356.014 220.226 355.706 220.773C355.495 221.138 355.117 221.335 354.724 221.335V221.349ZM216.732 218.697C216.494 218.697 216.27 218.627 216.059 218.472C215.554 218.108 215.442 217.392 215.821 216.887C217.167 215.049 218.457 213.225 219.691 211.387C220.041 210.868 220.743 210.742 221.261 211.078C221.78 211.429 221.92 212.131 221.57 212.65C220.322 214.516 219.018 216.368 217.658 218.234C217.433 218.542 217.097 218.697 216.746 218.697H216.732ZM342.988 214.586C342.791 214.586 342.595 214.544 342.427 214.432L336.565 211.05C336.019 210.742 335.836 210.054 336.145 209.507C336.453 208.96 337.14 208.777 337.687 209.086L343.548 212.467C344.095 212.776 344.278 213.464 343.969 214.011C343.759 214.376 343.38 214.572 342.988 214.572V214.586ZM331.251 207.823C331.055 207.823 330.858 207.781 330.69 207.669L324.829 204.288C324.282 203.979 324.1 203.292 324.408 202.744C324.717 202.197 325.404 202.015 325.951 202.324L331.812 205.705C332.359 206.013 332.541 206.701 332.233 207.248C332.022 207.613 331.644 207.809 331.251 207.809V207.823ZM224.276 207.445C224.08 207.445 223.869 207.388 223.687 207.276C223.154 206.953 222.986 206.252 223.309 205.719C224.472 203.797 225.608 201.832 226.66 199.896C226.954 199.349 227.641 199.153 228.188 199.447C228.735 199.742 228.931 200.429 228.637 200.977C227.557 202.941 226.422 204.933 225.23 206.897C225.019 207.248 224.641 207.445 224.262 207.445H224.276ZM319.515 201.075C319.318 201.075 319.122 201.033 318.954 200.92L313.092 197.539C312.545 197.231 312.363 196.543 312.672 195.996C312.98 195.449 313.681 195.266 314.214 195.575L320.075 198.956C320.622 199.265 320.805 199.952 320.496 200.5C320.286 200.864 319.907 201.061 319.515 201.061V201.075ZM230.754 195.547C230.586 195.547 230.418 195.505 230.264 195.435C229.703 195.168 229.464 194.481 229.745 193.919C230.712 191.913 231.652 189.851 232.535 187.802C232.774 187.227 233.447 186.96 234.022 187.213C234.596 187.465 234.863 188.125 234.61 188.7C233.727 190.777 232.774 192.867 231.778 194.916C231.582 195.322 231.175 195.547 230.768 195.547H230.754ZM307.778 194.312C307.582 194.312 307.385 194.27 307.217 194.158L301.356 190.777C300.809 190.468 300.627 189.78 300.935 189.233C301.244 188.686 301.931 188.504 302.478 188.812L308.339 192.194C308.886 192.502 309.068 193.19 308.76 193.737C308.549 194.102 308.171 194.298 307.778 194.298V194.312ZM296.041 187.55C295.845 187.55 295.649 187.508 295.481 187.395L289.605 184.014C289.058 183.705 288.876 183.018 289.185 182.471C289.493 181.923 290.194 181.741 290.727 182.05L296.602 185.431C297.149 185.74 297.331 186.427 297.023 186.974C296.813 187.339 296.434 187.536 296.041 187.536V187.55ZM236.069 183.102C235.943 183.102 235.802 183.074 235.676 183.032C235.087 182.821 234.793 182.162 235.017 181.587C235.788 179.51 236.517 177.378 237.205 175.231C237.401 174.642 238.032 174.305 238.621 174.502C239.21 174.698 239.546 175.329 239.35 175.919C238.649 178.093 237.906 180.268 237.12 182.372C236.952 182.821 236.517 183.116 236.069 183.116V183.102ZM284.305 180.787C284.109 180.787 283.912 180.745 283.744 180.633L277.883 177.251C277.336 176.943 277.154 176.255 277.462 175.708C277.771 175.161 278.458 174.979 279.005 175.287L284.866 178.668C285.413 178.977 285.595 179.665 285.286 180.212C285.076 180.577 284.698 180.773 284.305 180.773V180.787ZM272.568 174.024C272.372 174.024 272.176 173.982 272.008 173.87L266.146 170.489C265.599 170.18 265.417 169.493 265.726 168.946C266.034 168.398 266.721 168.216 267.268 168.525L273.129 171.906C273.676 172.215 273.858 172.902 273.55 173.449C273.34 173.814 272.961 174.01 272.568 174.01V174.024ZM240.191 170.208C240.093 170.208 239.995 170.208 239.897 170.166C239.294 169.998 238.943 169.38 239.098 168.777C239.686 166.616 240.219 164.442 240.71 162.253C240.85 161.65 241.439 161.271 242.056 161.397C242.659 161.538 243.052 162.141 242.912 162.744C242.407 164.961 241.86 167.178 241.271 169.366C241.131 169.872 240.682 170.208 240.177 170.208H240.191ZM260.832 167.262C260.636 167.262 260.439 167.22 260.271 167.108L254.41 163.726C253.863 163.418 253.681 162.73 253.989 162.183C254.298 161.636 254.985 161.453 255.531 161.762L261.393 165.143C261.94 165.452 262.122 166.139 261.813 166.687C261.603 167.051 261.224 167.248 260.832 167.248V167.262ZM249.095 160.499C248.899 160.499 248.703 160.457 248.534 160.345L242.673 156.964C242.126 156.655 241.944 155.968 242.253 155.42C242.561 154.873 243.248 154.691 243.795 154.999L249.656 158.381C250.203 158.689 250.385 159.377 250.077 159.924C249.867 160.289 249.488 160.485 249.095 160.485V160.499Z" fill="#B086CC"/>
<path d="M103.742 361.749C103.546 361.749 103.349 361.693 103.181 361.595L97.3197 358.214C96.7728 357.905 96.5905 357.218 96.913 356.67C97.2215 356.123 97.9226 355.941 98.4555 356.264L103.756 359.322L106.462 357.751C106.995 357.442 107.682 357.624 108.005 358.158C108.313 358.705 108.131 359.392 107.598 359.701L104.317 361.595C104.148 361.693 103.952 361.749 103.756 361.749H103.742ZM112.884 356.46C112.492 356.46 112.113 356.264 111.903 355.899C111.594 355.352 111.777 354.664 112.309 354.355L118.171 350.974C118.703 350.665 119.405 350.848 119.713 351.381C120.022 351.928 119.839 352.616 119.306 352.924L113.445 356.306C113.263 356.404 113.067 356.46 112.884 356.46ZM92.0193 354.973C91.823 354.973 91.6267 354.931 91.4584 354.818L85.5972 351.437C85.0503 351.128 84.868 350.441 85.1905 349.894C85.499 349.361 86.2001 349.164 86.733 349.487L92.5942 352.868C93.1411 353.177 93.3234 353.864 93.0009 354.412C92.7905 354.776 92.4119 354.973 92.0193 354.973ZM124.607 349.683C124.214 349.683 123.836 349.487 123.625 349.122C123.317 348.575 123.499 347.887 124.032 347.579L129.893 344.197C130.426 343.875 131.127 344.071 131.436 344.604C131.744 345.152 131.562 345.839 131.029 346.148L125.168 349.529C124.985 349.627 124.789 349.683 124.607 349.683ZM80.2828 348.196C80.0865 348.196 79.8902 348.154 79.7219 348.042L73.8607 344.66C73.3138 344.352 73.1315 343.664 73.454 343.117C73.7625 342.57 74.4636 342.388 74.9964 342.71L80.8577 346.092C81.4046 346.4 81.5868 347.088 81.2643 347.635C81.054 348 80.6754 348.196 80.2828 348.196ZM136.343 342.921C135.951 342.921 135.572 342.724 135.362 342.36C135.053 341.812 135.236 341.125 135.768 340.816L141.63 337.435C142.177 337.126 142.864 337.309 143.172 337.842C143.481 338.389 143.298 339.076 142.765 339.385L136.904 342.766C136.722 342.865 136.526 342.921 136.343 342.921ZM68.5603 341.419C68.364 341.419 68.1677 341.377 67.9994 341.265L62.1381 337.884C61.5913 337.575 61.409 336.888 61.7315 336.341C62.04 335.793 62.7271 335.611 63.2739 335.934L69.1352 339.315C69.6821 339.624 69.8643 340.311 69.5418 340.858C69.3315 341.223 68.9529 341.419 68.5603 341.419ZM148.066 336.144C147.673 336.144 147.295 335.948 147.084 335.583C146.776 335.036 146.958 334.348 147.491 334.04L153.352 330.658C153.885 330.35 154.586 330.532 154.895 331.065C155.203 331.612 155.021 332.3 154.488 332.608L148.627 335.99C148.444 336.088 148.248 336.144 148.066 336.144ZM56.8237 334.643C56.6274 334.643 56.4311 334.601 56.2629 334.489L52.3507 332.23C52.0001 332.033 51.7898 331.654 51.7898 331.248C51.7898 330.841 52.0001 330.476 52.3507 330.265L54.2998 329.143C54.8326 328.834 55.5337 329.017 55.8422 329.55C56.1507 330.097 55.9684 330.785 55.4356 331.093L55.1691 331.248L57.3846 332.524C57.9315 332.833 58.1138 333.52 57.7913 334.068C57.5809 334.432 57.2023 334.629 56.8097 334.629L56.8237 334.643ZM148.697 329.367C148.5 329.367 148.304 329.325 148.136 329.213L142.275 325.832C141.728 325.523 141.546 324.836 141.868 324.289C142.177 323.741 142.864 323.559 143.41 323.882L149.272 327.263C149.819 327.572 150.001 328.259 149.678 328.806C149.468 329.171 149.089 329.367 148.697 329.367ZM60.7359 327.866C60.3433 327.866 59.9647 327.67 59.7544 327.305C59.4459 326.758 59.6282 326.07 60.161 325.762L66.0223 322.38C66.5551 322.072 67.2562 322.254 67.5647 322.787C67.8732 323.334 67.6909 324.022 67.1581 324.331L61.2968 327.712C61.1145 327.81 60.9182 327.866 60.7359 327.866ZM136.974 322.591C136.778 322.591 136.582 322.549 136.413 322.437L130.552 319.055C130.005 318.747 129.823 318.059 130.146 317.512C130.454 316.965 131.155 316.782 131.688 317.105L137.549 320.486C138.096 320.795 138.278 321.483 137.956 322.03C137.746 322.394 137.367 322.591 136.974 322.591ZM72.4725 321.09C72.0798 321.09 71.7012 320.893 71.4909 320.528C71.1824 319.981 71.3647 319.294 71.8975 318.985L77.7588 315.604C78.2916 315.295 78.9928 315.478 79.3012 316.011C79.6097 316.558 79.4274 317.245 78.8946 317.554L73.0333 320.935C72.8511 321.034 72.6547 321.09 72.4725 321.09ZM125.238 315.814C125.041 315.814 124.845 315.772 124.677 315.66L118.816 312.279C118.269 311.97 118.086 311.282 118.409 310.735C118.717 310.202 119.405 310.006 119.951 310.328L125.813 313.71C126.36 314.018 126.542 314.706 126.219 315.253C126.009 315.618 125.63 315.814 125.238 315.814ZM84.195 314.313C83.8023 314.313 83.4237 314.117 83.2134 313.752C82.9049 313.205 83.0872 312.517 83.6201 312.209L89.4813 308.827C90.0142 308.519 90.7153 308.701 91.0237 309.234C91.3322 309.781 91.1499 310.469 90.6171 310.777L84.7559 314.159C84.5736 314.257 84.3773 314.313 84.195 314.313ZM113.515 309.038C113.319 309.038 113.123 308.996 112.954 308.883L107.093 305.502C106.546 305.193 106.364 304.506 106.686 303.959C106.995 303.412 107.696 303.229 108.229 303.552L114.09 306.933C114.637 307.242 114.819 307.929 114.497 308.476C114.286 308.841 113.908 309.038 113.515 309.038ZM95.9175 307.536C95.5249 307.536 95.1463 307.34 94.9359 306.975C94.6274 306.428 94.8097 305.741 95.3426 305.432L101.204 302.051C101.737 301.742 102.438 301.924 102.746 302.457C103.055 303.005 102.872 303.692 102.34 304.001L96.4784 307.382C96.2961 307.48 96.0998 307.536 95.9175 307.536Z" fill="#B086CC"/>
<path d="M179.125 464.872C178.928 464.872 178.732 464.83 178.564 464.717L172.703 461.336C172.156 461.027 171.973 460.34 172.296 459.793C172.604 459.26 173.306 459.063 173.838 459.386L179.7 462.767C180.247 463.076 180.429 463.763 180.106 464.311C179.896 464.675 179.517 464.872 179.125 464.872ZM184.383 461.869C183.99 461.869 183.612 461.659 183.402 461.294C183.093 460.747 183.275 460.059 183.822 459.751L189.697 456.383C190.23 456.075 190.931 456.257 191.24 456.804C191.548 457.352 191.366 458.039 190.819 458.348L184.944 461.715C184.762 461.813 184.579 461.869 184.383 461.869ZM167.402 458.109C167.206 458.109 167.01 458.067 166.841 457.955L160.98 454.574C160.433 454.265 160.251 453.577 160.573 453.03C160.882 452.483 161.569 452.301 162.116 452.623L167.977 456.005C168.524 456.313 168.706 457.001 168.384 457.548C168.173 457.913 167.795 458.109 167.402 458.109ZM196.148 455.149C195.755 455.149 195.376 454.938 195.166 454.574C194.858 454.026 195.04 453.339 195.587 453.03L201.462 449.663C201.995 449.354 202.696 449.537 203.004 450.084C203.313 450.631 203.131 451.319 202.584 451.627L196.709 454.994C196.526 455.093 196.344 455.149 196.148 455.149ZM155.666 451.333C155.469 451.333 155.273 451.29 155.105 451.178L149.244 447.797C148.697 447.488 148.514 446.801 148.837 446.254C149.145 445.72 149.847 445.524 150.379 445.847L156.241 449.228C156.787 449.537 156.97 450.224 156.647 450.771C156.437 451.136 156.058 451.333 155.666 451.333ZM207.898 448.428C207.506 448.428 207.127 448.218 206.917 447.853C206.608 447.306 206.79 446.618 207.337 446.31L213.213 442.942C213.745 442.634 214.433 442.816 214.755 443.363C215.064 443.911 214.881 444.598 214.334 444.907L208.459 448.274C208.277 448.372 208.094 448.428 207.898 448.428ZM143.943 444.556C143.747 444.556 143.551 444.514 143.382 444.402L137.521 441.02C136.974 440.712 136.792 440.024 137.114 439.477C137.423 438.944 138.124 438.747 138.657 439.07L144.518 442.451C145.065 442.76 145.247 443.448 144.925 443.995C144.714 444.36 144.336 444.556 143.943 444.556ZM217.602 441.694C217.405 441.694 217.209 441.652 217.041 441.539L211.179 438.158C210.632 437.849 210.45 437.162 210.773 436.615C211.081 436.068 211.768 435.885 212.315 436.208L218.176 439.589C218.723 439.898 218.906 440.585 218.583 441.133C218.373 441.497 217.994 441.694 217.602 441.694ZM132.207 437.779C132.01 437.779 131.814 437.737 131.646 437.625L125.785 434.244C125.238 433.935 125.055 433.248 125.378 432.7C125.686 432.153 126.373 431.971 126.92 432.293L132.782 435.675C133.328 435.983 133.511 436.671 133.188 437.218C132.978 437.583 132.599 437.779 132.207 437.779ZM205.865 434.917C205.669 434.917 205.472 434.875 205.304 434.763L199.443 431.382C198.896 431.073 198.714 430.385 199.036 429.838C199.345 429.291 200.032 429.109 200.579 429.431L206.44 432.813C206.987 433.121 207.169 433.809 206.847 434.356C206.636 434.721 206.258 434.917 205.865 434.917ZM120.484 431.003C120.288 431.003 120.092 430.961 119.923 430.848L114.062 427.467C113.515 427.158 113.333 426.471 113.655 425.924C113.964 425.391 114.665 425.194 115.198 425.517L121.059 428.898C121.606 429.207 121.788 429.894 121.466 430.441C121.255 430.806 120.877 431.003 120.484 431.003ZM194.142 428.155C193.946 428.155 193.75 428.112 193.582 428L187.72 424.619C187.173 424.31 186.991 423.623 187.314 423.076C187.622 422.528 188.323 422.346 188.856 422.669L194.717 426.05C195.264 426.359 195.447 427.046 195.124 427.593C194.914 427.958 194.535 428.155 194.142 428.155ZM108.762 424.226C108.565 424.226 108.369 424.184 108.201 424.072L102.34 420.69C101.793 420.382 101.61 419.694 101.933 419.147C102.241 418.6 102.942 418.418 103.475 418.74L109.337 422.122C109.883 422.43 110.066 423.118 109.743 423.665C109.533 424.03 109.154 424.226 108.762 424.226ZM182.406 421.378C182.21 421.378 182.013 421.336 181.845 421.224L175.984 417.842C175.437 417.534 175.255 416.832 175.577 416.299C175.886 415.752 176.573 415.569 177.12 415.892L182.981 419.273C183.528 419.582 183.71 420.27 183.388 420.817C183.177 421.182 182.799 421.378 182.406 421.378ZM97.0251 417.463C96.8288 417.463 96.6325 417.421 96.4642 417.309L90.603 413.928C90.0561 413.619 89.8738 412.932 90.1963 412.385C90.5048 411.851 91.206 411.655 91.7388 411.978L97.6 415.359C98.1469 415.668 98.3292 416.355 98.0067 416.902C97.7964 417.267 97.4178 417.463 97.0251 417.463ZM170.683 414.601C170.487 414.601 170.291 414.559 170.123 414.447L164.261 411.066C163.714 410.757 163.532 410.07 163.855 409.522C164.163 408.975 164.864 408.793 165.397 409.115L171.258 412.497C171.805 412.805 171.987 413.493 171.665 414.04C171.455 414.405 171.076 414.601 170.683 414.601ZM85.3026 410.687C85.1063 410.687 84.91 410.645 84.7417 410.533L78.8805 407.151C78.3336 406.843 78.1513 406.155 78.4739 405.608C78.7823 405.061 79.4694 404.878 80.0163 405.201L85.8775 408.582C86.4244 408.891 86.6067 409.578 86.2842 410.126C86.0739 410.49 85.6952 410.687 85.3026 410.687ZM158.961 407.825C158.765 407.825 158.568 407.783 158.4 407.67L152.539 404.289C151.992 403.98 151.81 403.279 152.118 402.746C152.427 402.199 153.114 402.016 153.661 402.325L159.522 405.706C160.069 406.015 160.251 406.702 159.942 407.249C159.732 407.614 159.354 407.811 158.961 407.811V407.825ZM73.5661 403.91C73.3698 403.91 73.1735 403.868 73.0052 403.756L67.144 400.375C66.5971 400.066 66.4148 399.378 66.7373 398.831C67.0458 398.284 67.7469 398.102 68.2797 398.424L74.141 401.806C74.6879 402.114 74.8702 402.802 74.5476 403.349C74.3373 403.714 73.9587 403.91 73.5661 403.91ZM147.224 401.048C147.028 401.048 146.832 401.006 146.664 400.894L140.802 397.512C140.255 397.204 140.073 396.516 140.396 395.969C140.704 395.422 141.405 395.24 141.938 395.562L147.799 398.944C148.346 399.252 148.528 399.94 148.206 400.487C147.996 400.852 147.617 401.048 147.224 401.048ZM61.8436 397.134C61.6473 397.134 61.451 397.092 61.2827 396.979L55.4215 393.598C54.8746 393.289 54.6923 392.602 55.0148 392.055C55.3233 391.508 56.0244 391.325 56.5572 391.648L62.4185 395.029C62.9654 395.338 63.1476 396.025 62.8251 396.572C62.6148 396.937 62.2362 397.134 61.8436 397.134ZM135.502 394.286C135.306 394.286 135.109 394.243 134.941 394.131L129.08 390.75C128.533 390.441 128.351 389.754 128.673 389.207C128.982 388.659 129.683 388.477 130.216 388.8L136.077 392.181C136.624 392.49 136.806 393.177 136.483 393.724C136.273 394.089 135.894 394.286 135.502 394.286ZM50.1071 390.357C49.9107 390.357 49.7144 390.315 49.5462 390.203L43.6849 386.821C43.1381 386.513 42.9558 385.825 43.2783 385.278C43.5868 384.731 44.2879 384.548 44.8207 384.871L50.682 388.252C51.2288 388.561 51.4111 389.249 51.0886 389.796C50.8783 390.161 50.4997 390.357 50.1071 390.357ZM123.765 387.509C123.569 387.509 123.373 387.467 123.204 387.355L117.343 383.973C116.796 383.665 116.614 382.977 116.937 382.43C117.245 381.883 117.946 381.7 118.479 382.023L124.34 385.404C124.887 385.713 125.069 386.4 124.747 386.948C124.537 387.312 124.158 387.509 123.765 387.509ZM38.3845 383.58C38.1882 383.58 37.9919 383.538 37.8237 383.426L31.9624 380.045C31.4155 379.736 31.2333 379.049 31.5558 378.501C31.8643 377.954 32.5654 377.772 33.0982 378.095L38.9595 381.476C39.5063 381.785 39.6886 382.472 39.3661 383.019C39.1558 383.384 38.7772 383.58 38.3845 383.58ZM112.043 380.732C111.847 380.732 111.65 380.69 111.482 380.578L105.621 377.197C105.074 376.888 104.892 376.201 105.214 375.653C105.523 375.106 106.21 374.924 106.756 375.246L112.618 378.628C113.165 378.936 113.347 379.624 113.024 380.171C112.814 380.536 112.435 380.732 112.043 380.732ZM26.648 376.818C26.4517 376.818 26.2554 376.776 26.0871 376.664L20.2259 373.282C19.679 372.974 19.4967 372.286 19.8192 371.739C20.1277 371.192 20.8288 371.009 21.3617 371.332L27.2229 374.713C27.7698 375.022 27.9521 375.709 27.6296 376.257C27.4192 376.621 27.0406 376.818 26.648 376.818ZM100.306 373.956C100.11 373.956 99.9137 373.914 99.7454 373.801L93.8842 370.42C93.3373 370.111 93.155 369.424 93.4775 368.877C93.786 368.33 94.4731 368.147 95.02 368.47L100.881 371.851C101.428 372.16 101.61 372.847 101.288 373.394C101.078 373.759 100.699 373.956 100.306 373.956ZM14.9255 370.041C14.7292 370.041 14.5329 369.999 14.3646 369.887L8.50337 366.506C7.95651 366.197 7.77422 365.509 8.09673 364.962C8.40522 364.415 9.0923 364.233 9.63916 364.555L15.5004 367.937C16.0473 368.245 16.2296 368.933 15.9071 369.48C15.6967 369.845 15.3181 370.041 14.9255 370.041ZM88.5838 367.179C88.3875 367.179 88.1912 367.137 88.0229 367.025L82.1617 363.643C81.6148 363.335 81.4325 362.633 81.741 362.1C82.0495 361.553 82.7366 361.371 83.2834 361.693L89.1447 365.074C89.6916 365.383 89.8738 366.071 89.5513 366.618C89.341 366.983 88.9624 367.179 88.5698 367.179H88.5838ZM3.203 363.265C3.00669 363.265 2.81038 363.223 2.64212 363.11L1.29599 362.339C0.945436 362.142 0.735107 361.763 0.735107 361.356C0.735107 360.95 0.959461 360.585 1.31001 360.374L5.85319 357.779C6.38603 357.47 7.08714 357.652 7.39562 358.2C7.70411 358.747 7.52182 359.434 6.97496 359.743L4.07237 361.399C4.36684 361.749 4.43695 362.268 4.18455 362.689C3.97422 363.054 3.59562 363.251 3.203 363.251V363.265ZM76.8613 360.416C76.665 360.416 76.4687 360.374 76.3004 360.262L70.4392 356.881C69.8923 356.572 69.71 355.885 70.0325 355.337C70.341 354.804 71.0421 354.608 71.575 354.931L77.4362 358.312C77.9831 358.621 78.1654 359.308 77.8428 359.855C77.6325 360.22 77.2539 360.416 76.8613 360.416ZM12.2753 356.53C11.8827 356.53 11.5041 356.32 11.2938 355.955C10.9853 355.408 11.1816 354.72 11.7144 354.411L17.5897 351.044C18.1226 350.736 18.8237 350.918 19.1322 351.465C19.4406 352.012 19.2443 352.7 18.7115 353.008L12.8362 356.376C12.6539 356.474 12.4716 356.53 12.2753 356.53ZM65.1248 353.64C64.9285 353.64 64.7321 353.598 64.5639 353.485L58.7026 350.104C58.1558 349.796 57.9735 349.108 58.296 348.561C58.6045 348.014 59.2916 347.831 59.8384 348.154L65.6997 351.535C66.2465 351.844 66.4288 352.531 66.1063 353.079C65.896 353.443 65.5174 353.64 65.1248 353.64ZM24.0259 349.81C23.6333 349.81 23.2547 349.599 23.0443 349.234C22.7358 348.687 22.9181 348 23.465 347.691L29.3403 344.324C29.8731 344.015 30.5742 344.197 30.8827 344.745C31.1912 345.292 31.0089 345.979 30.462 346.288L24.5868 349.655C24.4045 349.753 24.2222 349.81 24.0259 349.81ZM53.4023 346.863C53.2059 346.863 53.0096 346.821 52.8414 346.709L46.9801 343.328C46.4333 343.019 46.251 342.331 46.5735 341.784C46.882 341.251 47.5831 341.055 48.1159 341.377L53.9772 344.759C54.524 345.067 54.7063 345.755 54.3838 346.302C54.1735 346.667 53.7949 346.863 53.4023 346.863ZM35.7905 343.089C35.3978 343.089 35.0192 342.879 34.8089 342.514C34.5004 341.967 34.6827 341.279 35.2296 340.971L40.7964 337.786C41.1469 337.589 41.5676 337.589 41.9181 337.786L42.2266 337.968C42.7735 338.277 42.9558 338.964 42.6473 339.511C42.3949 339.96 41.8761 340.157 41.3993 340.045L36.3513 342.935C36.1691 343.033 35.9868 343.089 35.7905 343.089Z" fill="#B086CC"/>
<path d="M168.061 399.379C167.865 399.379 167.669 399.323 167.5 399.224L161.639 395.843C161.092 395.534 160.91 394.847 161.233 394.3C161.541 393.752 162.242 393.57 162.775 393.893L168.075 396.951L170.782 395.38C171.314 395.057 172.002 395.254 172.324 395.787C172.633 396.334 172.45 397.022 171.917 397.33L168.636 399.224C168.468 399.323 168.272 399.379 168.075 399.379H168.061ZM177.218 394.103C176.825 394.103 176.447 393.907 176.236 393.542C175.928 392.995 176.11 392.307 176.643 391.999L182.504 388.617C183.037 388.309 183.738 388.491 184.047 389.024C184.355 389.571 184.173 390.259 183.64 390.568L177.779 393.949C177.596 394.047 177.4 394.103 177.218 394.103ZM156.339 392.602C156.142 392.602 155.946 392.56 155.778 392.448L149.917 389.066C149.37 388.758 149.187 388.07 149.51 387.523C149.818 386.976 150.52 386.793 151.052 387.116L156.914 390.497C157.461 390.806 157.643 391.494 157.32 392.041C157.11 392.406 156.731 392.602 156.339 392.602ZM188.94 387.327C188.548 387.327 188.169 387.13 187.959 386.765C187.65 386.218 187.833 385.531 188.365 385.222L194.227 381.841C194.759 381.532 195.461 381.715 195.769 382.248C196.078 382.795 195.895 383.482 195.362 383.791L189.501 387.172C189.319 387.271 189.123 387.327 188.94 387.327ZM144.616 385.825C144.42 385.825 144.224 385.783 144.055 385.671L138.194 382.29C137.647 381.981 137.465 381.294 137.787 380.746C138.096 380.199 138.797 380.017 139.33 380.34L145.191 383.721C145.738 384.03 145.92 384.717 145.598 385.264C145.388 385.629 145.009 385.825 144.616 385.825ZM200.663 380.55C200.27 380.55 199.892 380.354 199.681 379.989C199.373 379.442 199.555 378.754 200.088 378.445L205.949 375.064C206.496 374.756 207.183 374.938 207.492 375.471C207.8 376.018 207.618 376.706 207.085 377.014L201.224 380.396C201.041 380.494 200.845 380.55 200.663 380.55ZM132.88 379.063C132.683 379.063 132.487 379.021 132.319 378.908L126.458 375.527C125.911 375.218 125.728 374.531 126.051 373.984C126.359 373.451 127.061 373.254 127.593 373.577L133.455 376.958C134.002 377.267 134.184 377.954 133.861 378.502C133.651 378.866 133.272 379.063 132.88 379.063ZM212.399 373.773C212.007 373.773 211.628 373.577 211.418 373.212C211.109 372.665 211.292 371.978 211.824 371.669L217.686 368.288C218.218 367.965 218.92 368.161 219.228 368.694C219.537 369.242 219.354 369.929 218.821 370.238L212.96 373.619C212.778 373.717 212.582 373.773 212.399 373.773ZM121.157 372.286C120.961 372.286 120.765 372.244 120.596 372.132L116.684 369.873C116.334 369.677 116.123 369.298 116.123 368.891C116.123 368.484 116.334 368.119 116.684 367.909L118.633 366.786C119.166 366.478 119.867 366.66 120.176 367.193C120.484 367.74 120.302 368.428 119.769 368.737L119.503 368.891L121.718 370.168C122.265 370.476 122.447 371.164 122.125 371.711C121.914 372.076 121.536 372.272 121.143 372.272L121.157 372.286ZM213.03 366.997C212.834 366.997 212.638 366.955 212.469 366.842L206.608 363.461C206.061 363.153 205.879 362.465 206.202 361.918C206.51 361.371 207.211 361.188 207.744 361.511L213.605 364.892C214.152 365.201 214.334 365.888 214.012 366.436C213.802 366.8 213.423 366.997 213.03 366.997ZM125.069 365.51C124.677 365.51 124.298 365.313 124.088 364.948C123.779 364.401 123.962 363.714 124.495 363.405L130.356 360.024C130.889 359.701 131.59 359.897 131.898 360.431C132.207 360.978 132.024 361.665 131.492 361.974L125.63 365.355C125.448 365.453 125.252 365.51 125.069 365.51ZM201.294 360.22C201.097 360.22 200.901 360.178 200.733 360.066L194.872 356.685C194.325 356.376 194.142 355.688 194.465 355.141C194.773 354.594 195.475 354.412 196.007 354.734L201.869 358.116C202.416 358.424 202.598 359.112 202.275 359.659C202.065 360.024 201.686 360.22 201.294 360.22ZM136.792 358.733C136.399 358.733 136.021 358.537 135.81 358.172C135.502 357.625 135.684 356.937 136.217 356.628L142.078 353.247C142.611 352.938 143.312 353.121 143.621 353.654C143.929 354.201 143.747 354.889 143.214 355.197L137.353 358.579C137.171 358.677 136.974 358.733 136.792 358.733ZM189.571 353.458C189.375 353.458 189.179 353.415 189.01 353.303L183.149 349.922C182.602 349.613 182.42 348.926 182.742 348.379C183.051 347.831 183.738 347.649 184.285 347.972L190.146 351.353C190.693 351.662 190.875 352.349 190.553 352.896C190.342 353.261 189.964 353.458 189.571 353.458ZM148.514 351.956C148.122 351.956 147.743 351.76 147.533 351.395C147.224 350.848 147.407 350.16 147.94 349.852L153.801 346.47C154.334 346.162 155.035 346.344 155.343 346.877C155.652 347.425 155.469 348.112 154.937 348.421L149.075 351.802C148.893 351.9 148.697 351.956 148.514 351.956ZM177.835 346.681C177.638 346.681 177.442 346.639 177.274 346.527L171.413 343.145C170.866 342.837 170.683 342.149 171.006 341.602C171.314 341.055 172.016 340.872 172.548 341.195L178.41 344.576C178.957 344.885 179.139 345.573 178.816 346.12C178.606 346.485 178.227 346.681 177.835 346.681ZM160.251 345.18C159.858 345.18 159.48 344.983 159.269 344.618C158.961 344.071 159.143 343.384 159.676 343.075L165.537 339.694C166.07 339.385 166.771 339.568 167.08 340.101C167.388 340.648 167.206 341.335 166.673 341.644L160.812 345.025C160.63 345.124 160.433 345.18 160.251 345.18Z" fill="#B086CC"/>
<path d="M230.516 435.52C230.32 435.52 230.123 435.464 229.955 435.366L224.094 431.985C223.547 431.676 223.365 430.989 223.687 430.442C223.996 429.894 224.683 429.712 225.23 430.035L230.53 433.093L233.236 431.522C233.783 431.213 234.47 431.396 234.779 431.929C235.087 432.476 234.905 433.163 234.372 433.472L231.091 435.366C230.923 435.464 230.726 435.52 230.53 435.52H230.516ZM239.658 430.231C239.266 430.231 238.887 430.035 238.677 429.67C238.368 429.123 238.551 428.435 239.084 428.127L244.945 424.745C245.478 424.437 246.179 424.619 246.487 425.152C246.796 425.699 246.613 426.387 246.081 426.695L240.219 430.077C240.037 430.175 239.841 430.231 239.658 430.231ZM218.779 428.744C218.583 428.744 218.387 428.702 218.219 428.59L212.357 425.208C211.81 424.9 211.628 424.212 211.951 423.665C212.259 423.118 212.96 422.935 213.493 423.258L219.354 426.639C219.901 426.948 220.084 427.636 219.761 428.183C219.551 428.547 219.172 428.744 218.779 428.744ZM251.381 423.468C250.988 423.468 250.61 423.272 250.399 422.907C250.091 422.36 250.273 421.673 250.806 421.364L256.667 417.983C257.214 417.674 257.901 417.856 258.21 418.39C258.518 418.937 258.336 419.624 257.803 419.933L251.942 423.314C251.76 423.412 251.563 423.468 251.381 423.468ZM207.057 421.967C206.861 421.967 206.664 421.925 206.496 421.813L200.635 418.432C200.088 418.123 199.906 417.435 200.228 416.888C200.537 416.355 201.238 416.159 201.771 416.481L207.632 419.863C208.179 420.171 208.361 420.859 208.039 421.406C207.828 421.771 207.45 421.967 207.057 421.967ZM263.103 416.692C262.711 416.692 262.332 416.495 262.122 416.131C261.813 415.583 261.996 414.896 262.529 414.587L268.39 411.206C268.923 410.883 269.624 411.08 269.932 411.613C270.241 412.16 270.058 412.848 269.526 413.156L263.664 416.538C263.482 416.636 263.286 416.692 263.103 416.692ZM195.334 415.191C195.138 415.191 194.942 415.149 194.774 415.036L188.912 411.655C188.365 411.346 188.183 410.659 188.506 410.112C188.814 409.565 189.515 409.382 190.048 409.705L195.909 413.086C196.456 413.395 196.639 414.082 196.316 414.629C196.106 414.994 195.727 415.191 195.334 415.191ZM274.84 409.915C274.447 409.915 274.069 409.719 273.858 409.354C273.55 408.807 273.732 408.119 274.265 407.811L280.126 404.429C280.659 404.121 281.36 404.303 281.669 404.836C281.977 405.383 281.795 406.071 281.262 406.38L275.401 409.761C275.219 409.859 275.022 409.915 274.84 409.915ZM183.598 408.414C183.402 408.414 183.205 408.372 183.037 408.26L179.125 406.001C178.774 405.804 178.564 405.426 178.564 405.019C178.564 404.612 178.774 404.247 179.125 404.037L181.074 402.914C181.607 402.591 182.308 402.788 182.616 403.321C182.925 403.868 182.743 404.556 182.21 404.864L181.943 405.019L184.159 406.295C184.706 406.604 184.888 407.292 184.565 407.839C184.355 408.204 183.977 408.4 183.584 408.4L183.598 408.414ZM275.471 403.139C275.275 403.139 275.078 403.097 274.91 402.984L269.049 399.603C268.502 399.294 268.32 398.607 268.642 398.06C268.951 397.513 269.652 397.33 270.185 397.653L276.046 401.034C276.593 401.343 276.775 402.03 276.453 402.577C276.242 402.942 275.864 403.139 275.471 403.139ZM187.51 401.637C187.117 401.637 186.739 401.441 186.529 401.076C186.22 400.529 186.402 399.842 186.935 399.533L192.796 396.152C193.329 395.843 194.03 396.025 194.339 396.558C194.647 397.106 194.465 397.793 193.932 398.102L188.071 401.483C187.889 401.581 187.692 401.637 187.51 401.637ZM263.748 396.362C263.552 396.362 263.356 396.32 263.188 396.208L257.326 392.826C256.779 392.518 256.597 391.83 256.92 391.283C257.228 390.736 257.929 390.553 258.462 390.876L264.323 394.257C264.87 394.566 265.053 395.254 264.73 395.801C264.52 396.166 264.141 396.362 263.748 396.362ZM199.233 394.861C198.84 394.861 198.461 394.664 198.251 394.3C197.943 393.752 198.125 393.065 198.658 392.756L204.519 389.375C205.052 389.066 205.753 389.249 206.061 389.782C206.37 390.329 206.188 391.016 205.655 391.325L199.793 394.706C199.611 394.805 199.415 394.861 199.233 394.861ZM252.012 389.585C251.816 389.585 251.619 389.543 251.451 389.431L245.59 386.05C245.043 385.741 244.861 385.054 245.183 384.506C245.492 383.959 246.193 383.777 246.726 384.1L252.587 387.481C253.134 387.79 253.316 388.477 252.993 389.024C252.783 389.389 252.405 389.585 252.012 389.585ZM210.969 388.084C210.577 388.084 210.198 387.888 209.988 387.523C209.679 386.976 209.861 386.288 210.394 385.98L216.255 382.598C216.788 382.29 217.489 382.472 217.798 383.005C218.106 383.552 217.924 384.24 217.391 384.549L211.53 387.93C211.348 388.028 211.151 388.084 210.969 388.084ZM240.289 382.809C240.093 382.809 239.897 382.767 239.729 382.654L233.867 379.273C233.32 378.965 233.138 378.277 233.461 377.73C233.769 377.197 234.47 377 235.003 377.323L240.864 380.704C241.411 381.013 241.593 381.7 241.271 382.248C241.061 382.612 240.682 382.809 240.289 382.809ZM222.692 381.322C222.299 381.322 221.92 381.125 221.71 380.76C221.402 380.213 221.584 379.526 222.117 379.217L227.978 375.836C228.525 375.527 229.212 375.709 229.52 376.243C229.829 376.79 229.647 377.477 229.114 377.786L223.253 381.167C223.07 381.265 222.874 381.322 222.692 381.322Z" fill="#B086CC"/>
<path d="M335.766 190.468L330.984 190.594C330.578 190.594 330.087 189.921 330.171 189.444L331.083 183.86C331.111 183.663 331.055 183.425 330.914 183.2L327.044 176.648C326.708 176.087 326.89 175.54 327.353 175.722L332.695 177.911C332.877 177.981 333.032 177.939 333.116 177.799L335.5 173.618C335.71 173.253 336.299 173.604 336.509 174.193L338.893 181.124C338.977 181.362 339.131 181.587 339.314 181.727L344.656 185.698C345.119 186.034 345.301 186.792 344.965 186.974L341.094 189.065C340.968 189.135 340.898 189.317 340.926 189.542L341.838 196.178C341.922 196.753 341.431 196.88 341.024 196.389L336.243 190.749C336.075 190.552 335.878 190.44 335.724 190.454L335.766 190.468Z" fill="url(#paint6_linear_250_4705)"/>
<path d="M354.472 201.229L349.69 201.355C349.283 201.355 348.793 200.682 348.877 200.205L349.788 194.621C349.816 194.424 349.76 194.186 349.62 193.961L345.75 187.409C345.413 186.848 345.596 186.301 346.058 186.483L351.401 188.672C351.583 188.742 351.737 188.7 351.821 188.56L354.205 184.379C354.416 184.014 355.004 184.365 355.215 184.954L357.599 191.885C357.683 192.124 357.837 192.348 358.019 192.488L363.362 196.459C363.824 196.796 364.007 197.553 363.67 197.736L359.8 199.826C359.674 199.896 359.604 200.079 359.632 200.303L360.543 206.939C360.627 207.515 360.137 207.641 359.73 207.15L354.948 201.51C354.78 201.313 354.584 201.201 354.43 201.201L354.472 201.229Z" fill="url(#paint7_linear_250_4705)"/>
<path d="M373.177 211.976L368.396 212.103C367.989 212.103 367.498 211.429 367.582 210.952L368.494 205.368C368.522 205.172 368.466 204.933 368.326 204.709L364.455 198.157C364.119 197.595 364.301 197.048 364.764 197.231L370.106 199.419C370.289 199.489 370.443 199.447 370.527 199.307L372.911 195.126C373.121 194.761 373.71 195.112 373.92 195.701L376.304 202.632C376.388 202.871 376.542 203.095 376.725 203.236L382.067 207.206C382.53 207.543 382.712 208.3 382.376 208.483L378.506 210.573C378.379 210.643 378.309 210.826 378.337 211.05L379.249 217.687C379.333 218.262 378.842 218.388 378.435 217.897L373.654 212.257C373.486 212.061 373.289 211.948 373.135 211.948L373.177 211.976Z" fill="url(#paint8_linear_250_4705)"/>
<path d="M391.883 222.738L387.101 222.864C386.695 222.864 386.204 222.19 386.288 221.713L387.199 216.129C387.227 215.933 387.171 215.694 387.031 215.47L383.161 208.918C382.824 208.357 383.007 207.809 383.469 207.992L388.812 210.181C388.994 210.251 389.148 210.209 389.233 210.068L391.616 205.887C391.827 205.522 392.416 205.873 392.626 206.462L395.01 213.393C395.094 213.632 395.248 213.856 395.43 213.997L400.773 217.967C401.235 218.304 401.418 219.062 401.081 219.244L397.211 221.335C397.085 221.405 397.015 221.587 397.043 221.812L397.954 228.448C398.038 229.023 397.548 229.149 397.141 228.658L392.359 223.018C392.191 222.822 391.995 222.71 391.841 222.71L391.883 222.738Z" fill="url(#paint9_linear_250_4705)"/>
<path d="M410.588 233.499L405.807 233.625C405.4 233.625 404.909 232.952 404.993 232.474L405.905 226.89C405.933 226.694 405.877 226.456 405.736 226.231L401.866 219.679C401.53 219.118 401.712 218.571 402.175 218.753L407.517 220.942C407.7 221.012 407.854 220.97 407.938 220.829L410.322 216.648C410.532 216.284 411.121 216.634 411.331 217.224L413.715 224.155C413.799 224.393 413.953 224.618 414.136 224.758L419.478 228.728C419.941 229.065 420.123 229.823 419.787 230.005L415.916 232.096C415.79 232.166 415.72 232.348 415.748 232.573L416.66 239.209C416.744 239.784 416.253 239.911 415.846 239.419L411.065 233.779C410.897 233.583 410.7 233.471 410.546 233.471L410.588 233.499Z" fill="url(#paint10_linear_250_4705)"/>
<path d="M288.483 265.193L319.627 268.967L305.184 240.065C300.851 248.567 295.368 256.901 288.483 265.207V265.193Z" fill="#B086CC"/>
<path d="M205.234 344.31L210.899 341.027L199.485 334.432L193.82 337.715L205.234 344.31ZM252.811 351.199L188.814 314.229L183.149 317.512L247.146 354.482L252.811 351.199ZM230.754 330.967L236.419 327.684L216.031 315.912L210.366 319.196L230.754 330.967ZM262.038 328.441L216.171 301.952L210.506 305.235L256.373 331.725L262.038 328.441ZM143.06 308.392L188.926 334.881L194.591 331.598L148.725 305.109L143.06 308.392ZM159.62 289.872L205.486 316.361L211.151 313.078L165.285 286.589L159.62 289.872ZM297.458 376.986L257.705 354.019L252.04 357.302L291.793 380.269L297.458 376.986ZM320.258 348.042L256.261 311.072L250.596 314.355L314.593 351.325L320.258 348.042ZM251.367 308.238L205.5 281.749L199.835 285.032L245.702 311.521L251.367 308.238ZM266.931 331.276L261.266 334.559L272.68 341.153L278.345 337.87L266.931 331.276ZM266.553 373.17L215.793 343.847L210.128 347.13L260.888 376.453L266.553 373.17ZM235.648 333.801L274.377 356.179L280.042 352.896L241.313 330.518L235.648 333.801ZM279.271 358.999L320.72 382.935L326.385 379.652L284.936 355.716L279.271 358.999ZM296.672 383.089L308.563 389.964L314.228 386.681L302.337 379.806L296.672 383.089ZM143.845 302.289L123.527 290.56L117.862 293.843L138.18 305.572L143.845 302.289ZM325.151 350.862L319.486 354.145L345.035 368.905L350.7 365.622L325.151 350.862ZM333.985 370.013L283.225 340.69L277.56 343.973L328.32 373.296L333.985 370.013ZM200.607 278.915L172.142 262.471L166.477 265.754L194.942 282.198L200.607 278.915ZM183.92 311.395L135.684 283.531L130.019 286.814L178.255 314.678L183.92 311.395ZM160.405 283.769L147.841 276.501L142.176 279.785L154.74 287.052L160.405 283.769ZM211.278 299.132L159.985 269.5L154.32 272.783L205.613 302.415L211.278 299.132Z" fill="url(#paint11_linear_250_4705)"/>
<path d="M153.464 495.668C153.268 495.668 153.072 495.612 152.889 495.514L150.968 494.391C150.435 494.083 150.253 493.381 150.562 492.848C150.87 492.301 151.571 492.119 152.104 492.441L153.464 493.241C155.287 492.189 156.928 491.122 158.484 489.986C158.989 489.621 159.69 489.719 160.069 490.224C160.433 490.73 160.335 491.431 159.83 491.81C158.049 493.129 156.142 494.335 154.025 495.542C153.857 495.64 153.661 495.682 153.478 495.682L153.464 495.668ZM145.682 491.122C145.486 491.122 145.289 491.08 145.107 490.968L139.26 487.559C138.727 487.25 138.545 486.549 138.853 486.015C139.162 485.468 139.863 485.286 140.396 485.609L146.243 489.018C146.776 489.327 146.958 490.028 146.649 490.561C146.439 490.926 146.061 491.122 145.682 491.122ZM164.219 487.531C163.953 487.531 163.672 487.433 163.462 487.236C162.999 486.815 162.971 486.1 163.392 485.637C164.836 484.051 166.323 482.129 167.585 480.445C167.963 479.94 168.664 479.856 169.169 480.221C169.66 480.6 169.758 481.301 169.393 481.806C168.103 483.518 166.575 485.496 165.075 487.152C164.85 487.404 164.542 487.517 164.233 487.517L164.219 487.531ZM133.987 484.29C133.791 484.29 133.595 484.248 133.413 484.135L127.565 480.726C127.032 480.417 126.85 479.716 127.159 479.183C127.467 478.635 128.168 478.453 128.701 478.776L134.548 482.185C135.081 482.494 135.263 483.195 134.955 483.729C134.745 484.093 134.366 484.29 133.987 484.29ZM122.293 477.471C122.097 477.471 121.9 477.429 121.718 477.317L115.871 473.907C115.338 473.599 115.156 472.897 115.464 472.364C115.773 471.817 116.474 471.634 117.007 471.957L122.854 475.366C123.387 475.675 123.569 476.377 123.261 476.91C123.05 477.275 122.672 477.471 122.293 477.471ZM172.464 476.854C172.268 476.854 172.086 476.812 171.903 476.699L166.028 473.346C165.481 473.037 165.299 472.35 165.607 471.803C165.916 471.256 166.617 471.073 167.15 471.382L173.025 474.735C173.572 475.044 173.754 475.731 173.446 476.278C173.235 476.643 172.857 476.854 172.464 476.854ZM110.599 470.638C110.402 470.638 110.206 470.596 110.024 470.484L104.176 467.075C103.644 466.766 103.461 466.064 103.77 465.531C104.078 464.984 104.779 464.802 105.312 465.124L111.159 468.534C111.692 468.842 111.875 469.544 111.566 470.077C111.356 470.442 110.977 470.638 110.599 470.638ZM160.7 470.147C160.503 470.147 160.321 470.105 160.139 469.993L154.263 466.64C153.717 466.331 153.534 465.644 153.843 465.096C154.151 464.549 154.852 464.367 155.385 464.675L161.261 468.029C161.807 468.337 161.99 469.025 161.681 469.572C161.471 469.937 161.092 470.147 160.7 470.147ZM98.9041 463.806C98.7078 463.806 98.5114 463.763 98.3292 463.651L92.4819 460.242C91.9491 459.933 91.7668 459.232 92.0753 458.699C92.3838 458.151 93.0849 457.969 93.6177 458.292L99.4649 461.701C99.9978 462.01 100.18 462.711 99.8716 463.244C99.6613 463.609 99.2827 463.806 98.9041 463.806ZM148.949 463.427C148.753 463.427 148.57 463.385 148.388 463.272L142.499 459.919C141.952 459.61 141.77 458.923 142.078 458.376C142.387 457.829 143.088 457.646 143.621 457.955L149.51 461.308C150.057 461.617 150.239 462.304 149.931 462.851C149.72 463.216 149.342 463.427 148.949 463.427ZM87.2096 456.973C87.0133 456.973 86.817 456.931 86.6347 456.818L80.7875 453.409C80.2546 453.1 80.0723 452.399 80.3808 451.866C80.6893 451.319 81.3904 451.136 81.9233 451.459L87.7705 454.868C88.3033 455.177 88.4856 455.878 88.1771 456.412C87.9668 456.776 87.5882 456.973 87.2096 456.973ZM137.185 456.72C136.988 456.72 136.806 456.678 136.624 456.566L130.748 453.213C130.201 452.904 130.019 452.217 130.328 451.669C130.636 451.122 131.337 450.94 131.87 451.248L137.745 454.602C138.292 454.91 138.475 455.598 138.166 456.145C137.956 456.51 137.577 456.72 137.185 456.72ZM75.5151 450.14C75.3188 450.14 75.1225 450.098 74.9402 449.986L69.093 446.576C68.5602 446.268 68.3779 445.566 68.6864 445.033C68.9948 444.486 69.6959 444.303 70.2288 444.626L76.076 448.036C76.6089 448.344 76.7911 449.046 76.4827 449.579C76.2723 449.944 75.8937 450.14 75.5151 450.14ZM125.42 450C125.224 450 125.041 449.958 124.859 449.845L118.984 446.492C118.437 446.184 118.255 445.496 118.563 444.949C118.872 444.402 119.573 444.219 120.106 444.528L125.981 447.881C126.528 448.19 126.71 448.877 126.401 449.425C126.191 449.789 125.813 450 125.42 450ZM63.8207 443.307C63.6244 443.307 63.4281 443.265 63.2458 443.153L58.0436 440.122C57.693 439.926 57.4827 439.547 57.4827 439.154C57.4827 438.761 57.693 438.383 58.0295 438.186L58.6745 437.793C59.2074 437.485 59.9085 437.639 60.231 438.186C60.3572 438.411 60.4133 438.649 60.3852 438.888L64.3816 441.217C64.9144 441.525 65.0967 442.227 64.7882 442.76C64.5779 443.125 64.1993 443.321 63.8207 443.321V443.307ZM113.655 443.279C113.459 443.279 113.277 443.237 113.094 443.125L107.219 439.772C106.672 439.463 106.49 438.776 106.799 438.228C107.107 437.681 107.808 437.499 108.341 437.807L114.216 441.161C114.763 441.469 114.945 442.157 114.637 442.704C114.427 443.069 114.048 443.279 113.655 443.279ZM101.891 436.573C101.694 436.573 101.512 436.531 101.33 436.418L95.4546 433.065C94.9078 432.757 94.7255 432.069 95.034 431.522C95.3424 430.975 96.0295 430.792 96.5764 431.101L102.452 434.454C102.999 434.763 103.181 435.45 102.872 435.998C102.662 436.362 102.283 436.573 101.891 436.573ZM64.8162 436.026C64.4797 436.026 64.1572 435.885 63.9328 435.605C63.5402 435.114 63.6244 434.412 64.1151 434.019C64.4376 433.767 64.7461 433.5 65.0546 433.248C66.1904 432.28 67.3683 431.059 68.7424 429.417C69.1351 428.94 69.8502 428.87 70.3269 429.277C70.8037 429.67 70.8738 430.385 70.4672 430.862C69.0089 432.602 67.7609 433.907 66.5129 434.973C66.1764 435.254 65.8539 435.535 65.5173 435.801C65.307 435.969 65.0546 436.054 64.8162 436.054V436.026ZM90.1262 429.852C89.9299 429.852 89.7476 429.81 89.5653 429.698L83.676 426.345C83.1292 426.036 82.9469 425.349 83.2554 424.801C83.5638 424.254 84.2649 424.072 84.7978 424.38L90.6871 427.734C91.234 428.042 91.4162 428.73 91.1078 429.277C90.8974 429.642 90.5188 429.852 90.1262 429.852ZM73.7624 425.896C73.524 425.896 73.2996 425.826 73.0893 425.671C72.5845 425.306 72.4723 424.591 72.8509 424.086L73.524 423.174C74.2672 422.178 74.9542 421.238 75.6834 420.298C76.0199 419.849 76.6509 419.722 77.1417 420.003L78.9225 421.027C79.4694 421.336 79.6517 422.023 79.3432 422.571C79.0347 423.118 78.3476 423.3 77.8007 422.991L76.8753 422.458C76.3705 423.132 75.8797 423.791 75.403 424.437L74.6598 425.433C74.4354 425.741 74.0989 425.896 73.7483 425.896H73.7624Z" fill="#B086CC"/>
<defs>
<linearGradient id="paint0_linear_250_4705" x1="336.046" y1="57.6715" x2="238.964" y2="10.2936" gradientUnits="userSpaceOnUse">
<stop offset="0.04" stop-color="#138BBD"/>
<stop offset="0.23" stop-color="#169AC6"/>
<stop offset="0.59" stop-color="#1EC2DF"/>
<stop offset="1" stop-color="#2AF6FF"/>
</linearGradient>
<linearGradient id="paint1_linear_250_4705" x1="335.612" y1="58.5694" x2="238.529" y2="11.1915" gradientUnits="userSpaceOnUse">
<stop offset="0.04" stop-color="#138BBD"/>
<stop offset="0.23" stop-color="#169AC6"/>
<stop offset="0.59" stop-color="#1EC2DF"/>
<stop offset="1" stop-color="#2AF6FF"/>
</linearGradient>
<linearGradient id="paint2_linear_250_4705" x1="334.995" y1="59.8322" x2="237.912" y2="12.4542" gradientUnits="userSpaceOnUse">
<stop offset="0.04" stop-color="#138BBD"/>
<stop offset="0.23" stop-color="#169AC6"/>
<stop offset="0.59" stop-color="#1EC2DF"/>
<stop offset="1" stop-color="#2AF6FF"/>
</linearGradient>
<linearGradient id="paint3_linear_250_4705" x1="334.63" y1="60.5758" x2="237.547" y2="13.1978" gradientUnits="userSpaceOnUse">
<stop offset="0.04" stop-color="#138BBD"/>
<stop offset="0.23" stop-color="#169AC6"/>
<stop offset="0.59" stop-color="#1EC2DF"/>
<stop offset="1" stop-color="#2AF6FF"/>
</linearGradient>
<linearGradient id="paint4_linear_250_4705" x1="332.625" y1="64.6867" x2="235.542" y2="17.2947" gradientUnits="userSpaceOnUse">
<stop offset="0.04" stop-color="#138BBD"/>
<stop offset="0.23" stop-color="#169AC6"/>
<stop offset="0.59" stop-color="#1EC2DF"/>
<stop offset="1" stop-color="#2AF6FF"/>
</linearGradient>
<linearGradient id="paint5_linear_250_4705" x1="249.235" y1="100.001" x2="423.082" y2="100.001" gradientUnits="userSpaceOnUse">
<stop offset="0.01" stop-color="#9F19AB"/>
<stop offset="0.43" stop-color="#5F27BD"/>
<stop offset="0.9" stop-color="#3D065F"/>
</linearGradient>
<linearGradient id="paint6_linear_250_4705" x1="322.024" y1="176.031" x2="434.918" y2="237.513" gradientUnits="userSpaceOnUse">
<stop offset="0.04" stop-color="#FFA98C"/>
<stop offset="0.32" stop-color="#FEB892"/>
<stop offset="0.86" stop-color="#FEE0A3"/>
<stop offset="1" stop-color="#FEECA8"/>
</linearGradient>
<linearGradient id="paint7_linear_250_4705" x1="321.8" y1="176.452" x2="434.68" y2="237.933" gradientUnits="userSpaceOnUse">
<stop offset="0.04" stop-color="#FFA98C"/>
<stop offset="0.32" stop-color="#FEB892"/>
<stop offset="0.86" stop-color="#FEE0A3"/>
<stop offset="1" stop-color="#FEECA8"/>
</linearGradient>
<linearGradient id="paint8_linear_250_4705" x1="321.562" y1="176.887" x2="434.442" y2="238.368" gradientUnits="userSpaceOnUse">
<stop offset="0.04" stop-color="#FFA98C"/>
<stop offset="0.32" stop-color="#FEB892"/>
<stop offset="0.86" stop-color="#FEE0A3"/>
<stop offset="1" stop-color="#FEECA8"/>
</linearGradient>
<linearGradient id="paint9_linear_250_4705" x1="321.323" y1="177.308" x2="434.217" y2="238.803" gradientUnits="userSpaceOnUse">
<stop offset="0.04" stop-color="#FFA98C"/>
<stop offset="0.32" stop-color="#FEB892"/>
<stop offset="0.86" stop-color="#FEE0A3"/>
<stop offset="1" stop-color="#FEECA8"/>
</linearGradient>
<linearGradient id="paint10_linear_250_4705" x1="321.099" y1="177.742" x2="433.979" y2="239.224" gradientUnits="userSpaceOnUse">
<stop offset="0.04" stop-color="#FFA98C"/>
<stop offset="0.32" stop-color="#FEB892"/>
<stop offset="0.86" stop-color="#FEE0A3"/>
<stop offset="1" stop-color="#FEECA8"/>
</linearGradient>
<linearGradient id="paint11_linear_250_4705" x1="1961.76" y1="1327.54" x2="2140.37" y2="1430.6" gradientUnits="userSpaceOnUse">
<stop offset="0.01" stop-color="#9F19AB"/>
<stop offset="0.43" stop-color="#5F27BD"/>
<stop offset="0.9" stop-color="#3D065F"/>
</linearGradient>
</defs>
</svg>
