<svg width="531" height="556" viewBox="0 0 531 556" fill="none" xmlns="http://www.w3.org/2000/svg">
<g clip-path="url(#clip0_297_6735)">
<g filter="url(#filter0_d_297_6735)">
<path d="M282.855 345.476L164.063 282.489C159.439 280.045 155.698 273.463 155.698 267.812V6.72707C155.698 1.06471 159.439 -1.52448 164.063 0.919524L282.855 63.9072C287.479 66.3512 291.221 72.9331 291.221 78.5833V339.669C291.221 345.331 287.479 347.92 282.855 345.476Z" fill="url(#paint0_linear_297_6735)"/>
<path d="M282.856 63.9071L164.064 0.919418C161.995 -0.181596 160.111 -0.25419 158.649 0.495951L23.0337 72.3522L29.4232 94.07L153.09 417.526L288.178 345.972C288.178 345.972 288.217 345.948 288.244 345.936L288.481 345.803C290.167 344.811 291.234 342.681 291.234 339.669V78.5953C291.234 72.933 287.493 66.3632 282.869 63.9192L282.856 63.9071Z" fill="url(#paint1_linear_297_6735)"/>
<path d="M282.856 63.9071L164.064 0.919418C161.995 -0.181596 160.111 -0.25419 158.649 0.495951L23.0337 72.3522L29.4232 94.07L63.4258 183.01L69.8285 186.41L288.889 70.2591C287.361 67.5126 285.227 65.1775 282.869 63.9192L282.856 63.9071Z" fill="url(#paint2_linear_297_6735)"/>
<path d="M147.332 417.284L28.5404 354.296C23.9163 351.852 20.1748 345.271 20.1748 339.62V78.535C20.1748 72.8726 23.9163 70.2834 28.5404 72.7274L147.332 135.715C151.956 138.159 155.698 144.741 155.698 150.391V411.477C155.698 417.139 151.956 419.728 147.332 417.284Z" fill="url(#paint3_linear_297_6735)"/>
<path d="M139.863 401.567L36.0104 346.505C31.9659 344.363 28.6987 338.616 28.6987 333.668V91.1905C28.6987 86.242 31.9791 83.9674 36.0104 86.1089L139.863 141.172C143.907 143.313 147.174 149.06 147.174 154.009V396.486C147.174 401.434 143.894 403.709 139.863 401.567Z" fill="url(#paint4_linear_297_6735)"/>
<path d="M139.863 401.567L36.0104 346.505C31.9659 344.363 28.6987 338.616 28.6987 333.668V91.1905C28.6987 86.242 31.9791 83.9674 36.0104 86.1089L139.863 141.172C143.907 143.313 147.174 149.06 147.174 154.009V396.486C147.174 401.434 143.894 403.709 139.863 401.567Z" fill="url(#paint5_linear_297_6735)"/>
<path opacity="0.4" d="M139.863 401.567L36.0104 346.505C31.9659 344.363 28.6987 338.616 28.6987 333.668V91.1905C28.6987 86.242 31.9791 83.9674 36.0104 86.1089L139.863 141.172C143.907 143.313 147.174 149.06 147.174 154.009V396.486C147.174 401.434 143.894 403.709 139.863 401.567Z" fill="url(#paint6_linear_297_6735)"/>
<path d="M143.249 399.728L39.3962 344.666C35.3517 342.524 32.0845 336.777 32.0845 331.829V89.3636C32.0845 87.6818 32.4666 86.3146 33.1384 85.3104C30.5299 85.2862 28.6987 87.4882 28.6987 91.1906V333.668C28.6987 338.616 31.9791 344.363 36.0104 346.505L139.863 401.567C142.524 402.983 144.843 402.463 146.121 400.539C145.238 400.539 144.276 400.273 143.249 399.741V399.728Z" fill="url(#paint7_linear_297_6735)"/>
<g opacity="0.7">
<path d="M139.862 290.244L101.262 269.772L39.6987 302.416L147.174 359.402V303.069C147.174 298.121 143.907 292.374 139.862 290.232V290.244Z" fill="#06033E"/>
<path d="M139.862 240.553L101.262 220.082L39.6987 252.725L147.174 309.711V253.378C147.174 248.43 143.907 242.683 139.862 240.541V240.553Z" fill="#06033E"/>
<path d="M139.862 190.862L101.262 170.391L39.6987 203.034L147.174 260.021V203.687C147.174 198.739 143.907 192.992 139.862 190.85V190.862Z" fill="#06033E"/>
<path d="M139.862 141.184L101.262 120.712L39.6987 153.355L147.174 210.342V154.009C147.174 149.06 143.907 143.313 139.862 141.172V141.184Z" fill="#06033E"/>
<path d="M139.862 141.184L54.4143 95.8728L39.6987 103.677L147.174 160.663V154.021C147.174 149.072 143.907 143.325 139.862 141.184Z" fill="#06033E"/>
</g>
<path d="M147.174 160.663L39.6987 103.677V135.074L147.174 192.06V160.663Z" fill="url(#paint8_linear_297_6735)"/>
<path d="M147.174 210.342L39.6987 153.355V184.765L147.174 241.751V210.342Z" fill="url(#paint9_linear_297_6735)"/>
<path d="M147.174 260.033L39.6987 203.046V234.443L147.174 291.43V260.033Z" fill="url(#paint10_linear_297_6735)"/>
<path d="M147.174 309.711L39.6987 252.725V284.134L147.174 341.121V309.711Z" fill="url(#paint11_linear_297_6735)"/>
<path d="M147.174 359.402L39.6987 302.416V333.825L147.174 390.811V359.402Z" fill="url(#paint12_linear_297_6735)"/>
<path d="M137.702 180.869L56.7466 137.941C54.4674 136.732 52.6099 133.477 52.6099 130.682V122.273C52.6099 119.478 54.4674 118.184 56.7466 119.406L137.702 162.333C139.981 163.543 141.839 166.798 141.839 169.593V178.001C141.839 180.796 139.981 182.091 137.702 180.869Z" fill="url(#paint13_linear_297_6735)"/>
<path opacity="0.3" d="M60.8306 136.332C58.5383 135.122 56.6939 131.868 56.6939 129.073V120.664C56.6939 120.216 56.7597 119.817 56.852 119.454L56.7466 119.393C54.4674 118.184 52.6099 119.466 52.6099 122.261V130.67C52.6099 133.465 54.4674 136.719 56.7466 137.929L137.702 180.857C139.626 181.873 141.22 181.111 141.694 179.187L60.8437 136.32L60.8306 136.332Z" fill="#06033E"/>
<path d="M112.289 157.82L63.5707 131.989C62.7671 131.565 62.1084 130.416 62.1084 129.436C62.1084 128.456 62.7539 127.996 63.5707 128.419L112.289 154.251C113.093 154.674 113.751 155.824 113.751 156.804C113.751 157.784 113.106 158.243 112.289 157.82Z" fill="url(#paint14_linear_297_6735)"/>
<path d="M137.702 230.245L56.7466 187.317C54.4674 186.108 52.6099 182.853 52.6099 180.058V171.649C52.6099 168.854 54.4674 167.56 56.7466 168.782L137.702 211.709C139.981 212.919 141.839 216.174 141.839 218.969V227.377C141.839 230.172 139.981 231.467 137.702 230.245Z" fill="url(#paint15_linear_297_6735)"/>
<path opacity="0.3" d="M60.8306 185.721C58.5383 184.511 56.6939 181.256 56.6939 178.461V170.052C56.6939 169.605 56.7597 169.205 56.852 168.842L56.7466 168.782C54.4674 167.572 52.6099 168.854 52.6099 171.649V180.058C52.6099 182.853 54.4674 186.108 56.7466 187.318L137.702 230.245C139.626 231.261 141.22 230.499 141.694 228.575L60.8437 185.708L60.8306 185.721Z" fill="#06033E"/>
<path d="M112.289 207.196L63.5707 181.365C62.7671 180.941 62.1084 179.792 62.1084 178.812C62.1084 177.832 62.7539 177.372 63.5707 177.795L112.289 203.627C113.093 204.05 113.751 205.2 113.751 206.18C113.751 207.16 113.106 207.62 112.289 207.196Z" fill="#F8359E"/>
<path d="M137.702 280.093L56.7466 237.166C54.4674 235.956 52.6099 232.701 52.6099 229.906V221.497C52.6099 218.703 54.4674 217.408 56.7466 218.63L137.702 261.557C139.981 262.767 141.839 266.022 141.839 268.817V277.226C141.839 280.021 139.981 281.315 137.702 280.093Z" fill="url(#paint16_linear_297_6735)"/>
<path opacity="0.3" d="M60.8306 235.556C58.5383 234.346 56.6939 231.092 56.6939 228.297V219.888C56.6939 219.44 56.7597 219.041 56.852 218.678L56.7466 218.618C54.4674 217.408 52.6099 218.69 52.6099 221.485V229.894C52.6099 232.689 54.4674 235.944 56.7466 237.153L137.702 280.081C139.626 281.097 141.22 280.335 141.694 278.411L60.8437 235.544L60.8306 235.556Z" fill="#06033E"/>
<path d="M112.289 257.044L63.5707 231.213C62.7671 230.789 62.1084 229.64 62.1084 228.66C62.1084 227.68 62.7539 227.22 63.5707 227.643L112.289 253.475C113.093 253.898 113.751 255.048 113.751 256.028C113.751 257.008 113.106 257.468 112.289 257.044Z" fill="url(#paint17_linear_297_6735)"/>
<path d="M137.702 330.389L56.7466 287.462C54.4674 286.252 52.6099 282.997 52.6099 280.202V271.793C52.6099 268.999 54.4674 267.704 56.7466 268.926L137.702 311.853C139.981 313.063 141.839 316.318 141.839 319.113V327.522C141.839 330.317 139.981 331.611 137.702 330.389Z" fill="url(#paint18_linear_297_6735)"/>
<path opacity="0.3" d="M60.8306 285.852C58.5383 284.642 56.6939 281.388 56.6939 278.593V270.184C56.6939 269.736 56.7597 269.337 56.852 268.974L56.7466 268.914C54.4674 267.704 52.6099 268.986 52.6099 271.781V280.19C52.6099 282.985 54.4674 286.239 56.7466 287.449L137.702 330.377C139.626 331.393 141.22 330.631 141.694 328.707L60.8437 285.84L60.8306 285.852Z" fill="#06033E"/>
<path d="M112.289 307.34L63.5707 281.509C62.7671 281.085 62.1084 279.936 62.1084 278.956C62.1084 277.976 62.7539 277.516 63.5707 277.94L112.289 303.771C113.093 304.194 113.751 305.344 113.751 306.324C113.751 307.304 113.106 307.764 112.289 307.34Z" fill="url(#paint19_linear_297_6735)"/>
<path d="M137.702 379.693L56.7466 336.765C54.4674 335.555 52.6099 332.301 52.6099 329.506V321.097C52.6099 318.302 54.4674 317.007 56.7466 318.229L137.702 361.157C139.981 362.367 141.839 365.621 141.839 368.416V376.825C141.839 379.62 139.981 380.915 137.702 379.693Z" fill="url(#paint20_linear_297_6735)"/>
<path opacity="0.3" d="M60.8306 335.156C58.5383 333.946 56.6939 330.691 56.6939 327.896V319.487C56.6939 319.04 56.7597 318.641 56.852 318.278L56.7466 318.217C54.4674 317.007 52.6099 318.29 52.6099 321.085V329.493C52.6099 332.288 54.4674 335.543 56.7466 336.753L137.702 379.68C139.626 380.697 141.22 379.934 141.694 378.011L60.8437 335.144L60.8306 335.156Z" fill="#06033E"/>
<path d="M112.289 356.644L63.5707 330.812C62.7671 330.389 62.1084 329.239 62.1084 328.259C62.1084 327.279 62.7539 326.82 63.5707 327.243L112.289 353.075C113.093 353.498 113.751 354.647 113.751 355.627C113.751 356.607 113.106 357.067 112.289 356.644Z" fill="url(#paint21_linear_297_6735)"/>
<path opacity="0.3" d="M39.6987 103.677L48.1566 108.153V139.563L39.6987 135.074V103.677Z" fill="white"/>
<path opacity="0.3" d="M39.6987 153.355L48.1566 157.844V189.253L39.6987 184.765V153.355Z" fill="white"/>
<path opacity="0.3" d="M39.6987 203.046L48.1566 207.535V238.932L39.6987 234.443V203.046Z" fill="white"/>
<path opacity="0.3" d="M39.6987 252.725L48.1566 257.214V288.623L39.6987 284.134V252.725Z" fill="white"/>
<path opacity="0.3" d="M39.6987 302.416L48.1566 306.904V338.301L39.6987 333.825V302.416Z" fill="white"/>
<path d="M121.893 160.917C121.893 161.922 121.129 162.333 120.18 161.825C119.232 161.317 118.468 160.107 118.468 159.102C118.468 158.098 119.232 157.687 120.18 158.195C121.129 158.703 121.893 159.913 121.893 160.917Z" fill="#E8975B"/>
<path d="M129.152 164.777C129.152 165.781 128.388 166.192 127.439 165.684C126.491 165.176 125.727 163.966 125.727 162.962C125.727 161.958 126.491 161.546 127.439 162.055C128.388 162.563 129.152 163.773 129.152 164.777Z" fill="#E8975B"/>
<path d="M136.424 168.624C136.424 169.629 135.66 170.04 134.712 169.532C133.763 169.036 132.999 167.814 132.999 166.809C132.999 165.805 133.763 165.394 134.712 165.902C135.66 166.398 136.424 167.62 136.424 168.624Z" fill="#E8975B"/>
<path d="M121.893 210.584C121.893 211.588 121.129 212 120.18 211.491C119.232 210.983 118.468 209.773 118.468 208.769C118.468 207.765 119.232 207.354 120.18 207.862C121.129 208.358 121.893 209.58 121.893 210.584Z" fill="#E8975B"/>
<path d="M129.152 214.431C129.152 215.436 128.388 215.847 127.439 215.339C126.491 214.831 125.727 213.621 125.727 212.617C125.727 211.612 126.491 211.201 127.439 211.709C128.388 212.217 129.152 213.427 129.152 214.431Z" fill="#E8975B"/>
<path d="M136.424 218.291C136.424 219.295 135.66 219.707 134.712 219.198C133.763 218.702 132.999 217.48 132.999 216.476C132.999 215.472 133.763 215.061 134.712 215.569C135.66 216.077 136.424 217.287 136.424 218.291Z" fill="#E8975B"/>
<path d="M121.893 260.613C121.893 261.618 121.129 262.029 120.18 261.521C119.232 261.013 118.468 259.803 118.468 258.799C118.468 257.794 119.232 257.383 120.18 257.891C121.129 258.387 121.893 259.609 121.893 260.613Z" fill="#E8975B"/>
<path d="M129.152 264.473C129.152 265.477 128.388 265.889 127.439 265.38C126.491 264.872 125.727 263.662 125.727 262.658C125.727 261.654 126.491 261.243 127.439 261.751C128.388 262.259 129.152 263.469 129.152 264.473Z" fill="#E8975B"/>
<path d="M136.424 268.321C136.424 269.325 135.66 269.736 134.712 269.228C133.763 268.732 132.999 267.51 132.999 266.506C132.999 265.502 133.763 265.09 134.712 265.598C135.66 266.107 136.424 267.316 136.424 268.321Z" fill="#E8975B"/>
<path d="M121.893 309.929C121.893 310.933 121.129 311.345 120.18 310.837C119.232 310.328 118.468 309.119 118.468 308.114C118.468 307.11 119.232 306.699 120.18 307.207C121.129 307.715 121.893 308.925 121.893 309.929Z" fill="#E8975B"/>
<path d="M129.152 313.777C129.152 314.781 128.388 315.192 127.439 314.684C126.491 314.176 125.727 312.966 125.727 311.962C125.727 310.958 126.491 310.546 127.439 311.055C128.388 311.563 129.152 312.773 129.152 313.777Z" fill="#E8975B"/>
<path d="M136.424 317.624C136.424 318.628 135.66 319.04 134.712 318.532C133.763 318.036 132.999 316.814 132.999 315.809C132.999 314.805 133.763 314.394 134.712 314.902C135.66 315.41 136.424 316.62 136.424 317.624Z" fill="#E8975B"/>
<path d="M121.893 359.91C121.893 360.915 121.129 361.326 120.18 360.818C119.232 360.31 118.468 359.1 118.468 358.096C118.468 357.091 119.232 356.68 120.18 357.188C121.129 357.696 121.893 358.906 121.893 359.91Z" fill="#E8975B"/>
<path d="M129.152 363.758C129.152 364.762 128.388 365.173 127.439 364.665C126.491 364.157 125.727 362.947 125.727 361.943C125.727 360.939 126.491 360.527 127.439 361.036C128.388 361.544 129.152 362.754 129.152 363.758Z" fill="#E8975B"/>
<path d="M135.9 368.644C136.568 368.29 136.567 367.14 135.897 366.075C135.228 365.01 134.144 364.434 133.476 364.788C132.808 365.142 132.809 366.293 133.479 367.357C134.148 368.422 135.232 368.998 135.9 368.644Z" fill="#E8975B"/>
<path opacity="0.4" d="M173.588 381.991V159.671L275.254 105.77V328.09L173.588 381.991ZM175.591 160.736V378.797L273.251 327.013V108.952L175.591 160.736Z" fill="black"/>
<path opacity="0.4" d="M248.985 205.793L203.626 229.846C200.583 231.467 198.106 229.749 198.106 226.01V202.913C198.106 199.187 200.57 194.843 203.626 193.234L248.985 169.181C252.028 167.56 254.505 169.278 254.505 173.016V196.113C254.505 199.84 252.028 204.183 248.985 205.793Z" fill="black"/>
<path opacity="0.4" d="M250.078 168.733C250.342 169.375 250.486 170.149 250.486 171.044V194.141C250.486 197.868 248.023 202.211 244.966 203.821L199.608 227.873C199.226 228.079 198.857 228.224 198.501 228.321C199.318 230.366 201.294 231.068 203.613 229.834L248.971 205.781C252.015 204.159 254.491 199.828 254.491 196.101V173.004C254.491 169.738 252.594 168.019 250.078 168.721V168.733Z" fill="#06033E"/>
<path d="M240.698 191.879C241.541 191.431 242.213 191.794 242.213 192.689V197.953C242.213 198.848 241.528 199.925 240.698 200.372C239.855 200.82 239.183 200.457 239.183 199.562V194.299C239.183 193.415 239.868 192.327 240.698 191.879Z" fill="#E8975B"/>
<path d="M234.19 195.993C235.033 195.545 235.705 195.908 235.705 196.803V201.413C235.705 202.308 235.02 203.385 234.19 203.833C233.347 204.28 232.675 203.917 232.675 203.022V198.412C232.675 197.529 233.36 196.44 234.19 195.993Z" fill="#F8359E"/>
<path d="M227.682 194.299C228.525 193.851 229.197 194.214 229.197 195.109V204.849C229.197 205.744 228.512 206.821 227.682 207.269C226.839 207.716 226.167 207.353 226.167 206.458V196.718C226.167 195.823 226.852 194.746 227.682 194.299Z" fill="#E8975B"/>
<path d="M221.174 192.145C222.017 191.697 222.689 192.06 222.689 192.956V208.309C222.689 209.205 222.004 210.281 221.174 210.729C220.331 211.177 219.659 210.814 219.659 209.919V194.565C219.659 193.682 220.344 192.593 221.174 192.145Z" fill="#E8975B"/>
<path d="M214.666 197.202C215.509 196.755 216.181 197.118 216.181 198.013V211.758C216.181 212.653 215.496 213.73 214.666 214.177C213.823 214.625 213.151 214.262 213.151 213.367V199.622C213.151 198.739 213.836 197.65 214.666 197.202Z" fill="#F8359E"/>
<path d="M208.158 206.93C209.001 206.482 209.673 206.845 209.673 207.741V215.206C209.673 216.101 208.988 217.178 208.158 217.626C207.314 218.073 206.643 217.71 206.643 216.815V209.35C206.643 208.455 207.328 207.378 208.158 206.93Z" fill="#E8975B"/>
<path d="M239.196 189.229C239.196 190.1 239.868 190.463 240.685 190.016C241.515 189.58 242.174 188.515 242.174 187.644C242.174 186.773 241.502 186.41 240.685 186.858C239.855 187.293 239.196 188.358 239.196 189.229Z" fill="#E8975B"/>
<path d="M239.196 184.281C239.196 185.152 239.868 185.515 240.685 185.067C241.515 184.631 242.174 183.567 242.174 182.696C242.174 181.825 241.502 181.462 240.685 181.909C239.855 182.345 239.196 183.409 239.196 184.281Z" fill="#F8359E"/>
</g>
<g filter="url(#filter1_d_297_6735)">
<path d="M504.881 463.006L386.089 400.019C381.465 397.575 377.724 390.993 377.724 385.343V124.257C377.724 118.595 381.465 115.994 386.089 118.45L504.881 181.437C509.505 183.881 513.247 190.463 513.247 196.113V457.199C513.247 462.861 509.505 465.462 504.881 463.006Z" fill="url(#paint22_linear_297_6735)"/>
<path d="M504.881 181.437L386.089 118.449C384.021 117.348 382.137 117.276 380.674 118.014L245.046 189.87L251.435 211.588L375.102 535.044L510.19 463.49C510.19 463.49 510.23 463.466 510.256 463.454L510.493 463.321C512.179 462.329 513.247 460.199 513.247 457.187V196.101C513.247 190.439 509.505 183.869 504.881 181.425V181.437Z" fill="url(#paint23_linear_297_6735)"/>
<path d="M504.881 181.437L386.089 118.449C384.021 117.348 382.137 117.276 380.674 118.014L245.046 189.87L251.435 211.588L285.438 300.528L291.841 303.928L510.902 187.777C509.373 185.031 507.239 182.695 504.881 181.437Z" fill="url(#paint24_linear_297_6735)"/>
<path d="M369.345 534.802L250.553 471.814C245.928 469.37 242.187 462.789 242.187 457.138V196.053C242.187 190.391 245.928 187.801 250.553 190.245L369.345 253.233C373.969 255.677 377.71 262.259 377.71 267.909V528.995C377.71 534.657 373.969 537.246 369.345 534.802Z" fill="url(#paint25_linear_297_6735)"/>
<path d="M361.875 519.085L258.023 464.023C253.978 461.881 250.711 456.134 250.711 451.186V208.709C250.711 203.76 253.991 201.485 258.023 203.627L361.875 258.69C365.919 260.831 369.187 266.578 369.187 271.527V514.004C369.187 518.952 365.906 521.227 361.875 519.085Z" fill="url(#paint26_linear_297_6735)"/>
<path d="M361.875 519.085L258.023 464.023C253.978 461.881 250.711 456.134 250.711 451.186V208.709C250.711 203.76 253.991 201.485 258.023 203.627L361.875 258.69C365.919 260.831 369.187 266.578 369.187 271.527V514.004C369.187 518.952 365.906 521.227 361.875 519.085Z" fill="url(#paint27_linear_297_6735)"/>
<path opacity="0.4" d="M361.875 519.085L258.023 464.023C253.978 461.881 250.711 456.134 250.711 451.186V208.709C250.711 203.76 253.991 201.485 258.023 203.627L361.875 258.69C365.919 260.831 369.187 266.578 369.187 271.527V514.004C369.187 518.952 365.906 521.227 361.875 519.085Z" fill="url(#paint28_linear_297_6735)"/>
<path d="M365.274 517.259L261.422 462.196C257.377 460.054 254.11 454.307 254.11 449.359V206.882C254.11 205.2 254.492 203.833 255.164 202.829C252.555 202.804 250.724 205.006 250.724 208.709V451.186C250.724 456.134 254.005 461.881 258.036 464.023L361.888 519.086C364.549 520.501 366.868 519.981 368.146 518.057C367.263 518.057 366.288 517.791 365.274 517.259Z" fill="url(#paint29_linear_297_6735)"/>
<g opacity="0.7">
<path d="M361.875 407.762L323.275 387.291L261.711 419.934L369.187 476.92V420.587C369.187 415.639 365.919 409.892 361.875 407.75V407.762Z" fill="#06033E"/>
<path d="M361.875 358.083L323.275 337.612L261.711 370.255L369.187 427.242V370.908C369.187 365.96 365.919 360.213 361.875 358.071V358.083Z" fill="#06033E"/>
<path d="M361.875 308.393L323.275 287.921L261.711 320.564L369.187 377.551V321.218C369.187 316.269 365.919 310.522 361.875 308.381V308.393Z" fill="#06033E"/>
<path d="M361.875 258.714L323.275 238.242L261.711 270.886L369.187 327.872V271.539C369.187 266.59 365.919 260.843 361.875 258.702V258.714Z" fill="#06033E"/>
<path d="M361.875 258.714L276.427 213.403L261.711 221.207L369.187 278.193V271.551C369.187 266.603 365.919 260.856 361.875 258.714Z" fill="#06033E"/>
</g>
<path d="M369.187 278.181L261.711 221.195V252.604L369.187 309.59V278.181Z" fill="url(#paint30_linear_297_6735)"/>
<path d="M369.187 327.872L261.711 270.886V302.295L369.187 359.281V327.872Z" fill="url(#paint31_linear_297_6735)"/>
<path d="M369.187 377.563L261.711 320.576V351.973L369.187 408.96V377.563Z" fill="url(#paint32_linear_297_6735)"/>
<path d="M369.187 427.242L261.711 370.255V401.664L369.187 458.651V427.242Z" fill="url(#paint33_linear_297_6735)"/>
<path d="M369.187 476.932L261.711 419.946V451.343L369.187 508.329V476.932Z" fill="url(#paint34_linear_297_6735)"/>
<path d="M359.714 298.399L278.759 255.472C276.48 254.262 274.622 251.007 274.622 248.212V239.803C274.622 237.008 276.48 235.714 278.759 236.936L359.714 279.863C361.993 281.073 363.851 284.328 363.851 287.123V295.532C363.851 298.326 361.993 299.621 359.714 298.399Z" fill="url(#paint35_linear_297_6735)"/>
<path opacity="0.3" d="M282.856 253.862C280.564 252.652 278.719 249.398 278.719 246.603V238.194C278.719 237.746 278.785 237.347 278.877 236.984L278.772 236.924C276.493 235.714 274.635 236.996 274.635 239.791V248.2C274.635 250.995 276.493 254.249 278.772 255.459L359.728 298.387C361.651 299.403 363.245 298.641 363.719 296.717L282.869 253.85L282.856 253.862Z" fill="#06033E"/>
<path d="M334.314 275.35L285.596 249.519C284.793 249.095 284.134 247.946 284.134 246.966C284.134 245.986 284.779 245.526 285.596 245.949L334.314 271.781C335.118 272.204 335.777 273.354 335.777 274.334C335.777 275.314 335.131 275.774 334.314 275.35Z" fill="url(#paint36_linear_297_6735)"/>
<path d="M359.714 347.775L278.759 304.848C276.48 303.638 274.622 300.383 274.622 297.588V289.179C274.622 286.384 276.48 285.09 278.759 286.312L359.714 329.239C361.993 330.449 363.851 333.704 363.851 336.499V344.907C363.851 347.702 361.993 348.997 359.714 347.775Z" fill="url(#paint37_linear_297_6735)"/>
<path opacity="0.3" d="M282.856 303.25C280.564 302.041 278.719 298.786 278.719 295.991V287.582C278.719 287.135 278.785 286.735 278.877 286.372L278.772 286.312C276.493 285.102 274.635 286.384 274.635 289.179V297.588C274.635 300.383 276.493 303.638 278.772 304.848L359.728 347.775C361.651 348.791 363.245 348.029 363.719 346.105L282.869 303.238L282.856 303.25Z" fill="#06033E"/>
<path d="M334.314 324.726L285.596 298.895C284.793 298.471 284.134 297.322 284.134 296.342C284.134 295.362 284.779 294.902 285.596 295.326L334.314 321.157C335.118 321.58 335.777 322.73 335.777 323.71C335.777 324.69 335.131 325.15 334.314 324.726Z" fill="#F8359E"/>
<path d="M359.714 397.623L278.759 354.696C276.48 353.486 274.622 350.231 274.622 347.436V339.028C274.622 336.233 276.48 334.938 278.759 336.16L359.714 379.088C361.993 380.297 363.851 383.552 363.851 386.347V394.756C363.851 397.551 361.993 398.845 359.714 397.623Z" fill="url(#paint38_linear_297_6735)"/>
<path opacity="0.3" d="M282.856 353.086C280.564 351.877 278.719 348.622 278.719 345.827V337.418C278.719 336.971 278.785 336.571 278.877 336.208L278.772 336.148C276.493 334.938 274.635 336.22 274.635 339.015V347.424C274.635 350.219 276.493 353.474 278.772 354.684L359.728 397.611C361.651 398.627 363.245 397.865 363.719 395.941L282.869 353.074L282.856 353.086Z" fill="#06033E"/>
<path d="M334.314 374.562L285.596 348.731C284.793 348.307 284.134 347.158 284.134 346.178C284.134 345.198 284.779 344.738 285.596 345.162L334.314 370.993C335.118 371.417 335.777 372.566 335.777 373.546C335.777 374.526 335.131 374.986 334.314 374.562Z" fill="url(#paint39_linear_297_6735)"/>
<path d="M359.714 447.919L278.759 404.992C276.48 403.782 274.622 400.527 274.622 397.732V389.323C274.622 386.529 276.48 385.234 278.759 386.456L359.714 429.383C361.993 430.593 363.851 433.848 363.851 436.643V445.052C363.851 447.847 361.993 449.141 359.714 447.919Z" fill="url(#paint40_linear_297_6735)"/>
<path opacity="0.3" d="M282.856 403.382C280.564 402.172 278.719 398.918 278.719 396.123V387.714C278.719 387.266 278.785 386.867 278.877 386.504L278.772 386.444C276.493 385.234 274.635 386.516 274.635 389.311V397.72C274.635 400.515 276.493 403.77 278.772 404.979L359.728 447.907C361.651 448.923 363.245 448.161 363.719 446.237L282.869 403.37L282.856 403.382Z" fill="#06033E"/>
<path d="M334.314 424.87L285.596 399.039C284.793 398.615 284.134 397.466 284.134 396.486C284.134 395.506 284.779 395.046 285.596 395.47L334.314 421.301C335.118 421.725 335.777 422.874 335.777 423.854C335.777 424.834 335.131 425.294 334.314 424.87Z" fill="url(#paint41_linear_297_6735)"/>
<path d="M359.714 497.223L278.759 454.295C276.48 453.085 274.622 449.831 274.622 447.036V438.627C274.622 435.832 276.48 434.537 278.759 435.759L359.714 478.687C361.993 479.897 363.851 483.151 363.851 485.946V494.355C363.851 497.15 361.993 498.445 359.714 497.223Z" fill="url(#paint42_linear_297_6735)"/>
<path opacity="0.3" d="M282.856 452.686C280.564 451.476 278.719 448.221 278.719 445.426V437.018C278.719 436.57 278.785 436.171 278.877 435.808L278.772 435.747C276.493 434.537 274.635 435.82 274.635 438.615V447.024C274.635 449.818 276.493 453.073 278.772 454.283L359.728 497.21C361.651 498.227 363.245 497.464 363.719 495.541L282.869 452.674L282.856 452.686Z" fill="#06033E"/>
<path d="M334.314 474.174L285.596 448.342C284.793 447.919 284.134 446.77 284.134 445.789C284.134 444.809 284.779 444.35 285.596 444.773L334.314 470.605C335.118 471.028 335.777 472.177 335.777 473.158C335.777 474.138 335.131 474.597 334.314 474.174Z" fill="url(#paint43_linear_297_6735)"/>
<path opacity="0.3" d="M261.711 221.195L270.182 225.684V257.093L261.711 252.604V221.195Z" fill="white"/>
<path opacity="0.3" d="M261.711 270.886L270.182 275.374V306.771L261.711 302.295V270.886Z" fill="white"/>
<path opacity="0.3" d="M261.711 320.576L270.182 325.053V356.462L261.711 351.973V320.576Z" fill="white"/>
<path opacity="0.3" d="M261.711 370.255L270.182 374.744V406.153L261.711 401.664V370.255Z" fill="white"/>
<path opacity="0.3" d="M261.711 419.946L270.182 424.435V455.832L261.711 451.343V419.946Z" fill="white"/>
<path d="M343.905 278.447C343.905 279.452 343.141 279.863 342.193 279.355C341.244 278.859 340.48 277.637 340.48 276.633C340.48 275.628 341.244 275.217 342.193 275.725C343.141 276.233 343.905 277.443 343.905 278.447Z" fill="#E8975B"/>
<path d="M350.65 283.342C351.317 282.987 351.316 281.837 350.647 280.772C349.978 279.708 348.893 279.131 348.225 279.486C347.558 279.84 347.559 280.99 348.228 282.055C348.898 283.12 349.982 283.696 350.65 283.342Z" fill="#E8975B"/>
<path d="M358.437 286.155C358.437 287.159 357.672 287.57 356.724 287.062C355.775 286.566 355.011 285.344 355.011 284.34C355.011 283.336 355.775 282.924 356.724 283.432C357.672 283.928 358.437 285.15 358.437 286.155Z" fill="#E8975B"/>
<path d="M343.905 328.114C343.905 329.118 343.141 329.53 342.193 329.022C341.244 328.525 340.48 327.303 340.48 326.299C340.48 325.295 341.244 324.884 342.193 325.392C343.141 325.9 343.905 327.11 343.905 328.114Z" fill="#E8975B"/>
<path d="M350.656 333.009C351.324 332.654 351.323 331.504 350.653 330.439C349.984 329.375 348.9 328.799 348.232 329.153C347.564 329.507 347.565 330.657 348.234 331.722C348.904 332.787 349.988 333.363 350.656 333.009Z" fill="#E8975B"/>
<path d="M358.437 335.809C358.437 336.813 357.672 337.225 356.724 336.717C355.775 336.22 355.011 334.998 355.011 333.994C355.011 332.99 355.775 332.579 356.724 333.087C357.672 333.583 358.437 334.805 358.437 335.809Z" fill="#E8975B"/>
<path d="M343.388 379.192C344.056 378.838 344.055 377.688 343.385 376.623C342.716 375.558 341.632 374.982 340.964 375.336C340.296 375.69 340.297 376.841 340.966 377.905C341.636 378.97 342.72 379.546 343.388 379.192Z" fill="#E8975B"/>
<path d="M350.65 383.05C351.317 382.696 351.316 381.546 350.647 380.481C349.978 379.416 348.893 378.84 348.225 379.195C347.558 379.549 347.559 380.699 348.228 381.764C348.898 382.829 349.982 383.405 350.65 383.05Z" fill="#E8975B"/>
<path d="M358.437 385.851C358.437 386.855 357.672 387.266 356.724 386.758C355.775 386.262 355.011 385.04 355.011 384.036C355.011 383.032 355.775 382.62 356.724 383.128C357.672 383.625 358.437 384.847 358.437 385.851Z" fill="#E8975B"/>
<path d="M343.905 427.447C343.905 428.452 343.141 428.863 342.193 428.355C341.244 427.859 340.48 426.637 340.48 425.632C340.48 424.628 341.244 424.217 342.193 424.725C343.141 425.233 343.905 426.443 343.905 427.447Z" fill="#E8975B"/>
<path d="M350.65 432.365C351.317 432.011 351.316 430.861 350.647 429.796C349.978 428.731 348.893 428.155 348.225 428.509C347.558 428.863 347.559 430.014 348.228 431.078C348.898 432.143 349.982 432.719 350.65 432.365Z" fill="#E8975B"/>
<path d="M358.437 435.154C358.437 436.159 357.672 436.57 356.724 436.062C355.775 435.566 355.011 434.344 355.011 433.339C355.011 432.335 355.775 431.924 356.724 432.432C357.672 432.928 358.437 434.15 358.437 435.154Z" fill="#E8975B"/>
<path d="M343.388 478.484C344.056 478.13 344.055 476.98 343.385 475.915C342.716 474.85 341.632 474.274 340.964 474.628C340.296 474.982 340.297 476.133 340.966 477.198C341.636 478.262 342.72 478.838 343.388 478.484Z" fill="#E8975B"/>
<path d="M351.177 481.288C351.177 482.292 350.413 482.704 349.465 482.196C348.516 481.7 347.752 480.478 347.752 479.473C347.752 478.469 348.516 478.058 349.465 478.566C350.413 479.074 351.177 480.284 351.177 481.288Z" fill="#E8975B"/>
<path d="M358.437 485.136C358.437 486.14 357.672 486.551 356.724 486.043C355.775 485.547 355.011 484.325 355.011 483.321C355.011 482.316 355.775 481.905 356.724 482.413C357.672 482.909 358.437 484.131 358.437 485.136Z" fill="#E8975B"/>
<path opacity="0.4" d="M395.614 499.521V277.201L497.28 223.3V445.62L395.614 499.521ZM397.617 278.266V496.327L495.277 444.543V226.482L397.617 278.266Z" fill="black"/>
<path opacity="0.4" d="M470.997 323.323L425.638 347.376C422.595 348.997 420.118 347.279 420.118 343.54V320.443C420.118 316.717 422.595 312.373 425.638 310.764L470.997 286.711C474.04 285.09 476.517 286.808 476.517 290.547V313.644C476.517 317.37 474.053 321.714 470.997 323.323Z" fill="black"/>
<path opacity="0.4" d="M472.103 286.263C472.367 286.905 472.512 287.679 472.512 288.574V311.671C472.512 315.398 470.048 319.742 466.992 321.351L421.633 345.404C421.251 345.609 420.882 345.754 420.526 345.851C421.343 347.896 423.319 348.598 425.638 347.364L470.997 323.311C474.04 321.689 476.517 317.358 476.517 313.631V290.534C476.517 287.268 474.62 285.55 472.103 286.251V286.263Z" fill="#06033E"/>
<path d="M462.71 309.409C463.553 308.961 464.225 309.324 464.225 310.22V315.483C464.225 316.378 463.54 317.455 462.71 317.902C461.88 318.35 461.195 317.987 461.195 317.092V311.829C461.195 310.946 461.88 309.857 462.71 309.409Z" fill="#E8975B"/>
<path d="M456.202 313.523C457.045 313.075 457.717 313.438 457.717 314.333V318.943C457.717 319.838 457.032 320.915 456.202 321.363C455.359 321.81 454.687 321.447 454.687 320.552V315.942C454.687 315.059 455.372 313.97 456.202 313.523Z" fill="#F8359E"/>
<path d="M449.694 311.829C450.537 311.381 451.209 311.744 451.209 312.639V322.379C451.209 323.274 450.524 324.351 449.694 324.799C448.851 325.247 448.179 324.884 448.179 323.988V314.249C448.179 313.353 448.864 312.276 449.694 311.829Z" fill="#E8975B"/>
<path d="M443.186 309.675C444.029 309.227 444.701 309.59 444.701 310.486V325.839C444.701 326.735 444.016 327.812 443.186 328.259C442.343 328.707 441.671 328.344 441.671 327.449V312.095C441.671 311.212 442.356 310.123 443.186 309.675Z" fill="#E8975B"/>
<path d="M436.678 314.733C437.521 314.285 438.193 314.648 438.193 315.543V329.288C438.193 330.183 437.508 331.26 436.678 331.708C435.835 332.155 435.163 331.792 435.163 330.897V317.152C435.163 316.269 435.848 315.18 436.678 314.733Z" fill="#F8359E"/>
<path d="M430.17 324.46C431.013 324.013 431.685 324.375 431.685 325.271V332.736C431.685 333.631 431 334.708 430.17 335.156C429.34 335.603 428.655 335.24 428.655 334.345V326.88C428.655 325.985 429.34 324.908 430.17 324.46Z" fill="#E8975B"/>
<path d="M461.221 306.747C461.221 307.618 461.893 307.981 462.71 307.534C463.527 307.086 464.199 306.033 464.199 305.162C464.199 304.291 463.527 303.928 462.71 304.376C461.88 304.811 461.221 305.876 461.221 306.747Z" fill="#E8975B"/>
<path d="M461.221 301.811C461.221 302.682 461.893 303.045 462.71 302.597C463.54 302.162 464.199 301.097 464.199 300.226C464.199 299.355 463.527 298.992 462.71 299.439C461.88 299.875 461.221 300.94 461.221 301.811Z" fill="#F8359E"/>
</g>
<g style="mix-blend-mode:screen" opacity="0.6">
<path d="M60.8484 440.836L79.3373 430.157L69.9595 424.762L51.4863 435.442L60.8484 440.836Z" fill="#490772"/>
</g>
<g style="mix-blend-mode:screen" opacity="0.7">
<path d="M97.3555 440.538L86.5821 434.344L68.0933 445.008L78.8667 451.218L97.3555 440.538Z" fill="#490772"/>
</g>
<g style="mix-blend-mode:screen" opacity="0.8">
<path d="M115.374 450.935L103.189 443.91L84.7163 454.589L96.9011 461.599L115.374 450.935Z" fill="#490772"/>
</g>
<g style="mix-blend-mode:screen">
<path d="M192.89 495.268L141.673 466.335L123.2 477.014L174.417 505.932L158.719 514.996L232 526.679L211.755 484.369L192.89 495.268Z" fill="#490772"/>
</g>
<g style="mix-blend-mode:screen" opacity="0.5">
<path d="M61.3032 419.776L56.4889 417L38 427.664L42.83 430.455L61.3032 419.776Z" fill="#490772"/>
</g>
<g style="mix-blend-mode:screen" opacity="0.9">
<path d="M133.393 461.317L119.812 453.476L101.323 464.155L114.919 471.98L133.393 461.317Z" fill="#490772"/>
</g>
</g>
<defs>
<filter id="filter0_d_297_6735" x="17.1748" y="-1.00079" width="277.06" height="424.205" filterUnits="userSpaceOnUse" color-interpolation-filters="sRGB">
<feFlood flood-opacity="0" result="BackgroundImageFix"/>
<feColorMatrix in="SourceAlpha" type="matrix" values="0 0 0 0 0 0 0 0 0 0 0 0 0 0 0 0 0 0 127 0" result="hardAlpha"/>
<feOffset dy="2"/>
<feGaussianBlur stdDeviation="1.5"/>
<feComposite in2="hardAlpha" operator="out"/>
<feColorMatrix type="matrix" values="0 0 0 0 0 0 0 0 0 0 0 0 0 0 0 0 0 0 0.5 0"/>
<feBlend mode="normal" in2="BackgroundImageFix" result="effect1_dropShadow_297_6735"/>
<feBlend mode="normal" in="SourceGraphic" in2="effect1_dropShadow_297_6735" result="shape"/>
</filter>
<filter id="filter1_d_297_6735" x="239.187" y="116.524" width="277.06" height="424.198" filterUnits="userSpaceOnUse" color-interpolation-filters="sRGB">
<feFlood flood-opacity="0" result="BackgroundImageFix"/>
<feColorMatrix in="SourceAlpha" type="matrix" values="0 0 0 0 0 0 0 0 0 0 0 0 0 0 0 0 0 0 127 0" result="hardAlpha"/>
<feOffset dy="2"/>
<feGaussianBlur stdDeviation="1.5"/>
<feComposite in2="hardAlpha" operator="out"/>
<feColorMatrix type="matrix" values="0 0 0 0 0 0 0 0 0 0 0 0 0 0 0 0 0 0 0.5 0"/>
<feBlend mode="normal" in2="BackgroundImageFix" result="effect1_dropShadow_297_6735"/>
<feBlend mode="normal" in="SourceGraphic" in2="effect1_dropShadow_297_6735" result="shape"/>
</filter>
<linearGradient id="paint0_linear_297_6735" x1="-725.01" y1="-188.925" x2="-608.477" y2="-408.703" gradientUnits="userSpaceOnUse">
<stop stop-color="#2D0979"/>
<stop offset="1" stop-color="#5B04F7"/>
</linearGradient>
<linearGradient id="paint1_linear_297_6735" x1="233.988" y1="370.981" x2="157" y2="137.5" gradientUnits="userSpaceOnUse">
<stop stop-color="#3E0762"/>
<stop offset="1" stop-color="#60169C"/>
</linearGradient>
<linearGradient id="paint2_linear_297_6735" x1="70" y1="48" x2="206.5" y2="110.5" gradientUnits="userSpaceOnUse">
<stop stop-color="#791FC1"/>
<stop offset="1" stop-color="#490872"/>
</linearGradient>
<linearGradient id="paint3_linear_297_6735" x1="25.5" y1="76" x2="152.5" y2="413.5" gradientUnits="userSpaceOnUse">
<stop stop-color="#4B17A0"/>
<stop offset="1" stop-color="#32044F"/>
</linearGradient>
<linearGradient id="paint4_linear_297_6735" x1="-933.518" y1="-280.064" x2="-804.943" y2="-236.64" gradientUnits="userSpaceOnUse">
<stop stop-color="#3919BB"/>
<stop offset="1" stop-color="#6507FA"/>
</linearGradient>
<linearGradient id="paint5_linear_297_6735" x1="-933.518" y1="-280.064" x2="-804.943" y2="-236.64" gradientUnits="userSpaceOnUse">
<stop stop-color="#3919BB"/>
<stop offset="1" stop-color="#6507FA"/>
</linearGradient>
<linearGradient id="paint6_linear_297_6735" x1="146.988" y1="396.482" x2="44.4702" y2="93.4763" gradientUnits="userSpaceOnUse">
<stop/>
<stop offset="1"/>
</linearGradient>
<linearGradient id="paint7_linear_297_6735" x1="153.475" y1="402.482" x2="42.7121" y2="93.9606" gradientUnits="userSpaceOnUse">
<stop stop-color="#07062E"/>
<stop offset="1" stop-color="#2E1260"/>
</linearGradient>
<linearGradient id="paint8_linear_297_6735" x1="152.175" y1="195.674" x2="113.143" y2="12.6199" gradientUnits="userSpaceOnUse">
<stop offset="0.03" stop-color="#7C1DC9"/>
<stop offset="0.21" stop-color="#6E41D1"/>
<stop offset="0.62" stop-color="#2232C0"/>
<stop offset="1" stop-color="#2AF6FF"/>
</linearGradient>
<linearGradient id="paint9_linear_297_6735" x1="152.175" y1="245.365" x2="113.132" y2="62.2883" gradientUnits="userSpaceOnUse">
<stop offset="0.03" stop-color="#7C1DC9"/>
<stop offset="0.21" stop-color="#6E41D1"/>
<stop offset="0.62" stop-color="#2232C0"/>
<stop offset="1" stop-color="#2AF6FF"/>
</linearGradient>
<linearGradient id="paint10_linear_297_6735" x1="152.175" y1="295.044" x2="113.143" y2="111.989" gradientUnits="userSpaceOnUse">
<stop offset="0.03" stop-color="#7C1DC9"/>
<stop offset="0.21" stop-color="#6E41D1"/>
<stop offset="0.62" stop-color="#2232C0"/>
<stop offset="1" stop-color="#2AF6FF"/>
</linearGradient>
<linearGradient id="paint11_linear_297_6735" x1="152.175" y1="344.735" x2="113.132" y2="161.658" gradientUnits="userSpaceOnUse">
<stop offset="0.03" stop-color="#7C1DC9"/>
<stop offset="0.21" stop-color="#6E41D1"/>
<stop offset="0.62" stop-color="#2232C0"/>
<stop offset="1" stop-color="#2AF6FF"/>
</linearGradient>
<linearGradient id="paint12_linear_297_6735" x1="152.175" y1="394.426" x2="113.132" y2="211.349" gradientUnits="userSpaceOnUse">
<stop offset="0.03" stop-color="#7C1DC9"/>
<stop offset="0.21" stop-color="#6E41D1"/>
<stop offset="0.62" stop-color="#2232C0"/>
<stop offset="1" stop-color="#2AF6FF"/>
</linearGradient>
<linearGradient id="paint13_linear_297_6735" x1="170.717" y1="149.847" x2="-82.9388" y2="151.009" gradientUnits="userSpaceOnUse">
<stop stop-color="#07062E"/>
<stop offset="0.521123" stop-color="#4911AD"/>
</linearGradient>
<linearGradient id="paint14_linear_297_6735" x1="62.1216" y1="143.12" x2="113.751" y2="143.12" gradientUnits="userSpaceOnUse">
<stop stop-color="#E39A65"/>
<stop offset="1" stop-color="#E95F8D"/>
</linearGradient>
<linearGradient id="paint15_linear_297_6735" x1="170.717" y1="199.223" x2="-82.9388" y2="200.385" gradientUnits="userSpaceOnUse">
<stop stop-color="#07062E"/>
<stop offset="0.521123" stop-color="#4911AD"/>
</linearGradient>
<linearGradient id="paint16_linear_297_6735" x1="170.717" y1="249.071" x2="-82.9388" y2="250.233" gradientUnits="userSpaceOnUse">
<stop stop-color="#07062E"/>
<stop offset="0.521123" stop-color="#4911AD"/>
</linearGradient>
<linearGradient id="paint17_linear_297_6735" x1="4.73469" y1="242.344" x2="6.05211" y2="242.344" gradientUnits="userSpaceOnUse">
<stop stop-color="#E39A65"/>
<stop offset="1" stop-color="#E95F8D"/>
</linearGradient>
<linearGradient id="paint18_linear_297_6735" x1="170.717" y1="299.367" x2="-82.9388" y2="300.529" gradientUnits="userSpaceOnUse">
<stop stop-color="#07062E"/>
<stop offset="0.521123" stop-color="#4911AD"/>
</linearGradient>
<linearGradient id="paint19_linear_297_6735" x1="4.73469" y1="292.64" x2="6.05211" y2="292.64" gradientUnits="userSpaceOnUse">
<stop stop-color="#E39A65"/>
<stop offset="1" stop-color="#E95F8D"/>
</linearGradient>
<linearGradient id="paint20_linear_297_6735" x1="170.717" y1="348.671" x2="-82.9388" y2="349.833" gradientUnits="userSpaceOnUse">
<stop stop-color="#07062E"/>
<stop offset="0.521123" stop-color="#4911AD"/>
</linearGradient>
<linearGradient id="paint21_linear_297_6735" x1="4.73469" y1="341.943" x2="6.05211" y2="341.943" gradientUnits="userSpaceOnUse">
<stop stop-color="#E39A65"/>
<stop offset="1" stop-color="#E95F8D"/>
</linearGradient>
<linearGradient id="paint22_linear_297_6735" x1="-502.893" y1="-71.348" x2="-386.36" y2="-291.126" gradientUnits="userSpaceOnUse">
<stop stop-color="#2D0979"/>
<stop offset="1" stop-color="#5B04F7"/>
</linearGradient>
<linearGradient id="paint23_linear_297_6735" x1="513" y1="457.5" x2="384.5" y2="261" gradientUnits="userSpaceOnUse">
<stop stop-color="#3E0762"/>
<stop offset="0.874438" stop-color="#60169C"/>
</linearGradient>
<linearGradient id="paint24_linear_297_6735" x1="272" y1="181.5" x2="432.5" y2="227.5" gradientUnits="userSpaceOnUse">
<stop stop-color="#6F1CB3"/>
<stop offset="1" stop-color="#490872"/>
</linearGradient>
<linearGradient id="paint25_linear_297_6735" x1="247.512" y1="193.518" x2="374.512" y2="531.018" gradientUnits="userSpaceOnUse">
<stop stop-color="#4B17A0"/>
<stop offset="1" stop-color="#32044F"/>
</linearGradient>
<linearGradient id="paint26_linear_297_6735" x1="-711.403" y1="-162.487" x2="-582.827" y2="-119.063" gradientUnits="userSpaceOnUse">
<stop stop-color="#3919BB"/>
<stop offset="1" stop-color="#6507FA"/>
</linearGradient>
<linearGradient id="paint27_linear_297_6735" x1="-711.403" y1="-162.487" x2="-582.827" y2="-119.063" gradientUnits="userSpaceOnUse">
<stop stop-color="#3919BB"/>
<stop offset="1" stop-color="#6507FA"/>
</linearGradient>
<linearGradient id="paint28_linear_297_6735" x1="369" y1="514" x2="266.482" y2="210.994" gradientUnits="userSpaceOnUse">
<stop/>
<stop offset="1"/>
</linearGradient>
<linearGradient id="paint29_linear_297_6735" x1="375.5" y1="520" x2="264.738" y2="211.479" gradientUnits="userSpaceOnUse">
<stop stop-color="#07062E"/>
<stop offset="1" stop-color="#2E1260"/>
</linearGradient>
<linearGradient id="paint30_linear_297_6735" x1="374.187" y1="313.205" x2="335.145" y2="130.128" gradientUnits="userSpaceOnUse">
<stop offset="0.03" stop-color="#7C1DC9"/>
<stop offset="0.21" stop-color="#6E41D1"/>
<stop offset="0.62" stop-color="#2232C0"/>
<stop offset="1" stop-color="#2AF6FF"/>
</linearGradient>
<linearGradient id="paint31_linear_297_6735" x1="374.187" y1="362.896" x2="335.145" y2="179.818" gradientUnits="userSpaceOnUse">
<stop offset="0.03" stop-color="#7C1DC9"/>
<stop offset="0.21" stop-color="#6E41D1"/>
<stop offset="0.62" stop-color="#2232C0"/>
<stop offset="1" stop-color="#2AF6FF"/>
</linearGradient>
<linearGradient id="paint32_linear_297_6735" x1="374.187" y1="412.574" x2="335.155" y2="229.52" gradientUnits="userSpaceOnUse">
<stop offset="0.03" stop-color="#7C1DC9"/>
<stop offset="0.21" stop-color="#6E41D1"/>
<stop offset="0.62" stop-color="#2232C0"/>
<stop offset="1" stop-color="#2AF6FF"/>
</linearGradient>
<linearGradient id="paint33_linear_297_6735" x1="374.187" y1="462.265" x2="335.145" y2="279.188" gradientUnits="userSpaceOnUse">
<stop offset="0.03" stop-color="#7C1DC9"/>
<stop offset="0.21" stop-color="#6E41D1"/>
<stop offset="0.62" stop-color="#2232C0"/>
<stop offset="1" stop-color="#2AF6FF"/>
</linearGradient>
<linearGradient id="paint34_linear_297_6735" x1="374.187" y1="511.943" x2="335.155" y2="328.889" gradientUnits="userSpaceOnUse">
<stop offset="0.03" stop-color="#7C1DC9"/>
<stop offset="0.21" stop-color="#6E41D1"/>
<stop offset="0.62" stop-color="#2232C0"/>
<stop offset="1" stop-color="#2AF6FF"/>
</linearGradient>
<linearGradient id="paint35_linear_297_6735" x1="392.729" y1="267.377" x2="139.073" y2="268.539" gradientUnits="userSpaceOnUse">
<stop stop-color="#07062E"/>
<stop offset="0.521123" stop-color="#4911AD"/>
</linearGradient>
<linearGradient id="paint36_linear_297_6735" x1="284.134" y1="260.65" x2="335.764" y2="260.65" gradientUnits="userSpaceOnUse">
<stop stop-color="#E39A65"/>
<stop offset="1" stop-color="#E95F8D"/>
</linearGradient>
<linearGradient id="paint37_linear_297_6735" x1="392.729" y1="316.753" x2="139.073" y2="317.915" gradientUnits="userSpaceOnUse">
<stop stop-color="#07062E"/>
<stop offset="0.521123" stop-color="#4911AD"/>
</linearGradient>
<linearGradient id="paint38_linear_297_6735" x1="392.729" y1="366.601" x2="139.073" y2="367.763" gradientUnits="userSpaceOnUse">
<stop stop-color="#07062E"/>
<stop offset="0.521123" stop-color="#4911AD"/>
</linearGradient>
<linearGradient id="paint39_linear_297_6735" x1="284.134" y1="359.874" x2="335.764" y2="359.874" gradientUnits="userSpaceOnUse">
<stop stop-color="#E39A65"/>
<stop offset="1" stop-color="#E95F8D"/>
</linearGradient>
<linearGradient id="paint40_linear_297_6735" x1="392.729" y1="416.897" x2="139.073" y2="418.059" gradientUnits="userSpaceOnUse">
<stop stop-color="#07062E"/>
<stop offset="0.521123" stop-color="#4911AD"/>
</linearGradient>
<linearGradient id="paint41_linear_297_6735" x1="284.134" y1="410.17" x2="335.764" y2="410.17" gradientUnits="userSpaceOnUse">
<stop stop-color="#E39A65"/>
<stop offset="1" stop-color="#E95F8D"/>
</linearGradient>
<linearGradient id="paint42_linear_297_6735" x1="392.729" y1="466.201" x2="139.073" y2="467.363" gradientUnits="userSpaceOnUse">
<stop stop-color="#07062E"/>
<stop offset="0.521123" stop-color="#4911AD"/>
</linearGradient>
<linearGradient id="paint43_linear_297_6735" x1="284.134" y1="459.473" x2="335.764" y2="459.473" gradientUnits="userSpaceOnUse">
<stop stop-color="#E39A65"/>
<stop offset="1" stop-color="#E95F8D"/>
</linearGradient>
<clipPath id="clip0_297_6735">
<rect width="531" height="556" fill="white"/>
</clipPath>
</defs>
</svg>
