<?xml version="1.0" encoding="UTF-8"?>
<svg id="_Слой_2" data-name="Слой 2" xmlns="http://www.w3.org/2000/svg" viewBox="0 0 822.94 1054.72">
  <defs>
    <style>
      .cls-1 {
        fill: #fff;
        stroke-width: 0px;
      }
    </style>
  </defs>
  <g id="_Слой_1-2" data-name="Слой 1">
    <path class="cls-1" d="M815.64,0c-10.89,11.17-23.02,25.2-34.91,42.32-11.92,17.16-20.83,33.47-27.51,47.61-9.11,16.92-18.63,37.8-26.45,62.42-5.46,17.19-9.14,33.24-11.64,47.61-4.06,18.69-7.55,39.96-9.52,63.47-2.6,31.01-1.98,58.86,0,82.52.68,20.34,2.54,43.09,6.35,67.71,4.36,28.19,10.44,53.36,16.93,75.11,7.18,25.94,14.01,46.78,19.04,61.36,6.49,18.77,11.82,32.39,19.04,56.07,4.32,14.16,7.48,25.93,9.52,33.85,6.34,21.51,12.42,44.45,17.98,68.76,5.57,24.34,10.09,47.67,13.75,69.82,2.76,22.24,5.25,45.17,7.41,68.76,2.22,24.26,3.96,47.91,5.29,70.88,2.28,23.63,3.07,51.91,0,83.57-1.88,19.41-4.93,37.12-8.46,52.89-270.82,0-541.64,0-812.46,0V0h815.64Z"/>
  </g>
</svg>