<?xml version="1.0" encoding="UTF-8"?>
<svg id="_Слой_2" data-name="Слой 2" xmlns="http://www.w3.org/2000/svg" xmlns:xlink="http://www.w3.org/1999/xlink" viewBox="0 0 390.31 369.02">
  <defs>
    <style>
      .cls-1 {
        fill: url(#linear-gradient);
      }

      .cls-1, .cls-2, .cls-3 {
        stroke-width: 0px;
      }

      .cls-4 {
        filter: url(#drop-shadow-1);
      }

      .cls-2 {
        fill: url(#linear-gradient-2);
      }

      .cls-3 {
        fill: url(#linear-gradient-3);
      }
    </style>
    <filter id="drop-shadow-1" filterUnits="userSpaceOnUse">
      <feOffset dx="7" dy="7"/>
      <feGaussianBlur result="blur" stdDeviation="7"/>
      <feFlood flood-color="#6a90aa" flood-opacity=".75"/>
      <feComposite in2="blur" operator="in"/>
      <feComposite in="SourceGraphic"/>
    </filter>
    <linearGradient id="linear-gradient" x1="36.22" y1="30.65" x2="390.31" y2="30.65" gradientUnits="userSpaceOnUse">
      <stop offset="0" stop-color="#b569ff"/>
      <stop offset=".14" stop-color="#b971ff"/>
      <stop offset=".69" stop-color="#c78eff"/>
      <stop offset="1" stop-color="#cd99ff"/>
    </linearGradient>
    <linearGradient id="linear-gradient-2" x1="36.22" y1="21.31" x2="264.4" y2="21.31" gradientUnits="userSpaceOnUse">
      <stop offset="0" stop-color="#b569ff"/>
      <stop offset=".42" stop-color="#ca90ff"/>
      <stop offset=".79" stop-color="#daadff"/>
      <stop offset="1" stop-color="#e0b8ff"/>
    </linearGradient>
    <linearGradient id="linear-gradient-3" x1="0" y1="208.91" x2="327.04" y2="208.91" xlink:href="#linear-gradient"/>
  </defs>
  <g id="OBJECTS">
    <g class="cls-4">
      <g>
        <path class="cls-1" d="M338.77,13.43c16.76-7.27,34.03-11.24,51.54-13.43H36.22c23.49,11.48,44.15,31.58,66.55,43.43,76,41,162,3,236-30Z"/>
        <path class="cls-2" d="M264.4,0H36.22c22.68,11.08,42.72,30.17,64.22,42.15,55,4.08,112.06-19.17,163.96-42.15Z"/>
        <path class="cls-3" d="M323.66,316.72c6.11-12.73,5.45-32.21-14.74-47.26-29-23-27.14-43.02-19.14-79.02,7-33-4.5-64.5-41-79-22.61-8.98-47-3-71-1-32,2-66,17-95-2-16-10-14.75-29.5-32-46-15.55-13.48-33.19-14.36-50.77-13.33v319.93h189.27c6.55-6.29,14.38-11.08,23.5-13.59,41-11,90.75,3.22,110.89-38.72Z"/>
      </g>
    </g>
  </g>
</svg>